<svg width="278" height="190" viewBox="0 0 278 190" fill="none" xmlns="http://www.w3.org/2000/svg">
<path d="M147.692 84.6074H148.656V105.393H148.075V85.317H148.018L139.225 105.393H138.586L129.807 85.317H129.75V105.393H129.169V84.6074H130.117L138.884 104.654H138.941L147.692 84.6074Z" fill="white"/>
<path d="M162.55 96.6197H162.493C162.324 96.8627 162.044 97.0651 161.658 97.2252C161.251 97.3755 160.775 97.4777 160.226 97.5337C159.149 97.6455 157.983 97.7361 156.726 97.8017C156.139 97.8209 155.588 97.8884 155.068 98.0003C154.521 98.1333 154.023 98.3377 153.581 98.6134C153.137 98.8602 152.802 99.2401 152.576 99.7549C152.302 100.239 152.165 100.891 152.165 101.706C152.165 102.115 152.25 102.533 152.419 102.959C152.562 103.368 152.806 103.738 153.157 104.072C153.789 104.793 154.908 105.165 156.514 105.184C158.469 105.165 159.97 104.562 161.019 103.374C162.04 102.225 162.55 100.889 162.55 99.3692V96.6197ZM152.548 95.0502C152.623 93.5925 153.133 92.399 154.075 91.4716C154.997 90.5635 156.377 90.0988 158.213 90.0795C159.58 90.0602 160.728 90.3591 161.662 90.9761C162.566 91.622 163.056 92.75 163.131 94.3619V103.898C163.149 104.421 163.373 104.72 163.799 104.795C163.98 104.834 164.182 104.851 164.41 104.851C164.628 104.832 164.831 104.824 165.021 104.824V105.391C164.755 105.391 164.486 105.381 164.21 105.362C163.916 105.362 163.647 105.323 163.401 105.248C162.852 105.088 162.568 104.652 162.548 103.945V101.99H162.491C162.179 102.983 161.513 103.846 160.494 104.585C159.427 105.343 158.118 105.73 156.569 105.748C155.066 105.748 153.866 105.397 152.97 104.699C152.064 104.018 151.6 103.019 151.582 101.704C151.582 100.777 151.739 100.021 152.05 99.4329C152.344 98.8756 152.74 98.4399 153.24 98.1275C153.74 97.8152 154.293 97.5934 154.898 97.4604C155.493 97.3273 156.101 97.2521 156.726 97.2329C157.765 97.1654 158.653 97.1056 159.389 97.0478C160.127 96.9918 160.726 96.8954 161.19 96.7624C161.652 96.6197 162.003 96.3961 162.239 96.0914C162.447 95.7771 162.55 95.3491 162.55 94.8053C162.55 94.3098 162.522 93.8297 162.465 93.3631C162.372 92.8772 162.177 92.4299 161.886 92.0211C161.612 91.5931 161.19 91.2595 160.615 91.0204C160.012 90.7736 159.213 90.6502 158.215 90.6502C155.072 90.6888 153.379 92.1599 153.133 95.0637L152.548 95.0502Z" fill="white"/>
<path d="M176.362 90.4226H177.054L171.609 97.6435L177.578 105.393H176.858L171.242 98.085L165.64 105.393H164.918L170.887 97.6435L165.471 90.4226H166.221L171.242 97.2154L176.362 90.4226Z" fill="white"/>
<path d="M60.4366 96.2649V95.6768H69.4197V105.53H68.8149V100.295H68.7534C67.635 103.854 64.3392 106 60.1332 106C53.4485 106 50 101.058 50 95C50 88.8531 53.7816 84 60.1332 84C64.9738 84 68.3905 86.7649 69.0886 91.0589H68.4838C67.7262 87.1467 64.6109 84.5881 60.1332 84.5881C54.1128 84.5881 50.6048 89.2947 50.6048 95C50.6048 100.707 53.8411 105.412 60.2245 105.412C65.0035 105.412 68.8149 101.999 68.8149 97.3523V96.2629H60.4366V96.2649Z" fill="white"/>
<path d="M87.6592 90.3822H88.264V94.1189H88.3235C88.8986 91.7936 90.8638 90.0312 93.9196 90.0312C97.1559 90.0312 99.4562 91.9729 99.4562 95.4724V105.503H98.8514V95.5592C98.8514 92.0596 96.5531 90.6174 93.9196 90.6174C90.1995 90.6174 88.262 93.5887 88.262 96.9417V105.501H87.6572V90.3822H87.6592Z" fill="white"/>
<path d="M104.446 90.9704V102.558C104.446 104.824 105.594 104.911 106.534 104.911C107.139 104.911 107.682 104.882 107.865 104.822V105.41C107.502 105.439 107.319 105.497 106.383 105.497C104.962 105.497 103.841 104.82 103.841 102.672V90.9704H100.968V90.3823H103.841V85.6179H104.446V90.3823H107.954V90.9704H104.446Z" fill="white"/>
<path d="M110.676 84.4995H110.071V105.501H110.676V84.4995Z" fill="white"/>
<path d="M78.4941 90.6174C82.5177 90.6174 84.6653 93.7641 84.6355 97.47H72.2317C72.4439 93.2358 75.1369 90.6174 78.4941 90.6174ZM78.5199 105.26C78.5199 105.26 78.4227 105.265 78.3732 105.265C73.957 105.265 72.2932 102.119 72.2317 98.058H85.2404C85.4228 93.9106 83.2752 90.0293 78.4346 90.0293C74.9267 90.0293 71.6289 92.9119 71.6289 97.9424C71.6289 102.443 73.6258 105.913 78.4346 105.853C78.4644 105.853 78.5219 105.85 78.5219 105.85V105.26H78.5199Z" fill="white"/>
<path d="M119.963 90.6174C123.986 90.6174 126.134 93.7641 126.104 97.47H113.7C113.915 93.2358 116.606 90.6174 119.963 90.6174ZM119.991 105.26C119.991 105.26 119.893 105.265 119.844 105.265C115.428 105.265 113.764 102.119 113.702 98.058H126.711C126.892 93.9106 124.746 90.0293 119.905 90.0293C116.397 90.0293 113.1 92.9119 113.1 97.9424C113.1 102.443 115.097 105.913 119.905 105.853C119.935 105.853 119.993 105.85 119.993 105.85V105.26H119.991Z" fill="white"/>
<path d="M186.792 95.3568H194.583C196.255 95.3568 197.619 94.9094 198.676 94.0167C199.743 93.1433 200.286 91.8977 200.304 90.28C200.304 86.9135 198.397 85.2129 194.581 85.1743H186.79V95.3568H186.792ZM186.792 105.393H186.209V84.6074H194.581C198.728 84.6267 200.83 86.5182 200.885 90.28C200.867 92.1098 200.259 93.5058 199.059 94.4737C197.841 95.4397 196.253 95.9236 194.3 95.9236H186.792V105.393V105.393Z" fill="white"/>
<path d="M204.003 105.393H203.42V90.4226H204.003V94.1111H204.062C204.326 92.9754 204.937 92.0113 205.891 91.217C206.815 90.4226 208.157 90.0447 209.914 90.0813V90.6482C207.882 90.6096 206.392 91.2131 205.449 92.4587C204.485 93.7216 204.003 95.2082 204.003 96.9184V105.393Z" fill="white"/>
<path d="M210.962 97.9153C210.962 99.882 211.495 101.563 212.562 102.959C213.581 104.403 215.094 105.144 217.105 105.182C219.116 105.144 220.643 104.403 221.692 102.959C222.721 101.563 223.235 99.882 223.235 97.9153C223.235 95.9679 222.721 94.2827 221.692 92.8578C220.645 91.4233 219.116 90.6887 217.105 90.6501C215.094 90.6887 213.581 91.4233 212.562 92.8578C211.495 94.2808 210.962 95.9679 210.962 97.9153ZM210.381 97.9153C210.381 95.7924 210.962 93.9684 212.124 92.4413C213.266 90.9065 214.93 90.1199 217.111 90.0813C219.302 90.1199 220.97 90.9065 222.114 92.4413C223.249 93.9684 223.814 95.7924 223.814 97.9153C223.814 100.009 223.249 101.824 222.114 103.36C220.97 104.905 219.295 105.701 217.083 105.749C214.92 105.701 213.266 104.907 212.124 103.36C210.962 101.824 210.381 100.009 210.381 97.9153Z" fill="white"/>
<path d="M226.356 90.9162H226.614C226.832 90.9162 227.032 90.9046 227.032 90.6616C227.032 90.4573 226.85 90.4245 226.683 90.4245H226.358V90.9162H226.356ZM226.11 90.2317H226.723C227.1 90.2317 227.276 90.3763 227.276 90.6732C227.276 90.9528 227.096 91.0685 226.86 91.0935L227.314 91.7742H227.048L226.618 91.1109H226.356V91.7742H226.11V90.2317V90.2317ZM226.64 92.129C227.266 92.129 227.754 91.6411 227.754 90.9971C227.754 90.3666 227.268 89.8788 226.64 89.8788C226.005 89.8788 225.519 90.3647 225.519 90.9971C225.517 91.6411 226.005 92.129 226.64 92.129ZM226.64 89.6841C227.379 89.6841 228 90.251 228 90.9971C228 91.7549 227.379 92.3237 226.64 92.3237C225.896 92.3237 225.271 91.7568 225.271 90.9971C225.271 90.2529 225.896 89.6841 226.64 89.6841Z" fill="white"/>
</svg>
