<svg width="277" height="190" viewBox="0 0 277 190" fill="none" xmlns="http://www.w3.org/2000/svg">
<path d="M111.055 91.5453C111.055 86.9292 115.282 85.2163 120.008 85.2163C124.734 85.2163 128.902 86.9292 128.902 91.5453V114.742C128.902 119.387 124.675 121.071 120.008 121.071C115.341 121.071 111.055 119.358 111.055 114.742V91.5453ZM121.358 92.4453C121.358 91.4872 121.358 90.1517 120.008 90.1517C118.657 90.1517 118.657 91.4872 118.657 92.4453V113.639C118.657 114.597 118.657 115.932 120.008 115.932C121.358 115.932 121.358 114.597 121.358 113.639V92.4453ZM131.778 120.403V85.884H140.702C145.369 85.884 149.654 87.5969 149.654 93.055V95.784C149.831 98.7453 147.541 101.271 144.547 101.445C144.283 101.445 144.048 101.445 143.784 101.445C148.568 101.707 149.654 103.332 149.654 107.31V114.161C149.625 116.281 150.007 118.371 150.77 120.316H143.05C142.287 118.952 141.935 117.384 142.023 115.845V107.919C142.023 105.771 142.023 104.058 139.351 104.058V120.316L131.778 120.403ZM139.234 100.139H140.144C141.377 100.139 141.905 99.6163 141.905 97.9614V92.8517C141.905 91.1969 141.377 90.6743 140.144 90.6743H139.234V100.139ZM152.238 91.5453C152.238 86.9292 156.464 85.2163 161.19 85.2163C165.887 85.2163 170.084 86.9292 170.084 91.5453V114.742C170.084 119.387 165.857 121.071 161.19 121.071C156.523 121.071 152.238 119.358 152.238 114.742V91.5453ZM162.599 92.4453C162.599 91.4872 162.599 90.1517 161.249 90.1517C159.899 90.1517 159.899 91.4872 159.899 92.4453V113.639C159.899 114.597 159.899 115.932 161.249 115.932C162.599 115.932 162.599 114.597 162.599 113.639V92.4453ZM172.873 120.403V85.884H182.912L186.346 107.861L186.375 108.674H186.493V85.855H192.54V120.374H183.176L179.037 94.013L179.008 93.055H178.949V120.374H172.873V120.403ZM208.654 91.5453C208.654 86.9292 212.881 85.2163 217.607 85.2163C222.304 85.2163 226.501 86.9292 226.501 91.5453V114.742C226.501 119.387 222.274 121.071 217.607 121.071C212.94 121.071 208.654 119.358 208.654 114.742V91.5453ZM218.928 92.4453C218.928 91.4872 218.928 90.1517 217.578 90.1517C216.228 90.1517 216.228 91.4872 216.228 92.4453V113.639C216.228 114.597 216.228 115.932 217.578 115.932C218.928 115.932 218.928 114.597 218.928 113.639V92.4453ZM207.392 85.884H194.007V91.0808H196.913V120.403H204.516V91.0808H207.422C207.392 91.0808 207.392 85.884 207.392 85.884ZM114.02 77.4356H95.0281V82.9808H100.635V120.403H108.384V82.9808H114.02C114.02 82.9808 114.02 77.4356 114.02 77.4356ZM94.441 121.652V121.449C89.4216 119.3 83.9913 118.371 78.5609 118.69H50.3818V120.578H88.3943C90.449 120.723 92.4744 121.129 94.441 121.797V121.652ZM83.2281 69.5969L82.1127 68.5517C81.7898 68.4066 81.4082 68.4066 81.056 68.5517L79.3535 69.4808V77.6679C78.0619 79.7582 76.1833 81.4711 73.9525 82.5743C73.4535 82.7776 73.1306 83.3292 73.1893 83.8517V114.394C72.0739 114.394 70.254 114.655 70.254 114.655V88.8163C70.254 87.8582 69.8137 87.5679 68.9037 87.3356C65.5281 86.5517 62.2112 85.4485 59.0704 84.055V78.7421L57.6321 78.0163C57.2211 77.8711 56.8102 77.8711 56.3992 78.0163C55.7828 78.3066 55.1958 78.655 54.6381 79.0324C52.1137 80.455 50.5286 83.0388 50.4112 85.913V117.5H53.2585V85.913C53.2291 83.9679 54.2565 82.1388 55.9589 81.1808H56.1644V117.5H58.9823V87.0743C61.2132 87.8872 62.5928 88.4679 65.0291 89.2227L67.348 89.8324V115.119C64.6182 115.613 61.947 116.426 59.4226 117.558H64.853C69.1386 115.671 73.8057 114.684 78.5022 114.684L75.8898 114.481V84.6646H76.1833C77.3575 83.9679 78.4142 83.0969 79.3241 82.1098V117.471H82.2594V72.8485C84.0206 75.1421 84.9893 77.9582 85.048 80.8324V117.79C85.9286 117.79 87.0147 117.994 87.8953 118.255V80.7743C87.8072 76.5937 86.1341 72.6163 83.2281 69.5969Z" fill="white"/>
</svg>
