<svg width="277" height="190" viewBox="0 0 277 190" fill="none" xmlns="http://www.w3.org/2000/svg">
<path d="M88.8569 78.5525C89.5047 79.4759 89.4398 80.6621 89.7619 81.7145L89.2439 82.1777C81.535 82.3727 74.665 82.7705 66.9543 83.3621C67.3431 84.8777 69.4175 85.9985 68.8323 87.9107C65.0751 95.7515 61.9647 103.922 58.6601 112.03C58.1432 112.49 57.4287 112.224 56.9756 111.829C56.0033 110.708 53.6061 109.985 54.3832 108.139C57.8187 99.9017 61.2531 91.7309 65.4008 83.8259C61.059 83.9573 56.9756 84.5501 52.5689 84.8783L52.376 84.7493L53.9312 81.1895C65.3359 79.4759 76.8669 78.4211 88.8569 78.5525Z" fill="white"/>
<path d="M80.0429 87.5149C80.303 88.3711 80.2381 89.5585 79.785 90.3487C79.1372 91.2721 78.1649 91.9963 77.0628 92.0623C75.8326 92.2585 74.6656 91.6657 74.1482 90.4819C73.7582 89.4931 73.5003 88.0429 74.0833 86.9881C74.4703 86.1319 75.4432 85.6687 76.2857 85.4065C77.8398 85.3405 79.395 85.9333 80.0429 87.5149Z" fill="white"/>
<path d="M73.1102 93.2471C73.9533 94.4339 76.0253 95.4215 75.6383 97.0691C73.8223 100.628 72.0086 104.119 70.7779 107.873C72.85 106.822 74.7952 104.78 76.6106 102.998C79.4597 100.034 82.1171 97.0043 84.6447 93.9083C85.9397 94.2359 87.1067 95.4215 87.8849 96.3461C86.4601 99.3101 84.8405 102.275 83.5431 105.307L93.7165 95.1581C94.8823 95.8841 96.6978 97.0043 96.7621 98.4533C95.0776 100.823 93.7826 103.396 92.7448 105.967L102.851 96.8051C104.148 96.6731 105.183 98.3207 106.026 99.3773C104.213 102.605 101.491 105.502 101.687 109.459C102.009 110.314 102.916 110.314 103.501 110.248C103.047 111.167 102.139 111.963 101.166 112.16C99.9363 112.49 98.8991 111.964 97.9261 111.37C95.4021 108.007 98.7693 104.713 100.132 101.748C96.5019 104.119 93.3265 107.94 90.4125 111.106C89.1151 110.513 88.0785 109.392 86.9769 108.602L87.0418 107.548C88.4018 105.242 89.6343 102.869 91.0591 100.628L90.6691 100.694C87.364 103.788 83.9325 107.018 81.1442 110.644C79.7193 110.907 78.6827 109.722 77.5829 109.061L77.3871 108.668C78.4868 105.967 79.9152 103.396 80.9501 100.759C77.3228 104.186 73.8872 108.139 69.805 110.445C68.2497 110.644 67.4727 108.929 66.3045 108.075L66.0479 107.548C67.7972 102.605 69.4822 97.5311 72.5266 93.1799L73.1102 93.2471Z" fill="white"/>
<path d="M181.97 100.364C179.896 102.605 177.888 105.11 178.86 108.271C179.183 109.195 180.089 109.852 181.064 109.786C184.172 109.327 185.599 105.766 186.244 103.197C185.401 103.329 184.69 103.065 183.979 102.802C183.004 102.342 182.359 101.221 181.97 100.364ZM143.479 98.8459C141.538 100.364 140.045 102.342 139.594 104.584C139.398 105.767 139.594 106.887 140.37 107.745C140.888 108.339 141.665 108.535 142.508 108.471C145.621 107.874 147.432 104.385 147.953 101.55L146.655 101.486C145.23 101.616 143.935 99.9691 143.479 98.8459ZM122.812 96.6097C125.144 98.0557 126.373 100.628 127.345 102.802C128.253 100.561 129.161 98.1895 129.873 95.9485C127.54 96.1471 125.013 96.1471 122.812 96.6097ZM127.863 80.0677L121.773 94.3681C124.687 94.4995 127.801 94.1689 130.845 94.0375C133.112 89.0953 135.12 84.0211 137.842 79.2115C139.202 78.1591 140.174 80.2663 141.213 80.9245L141.405 81.4537C139.397 85.5391 137.39 89.6239 135.639 93.8383C140.563 94.4335 147.952 91.9957 150.349 97.4635C150.542 97.8613 150.283 98.3851 150.542 98.7157C153.912 96.8725 156.57 93.3781 158.579 90.3481C160.003 90.7417 158.836 92.0617 159.292 93.1795C159.356 93.9709 160.003 94.6951 160.651 95.0263C161.232 95.2249 162.142 94.8943 162.335 95.6173C161.169 98.5867 159.226 101.221 158.059 104.118C157.478 105.57 156.439 107.082 157.086 108.735C157.607 109.458 158.579 109.195 159.227 108.928C164.864 104.644 166.485 98.0545 169.466 92.3233C169.529 92.1943 169.333 92.1283 169.333 92.0611L165.512 92.2573C165.25 91.5331 165.964 90.9403 166.484 90.4807L170.371 90.0829C171.664 87.6451 172.573 85.0747 174.064 82.6369C175.427 83.1001 176.785 84.6151 177.174 85.9981C176.849 87.3175 175.879 88.4359 175.617 89.6233C179.961 89.4913 184.497 88.9621 189.031 89.1607C189.484 89.8195 189.55 90.6097 189.679 91.3363C184.497 91.5325 179.571 91.6645 174.451 91.8631C171.861 97.1347 169.399 102.537 167.392 108.074C167.26 108.735 167.392 109.525 168.169 109.721C170.566 109.525 172.506 107.547 173.996 105.569C175.426 101.416 177.823 96.0145 182.747 94.8937C184.755 94.5655 186.502 95.2915 187.863 96.7369C188.902 97.9897 189.483 99.3763 189.357 101.088C192.205 100.231 194.473 97.9255 196.806 95.8153C198.168 96.0811 198.881 97.6615 199.721 98.5861L199.463 99.7687C198.295 101.68 197.324 103.787 196.418 105.832C199.722 102.996 203.287 99.5719 206.527 96.6079C207.759 97.0681 208.731 98.5189 208.731 99.7687C207.045 102.537 205.684 105.435 205.1 108.667C205.1 109.458 204.841 110.313 205.618 110.842L206.4 110.643C210.803 105.174 213.784 98.9791 219.096 94.0363C220.005 95.2243 221.168 96.8047 220.914 98.3851C217.217 102.672 224.215 107.082 219.614 111.105C217.995 112.753 215.531 112.753 213.459 112.092C212.682 111.764 211.775 111.433 211.321 110.644C211.712 109.587 212.164 108.405 213.07 107.679C213.266 108.929 213.332 110.445 214.691 111.106C215.531 111.434 216.44 110.974 216.831 110.182C217.865 107.349 214.886 105.701 215.468 102.737C215.597 101.485 216.118 100.232 216.374 99.1117C212.877 102.998 210.478 107.349 207.562 111.499C206.59 112.491 205.295 112.816 203.997 112.622C202.898 112.491 201.925 111.829 201.473 110.843C200.501 108.075 201.148 104.713 202.768 102.275L202.25 102.407C199.203 105.374 196.093 108.47 193.307 111.499C192.012 111.303 190.976 109.986 190.197 108.93C191.299 105.767 192.919 102.869 194.603 99.9691C192.856 100.891 190.977 101.88 189.031 102.606C187.93 106.758 184.883 111.499 180.414 112.555C178.667 113.018 176.46 112.555 175.165 110.908C174.389 110.053 174.194 108.93 173.741 107.941C171.278 110.379 168.233 112.623 164.798 111.236C163.31 110.314 163.178 108.535 163.31 106.954C161.365 109.656 158.643 111.499 155.339 111.303C154.108 111.168 152.746 110.776 152.229 109.459C151.386 104.646 154.626 100.759 157.153 97.0045C156.96 96.4753 156.83 95.9485 156.571 95.4889C154.563 97.2661 152.618 99.4429 150.284 100.561C149.639 105.307 146.593 110.908 141.539 112.031C139.788 112.093 138.234 111.765 136.936 110.709C134.864 108.93 134.475 105.968 135.187 103.329C136.03 100.365 138.168 97.5961 140.763 95.6851L140.565 95.4889L134.8 95.6185C132.337 100.959 129.875 106.294 127.995 111.83C127.803 112.293 127.282 112.293 126.96 112.161C123.59 111.237 126.245 107.812 125.211 105.571C124.69 102.607 123.265 99.6397 120.416 98.0569L120.155 98.1913C118.212 102.739 116.334 107.415 114.26 111.831H113.742C112.508 110.646 109.984 109.393 110.889 107.284L115.362 96.8743C114.779 96.4765 113.225 96.9409 113.481 95.6191C114.26 94.5679 116.074 95.4895 116.528 94.2373L123.849 77.2369C124.239 76.8403 124.756 76.8403 125.147 77.2369C126.05 78.1591 127.41 78.7519 127.863 80.0677Z" fill="white"/>
<path fill-rule="evenodd" clip-rule="evenodd" d="M222.385 110.843C222.385 110.027 223.037 109.363 223.846 109.363C224.647 109.363 225.303 110.026 225.303 110.843C225.303 111.664 224.648 112.328 223.846 112.328C223.037 112.328 222.385 111.664 222.385 110.843ZM222.07 110.843C222.07 111.839 222.865 112.648 223.846 112.648C224.82 112.648 225.618 111.839 225.618 110.843C225.618 109.852 224.82 109.043 223.846 109.043C222.864 109.043 222.07 109.852 222.07 110.843ZM223.535 110.122H223.804C224.033 110.117 224.286 110.133 224.286 110.41C224.286 110.686 224.033 110.698 223.804 110.698H223.535V110.122ZM223.162 111.863H223.535V111.019H223.804L224.308 111.863H224.701L224.171 110.99C224.45 110.956 224.658 110.783 224.658 110.425C224.658 110.027 224.429 109.802 223.942 109.802H223.162V111.863H223.162Z" fill="white"/>
</svg>
