<svg width="278" height="190" viewBox="0 0 278 190" fill="none" xmlns="http://www.w3.org/2000/svg">
<g clip-path="url(#clip0)">
<path d="M59.2508 104.108V103.775C59.9443 103.415 60.5124 102.918 60.9552 102.28C61.3979 101.642 61.633 100.911 61.6605 100.077C61.7153 97.2793 61.7427 93.0846 61.7427 87.489C61.7427 85.3564 61.7153 83.1808 61.6605 80.966C61.6056 78.7512 61.5233 76.603 61.4097 74.5252C61.3548 73.5274 61.1668 72.6508 60.8494 71.8878C60.532 71.1248 59.9169 70.44 59 69.8296V69.54C60.8298 69.7043 62.3148 69.7904 63.4511 69.7904C64.1172 69.7904 65.0732 69.7356 66.3231 69.6261C66.9892 69.5987 67.5025 69.5713 67.863 69.5439V69.8335C67.0872 70.2209 66.5308 70.8509 66.1977 71.7235C65.8647 72.5961 65.657 73.586 65.5748 74.6934C65.5473 75.2765 65.5199 75.8712 65.4925 76.4817C65.465 77.0921 65.4494 77.9491 65.4494 79.0564C65.4219 80.3595 65.4063 83.1299 65.4063 87.3677C65.4063 91.2455 65.516 95.4011 65.7393 99.8306C65.7942 100.746 66.0253 101.541 66.425 102.218C66.8286 102.898 67.4281 103.415 68.2352 103.775V104.108C66.4328 103.971 64.8656 103.9 63.5334 103.9C62.2051 103.9 60.7749 103.967 59.2508 104.108ZM97.5434 101.263C97.4729 101.552 97.371 101.74 97.2299 101.822C96.8969 101.991 96.3131 102.198 95.4824 102.445C94.7889 102.668 94.2913 102.832 93.9857 102.941C92.5712 103.497 91.1097 103.896 89.5973 104.147C88.0848 104.397 86.4 104.522 84.5428 104.522C82.184 104.522 79.9389 104.072 77.8035 103.172C75.668 102.272 73.7951 101.012 72.1887 99.3924C70.5783 97.7724 69.3245 95.8941 68.4233 93.7615C67.5221 91.6289 67.0715 89.3711 67.0715 86.9881C67.0715 84.5777 67.5064 82.2808 68.3802 80.0895C69.2539 77.9021 70.4999 75.9769 72.126 74.3139C73.7481 72.6508 75.6837 71.3517 77.9289 70.4087C80.174 69.4696 82.615 69 85.252 69C86.2511 69 87.3678 69.0783 88.602 69.227C89.8363 69.3796 91.1058 69.5791 92.4105 69.8296C92.6887 69.8843 93.1158 70.0252 93.6996 70.2443C94.448 70.5769 95.0318 70.7413 95.4472 70.7413C95.8351 70.7413 96.223 70.7139 96.6109 70.6591C96.8342 70.6317 96.9713 70.6161 97.0262 70.6161C97.1359 70.6161 97.1908 70.7139 97.1908 70.9056C97.1908 70.9604 97.1908 71.1013 97.1908 71.3204C97.1633 71.6804 97.1477 72.0013 97.1477 72.2752C97.1477 72.69 97.1751 73.3004 97.2299 74.1026C97.2574 74.8226 97.273 75.3234 97.273 75.5973C97.273 75.8478 97.2456 76.1295 97.1908 76.4504C97.1359 76.7673 97.0654 76.9278 96.9831 76.9278C96.8734 76.9278 96.6226 76.6382 96.2347 76.0552C95.7058 75.2804 95.1729 74.5956 94.6322 73.9969C94.0915 73.4021 93.4332 72.9091 92.6574 72.5217C90.6591 71.5356 88.4688 71.0348 86.0826 71.0348C83.8649 71.0348 81.8471 71.4026 80.029 72.1343C78.211 72.87 76.6672 73.9069 75.3899 75.2491C74.1125 76.5912 73.1369 78.1799 72.4551 80.0073C71.7734 81.8347 71.4364 83.8029 71.4364 85.9081C71.4364 88.0133 71.7812 90.0716 72.4747 92.0789C73.1682 94.0863 74.1399 95.8824 75.3859 97.4593C76.6358 99.0363 78.0895 100.277 79.7547 101.177C81.42 102.077 83.1793 102.527 85.0365 102.527C85.9808 102.527 87.0896 102.347 88.363 101.987C89.6404 101.627 91.094 101.141 92.7318 100.531C93.1746 100.367 93.4606 100.061 93.586 99.6154C93.7114 99.1732 93.7858 98.5784 93.8133 97.8271V97.7841C93.8133 97.4789 93.7976 97.0367 93.7702 96.4537C93.7427 94.5989 93.6996 93.2841 93.6448 92.5055C93.5625 91.2024 93.3823 90.2555 93.1041 89.6607C92.8259 89.0659 92.2029 88.4477 91.2312 87.8138V87.5242C93.061 87.6885 94.546 87.7746 95.6822 87.7746C96.2073 87.7746 96.9713 87.7198 97.9705 87.6103C98.6366 87.5555 99.189 87.5125 99.6357 87.4851L99.5926 87.7746C98.8991 88.1346 98.4485 88.6668 98.2408 89.375C98.0332 90.0794 97.9 91.0029 97.8451 92.1376L97.802 92.6776C97.7197 93.9807 97.6688 95.135 97.657 96.1485C97.6413 97.158 97.6374 98.5941 97.6374 100.449C97.6492 100.699 97.6139 100.969 97.5434 101.263ZM108.84 69.9548C109.921 69.9274 110.697 69.9117 111.171 69.9117C111.892 69.9117 112.695 70.0487 113.585 70.3265C114.47 70.6043 115.324 71.0465 116.143 71.6569C116.962 72.2674 117.632 73.0617 118.161 74.0478C118.686 75.0299 118.952 76.1882 118.952 77.5186C118.925 79.209 118.474 80.7116 117.601 82.0264C116.727 83.3412 115.61 84.429 114.251 85.286C115.387 85.5638 116.449 85.8964 117.432 86.2838C118.416 86.6712 119.242 87.129 119.909 87.6533C121.017 88.5142 121.848 89.5433 122.404 90.7485C122.961 91.9537 123.235 93.2489 123.235 94.6341C123.235 96.0467 122.831 97.5219 122.028 99.0597C121.225 100.598 120.116 101.811 118.702 102.695C117.812 103.251 116.774 103.611 115.583 103.775C114.392 103.943 113.016 104.025 111.465 104.025C110.689 104.025 109.106 103.998 106.724 103.943C105.059 103.916 104.005 103.9 103.562 103.9C102.813 103.9 101.983 103.92 101.066 103.963C100.149 104.006 99.3732 104.053 98.7345 104.108V103.732C99.4006 103.399 100.031 102.761 100.627 101.822C101.223 100.879 101.536 99.9793 101.563 99.1224C101.673 97.1854 101.736 95.4167 101.752 93.8241C101.763 92.2315 101.771 90.1185 101.771 87.489C101.771 85.3564 101.744 83.1808 101.689 80.966C101.634 78.7512 101.552 76.603 101.438 74.5252C101.383 73.5274 101.179 72.6821 100.835 71.9895C100.486 71.2969 99.8277 70.6865 98.8599 70.1622V69.7865C99.6631 69.8687 100.466 69.9313 101.274 69.9743C102.077 70.0174 102.813 70.0369 103.479 70.0369C104.663 70.0369 106.453 70.0096 108.84 69.9548ZM106.759 101.49C107.59 101.987 109.239 102.237 111.708 102.237C112.817 102.237 113.863 102.085 114.85 101.779C115.834 101.474 116.633 101.059 117.244 100.531C117.965 99.9206 118.463 99.1967 118.741 98.3515C119.019 97.5063 119.156 96.6415 119.156 95.7533C119.156 94.5911 118.976 93.4876 118.616 92.4507C118.255 91.4137 117.695 90.4707 116.931 89.6255C116.167 88.7803 115.183 88.1151 113.976 87.6298C112.77 87.1446 111.363 86.902 109.753 86.902C109.67 86.902 109.267 86.8903 108.546 86.859C108.213 86.8316 107.715 86.812 107.049 86.7964C106.383 86.7846 105.826 86.7768 105.384 86.7768C105.384 87.8568 105.395 89.4768 105.427 91.6368C105.482 94.5715 105.509 96.8567 105.509 98.4924C105.509 99.995 105.928 100.993 106.759 101.49ZM105.509 77.8082C105.509 78.5008 105.521 79.569 105.552 81.009C105.607 82.5586 105.634 83.8068 105.634 84.7499C106.05 84.7499 106.853 84.7773 108.048 84.832C108.934 84.8594 109.533 84.8751 109.839 84.8751C110.477 84.8751 111.1 84.742 111.712 84.4799C112.323 84.2177 112.883 83.7951 113.396 83.2121C113.91 82.629 114.317 81.8621 114.623 80.9073C114.928 79.9525 115.081 78.8217 115.081 77.5225C115.081 76.3604 114.901 75.3821 114.541 74.5917C114.18 73.8013 113.702 73.1791 113.107 72.7213C112.511 72.2635 111.857 71.9465 111.151 71.7665C110.446 71.5865 109.702 71.4965 108.926 71.4965C108.397 71.4965 107.676 71.5395 106.763 71.6217C106.402 71.6491 106.14 71.6765 105.971 71.7039C105.776 72.1187 105.666 72.8269 105.638 73.8208C105.611 74.263 105.595 74.5565 105.595 74.6934C105.537 75.6873 105.509 76.7282 105.509 77.8082ZM143.328 91.9537C143.163 92.0242 142.842 92.0594 142.372 92.0594H128.685C128.658 92.1963 128.642 92.392 128.642 92.6424C128.642 93.8046 128.795 94.9433 129.101 96.0506C129.406 97.158 129.865 98.148 130.472 99.0206C131.083 99.8932 131.843 100.594 132.76 101.118C133.677 101.646 134.715 101.908 135.879 101.908C136.737 101.908 137.544 101.748 138.293 101.431C139.041 101.114 139.719 100.719 140.33 100.245C140.8 99.8854 141.384 99.3297 142.078 98.5824C142.603 97.9993 142.936 97.7098 143.077 97.7098C143.214 97.7098 143.312 97.8545 143.367 98.1441C143.422 98.4337 143.449 98.7311 143.449 99.0363C143.422 99.4784 143.241 99.9793 142.908 100.531C142.575 101.087 142.203 101.513 141.784 101.818C140.702 102.675 139.648 103.313 138.622 103.728C137.595 104.143 136.349 104.35 134.876 104.35C133.156 104.35 131.659 104.072 130.382 103.521C129.105 102.969 128.066 102.206 127.263 101.235C126.46 100.265 125.86 99.138 125.472 97.8506C125.084 96.5632 124.889 95.1702 124.889 93.6754C124.889 90.6585 125.833 88.1894 127.718 86.2799C129.602 84.3703 132.212 83.4116 135.538 83.4116C136.259 83.4116 137.07 83.5486 137.971 83.8264C138.873 84.1042 139.754 84.562 140.612 85.196C141.47 85.8338 142.18 86.6712 142.736 87.7081C143.292 88.7451 143.567 89.9855 143.567 91.4255C143.574 91.7111 143.492 91.8872 143.328 91.9537ZM139.167 90.0637C139.194 90.0363 139.21 89.9816 139.21 89.8994C139.21 89.872 139.21 89.829 139.21 89.7742C139.182 89.6646 139.167 89.5824 139.167 89.5237C139.057 88.5259 138.618 87.6494 137.858 86.8864C137.094 86.1233 136.02 85.7438 134.633 85.7438C131.804 85.7438 129.959 86.992 129.101 89.4846C129.073 89.5394 129.058 89.6372 129.058 89.7742C129.058 89.9111 129.073 90.009 129.101 90.0637H139.167V90.0637ZM157.347 103.838C156.849 103.548 156.501 103.012 156.309 102.237C155.478 102.793 154.616 103.254 153.73 103.63C152.841 104.006 152.053 104.19 151.36 104.19C150.666 104.19 149.981 104.064 149.299 103.814C148.617 103.564 148.018 103.211 147.489 102.754C146.96 102.296 146.537 101.764 146.219 101.153C145.902 100.543 145.741 99.905 145.741 99.2437C145.741 98.3867 145.921 97.6393 146.282 97.0015C146.642 96.3637 147.12 95.8237 147.716 95.3815C148.312 94.9393 148.962 94.5598 149.671 94.2389C150.376 93.922 151.258 93.5659 152.312 93.1785C154.142 92.5133 155.447 91.9615 156.222 91.5155V87.8607C156.222 87.0038 156.027 86.3112 155.639 85.7829C155.251 85.2586 154.781 84.9925 154.224 84.9925C153.809 84.9925 153.386 85.0981 152.955 85.3055C152.524 85.5129 152.136 85.7907 151.791 86.1351C151.442 86.4833 151.168 86.8551 150.96 87.2581C150.753 87.6611 150.647 88.0564 150.647 88.4437C150.647 88.6081 150.69 88.8742 150.772 89.2342C150.855 89.5942 150.898 89.8563 150.898 90.0246C150.898 90.2476 150.772 90.4472 150.521 90.6272C150.271 90.8072 150.024 90.8972 149.773 90.8972C149.217 90.8972 148.637 90.7329 148.026 90.4003C147.081 89.9033 146.611 89.3203 146.611 88.6551C146.611 87.9077 146.862 87.2072 147.359 86.5577C147.857 85.9081 148.539 85.3329 149.397 84.832C150.2 84.3625 151.082 83.9947 152.038 83.7325C152.994 83.4703 153.958 83.3373 154.929 83.3373C155.76 83.3373 156.454 83.3842 157.01 83.4821C157.566 83.5799 158.064 83.7873 158.507 84.1042C158.95 84.4212 159.29 84.9142 159.526 85.5794C159.761 86.2446 159.878 87.1446 159.878 88.2794V89.8563C159.906 92.8772 160.015 96.2541 160.211 99.995C160.239 100.465 160.372 100.797 160.607 100.993C160.842 101.188 161.167 101.282 161.583 101.282C161.806 101.282 162.166 101.2 162.664 101.032C163.107 100.895 163.412 100.825 163.581 100.825C163.773 100.825 163.914 100.922 163.996 101.114C164.078 101.31 164.122 101.517 164.122 101.736C164.122 102.041 163.926 102.347 163.538 102.652C163.15 102.957 162.691 103.219 162.166 103.442C161.03 103.998 160.015 104.272 159.13 104.272C158.44 104.272 157.845 104.127 157.347 103.838ZM156.183 93.3859C155.878 93.5502 155.502 93.7459 155.059 93.9689C153.421 94.7985 152.167 95.5341 151.293 96.1719C150.42 96.8098 149.985 97.5415 149.985 98.375C149.985 99.1497 150.255 99.8776 150.796 100.555C151.336 101.235 152.104 101.572 153.104 101.572C153.629 101.545 154.165 101.349 154.706 100.989C155.247 100.629 155.725 100.187 156.14 99.6584C156.168 98.4141 156.183 96.3246 156.183 93.3859ZM178.188 103.857C177.659 103.524 177.33 102.875 177.189 101.905C176.413 102.761 175.488 103.454 174.423 103.982C173.353 104.507 172.142 104.773 170.783 104.773C169.341 104.773 168.114 104.28 167.099 103.298C166.088 102.315 165.579 100.895 165.579 99.0402V96.8802L165.622 89.3594C165.622 88.4437 165.379 87.712 164.893 87.1564C164.408 86.6007 163.542 86.3112 162.292 86.2838V85.9081C162.429 85.7712 162.652 85.6538 162.958 85.5559C163.263 85.4581 163.691 85.3564 164.247 85.2429C164.913 85.106 165.383 84.9925 165.661 84.9103C166.077 84.7733 166.519 84.5503 166.994 84.2451C167.382 84.022 167.758 83.8577 168.118 83.7481C168.479 83.6386 169.004 83.5838 169.697 83.5838V83.9164C169.419 84.472 169.282 86.1038 169.282 88.8194V90.275C169.254 92.1024 169.239 94.3328 169.239 96.9624C169.239 98.8171 169.431 100.128 169.823 100.887C170.21 101.65 170.947 102.03 172.028 102.03C173.11 102.03 174.003 101.678 174.712 100.969C175.418 100.261 176.135 99.3141 176.856 98.1245C177.048 97.7919 177.161 97.6119 177.189 97.5845V95.3424V89.3164C177.189 88.4007 176.946 87.669 176.46 87.1133C175.974 86.5577 175.108 86.2681 173.858 86.2407V85.8651C173.995 85.7281 174.219 85.6107 174.524 85.5129C174.83 85.4151 175.257 85.3133 175.813 85.1999C176.48 85.0629 176.95 84.9494 177.228 84.8673C177.643 84.7303 178.086 84.5073 178.56 84.202C178.948 83.979 179.324 83.8147 179.685 83.7051C180.045 83.5955 180.57 83.5407 181.268 83.5407V83.8734C180.989 84.429 180.852 86.0607 180.852 88.7764V92.5994C180.852 95.0098 180.872 96.6924 180.915 97.6472C180.958 98.6019 181.048 99.4119 181.185 100.077C181.295 100.547 181.456 100.879 181.663 101.075C181.871 101.271 182.169 101.365 182.557 101.365C182.78 101.365 183.141 101.282 183.638 101.114C184.081 100.977 184.387 100.907 184.555 100.907C184.747 100.907 184.888 101.005 184.97 101.196C185.053 101.392 185.096 101.599 185.096 101.818C185.096 102.124 184.9 102.429 184.512 102.734C184.124 103.039 183.666 103.301 183.141 103.524C182.004 104.08 180.989 104.354 180.104 104.354C179.356 104.358 178.717 104.19 178.188 103.857ZM183.536 85.0981C183.689 84.9455 183.932 84.7733 184.265 84.5777C184.653 84.386 184.943 84.202 185.139 84.0377C185.636 83.6503 186.177 83.1651 186.761 82.5821C187.345 81.999 187.842 81.4473 188.258 80.919C188.508 80.6138 188.783 80.1286 189.088 79.4634C189.394 78.7708 189.657 78.4264 189.88 78.4264C190.131 78.4264 190.287 78.4617 190.358 78.5321C190.428 78.6025 190.464 78.7473 190.464 78.9664C190.464 80.2421 190.436 81.9325 190.381 84.0338H193.876V85.9864H190.338V86.6516C190.338 90.5294 190.448 94.685 190.671 99.1145C190.699 99.6702 190.895 100.195 191.255 100.691C191.616 101.188 192.074 101.439 192.627 101.439C193.21 101.439 193.931 101.216 194.789 100.774C195.205 100.582 195.483 100.484 195.62 100.484C196.008 100.484 196.204 100.691 196.204 101.106C196.204 101.689 195.734 102.351 194.789 103.102C193.845 103.849 192.666 104.225 191.251 104.225C189.974 104.225 188.881 103.83 187.964 103.039C187.047 102.249 186.592 101.024 186.592 99.3611C186.647 96.5632 186.675 92.3685 186.675 86.7729V85.9825H183.387C183.333 85.9825 183.305 85.8729 183.305 85.6499C183.305 85.4386 183.383 85.2507 183.536 85.0981ZM200.114 88.6081C199.699 87.6377 199.158 86.7729 198.492 86.0099C197.826 85.2468 196.882 84.5503 195.663 83.9125L195.538 83.6229C197.477 83.7873 199.005 83.8734 200.114 83.8734C200.753 83.8734 201.681 83.8186 202.9 83.709C203.566 83.6816 204.064 83.6542 204.397 83.6268L204.522 83.9164C203.966 84.2764 203.692 84.9142 203.692 85.8259C203.692 86.6555 203.915 87.6416 204.358 88.7764C204.883 90.1616 205.482 91.6798 206.148 93.3272C206.814 94.9746 207.492 96.5867 208.186 98.1676C208.683 96.7824 209.197 95.3424 209.726 93.8476C210.419 91.9107 210.987 90.3181 211.43 89.0698C211.595 88.6277 211.743 88.1698 211.865 87.7003C211.99 87.2307 212.053 86.7729 212.053 86.3307C212.053 85.7203 211.9 85.2155 211.595 84.8125C211.289 84.4094 210.764 84.1277 210.016 83.9594L210.141 83.6699C211.861 83.8342 213.303 83.9203 214.467 83.9203C215.133 83.9203 216.116 83.8655 217.421 83.756C218.114 83.7286 218.639 83.7012 219.004 83.6738L218.878 83.9634C217.934 84.3507 217.096 84.9964 216.363 85.8964C215.626 86.7964 215.039 87.7746 214.596 88.8272L209.686 100.836C207.884 105.238 205.941 108.521 203.864 110.681C201.783 112.841 199.577 113.921 197.25 113.921C196.584 113.921 195.89 113.741 195.169 113.381C194.448 113.021 194.088 112.564 194.088 112.012C194.088 111.624 194.186 111.221 194.378 110.807C194.574 110.392 194.821 109.961 195.126 109.519L195.252 109.312C195.444 109.061 195.62 108.87 195.773 108.729C195.926 108.592 196.098 108.521 196.294 108.521C196.376 108.521 196.462 108.619 196.545 108.811C196.713 109.171 196.948 109.461 197.254 109.684C197.56 109.907 198.085 110.016 198.833 110.016C199.444 110.016 200.095 109.789 200.788 109.331C201.482 108.874 202.16 108.259 202.826 107.481C203.492 106.706 204.107 105.861 204.675 104.945C205.243 104.029 205.749 103.129 206.195 102.245L200.114 88.6081ZM66.8873 119.517V120.867H60.1441V108.999H61.7427V119.517H66.8873ZM68.0981 113.663C68.5643 113.217 69.062 112.881 69.5987 112.661C70.1355 112.442 70.7311 112.329 71.3815 112.329C71.8517 112.329 72.267 112.407 72.6354 112.56C72.9998 112.716 73.3054 112.931 73.5561 113.205C73.8069 113.483 73.9911 113.816 74.1204 114.207C74.2457 114.598 74.3123 115.029 74.3123 115.498V120.867H73.6541C73.5091 120.867 73.3994 120.843 73.321 120.797C73.2427 120.75 73.1839 120.656 73.1369 120.519L72.9723 119.724C72.7529 119.928 72.5374 120.108 72.3258 120.268C72.1142 120.425 71.8948 120.558 71.6636 120.667C71.4325 120.777 71.1856 120.859 70.9231 120.918C70.6606 120.977 70.3706 121.004 70.0493 121.004C69.7241 121.004 69.4146 120.957 69.1286 120.867C68.8425 120.777 68.5918 120.64 68.3763 120.456C68.1647 120.272 67.9962 120.045 67.8708 119.763C67.7454 119.486 67.6827 119.153 67.6827 118.773C67.6827 118.441 67.7729 118.124 67.957 117.819C68.1412 117.514 68.435 117.24 68.8425 117.001C69.25 116.762 69.7868 116.57 70.4412 116.418C71.0994 116.265 71.9066 116.179 72.8626 116.156V115.502C72.8626 114.853 72.7216 114.36 72.4394 114.023C72.1573 113.69 71.7459 113.522 71.2052 113.522C70.8408 113.522 70.5352 113.569 70.2884 113.659C70.0415 113.749 69.8299 113.851 69.6497 113.964C69.4694 114.078 69.3166 114.18 69.1834 114.27C69.0541 114.36 68.9248 114.407 68.7994 114.407C68.7015 114.407 68.6153 114.379 68.5408 114.328C68.4703 114.277 68.4076 114.211 68.3567 114.133L68.0981 113.663ZM72.8665 117.091C72.1848 117.114 71.6088 117.165 71.1308 117.251C70.6527 117.337 70.2609 117.447 69.9631 117.588C69.6614 117.725 69.442 117.889 69.3088 118.077C69.1717 118.265 69.1051 118.476 69.1051 118.707C69.1051 118.926 69.1403 119.118 69.2148 119.278C69.2853 119.439 69.3832 119.568 69.5086 119.673C69.634 119.775 69.779 119.85 69.9475 119.897C70.116 119.943 70.2962 119.967 70.4921 119.967C70.7507 119.967 70.9897 119.94 71.2052 119.889C71.4207 119.838 71.6245 119.76 71.8165 119.662C72.0084 119.564 72.1887 119.443 72.365 119.306C72.5374 119.169 72.7098 119.012 72.8744 118.832V117.091H72.8665ZM81.4513 113.863C81.3847 113.984 81.2828 114.047 81.1457 114.047C81.0634 114.047 80.9694 114.015 80.8636 113.957C80.7578 113.898 80.6285 113.827 80.4796 113.753C80.3268 113.679 80.1466 113.608 79.935 113.546C79.7234 113.483 79.4765 113.452 79.1905 113.452C78.9437 113.452 78.7164 113.483 78.5205 113.546C78.3246 113.608 78.1522 113.694 78.0111 113.808C77.8701 113.917 77.7643 114.047 77.6859 114.191C77.6115 114.336 77.5723 114.497 77.5723 114.669C77.5723 114.884 77.635 115.064 77.7604 115.209C77.8858 115.354 78.0503 115.475 78.2541 115.58C78.4578 115.686 78.689 115.776 78.9515 115.858C79.2101 115.937 79.4765 116.023 79.7508 116.117C80.0251 116.207 80.2915 116.308 80.5501 116.418C80.8087 116.527 81.0438 116.664 81.2476 116.833C81.4513 116.997 81.6159 117.2 81.7413 117.443C81.8667 117.686 81.9293 117.971 81.9293 118.308C81.9293 118.695 81.8588 119.051 81.7217 119.38C81.5845 119.709 81.3769 119.994 81.1065 120.233C80.8362 120.472 80.5031 120.663 80.1113 120.8C79.7195 120.937 79.265 121.008 78.7517 121.008C78.1639 121.008 77.635 120.914 77.1609 120.722C76.6868 120.53 76.2832 120.288 75.9502 119.99L76.2989 119.427C76.342 119.357 76.3968 119.302 76.4556 119.263C76.5183 119.223 76.5927 119.204 76.6868 119.204C76.7847 119.204 76.8905 119.243 77.0002 119.321C77.1099 119.4 77.2432 119.486 77.4038 119.58C77.5605 119.673 77.7525 119.76 77.9798 119.838C78.207 119.916 78.4892 119.955 78.8261 119.955C79.1122 119.955 79.3668 119.92 79.5823 119.842C79.7978 119.767 79.9781 119.666 80.123 119.54C80.268 119.415 80.3738 119.267 80.4404 119.102C80.507 118.938 80.5423 118.762 80.5423 118.574C80.5423 118.343 80.4796 118.151 80.3542 117.999C80.2288 117.846 80.0643 117.717 79.8605 117.611C79.6568 117.506 79.4217 117.412 79.1592 117.33C78.8967 117.251 78.6302 117.165 78.3559 117.075C78.0817 116.985 77.8152 116.887 77.5527 116.774C77.2902 116.66 77.0551 116.52 76.8513 116.347C76.6476 116.175 76.483 115.964 76.3577 115.714C76.2323 115.463 76.1696 115.158 76.1696 114.798C76.1696 114.477 76.2362 114.168 76.3694 113.874C76.5026 113.581 76.6946 113.319 76.9493 113.096C77.204 112.873 77.5174 112.693 77.8858 112.56C78.258 112.427 78.6772 112.36 79.1553 112.36C79.7077 112.36 80.2053 112.446 80.6442 112.622C81.083 112.794 81.4631 113.033 81.7844 113.338L81.4513 113.863ZM90.5572 119.693C90.3731 119.912 90.1576 120.104 89.9029 120.268C89.6482 120.433 89.3779 120.566 89.0879 120.671C88.798 120.777 88.4963 120.855 88.1867 120.906C87.8772 120.957 87.5716 120.984 87.2659 120.984C86.686 120.984 86.1493 120.887 85.6595 120.691C85.1697 120.495 84.7465 120.21 84.39 119.83C84.0334 119.45 83.7552 118.985 83.5554 118.425C83.3556 117.866 83.2576 117.228 83.2576 116.504C83.2576 115.917 83.3477 115.373 83.528 114.864C83.7082 114.356 83.9668 113.917 84.3038 113.542C84.6407 113.17 85.0522 112.877 85.538 112.665C86.0239 112.454 86.5724 112.348 87.1797 112.348C87.6813 112.348 88.1475 112.431 88.5785 112.603C89.0056 112.771 89.3779 113.014 89.6913 113.33C90.0048 113.647 90.2477 114.039 90.424 114.508C90.6003 114.974 90.6905 115.506 90.6905 116.101C90.6905 116.332 90.6669 116.488 90.616 116.567C90.5651 116.645 90.471 116.684 90.3339 116.684H84.7191C84.7348 117.212 84.8092 117.674 84.9385 118.065C85.0678 118.457 85.2481 118.785 85.4832 119.047C85.7143 119.31 85.9925 119.505 86.3138 119.634C86.6351 119.763 86.9956 119.83 87.3913 119.83C87.7636 119.83 88.0809 119.787 88.3474 119.701C88.6138 119.615 88.845 119.525 89.0409 119.423C89.2329 119.325 89.3974 119.231 89.5267 119.145C89.656 119.059 89.7697 119.016 89.8637 119.016C89.9852 119.016 90.0792 119.063 90.1458 119.157L90.5572 119.693ZM89.3622 115.757C89.3622 115.416 89.3152 115.099 89.2172 114.817C89.1193 114.532 88.9782 114.289 88.794 114.082C88.6099 113.874 88.3826 113.714 88.1162 113.6C87.8498 113.487 87.5481 113.432 87.2111 113.432C86.5019 113.432 85.9455 113.64 85.5302 114.05C85.1188 114.461 84.8641 115.033 84.7622 115.76H89.3622V115.757ZM93.8995 114.16C94.1659 113.585 94.4911 113.139 94.879 112.814C95.2669 112.489 95.7371 112.329 96.2974 112.329C96.4737 112.329 96.6461 112.348 96.8068 112.387C96.9713 112.427 97.1163 112.485 97.2417 112.571L97.132 113.671C97.1006 113.808 97.0144 113.878 96.8812 113.878C96.8029 113.878 96.6892 113.863 96.5403 113.827C96.3914 113.792 96.223 113.777 96.0349 113.777C95.7684 113.777 95.5334 113.816 95.3257 113.894C95.118 113.972 94.9339 114.086 94.7693 114.238C94.6047 114.391 94.4598 114.579 94.3305 114.802C94.2012 115.025 94.0836 115.279 93.9778 115.569V120.871H92.4928V112.481H93.3392C93.4998 112.481 93.6095 112.513 93.6722 112.571C93.7349 112.63 93.7741 112.736 93.7976 112.884L93.8995 114.16ZM112.93 120.867H111.496C111.335 120.867 111.206 120.847 111.108 120.808C111.01 120.769 110.901 120.691 110.783 120.57L109.58 119.36C109.059 119.861 108.463 120.26 107.786 120.558C107.108 120.855 106.363 121 105.552 121C105.109 121 104.678 120.926 104.255 120.777C103.832 120.628 103.452 120.413 103.115 120.127C102.778 119.842 102.508 119.497 102.304 119.087C102.1 118.68 101.998 118.218 101.998 117.705C101.998 117.318 102.065 116.954 102.194 116.61C102.324 116.265 102.504 115.944 102.739 115.655C102.97 115.361 103.244 115.099 103.562 114.868C103.875 114.637 104.224 114.438 104.6 114.274C104.263 113.843 104.012 113.428 103.856 113.025C103.695 112.626 103.617 112.211 103.617 111.777C103.617 111.374 103.691 110.994 103.836 110.642C103.981 110.29 104.193 109.981 104.471 109.719C104.749 109.457 105.082 109.249 105.478 109.097C105.874 108.944 106.316 108.87 106.81 108.87C107.245 108.87 107.645 108.94 108.005 109.081C108.365 109.222 108.675 109.41 108.934 109.641C109.192 109.871 109.4 110.141 109.553 110.447C109.706 110.752 109.792 111.073 109.815 111.405L108.894 111.589C108.71 111.632 108.577 111.546 108.487 111.331C108.448 111.186 108.385 111.037 108.299 110.885C108.213 110.732 108.103 110.591 107.966 110.462C107.829 110.337 107.668 110.231 107.476 110.149C107.284 110.067 107.061 110.024 106.81 110.024C106.532 110.024 106.285 110.067 106.058 110.157C105.834 110.247 105.642 110.368 105.486 110.525C105.329 110.681 105.207 110.869 105.125 111.081C105.043 111.292 105 111.523 105 111.773C105 111.965 105.023 112.153 105.066 112.329C105.109 112.505 105.18 112.685 105.278 112.869C105.376 113.053 105.497 113.237 105.646 113.424C105.795 113.612 105.975 113.812 106.187 114.019L109.604 117.49C109.815 117.114 109.984 116.723 110.109 116.316C110.234 115.909 110.321 115.506 110.36 115.103C110.372 114.997 110.403 114.915 110.458 114.857C110.513 114.798 110.591 114.767 110.689 114.767H111.594C111.59 115.4 111.488 116.023 111.296 116.633C111.104 117.244 110.822 117.815 110.458 118.351L112.93 120.867ZM105.27 115.021C104.682 115.33 104.244 115.706 103.946 116.148C103.648 116.59 103.503 117.071 103.503 117.588C103.503 117.948 103.57 118.265 103.703 118.535C103.836 118.809 104.008 119.04 104.224 119.227C104.439 119.415 104.686 119.556 104.961 119.654C105.239 119.752 105.517 119.799 105.807 119.799C106.426 119.799 106.982 119.685 107.476 119.458C107.97 119.231 108.405 118.93 108.773 118.547L105.27 115.021ZM124.916 110.854C124.865 110.936 124.814 110.998 124.755 111.041C124.697 111.084 124.626 111.104 124.544 111.104C124.45 111.104 124.34 111.057 124.211 110.963C124.085 110.869 123.925 110.767 123.733 110.654C123.541 110.541 123.313 110.439 123.043 110.345C122.777 110.251 122.451 110.204 122.067 110.204C121.707 110.204 121.39 110.251 121.119 110.349C120.845 110.447 120.618 110.576 120.43 110.744C120.245 110.908 120.104 111.104 120.01 111.327C119.916 111.55 119.869 111.793 119.869 112.051C119.869 112.384 119.952 112.657 120.112 112.877C120.277 113.096 120.492 113.28 120.759 113.436C121.025 113.589 121.331 113.726 121.672 113.839C122.013 113.953 122.361 114.07 122.718 114.191C123.074 114.313 123.423 114.45 123.764 114.602C124.105 114.755 124.407 114.947 124.677 115.177C124.943 115.408 125.159 115.694 125.323 116.03C125.488 116.367 125.566 116.782 125.566 117.271C125.566 117.791 125.476 118.277 125.3 118.734C125.124 119.188 124.865 119.587 124.524 119.924C124.183 120.26 123.768 120.527 123.27 120.718C122.777 120.91 122.212 121.008 121.582 121.008C120.806 121.008 120.104 120.867 119.474 120.589C118.843 120.311 118.306 119.932 117.855 119.458L118.322 118.695C118.365 118.637 118.42 118.582 118.482 118.543C118.545 118.5 118.616 118.48 118.694 118.48C118.764 118.48 118.847 118.507 118.937 118.566C119.027 118.625 119.133 118.699 119.246 118.785C119.364 118.875 119.493 118.969 119.646 119.075C119.795 119.18 119.963 119.278 120.155 119.364C120.347 119.454 120.563 119.525 120.806 119.583C121.049 119.642 121.323 119.67 121.629 119.67C122.009 119.67 122.35 119.619 122.647 119.513C122.945 119.407 123.2 119.259 123.407 119.071C123.615 118.879 123.772 118.652 123.885 118.386C123.995 118.12 124.05 117.827 124.05 117.502C124.05 117.142 123.968 116.848 123.807 116.621C123.643 116.39 123.431 116.199 123.165 116.046C122.898 115.894 122.596 115.76 122.252 115.651C121.907 115.545 121.562 115.432 121.205 115.318C120.853 115.205 120.504 115.076 120.159 114.923C119.814 114.774 119.513 114.583 119.246 114.344C118.98 114.105 118.768 113.808 118.604 113.452C118.439 113.096 118.361 112.654 118.361 112.129C118.361 111.711 118.443 111.304 118.604 110.912C118.768 110.521 119.003 110.173 119.317 109.867C119.63 109.562 120.014 109.32 120.469 109.14C120.923 108.956 121.448 108.866 122.04 108.866C122.702 108.866 123.306 108.971 123.85 109.179C124.395 109.39 124.873 109.691 125.288 110.091L124.916 110.854ZM128.83 108.67V115.85H129.21C129.32 115.85 129.414 115.835 129.489 115.804C129.563 115.772 129.641 115.71 129.724 115.616L132.376 112.775C132.455 112.681 132.537 112.607 132.619 112.556C132.705 112.505 132.819 112.477 132.964 112.477H134.3L131.209 115.764C131.06 115.952 130.899 116.097 130.727 116.203C130.825 116.269 130.915 116.344 130.997 116.43C131.075 116.516 131.154 116.614 131.224 116.723L134.508 120.863H133.187C133.062 120.863 132.952 120.843 132.858 120.8C132.768 120.757 132.69 120.683 132.623 120.573L129.861 117.138C129.778 117.02 129.696 116.946 129.618 116.911C129.539 116.876 129.414 116.856 129.25 116.856H128.826V120.863H127.341V108.662H128.83V108.67ZM137.646 109.844C137.646 109.989 137.619 110.122 137.56 110.247C137.501 110.372 137.423 110.482 137.329 110.58C137.231 110.677 137.117 110.752 136.988 110.807C136.859 110.861 136.722 110.889 136.577 110.889C136.432 110.889 136.298 110.861 136.173 110.807C136.048 110.752 135.938 110.677 135.844 110.58C135.75 110.482 135.675 110.372 135.621 110.247C135.566 110.122 135.538 109.989 135.538 109.844C135.538 109.699 135.566 109.562 135.621 109.433C135.675 109.304 135.75 109.191 135.844 109.093C135.938 108.995 136.048 108.921 136.173 108.866C136.298 108.811 136.432 108.784 136.577 108.784C136.722 108.784 136.859 108.811 136.988 108.866C137.117 108.921 137.231 108.999 137.329 109.093C137.427 109.191 137.501 109.304 137.56 109.433C137.615 109.562 137.646 109.699 137.646 109.844ZM137.329 112.477V120.867H135.852V112.477H137.329ZM141.145 113.694C141.329 113.491 141.521 113.307 141.725 113.139C141.929 112.971 142.148 112.83 142.376 112.712C142.607 112.595 142.85 112.501 143.104 112.438C143.359 112.376 143.641 112.344 143.939 112.344C144.397 112.344 144.801 112.419 145.154 112.571C145.506 112.724 145.796 112.939 146.031 113.217C146.266 113.495 146.443 113.831 146.568 114.223C146.689 114.614 146.752 115.048 146.752 115.522V120.863H145.267V115.526C145.267 114.892 145.122 114.399 144.832 114.047C144.542 113.694 144.1 113.522 143.508 113.522C143.073 113.522 142.662 113.628 142.285 113.835C141.905 114.047 141.557 114.328 141.235 114.688V120.867H139.75V112.477H140.636C140.847 112.477 140.977 112.579 141.024 112.783L141.145 113.694ZM161.943 118.417C162.033 118.417 162.108 118.453 162.174 118.523L162.813 119.212C162.327 119.775 161.735 120.213 161.042 120.53C160.348 120.843 159.51 121.004 158.526 121.004C157.676 121.004 156.9 120.855 156.203 120.562C155.505 120.268 154.914 119.853 154.42 119.321C153.926 118.789 153.546 118.151 153.276 117.404C153.006 116.66 152.868 115.839 152.868 114.943C152.868 114.047 153.01 113.229 153.292 112.481C153.574 111.738 153.969 111.096 154.483 110.56C154.992 110.024 155.607 109.609 156.32 109.312C157.034 109.018 157.821 108.87 158.683 108.87C159.529 108.87 160.274 109.007 160.92 109.277C161.567 109.547 162.135 109.914 162.629 110.376L162.1 111.112C162.068 111.167 162.025 111.214 161.97 111.249C161.92 111.284 161.849 111.304 161.759 111.304C161.661 111.304 161.539 111.249 161.394 111.143C161.25 111.037 161.061 110.916 160.83 110.783C160.599 110.65 160.309 110.529 159.96 110.423C159.612 110.317 159.185 110.263 158.675 110.263C158.06 110.263 157.5 110.368 156.99 110.58C156.481 110.791 156.042 111.1 155.678 111.503C155.31 111.906 155.023 112.399 154.82 112.978C154.616 113.557 154.514 114.211 154.514 114.943C154.514 115.682 154.62 116.344 154.831 116.923C155.043 117.502 155.333 117.991 155.701 118.394C156.07 118.793 156.505 119.098 157.002 119.31C157.504 119.521 158.044 119.623 158.624 119.623C158.977 119.623 159.298 119.603 159.58 119.56C159.866 119.517 160.129 119.454 160.368 119.364C160.607 119.274 160.834 119.165 161.038 119.028C161.246 118.891 161.449 118.73 161.657 118.543C161.755 118.457 161.849 118.417 161.943 118.417ZM165.857 108.67V120.871H164.38V108.67H165.857ZM170.12 109.844C170.12 109.989 170.093 110.122 170.034 110.247C169.975 110.372 169.897 110.482 169.803 110.58C169.705 110.677 169.591 110.752 169.462 110.807C169.333 110.861 169.196 110.889 169.051 110.889C168.906 110.889 168.772 110.861 168.647 110.807C168.522 110.752 168.412 110.677 168.318 110.58C168.224 110.482 168.149 110.372 168.095 110.247C168.04 110.122 168.012 109.989 168.012 109.844C168.012 109.699 168.04 109.562 168.095 109.433C168.149 109.304 168.224 109.191 168.318 109.093C168.412 108.995 168.522 108.921 168.647 108.866C168.772 108.811 168.906 108.784 169.051 108.784C169.196 108.784 169.333 108.811 169.462 108.866C169.591 108.921 169.705 108.999 169.803 109.093C169.901 109.191 169.975 109.304 170.034 109.433C170.089 109.562 170.12 109.699 170.12 109.844ZM169.803 112.477V120.867H168.326V112.477H169.803ZM173.619 113.694C173.803 113.491 173.995 113.307 174.199 113.139C174.403 112.971 174.622 112.83 174.85 112.712C175.081 112.595 175.324 112.501 175.578 112.438C175.833 112.376 176.115 112.344 176.413 112.344C176.871 112.344 177.275 112.419 177.628 112.571C177.98 112.724 178.27 112.939 178.505 113.217C178.74 113.495 178.917 113.831 179.042 114.223C179.164 114.614 179.226 115.048 179.226 115.522V120.863H177.741V115.526C177.741 114.892 177.596 114.399 177.306 114.047C177.016 113.694 176.574 113.522 175.982 113.522C175.547 113.522 175.136 113.628 174.759 113.835C174.379 114.047 174.031 114.328 173.709 114.688V120.867H172.224V112.477H173.11C173.322 112.477 173.451 112.579 173.498 112.783L173.619 113.694ZM183.356 109.844C183.356 109.989 183.329 110.122 183.27 110.247C183.211 110.372 183.133 110.482 183.039 110.58C182.941 110.677 182.827 110.752 182.698 110.807C182.568 110.861 182.431 110.889 182.286 110.889C182.141 110.889 182.008 110.861 181.883 110.807C181.757 110.752 181.648 110.677 181.554 110.58C181.46 110.482 181.385 110.372 181.33 110.247C181.275 110.122 181.248 109.989 181.248 109.844C181.248 109.699 181.275 109.562 181.33 109.433C181.385 109.304 181.46 109.191 181.554 109.093C181.648 108.995 181.757 108.921 181.883 108.866C182.008 108.811 182.141 108.784 182.286 108.784C182.431 108.784 182.568 108.811 182.698 108.866C182.827 108.921 182.941 108.999 183.039 109.093C183.137 109.191 183.211 109.304 183.27 109.433C183.325 109.562 183.356 109.699 183.356 109.844ZM183.039 112.477V120.867H181.561V112.477H183.039ZM191.31 113.968C191.267 114.031 191.22 114.078 191.177 114.109C191.134 114.144 191.071 114.16 190.993 114.16C190.91 114.16 190.82 114.125 190.718 114.058C190.62 113.988 190.495 113.914 190.35 113.831C190.205 113.749 190.025 113.671 189.809 113.604C189.598 113.534 189.335 113.499 189.026 113.499C188.61 113.499 188.246 113.573 187.933 113.718C187.619 113.863 187.353 114.074 187.141 114.352C186.929 114.63 186.769 114.962 186.659 115.354C186.553 115.745 186.498 116.183 186.498 116.672C186.498 117.181 186.557 117.631 186.671 118.026C186.788 118.421 186.953 118.754 187.165 119.02C187.376 119.286 187.635 119.493 187.936 119.634C188.238 119.775 188.575 119.846 188.951 119.846C189.312 119.846 189.606 119.803 189.837 119.717C190.068 119.63 190.26 119.537 190.413 119.431C190.566 119.325 190.691 119.231 190.793 119.145C190.895 119.059 190.997 119.016 191.094 119.016C191.216 119.016 191.31 119.063 191.377 119.157L191.792 119.697C191.608 119.924 191.404 120.116 191.169 120.276C190.938 120.437 190.687 120.57 190.417 120.679C190.15 120.785 189.868 120.867 189.574 120.914C189.28 120.965 188.983 120.988 188.677 120.988C188.152 120.988 187.662 120.89 187.212 120.699C186.761 120.507 186.369 120.225 186.04 119.857C185.707 119.49 185.448 119.04 185.26 118.503C185.072 117.967 184.978 117.357 184.978 116.672C184.978 116.05 185.064 115.471 185.241 114.943C185.413 114.414 185.668 113.957 186.005 113.573C186.338 113.19 186.753 112.888 187.239 112.673C187.729 112.458 188.289 112.348 188.928 112.348C189.519 112.348 190.04 112.442 190.491 112.634C190.942 112.826 191.341 113.092 191.69 113.44L191.31 113.968Z" fill="white"/>
</g>
<defs>
<clipPath id="clip0">
<rect width="160" height="52" fill="white" transform="translate(59 69)"/>
</clipPath>
</defs>
</svg>
