<svg width="277" height="190" viewBox="0 0 277 190" fill="none" xmlns="http://www.w3.org/2000/svg">
<path fill-rule="evenodd" clip-rule="evenodd" d="M201.8 117.648C201.919 118.075 202.179 118.241 203.056 118.43C203.696 118.549 204.242 118.667 204.313 118.691C204.384 118.691 204.668 118.549 204.953 118.359C205.711 117.838 205.83 116.7 205.522 113.05C205.379 111.272 205.213 107.906 205.166 105.56C205.111 102.142 205.07 101.089 204.889 100.678C204.837 100.67 204.764 100.653 204.669 100.629C204.408 100.558 203.863 100.369 203.46 100.203C202.465 99.7998 201.303 100.274 201.066 101.127C200.9 101.815 201.398 115.704 201.611 116.534C201.663 116.717 201.716 116.841 201.676 116.915C201.626 117.007 201.43 117.021 200.9 116.972C201.529 117.118 201.719 117.31 201.8 117.648ZM197.817 116.61C197.594 116.567 197.419 116.506 197.279 116.399C196.791 116.022 196.749 115.066 196.656 112.268C196.585 112.48 196.538 112.291 196.538 111.841C196.538 111.458 196.572 111.264 196.626 111.359C196.621 111.208 196.616 111.053 196.61 110.893C196.444 106.389 196.16 105.038 195.046 103.403C194.264 102.265 192.77 100.866 191.704 100.321C189.476 99.1361 185.067 100.629 183.194 103.166C181.867 104.967 181.488 106.911 181.464 111.628L181.44 115.823L180.744 115.922C181.269 115.9 181.599 116.045 182.435 116.463C183.644 117.103 183.81 117.127 184.379 116.795L184.995 116.439L185.137 112.433C185.208 110.205 185.398 107.977 185.564 107.456C186.559 104.303 189.735 102.526 191.347 104.209C192.248 105.133 192.698 106.65 192.698 108.736C192.698 110.632 193.101 115.728 193.291 116.344C193.457 116.89 194.76 117.53 195.661 117.53C196.254 117.53 196.562 117.387 196.751 117.032C196.936 116.662 197.078 116.566 197.817 116.61ZM179.662 116.079C179.654 116.081 179.646 116.082 179.638 116.084C178.832 116.25 177.979 116.51 177.765 116.653C177.054 117.079 175.443 116.463 175.229 115.681C175.134 115.325 175.063 111.912 175.063 108.096C175.04 101.72 175.063 101.127 175.466 100.914C175.68 100.772 175.869 100.511 175.869 100.321C175.869 100.108 175.253 100.606 174.494 101.388C173.001 102.976 172.314 103.189 171.413 102.36C170.749 101.72 170.749 100.677 171.389 100.084C171.911 99.634 175.751 95.3438 177.765 93.0209C185.564 83.8953 186.962 82.4731 189.072 81.4065C189.498 81.1932 190.138 81.0272 190.494 81.0272C191.063 81.0272 191.229 81.1695 191.466 81.8094C191.632 82.2361 191.75 82.805 191.75 83.0657C191.75 83.3738 192.177 83.7768 193.006 84.2745C197.107 86.7159 203.293 91.8357 207.418 96.1496C209.385 98.2118 209.764 98.7333 209.764 99.3732C209.764 99.7999 209.646 100.25 209.48 100.416C208.864 101.032 206.28 100.558 205.284 99.6577C205.032 99.4193 204.921 99.3219 204.837 99.3901C204.958 98.9928 204.77 98.728 203.792 97.6902C199.857 93.5423 196.705 90.8401 191.111 86.7869C190.424 86.2892 189.807 85.6966 189.713 85.4833C189.641 85.2463 189.476 85.0566 189.357 85.0566C189.025 85.0566 186.987 87.1662 184.64 89.892C183.906 90.7509 183.213 91.548 182.792 92.0327C182.574 92.2836 182.429 92.4508 182.388 92.4993C179.876 95.154 175.87 99.8946 175.87 100.25C175.87 100.582 176.036 100.701 176.439 100.701C176.771 100.701 177.316 100.938 177.648 101.246L178.288 101.791L178.29 102.419C178.288 102.472 178.287 102.532 178.287 102.597C178.287 102.675 178.288 102.745 178.291 102.807L178.312 109.068L178.328 114.075C178.317 114.214 178.311 114.422 178.311 114.685C178.311 114.981 178.319 115.208 178.332 115.345L178.335 116.368L178.88 116.226C179.052 116.186 179.341 116.132 179.662 116.079ZM204.64 99.8737C204.559 100.098 204.558 100.229 204.638 100.344C204.599 100.231 204.596 100.057 204.64 99.8737ZM178.097 107.693C178.097 105.749 178.145 104.967 178.168 105.986C178.216 107.006 178.216 108.594 178.168 109.542C178.145 110.49 178.097 109.66 178.097 107.693ZM105.211 116.439C106.112 116.913 107.25 117.387 107.747 117.506C108.269 117.624 109.738 117.719 111.042 117.743C115.024 117.767 117.726 116.866 119.931 114.733L121.068 113.619L121.211 114.448C121.282 114.899 121.353 115.633 121.353 116.06V116.842L124.861 116.771L128.345 116.7L128.25 116.107C128.203 115.776 128.108 105.654 128.013 93.5897L127.871 71.6646H121.234L121.163 79.9369L121.116 88.1855L120.025 87.19C117.94 85.27 115.048 84.4404 111.208 84.6538C108.316 84.796 106.325 85.436 104.239 86.8581C101.585 88.6833 99.6409 91.6461 98.5743 95.6045C97.8158 98.354 97.8158 104.232 98.5743 106.982C99.7832 111.509 102.106 114.804 105.211 116.439ZM121.021 100.227C121.353 106.129 119.528 110.585 116.138 112.054C114.005 112.979 111.54 112.86 109.62 111.746C106.681 110.016 105.187 106.389 105.187 100.938C105.211 93.5186 107.866 89.7973 113.152 89.7973C117.845 89.7973 120.665 93.5186 121.021 100.227ZM134.105 110.537C135.859 113.856 139.509 116.558 143.396 117.387C145.435 117.838 149.749 117.838 151.811 117.411C157.144 116.297 161.031 112.552 162.643 106.982C163.117 105.346 163.188 104.54 163.188 101.175C163.188 97.8088 163.117 97.003 162.643 95.3675C160.605 88.3277 155.366 84.5827 147.592 84.5827C144.463 84.5827 142.33 85.0567 139.865 86.2656C136.357 87.9959 134.057 90.8876 132.683 95.2489C132.209 96.837 132.138 97.5007 132.138 101.175C132.138 105.868 132.446 107.361 134.105 110.537ZM155.983 103.545C155.437 107.859 154.086 110.229 151.455 111.533C147.331 113.571 142.519 112.149 140.576 108.333C139.319 105.868 138.822 101.293 139.438 97.8088C140.078 94.1112 141.548 91.812 144.06 90.5795C145.245 89.9869 145.672 89.9158 147.663 89.9158C150.27 89.9395 151.455 90.3425 153.091 91.812C155.366 93.8742 156.599 98.8044 155.983 103.545ZM68.9695 103.498C68.9695 110.656 69.0406 116.581 69.1354 116.653C69.2065 116.747 70.8183 116.819 72.6908 116.819H76.0803V90.5084L80.0624 90.461L84.0208 90.3899L84.0919 88.1618C84.1393 86.7396 84.0682 85.8389 83.8786 85.6256C83.6652 85.3649 82.7882 85.2938 79.8491 85.2938H76.0803V83.7057C76.0803 79.6525 77.4788 78.254 81.7453 77.9696L84.0208 77.8274L84.0919 75.0067C84.1393 73.1579 84.0682 72.0913 83.8786 71.8779C83.5467 71.475 79.6832 71.4276 77.621 71.8068C74.4922 72.3757 71.6242 74.3193 70.2968 76.737C69.4672 78.3014 68.9695 80.648 68.9695 83.2079V85.27L67.1444 85.3412L65.2955 85.4123L65.2244 87.9722L65.1533 90.5084H68.9695V103.498ZM87.1021 85.4123L87.031 101.127L86.9836 116.819H93.8575V85.5308L93.336 85.4123C93.0279 85.3412 91.5109 85.3175 89.9465 85.3412L87.1021 85.4123ZM208.461 114.922C208.721 114.922 208.816 115.183 208.816 115.87C208.816 116.558 208.911 116.819 209.172 116.819C209.432 116.819 209.527 116.558 209.527 115.87C209.527 115.183 209.622 114.922 209.883 114.922C210.072 114.922 210.238 114.827 210.238 114.685C210.238 114.567 209.764 114.448 209.172 114.448C208.579 114.448 208.105 114.567 208.105 114.685C208.105 114.827 208.271 114.922 208.461 114.922ZM211.424 114.875C210.902 114.022 210.475 114.377 210.475 115.633C210.475 116.297 210.594 116.819 210.712 116.819C210.855 116.819 210.949 116.534 210.949 116.179C210.949 115.562 210.973 115.562 211.305 116.013C211.613 116.392 211.684 116.416 211.898 116.107C212.087 115.823 212.135 115.847 212.135 116.297C212.135 116.605 212.277 116.819 212.49 116.819C212.751 116.819 212.846 116.534 212.846 115.633C212.846 114.377 212.419 114.022 211.898 114.875C211.779 115.065 211.72 115.159 211.661 115.159C211.601 115.159 211.542 115.065 211.424 114.875ZM86.5096 75.22C86.5096 76.8555 87.434 78.2777 88.8799 78.8703C90.4442 79.4866 92.6486 78.8229 93.6441 77.4481C94.4263 76.3578 94.45 74.0349 93.7152 73.0394C92.8145 71.8305 91.7953 71.3091 90.3257 71.3091C88.0029 71.3091 86.5096 72.8261 86.5096 75.22Z" fill="white"/>
</svg>
