<svg width="278" height="190" viewBox="0 0 278 190" fill="none" xmlns="http://www.w3.org/2000/svg">
<g clip-path="url(#clip0)">
<path d="M114.316 88.2597H108.706V85.6961H124.574V88.2597H118.963V106.25H114.316V88.2597V88.2597ZM128.269 93.3308C130.516 93.3308 131.643 94.7834 131.643 97.6924H125.283C125.283 94.851 126.279 93.3946 128.269 93.3308ZM125.283 99.6405H134.278C134.293 99.5391 134.312 99.3627 134.331 99.1075C134.353 98.8522 134.364 98.5407 134.364 98.1766C134.364 96.2323 133.968 94.6896 133.173 93.5485C132.244 92.1709 130.478 91.4803 127.873 91.4803C125.704 91.5028 124.058 92.1446 122.931 93.4058C121.808 94.6708 121.244 96.6564 121.244 99.3702C121.266 101.739 121.77 103.462 122.759 104.535C123.749 105.609 125.305 106.224 127.433 106.382C127.724 106.412 128.131 106.423 128.653 106.423C129.967 106.423 131.046 106.299 131.897 106.052C132.744 105.804 133.17 105.605 133.17 105.455L133.789 102.902C133.532 103.161 132.979 103.48 132.132 103.867C131.281 104.25 130.109 104.445 128.608 104.445C127.38 104.389 126.537 103.766 126.07 102.583C125.611 101.397 125.346 100.417 125.283 99.6405ZM148.268 94.9561C148.268 94.0364 147.91 93.2294 147.193 92.5275C146.476 91.8256 145.357 91.4765 143.837 91.4765C143.031 91.4765 142.322 91.5704 141.714 91.758C141.105 91.9457 140.631 92.1484 140.299 92.3699C139.967 92.5913 139.773 92.7227 139.717 92.7565V91.5666H135.592V106.254H139.717V95.6242C139.795 95.3389 140.03 94.9636 140.43 94.4981C140.825 94.0364 141.478 93.7512 142.393 93.6423C144.263 93.6423 145.2 94.2579 145.2 95.4928V106.25H148.272V94.9561H148.268ZM153.71 95.14C153.733 94.4306 154.005 93.9651 154.535 93.7437C155.061 93.526 155.797 93.4171 156.741 93.4171C158.133 93.4171 159.234 93.5485 160.048 93.8112C160.862 94.074 161.407 94.2954 161.687 94.4718L160.992 92.0921C160.705 91.9682 160.164 91.8143 159.365 91.6304C158.566 91.4427 157.514 91.3489 156.207 91.3489C156.114 91.3489 155.961 91.3564 155.748 91.3714C155.535 91.3864 155.367 91.3939 155.244 91.3939C151.639 91.5591 149.783 92.824 149.675 95.185C149.675 96.5438 150.041 97.4897 150.773 98.0265C151.504 98.5632 152.594 98.9761 154.039 99.2651C155.483 99.5504 156.528 99.8507 157.174 100.158C157.82 100.466 158.144 101.104 158.144 102.065C158.122 102.899 157.883 103.51 157.424 103.901C156.965 104.291 156.092 104.486 154.808 104.486C153.602 104.471 152.568 104.295 151.713 103.961C150.855 103.623 150.269 103.345 149.948 103.12L150.515 105.684C150.866 105.815 151.489 105.976 152.389 106.175C153.288 106.374 154.36 106.472 155.603 106.472C156.073 106.472 156.424 106.457 156.651 106.431C158.477 106.296 159.873 105.834 160.832 105.053C161.791 104.269 162.273 102.981 162.273 101.187C162.235 99.9595 161.832 99.0549 161.056 98.4694C160.283 97.8838 159.365 97.4672 158.309 97.2194C157.252 96.9717 156.222 96.7052 155.218 96.4237C154.21 96.1347 153.71 95.7068 153.71 95.14ZM163.751 91.5666V106.254H167.831V91.5666H163.751ZM165.819 85.6548C165.076 85.6548 164.494 85.895 164.072 86.3717C163.65 86.8484 163.441 87.4039 163.441 88.0345C163.441 88.6501 163.654 89.1981 164.072 89.6673C164.494 90.1365 165.061 90.373 165.774 90.373C166.517 90.373 167.099 90.1403 167.513 89.6748C167.931 89.2094 168.14 88.6501 168.14 87.9932C168.14 87.3551 167.935 86.8071 167.524 86.3454C167.114 85.8837 166.547 85.6548 165.819 85.6548ZM169.671 85.6998V106.254H173.709V85.6998H169.671ZM182.306 93.3308C184.553 93.3308 185.676 94.7834 185.676 97.6924H179.316C179.319 94.851 180.312 93.3946 182.306 93.3308ZM179.319 99.6405H188.311C188.326 99.5391 188.345 99.3627 188.364 99.1075C188.386 98.8522 188.397 98.5407 188.397 98.1766C188.397 96.2323 188.002 94.6896 187.21 93.5485C186.281 92.1709 184.515 91.4803 181.91 91.4803C179.741 91.5028 178.091 92.1446 176.968 93.4058C175.844 94.6708 175.281 96.6564 175.281 99.3702C175.303 101.739 175.807 103.462 176.796 104.535C177.785 105.609 179.342 106.224 181.469 106.382C181.764 106.412 182.167 106.423 182.69 106.423C184.004 106.423 185.086 106.299 185.934 106.052C186.781 105.804 187.206 105.605 187.206 105.455L187.826 102.902C187.569 103.161 187.016 103.48 186.165 103.867C185.314 104.25 184.142 104.445 182.642 104.445C181.413 104.389 180.57 103.766 180.103 102.583C179.648 101.397 179.383 100.417 179.319 99.6405ZM205.153 92.49V106.25H209.8V85.6998H204.716L200.114 96.465L195.329 85.6998H190.159V106.254H193.447V92.49L199.412 106.648L205.153 92.49ZM211.995 91.5666V106.254H216.074V91.5666H211.995ZM214.062 85.6548C213.32 85.6548 212.737 85.895 212.316 86.3717C211.894 86.8484 211.685 87.4039 211.685 88.0345C211.685 88.6501 211.894 89.1981 212.316 89.6673C212.737 90.1365 213.305 90.373 214.018 90.373C214.76 90.373 215.339 90.1403 215.757 89.6748C216.175 89.2094 216.384 88.6501 216.384 87.9932C216.384 87.3551 216.179 86.8071 215.768 86.3454C215.358 85.8837 214.79 85.6548 214.062 85.6548ZM217.915 85.6998V106.254H221.953V85.6998H217.915ZM223.965 85.6998V106.254H228.004V85.6998H223.965ZM64.1913 79.8893V106.25H71.4774V79.8893H64.1913ZM91.7565 91.5929V113.172H99.0463V80.9366H91.0697L83.8472 97.8238L76.3447 80.9366H73.3884V91.5929L82.7423 113.799L91.7565 91.5929ZM104.627 115V74.8708H103.895V115H104.627ZM84.8811 74H74.7471H74.5642L74.4896 74.1689C74.176 74.8596 73.5527 75.3288 72.6606 75.3325H68.1441H67.0206H62.5005C61.6084 75.3288 60.985 74.8596 60.6715 74.1689L60.5968 74H60.4139H50.2837H50V76.9203V76.9353V79.8555H50.2837H60.4139H60.5968L60.6715 79.6866C60.985 78.996 61.6084 78.5268 62.5005 78.523H67.0206H68.1441H72.6643C73.5564 78.5268 74.1798 78.996 74.4933 79.6866L74.5679 79.8555H74.7508H84.8848H85.1685V76.9353V76.9203V74H84.8811Z" fill="white"/>
</g>
<defs>
<clipPath id="clip0">
<rect width="178" height="41" fill="white" transform="translate(50 74)"/>
</clipPath>
</defs>
</svg>
