<svg width="278" height="190" viewBox="0 0 278 190" fill="none" xmlns="http://www.w3.org/2000/svg">
<path fill-rule="evenodd" clip-rule="evenodd" d="M181.897 144.008C181.897 148.353 180.156 150.786 176.673 152.176C163.267 157.39 147.422 159.996 132.448 159.996C117.3 159.996 101.456 157.39 88.2234 152.176C84.7411 150.786 83 148.353 83 144.008V30.0034H182.071V144.008H181.897ZM109.291 99.5184C95.5359 91.0028 91.0089 87.1795 90.6607 81.6183C90.6607 80.4018 90.8348 78.4899 91.3572 77.2736L90.1386 76.4047C89.0939 77.9687 88.3975 80.228 88.3975 82.1396C88.3975 85.4414 89.4421 87.8744 90.6609 89.7861C92.5762 92.7407 94.6656 94.6523 99.5408 98.3016C104.938 102.299 108.595 106.991 110.684 112.031H111.555V106.47C118.867 110.641 125.31 114.464 128.444 121.416H129.14C127.921 114.117 123.916 108.556 109.291 99.5184ZM172.494 121.242H171.624C171.624 116.202 166.923 114.812 162.047 114.812H146.725C147.248 117.245 147.422 120.199 147.073 122.979H146.377C144.984 111.51 138.542 105.775 129.314 99.6919V104.906H128.617C126.18 99.5181 120.956 94.4783 115.907 90.8288C114.514 89.9598 113.121 88.9171 111.902 87.8742V93.4354H111.205C109.116 87.8742 105.286 83.7033 99.7142 78.6634C93.7941 73.276 91.3565 70.1481 89.9638 66.4983C89.0932 64.2393 88.9189 62.5012 88.9189 60.0682C88.9189 55.7235 91.0085 51.7264 93.7941 50.3361V52.4215C92.4014 54.1594 91.7047 56.5924 91.7047 58.8517C91.7047 60.9374 92.2271 63.3704 93.2717 65.4556C96.5799 71.8857 107.898 79.7062 115.036 84.3984C116.66 85.4872 118.189 86.5104 119.63 87.475L119.63 87.4751C137.978 99.7516 142.116 102.521 145.506 109.771C145.534 109.841 145.563 109.912 145.592 109.986C145.607 110.023 145.622 110.06 145.638 110.098L145.638 110.098C145.977 110.934 146.418 112.023 146.725 113.247C148.447 112.961 152.799 112.307 156.717 111.718L156.719 111.718L156.719 111.718C159.929 111.235 162.847 110.797 163.788 110.64C163.944 110.64 164.206 110.605 164.495 110.567H164.495L164.495 110.567C164.848 110.519 165.241 110.467 165.529 110.467C167.618 109.25 169.185 107.512 170.578 105.6L162.047 104.905L160.828 107.338H160.132C160.19 107.049 160.267 106.76 160.344 106.47C160.499 105.891 160.654 105.311 160.654 104.731L158.391 104.557V104.036L160.828 103.688C161.351 101.255 161.525 98.9963 161.525 96.9107L150.73 96.3893V99.5177H150.033L149.874 98.5677C149.753 97.8415 149.632 97.1154 149.511 96.3893L147.073 96.2155V95.5201L149.336 95.3463C148.988 92.5657 148.988 89.7851 149.162 87.5259L142.894 87.1783C143.119 87.515 143.271 87.8517 143.445 88.2351L143.445 88.2354C143.54 88.4457 143.641 88.6701 143.765 88.9162C145.157 92.7395 144.809 97.0842 144.287 99.1697H143.59C143.416 96.7366 142.72 93.956 141.85 92.2179C140.108 88.0473 136.278 84.5715 129.662 80.2268V85.4402H128.966C126.702 78.4887 121.305 74.6654 113.296 70.6685C106.679 67.1928 104.59 63.1955 104.938 56.7656L107.201 58.1558C107.724 64.0646 112.425 67.5404 117.126 67.5404C119.911 67.5404 122.523 67.193 125.135 66.6717L125.354 66.63C128.93 65.9492 132.329 65.3022 135.059 66.3241V62.8483H132.796C131.925 63.5435 130.358 64.4124 127.921 64.4124C125.309 64.4124 120.26 63.0221 120.26 57.4609C120.26 52.5947 124.264 51.8997 127.572 51.8997C129.314 51.8997 132.274 51.8997 133.318 51.7259C134.015 51.7259 134.537 51.5519 135.059 51.2046C135.407 50.857 135.582 50.5092 135.582 49.9881C135.756 49.4667 135.756 48.7718 135.756 47.7288V44.2531H120.434V50.3356L114.688 48.0764V46.6861H117.474V44.2531H107.027V39.2133H103.545C101.63 39.2133 99.5403 40.6036 99.3664 43.0366C99.1925 45.4696 100.411 47.555 102.849 47.555V50.5094H102.326C97.7994 50.5094 94.4912 47.2075 94.4912 42.689C94.4912 38.1705 98.4958 34.521 103.197 34.521H110.684V39.5608H139.935V47.0339V47.034C139.935 48.2503 139.935 49.9883 139.761 51.031C139.761 51.7264 139.413 53.2903 137.846 54.333C136.975 55.0281 135.582 55.2019 133.493 55.3757C132.796 55.3757 130.707 55.3757 128.27 55.2019C124.961 55.0279 123.917 56.2446 123.917 57.4612V58.1563C125.484 56.9398 127.747 56.0709 130.185 56.9398C134.538 58.3301 135.756 58.5041 138.194 56.5924L138.368 57.1138C138.194 57.4614 137.671 57.9827 136.975 58.5041H139.065V69.9738L145.681 65.9767H164.311C164.311 65.9767 172.146 70.1476 173.539 70.669C174.758 71.1904 175.106 72.0593 175.28 73.102C175.454 73.971 175.28 75.1875 174.758 75.8826C174.414 76.3976 172.371 79.7952 171.314 81.5531L171.314 81.5533L171.275 81.6176C174.41 85.0933 176.499 89.7854 176.499 95.173C176.499 100.039 174.758 106.122 168.838 110.814C171.45 111.683 173.016 113.073 174.235 114.811L172.494 121.242ZM131.055 59.3735C128.443 58.8521 127.051 59.1997 125.484 60.59C126.18 60.9376 127.051 61.1114 128.095 61.1114C129.662 60.9376 130.533 60.0686 131.055 59.3735ZM129.488 75.8833L136.801 71.5386C135.408 70.8432 133.841 70.3221 131.926 70.3221C130.028 70.3221 127.302 70.8728 125.152 71.3072L125.152 71.3072C124.344 71.4706 123.617 71.6174 123.046 71.7124C123.478 72.0002 124.299 72.5263 125.26 73.1426L125.262 73.1436L125.262 73.1439C126.622 74.0161 128.264 75.069 129.488 75.8833ZM163.44 75.0144L161.873 72.9289L162.047 72.4073L166.4 74.8406L165.53 77.795C166.226 78.1423 166.923 78.4901 167.793 79.1853L170.579 74.493L163.092 70.6697H146.725L133.493 78.6639C135.931 80.4018 138.368 82.3134 139.935 84.2251C143.417 79.0115 149.859 75.7095 155.954 75.7095C158.043 75.5357 160.48 75.7095 162.396 76.4047L163.44 75.0144ZM161.003 94.9999C161.003 92.5669 160.655 90.3079 160.132 88.3962L151.427 88.0486L151.426 88.0488C150.904 90.6556 150.382 93.2623 150.208 95.6953L161.003 94.9999ZM163.963 88.5698C164.311 90.829 164.311 92.9144 164.137 94.8261L172.668 94.3047C172.494 92.3931 171.972 90.4814 171.101 88.7436L163.963 88.5698ZM159.61 85.7892C158.739 82.661 157.695 80.5756 156.998 79.5328H155.953C155.431 79.5328 154.735 79.5328 154.212 79.7068C153.342 81.7923 152.645 84.0515 152.123 86.3105L159.61 85.7892ZM162.047 80.5756C162.744 82.3134 163.092 83.8775 163.44 85.6156L168.664 85.268C166.922 83.1824 164.659 81.4445 162.047 80.5756ZM171.624 102.647C172.32 101.082 172.668 99.6922 172.668 97.9543L163.789 97.4329C163.44 99.8659 162.744 102.125 162.047 103.863L171.624 102.647ZM149.511 80.9231C146.551 82.3134 144.462 84.0515 142.546 86.6581L148.64 86.3105C148.988 83.5389 149.335 81.8033 149.509 80.9316L149.511 80.9231ZM143.07 129.236C143.07 132.191 140.632 134.102 138.195 134.45C141.677 134.624 144.985 136.535 144.811 140.706C144.811 145.92 140.458 148.179 134.538 148.179H123.569V128.541C123.569 126.977 123.221 125.587 122.35 124.718C122.004 124.372 121.314 124.027 120.964 123.852L120.957 123.849V123.675H134.19C142.025 123.675 143.07 126.629 143.07 129.236ZM137.324 129.584C137.324 126.456 135.409 125.934 132.623 125.934H129.489V133.581H131.926C134.712 133.581 137.324 132.712 137.324 129.584ZM129.489 145.92H132.971C136.802 145.92 139.065 144.529 139.239 140.706C139.239 137.23 137.324 135.84 132.797 135.84H129.489V145.92ZM118.52 148.353H111.381L103.198 137.23H101.108V148.179H95.3627V129.062C95.3627 127.151 95.1886 125.587 94.1439 124.718C93.7957 124.37 93.2733 124.023 92.751 123.849V123.675H106.506C113.122 123.675 115.734 125.934 115.734 130.105C115.734 133.755 112.948 135.666 109.292 136.709L118.52 148.353ZM105.113 125.934H101.283V135.145H104.243C107.725 135.145 109.988 133.234 109.988 130.279C109.988 126.803 108.247 125.934 105.113 125.934ZM169.883 129.062C169.883 128.889 169.535 127.846 167.968 126.977C167.839 126.925 167.701 126.866 167.553 126.801C166.704 126.434 165.49 125.909 163.267 125.76C158.74 125.76 155.432 128.367 155.606 135.84C155.78 144.008 161.178 145.746 164.834 145.746C169.187 145.746 171.276 143.834 171.276 143.834V146.789C171.276 146.789 169.013 148.7 163.093 148.7C156.825 148.7 149.686 146.093 149.686 136.188C149.686 127.325 155.78 123.327 163.789 123.327C169.013 123.327 171.276 124.891 171.276 124.891L170.058 129.062H169.883Z" fill="white"/>
<path d="M189.905 157.911C186.597 157.911 183.812 155.13 183.812 151.655C183.812 148.179 186.597 145.398 189.905 145.398C193.214 145.398 195.999 148.179 195.999 151.655C195.999 155.304 193.214 157.911 189.905 157.911ZM189.905 146.788C187.294 146.788 185.204 149.048 185.204 151.655C185.204 154.435 187.294 156.694 189.905 156.694C192.517 156.694 194.607 154.435 194.607 151.655C194.607 149.048 192.517 146.788 189.905 146.788ZM190.254 148.353C191.472 148.353 192.343 149.222 192.343 150.438C192.343 151.481 191.646 152.35 190.776 152.35L191.124 152.697L192.865 155.304H191.298C190.95 154.783 190.95 154.609 190.602 154.088C189.905 152.871 189.731 152.524 189.383 152.35H189.209V155.304H187.816V148.353H190.254V148.353V148.353ZM189.035 151.307H189.557C190.08 151.307 190.428 151.307 190.602 151.133C190.776 150.959 190.95 150.786 190.95 150.438C190.95 150.09 190.776 149.743 190.428 149.569C190.254 149.569 189.905 149.395 189.731 149.395H189.209V151.307H189.035V151.307Z" fill="white"/>
</svg>
