<svg width="277" height="190" viewBox="0 0 277 190" fill="none" xmlns="http://www.w3.org/2000/svg">
<g clip-path="url(#clip0)">
<path d="M63.5882 123.701C56.0705 121.845 53.6697 113.902 54.462 107.007C54.9044 103.162 56.1305 99.4966 57.8779 96.0353C59.9922 95.3194 62.1443 94.7217 64.3307 94.2696C69.7959 93.1375 77.2433 92.7076 80.534 98.2104C84.1523 104.261 81.304 112.413 77.4782 117.615C74.7414 121.341 70.8162 124.039 66.3422 124.039C65.4436 124.041 64.5262 123.933 63.5882 123.701ZM58.4575 93.1546C58.4095 93.2385 58.358 93.3293 58.3066 93.4149C57.3857 93.7403 56.4717 94.0983 55.5714 94.4716C59.188 89.356 62.8028 84.2403 66.4159 79.1246C66.5789 78.8985 67.7278 76.631 66.7263 77.1157C62.2335 79.2804 54.9147 82.8239 50 85.1959V88.4089C53.9561 86.5027 64.0272 80.69 64.0272 80.69C60.4381 85.768 56.8438 90.8528 53.2547 95.9308C53.0918 96.1637 51.9377 98.4107 52.9512 97.9363C52.6683 98.0682 53.5617 97.6709 53.7349 97.6007C54.6009 97.2324 55.4771 96.895 56.3585 96.5696C56.4494 96.5371 56.5437 96.5046 56.6363 96.4686C53.0455 103.544 50.5916 112.259 53.8378 119.642C55.1239 122.569 57.4595 124.929 60.4381 126.132C64.8229 127.897 69.3071 126.853 72.9768 124.01C78.3459 119.851 82.1134 113.167 83.5384 106.595C84.7799 100.858 83.6687 93.8619 77.5794 91.5088C72.8842 89.6934 67.2288 90.8288 62.5473 92.0911C61.5562 92.3599 60.5633 92.6562 59.579 92.9799C63.7203 86.1893 69.7067 80.2601 75.393 75.3825C78.7609 72.4949 82.3157 69.8386 85.9906 67.3484V63C75.1306 70.4809 65.1933 81.8169 58.4575 93.1546Z" fill="white"/>
<path d="M161.725 112.71C161.725 110.999 162.987 109.589 164.526 109.589C166.054 109.589 167.314 110.999 167.314 112.71C167.314 114.432 166.052 115.842 164.526 115.842C162.986 115.842 161.725 114.432 161.725 112.71ZM160.684 112.71C160.684 115.011 162.303 116.674 164.526 116.674C166.746 116.674 168.357 115.011 168.357 112.71C168.357 110.421 166.748 108.757 164.526 108.757C162.303 108.758 160.684 110.421 160.684 112.71ZM171.143 113.035H172.452C173.492 113.035 174.082 113.532 174.082 114.422C174.082 114.826 173.919 115.231 173.678 115.44C173.412 115.659 173.146 115.727 172.452 115.727H171.143V113.035ZM171.143 109.694H172.452C173.041 109.694 173.285 109.762 173.482 109.971C173.679 110.168 173.794 110.48 173.794 110.848C173.794 111.242 173.655 111.6 173.424 111.831C173.168 112.084 172.927 112.165 172.383 112.165H171.143V109.694ZM170.195 108.895H169.557L170.195 109.844V116.524H173.017C174.256 116.524 175.089 115.703 175.089 114.489C175.089 113.437 174.511 112.722 173.492 112.525C174.302 112.247 174.801 111.589 174.801 110.767C174.801 110.236 174.569 109.716 174.199 109.37C173.817 109.022 173.412 108.895 172.671 108.895H170.195V108.895ZM183.236 112.699C183.236 114.953 185.006 116.676 187.309 116.676C187.945 116.676 188.708 116.584 189.229 116.421C189.356 116.387 189.541 116.328 189.785 116.236V113.115H188.835H188.199L188.835 114.063V115.657C188.223 115.784 187.957 115.82 187.575 115.82C185.666 115.82 184.253 114.468 184.253 112.629C184.253 111.877 184.531 111.151 185.006 110.596C185.596 109.915 186.29 109.625 187.367 109.625C187.981 109.625 188.583 109.742 189.022 109.925C189.114 109.971 189.241 110.029 189.427 110.134L189.785 109.348C189.368 109.116 189.195 109.036 188.859 108.943C188.454 108.839 187.816 108.77 187.273 108.77C184.947 108.77 183.236 110.433 183.236 112.699ZM155.002 108.895V115.356C154.979 115.311 154.967 115.263 154.955 115.241C154.863 115.022 154.863 115.01 154.816 114.895C154.782 114.825 154.746 114.756 154.712 114.71L150.929 108.895H149.691H149.055L149.691 109.843V116.524H150.641V109.913C150.687 110.064 150.709 110.122 150.756 110.202C150.768 110.247 150.802 110.295 150.848 110.375C150.905 110.49 150.963 110.582 150.997 110.641L154.851 116.594H155.95V108.895H155.002ZM138.248 116.525V115.092L137.3 115.727H133.62L138.04 109.406V108.897H132.323V110.331L133.273 109.695H136.744L132.323 116.085V116.525H138.248ZM182.566 116.525L179.731 108.678H178.08L178.489 109.291L175.866 116.524H176.884L177.671 114.27H180.082L179.777 113.403H177.97L179.22 109.913L180.458 113.403L180.758 114.27L181.545 116.524H182.566V116.525ZM144.38 116.525V115.727H140.932V113.035H143.697V112.237H140.932V109.695H144.275V108.897H139.35L139.983 109.844V116.524H144.38V116.525ZM147.167 116.525V108.897H145.586L146.218 109.846V116.525H147.167ZM193.059 116.525V108.897H191.476L192.109 109.846V116.525H193.059ZM122.703 116.024V114.234H123.207C123.867 114.234 124.418 114.504 124.418 115.138C124.418 115.821 123.84 116.051 123.212 116.051C122.998 116.051 122.828 116.044 122.703 116.024ZM122.703 112.263C122.801 112.242 122.962 112.221 123.24 112.221C123.852 112.221 124.263 112.446 124.263 112.989C124.263 113.439 123.888 113.782 123.253 113.782H122.701V112.263H122.703ZM122.098 111.858V116.469C122.298 116.495 122.621 116.524 123.039 116.524C123.806 116.524 124.334 116.383 124.654 116.083C124.898 115.854 125.061 115.547 125.061 115.143C125.061 114.446 124.536 114.08 124.09 113.975V113.953C124.577 113.778 124.884 113.381 124.884 112.924C124.884 112.557 124.732 112.278 124.488 112.095C124.202 111.857 123.811 111.752 123.207 111.752C122.787 111.754 122.363 111.797 122.098 111.858ZM128.304 111.833L127.628 113.127C127.448 113.482 127.28 113.789 127.153 114.093H127.141C126.993 113.766 126.848 113.48 126.675 113.127L126.011 111.833H125.313L126.805 114.532V116.525H127.419V114.527L128.988 111.834H128.304V111.833ZM199.98 111.833L199.144 114.102C198.933 114.693 198.767 115.21 198.642 115.683H198.628C198.503 115.195 198.35 114.679 198.155 114.102L197.354 111.833H196.581L196.252 116.525H196.829L196.955 114.513C196.996 113.804 197.032 113.023 197.044 112.439H197.059C197.191 112.994 197.371 113.593 197.594 114.261L198.361 116.496H198.822L199.652 114.22C199.889 113.573 200.079 112.982 200.245 112.437H200.259C200.259 113.014 200.3 113.807 200.334 114.462L200.446 116.525H201.046L200.753 111.833H199.98ZM202.66 116.008V112.299C202.819 112.264 203.058 112.237 203.37 112.237C204.651 112.237 205.28 112.925 205.273 114.045C205.273 115.308 204.575 116.039 203.289 116.039C203.284 116.039 203.277 116.039 203.272 116.039C203.037 116.037 202.814 116.037 202.66 116.008ZM202.048 111.853V116.469C202.36 116.51 202.718 116.524 203.157 116.524C204.069 116.524 204.795 116.286 205.241 115.847C205.673 115.416 205.916 114.789 205.916 114.025C205.916 113.266 205.673 112.716 205.247 112.333C204.838 111.949 204.215 111.754 203.342 111.754C202.862 111.754 202.423 111.797 202.048 111.853Z" fill="white"/>
<path d="M121.221 93.2657C121.221 91.339 122.825 90.046 125.241 90.046C125.944 90.046 126.666 90.1402 127.297 90.3371C127.789 90.5084 128.084 90.6574 128.766 91.0616L128.062 92.3135C127.437 91.9384 127.177 91.8168 126.786 91.6884C126.331 91.5377 125.596 91.4281 125.116 91.4281C123.733 91.4281 122.789 92.1114 122.789 93.1442C122.789 94.0433 123.327 94.504 125.796 95.8125C126.63 96.2577 127.273 96.6602 127.712 97.0524C128.302 97.5439 128.65 98.3677 128.65 99.2566C128.65 101.339 127.103 102.648 124.649 102.648C123.817 102.648 123.046 102.497 122.399 102.24C121.938 102.058 121.624 101.872 120.83 101.339L121.605 100.145C122.288 100.606 122.581 100.764 123.01 100.935C123.548 101.135 124.13 101.252 124.757 101.252C126.199 101.252 127.069 100.568 127.069 99.4073C127.069 99.0528 127.007 98.7531 126.884 98.5373C126.679 98.1759 126.33 97.8197 125.848 97.5439C125.647 97.4343 124.961 97.0832 123.817 96.4581C121.995 95.4819 121.221 94.5211 121.221 93.2657ZM210.92 102.413V91.5171H214.977V90.2498H205.34V91.5171H209.401V102.413H210.92ZM132.87 102.413V90.2498H130.351V90.2515L131.354 91.7638V102.413H132.87ZM139.714 102.413L134.713 96.1601L139.472 90.2515H137.742L132.98 96.2732L137.848 102.413H139.714ZM143.049 102.413V90.2498H140.528L141.535 91.762V102.411H143.049V102.413ZM154.972 90.2498V100.551C154.938 100.476 154.916 100.404 154.9 100.366C154.756 100.015 154.756 99.9999 154.684 99.8149C154.624 99.7019 154.566 99.5906 154.509 99.5203L148.483 90.2498H145.493L146.503 91.762V102.411H148.02V91.8699C148.096 92.1114 148.13 92.2022 148.202 92.3306C148.212 92.3991 148.278 92.4745 148.35 92.6115C148.441 92.7845 148.535 92.9403 148.585 93.0277L154.729 102.517H156.485V90.2498H154.972V90.2498ZM185.793 102.413V101.139H180.293V96.852H184.702V95.5675H180.293V91.5188H185.623V90.2515H177.776L178.779 91.7638V102.413H185.793ZM206.532 102.413V101.139H201.092V90.2515H198.575L199.582 91.7638V102.413H206.532ZM166.635 102.413V96.8503H172.805V95.4631H166.635V90.2498H164.114L165.121 91.762V102.411H166.635V102.413ZM173.81 102.413H175.325V90.2498H173.81V102.413ZM197.766 102.413L193.254 89.8987H190.62L191.27 90.8817L187.087 102.413H188.711L189.967 98.825H193.809L193.328 97.4378H190.443L192.438 91.8717L194.41 97.4378L194.891 98.825L196.142 102.413H197.766ZM218.312 102.413V96.8503H224.479V95.4631H218.312V90.2498H215.792V90.2515L216.795 91.7638V102.413H218.312ZM225.487 102.413H227.001V90.2498H225.487V102.413ZM103.893 96.328C103.893 99.1042 105.925 101.379 108.403 101.379C110.864 101.379 112.896 99.1025 112.896 96.328C112.896 93.5757 110.864 91.3082 108.403 91.3082C105.927 91.3082 103.893 93.5775 103.893 96.328ZM102.216 96.328C102.216 92.6475 104.828 89.9621 108.403 89.9621C111.982 89.9621 114.573 92.6475 114.573 96.328C114.573 100.038 111.982 102.718 108.403 102.718C104.828 102.718 102.216 100.039 102.216 96.328ZM101.261 102.386V101.105V100.075L99.7294 101.105H93.8047L100.925 90.9228V90.1025H91.7178V92.4077L93.2474 91.387H98.8377L91.7178 101.678V102.386H101.261Z" fill="white"/>
</g>
<defs>
<clipPath id="clip0">
<rect width="177" height="64" fill="white" transform="translate(50 63)"/>
</clipPath>
</defs>
</svg>
