<svg width="277" height="190" viewBox="0 0 277 190" fill="none" xmlns="http://www.w3.org/2000/svg">
<g clip-path="url(#clip0)">
<path d="M100.188 111.123V101.974H105.657V113.104L111.126 111.142V87.4787H105.676L105.694 96.5916H100.186L100.017 88.4847L94.7149 90.3714V96.5552L88.0161 96.6234V102.097L94.7149 102.047V111.142L100.188 111.123ZM123.78 111.085L123.798 92.9523H129.325V87.4969H123.798V85.6966H118.329V87.4969H112.879V92.9523H118.329V113.09L123.78 111.085ZM132.916 103.886C132.916 108.697 135.348 111.105 140.21 111.105H147.502V105.648H140.21C138.996 105.648 138.387 105.051 138.387 103.865V102.065H147.504V96.6098H138.387V92.9523H147.504V87.4969H138.387V85.6966H132.918V87.4969H131.132V92.9523H132.918V103.886H132.916ZM156.599 92.9546L162.088 92.9728C162.088 96.5847 160.843 98.3918 158.367 98.3918H156.619L156.599 92.9546ZM156.599 87.4969V85.6966H151.13V87.4969H149.232V92.9523H151.13V101.501C151.13 103.369 150.489 104.76 149.213 105.666L151.036 111.142C154.105 109.808 155.903 107.386 156.437 103.886L156.562 103.756H158.442C164.541 103.749 167.578 100.144 167.541 92.9364V87.4969H156.599ZM182.032 102.047C182.007 104.487 180.8 105.702 178.404 105.702C175.947 105.702 174.726 104.487 174.74 102.047V96.5711C174.751 94.368 175.961 92.9637 178.368 92.3743L179.189 87.2784L169.618 85.7331L168.872 91.1339L170.403 91.3888C169.661 92.7612 169.289 94.4977 169.289 96.6098V102.104C169.264 108.131 172.308 111.149 178.425 111.16C179.787 111.149 180.994 110.991 182.052 110.689V111.217L187.521 111.235V87.4787H182.052V96.8078L182.032 102.047ZM196.582 92.9546L202.071 92.9728C202.071 96.5847 200.832 98.3918 198.35 98.3918H196.602L196.582 92.9546ZM202.619 111.178H208.779L204.093 102.159C206.402 100.445 207.547 97.3722 207.522 92.9341V87.4969H196.582V85.6966H191.113V87.4969H189.214V92.9523H191.113V111.16L196.509 111.142L196.545 103.754H198.772L202.619 111.178ZM216.546 92.9341H221.355V96.5893H216.546V92.9341ZM211.113 111.105C214.647 109.528 216.47 106.487 216.582 101.974H221.355L221.412 112.887L226.827 111.069V87.4969H216.584V85.6966H211.115V87.4969H209.217V92.9523H211.097V102.029C210.985 103.631 210.351 104.842 209.181 105.666L211.022 111.142C211.047 111.13 211.072 111.117 211.097 111.105V111.142L211.113 111.105ZM95.2214 115.63C95.2214 115.461 95.2807 115.318 95.4016 115.2C95.5226 115.079 95.6686 115.02 95.8397 115.02C96.0085 115.02 96.1523 115.081 96.2709 115.202C96.3918 115.323 96.4512 115.471 96.4512 115.641C96.4512 115.81 96.3918 115.953 96.2732 116.069C96.1546 116.187 96.0108 116.247 95.8374 116.247C95.6663 116.247 95.5203 116.187 95.3993 116.069C95.2807 115.951 95.2214 115.805 95.2214 115.63ZM95.4199 122.897V117.992H96.2686V122.897H95.4199ZM98.0414 122.897V117.992H98.8628V118.748C99.075 118.434 99.3283 118.199 99.6249 118.047C99.9215 117.892 100.266 117.817 100.656 117.817C101.236 117.817 101.69 117.969 102.016 118.279C102.342 118.586 102.504 119.014 102.504 119.56V122.899H101.644V120.009C101.644 119.513 101.539 119.144 101.329 118.903C101.119 118.661 100.795 118.541 100.36 118.541C100.109 118.541 99.8804 118.586 99.6751 118.677C99.4697 118.768 99.2986 118.898 99.1617 119.067C99.0568 119.196 98.9837 119.342 98.9381 119.506C98.8925 119.67 98.8719 119.956 98.8719 120.364V122.899H98.0414V122.897ZM104.172 122.897V117.992H104.993V118.748C105.206 118.434 105.459 118.199 105.756 118.047C106.052 117.892 106.397 117.817 106.787 117.817C107.366 117.817 107.82 117.969 108.147 118.279C108.473 118.586 108.635 119.014 108.635 119.56V122.899H107.775V120.009C107.775 119.513 107.67 119.144 107.46 118.903C107.25 118.661 106.926 118.541 106.49 118.541C106.239 118.541 106.011 118.586 105.806 118.677C105.6 118.768 105.429 118.898 105.292 119.067C105.187 119.196 105.114 119.342 105.069 119.506C105.023 119.67 105.003 119.956 105.003 120.364V122.899H104.172V122.897ZM114.693 120.571H110.798V120.646C110.798 121.172 110.948 121.595 111.25 121.921C111.551 122.244 111.943 122.405 112.427 122.405C112.756 122.405 113.054 122.317 113.319 122.139C113.584 121.962 113.819 121.695 114.024 121.338L114.663 121.768C114.417 122.21 114.102 122.544 113.718 122.769C113.335 122.995 112.89 123.106 112.386 123.106C111.638 123.106 111.031 122.861 110.57 122.367C110.107 121.873 109.876 121.226 109.876 120.428C109.876 119.658 110.107 119.03 110.563 118.541C111.021 118.051 111.61 117.806 112.331 117.806C113.059 117.806 113.634 118.038 114.058 118.502C114.483 118.966 114.695 119.601 114.695 120.405V120.571H114.693ZM113.789 119.89C113.759 119.458 113.616 119.126 113.356 118.891C113.095 118.657 112.74 118.541 112.29 118.541C111.882 118.541 111.542 118.664 111.27 118.907C110.999 119.153 110.841 119.481 110.798 119.89H113.789V119.89ZM115.97 122.897V117.992H116.716V119.012C116.942 118.586 117.182 118.284 117.435 118.102C117.691 117.919 117.999 117.828 118.364 117.828C118.464 117.828 118.56 117.835 118.653 117.853C118.747 117.869 118.841 117.894 118.932 117.926L118.653 118.682C118.558 118.65 118.466 118.625 118.38 118.609C118.293 118.593 118.211 118.586 118.133 118.586C117.688 118.586 117.355 118.746 117.134 119.067C116.913 119.387 116.801 119.868 116.801 120.512V122.901H115.97V122.897ZM128.152 122.897L127.394 121.987C127.047 122.337 126.676 122.601 126.276 122.776C125.879 122.954 125.455 123.043 125.003 123.043C124.307 123.043 123.746 122.838 123.317 122.426C122.888 122.014 122.671 121.481 122.671 120.824C122.671 120.355 122.822 119.922 123.121 119.524C123.42 119.126 123.871 118.752 124.478 118.406L124.157 118.047C123.986 117.842 123.858 117.635 123.776 117.426C123.694 117.214 123.652 116.986 123.652 116.74C123.652 116.253 123.819 115.86 124.154 115.552C124.49 115.247 124.923 115.095 125.457 115.095C125.998 115.095 126.431 115.245 126.755 115.546C127.079 115.846 127.241 116.244 127.241 116.74C127.241 117.127 127.127 117.476 126.901 117.787C126.673 118.099 126.311 118.406 125.813 118.707L127.527 120.771C127.67 120.614 127.819 120.434 127.972 120.232C128.127 120.029 128.289 119.802 128.46 119.549L129.035 120.175C128.882 120.407 128.72 120.626 128.553 120.826C128.387 121.028 128.213 121.217 128.029 121.393L129.286 122.899H128.152V122.897ZM126.872 121.347L124.969 119.053L124.738 119.208C124.31 119.501 124.013 119.765 123.849 120.002C123.684 120.239 123.605 120.5 123.605 120.789C123.605 121.204 123.741 121.55 124.015 121.825C124.289 122.1 124.631 122.237 125.044 122.237C125.339 122.237 125.631 122.164 125.925 122.023C126.219 121.882 126.534 121.654 126.872 121.347ZM125.297 118.09L125.642 117.892C125.886 117.742 126.069 117.571 126.192 117.382C126.315 117.193 126.377 116.986 126.377 116.761C126.377 116.492 126.292 116.278 126.123 116.115C125.955 115.953 125.731 115.871 125.453 115.871C125.181 115.871 124.958 115.958 124.786 116.128C124.615 116.299 124.529 116.517 124.529 116.781C124.529 116.913 124.554 117.043 124.602 117.168C124.65 117.294 124.72 117.41 124.814 117.517L125.297 118.09ZM133.276 120.459C133.276 120.098 133.342 119.758 133.475 119.437C133.607 119.117 133.801 118.832 134.054 118.582C134.31 118.331 134.597 118.14 134.919 118.01C135.241 117.881 135.585 117.815 135.95 117.815C136.309 117.815 136.648 117.881 136.968 118.013C137.287 118.145 137.579 118.338 137.842 118.591C138.097 118.837 138.289 119.121 138.421 119.44C138.554 119.761 138.62 120.098 138.62 120.455C138.62 120.812 138.554 121.149 138.421 121.465C138.289 121.782 138.095 122.062 137.842 122.31C137.579 122.567 137.287 122.763 136.963 122.899C136.639 123.036 136.302 123.102 135.95 123.102C135.588 123.102 135.245 123.036 134.921 122.901C134.597 122.767 134.308 122.576 134.054 122.326C133.801 122.068 133.607 121.782 133.475 121.468C133.342 121.156 133.276 120.819 133.276 120.459ZM134.168 120.459C134.168 120.976 134.342 121.415 134.689 121.775C135.035 122.134 135.457 122.314 135.95 122.314C136.441 122.314 136.858 122.134 137.203 121.775C137.547 121.415 137.719 120.976 137.719 120.459C137.719 119.94 137.547 119.503 137.203 119.144C136.858 118.784 136.441 118.604 135.95 118.604C135.453 118.604 135.031 118.784 134.684 119.144C134.342 119.501 134.168 119.94 134.168 120.459ZM140.723 117.992V120.405C140.723 121.108 140.828 121.602 141.038 121.882C141.248 122.162 141.602 122.303 142.099 122.303C142.597 122.303 142.95 122.164 143.156 121.886C143.361 121.609 143.464 121.115 143.464 120.405V117.992H144.324V120.855C144.324 121.595 144.134 122.155 143.756 122.535C143.375 122.915 142.818 123.106 142.079 123.106C141.346 123.106 140.792 122.915 140.413 122.533C140.034 122.15 139.843 121.591 139.843 120.855V117.992H140.723V117.992ZM146.081 118.684H145.177V117.992H146.081V116.014H146.941V117.992H147.842V118.684H146.941V122.897H146.081V118.684ZM153.188 120.571H149.293V120.646C149.293 121.172 149.444 121.595 149.745 121.921C150.046 122.244 150.438 122.405 150.922 122.405C151.253 122.405 151.55 122.317 151.814 122.139C152.079 121.962 152.314 121.695 152.517 121.338L153.156 121.768C152.909 122.21 152.595 122.544 152.209 122.769C151.826 122.995 151.381 123.106 150.877 123.106C150.128 123.106 149.524 122.861 149.06 122.367C148.597 121.873 148.367 121.226 148.367 120.428C148.367 119.658 148.595 119.03 149.054 118.541C149.512 118.051 150.101 117.806 150.822 117.806C151.55 117.806 152.125 118.038 152.549 118.502C152.973 118.966 153.186 119.601 153.186 120.405V120.571H153.188ZM152.287 119.89C152.257 119.458 152.113 119.126 151.855 118.891C151.595 118.657 151.239 118.541 150.788 118.541C150.379 118.541 150.039 118.664 149.765 118.907C149.494 119.153 149.336 119.481 149.293 119.89H152.287V119.89ZM154.468 122.897V117.992H155.214V119.012C155.44 118.586 155.679 118.284 155.935 118.102C156.188 117.919 156.498 117.828 156.863 117.828C156.964 117.828 157.06 117.835 157.153 117.853C157.247 117.869 157.34 117.894 157.434 117.926L157.153 118.682C157.057 118.65 156.966 118.625 156.879 118.609C156.793 118.593 156.711 118.586 156.633 118.586C156.188 118.586 155.855 118.746 155.634 119.067C155.412 119.387 155.301 119.868 155.301 120.512V122.901H154.468V122.897ZM207.93 121.734V122.708C207.709 122.84 207.458 122.94 207.182 123.006C206.904 123.072 206.605 123.104 206.281 123.104C205.521 123.104 204.909 122.865 204.446 122.383C203.983 121.902 203.75 121.27 203.75 120.487C203.75 119.701 203.99 119.057 204.469 118.559C204.951 118.061 205.564 117.812 206.313 117.812C206.584 117.812 206.851 117.84 207.111 117.899C207.371 117.956 207.615 118.04 207.844 118.152V119.053C207.629 118.914 207.406 118.807 207.177 118.734C206.947 118.661 206.714 118.625 206.479 118.625C205.927 118.625 205.484 118.798 205.151 119.142C204.818 119.488 204.652 119.945 204.652 120.516C204.652 121.019 204.818 121.443 205.154 121.782C205.489 122.121 205.909 122.292 206.413 122.292C206.666 122.292 206.915 122.246 207.159 122.157C207.406 122.068 207.663 121.927 207.93 121.734ZM209.144 122.897V114.59H210.004V122.897H209.144ZM211.613 115.63C211.613 115.461 211.672 115.318 211.793 115.2C211.914 115.079 212.06 115.02 212.231 115.02C212.4 115.02 212.544 115.081 212.665 115.202C212.783 115.323 212.845 115.471 212.845 115.641C212.845 115.81 212.786 115.953 212.667 116.069C212.548 116.187 212.405 116.247 212.231 116.247C212.06 116.247 211.914 116.187 211.793 116.069C211.672 115.951 211.613 115.805 211.613 115.63ZM211.811 122.897V117.992H212.66V122.897H211.811ZM214.433 122.897V117.992H215.254V118.748C215.466 118.434 215.72 118.199 216.016 118.047C216.313 117.892 216.657 117.817 217.048 117.817C217.627 117.817 218.081 117.969 218.407 118.279C218.734 118.586 218.896 119.014 218.896 119.56V122.899H218.036V120.009C218.036 119.513 217.931 119.144 217.721 118.903C217.511 118.661 217.189 118.541 216.751 118.541C216.5 118.541 216.272 118.586 216.067 118.677C215.861 118.768 215.69 118.898 215.553 119.067C215.451 119.196 215.375 119.342 215.332 119.506C215.286 119.67 215.263 119.956 215.263 120.364V122.899H214.433V122.897ZM220.406 115.63C220.406 115.461 220.465 115.318 220.586 115.2C220.707 115.079 220.853 115.02 221.024 115.02C221.193 115.02 221.337 115.081 221.458 115.202C221.577 115.323 221.638 115.471 221.638 115.641C221.638 115.81 221.579 115.953 221.46 116.069C221.342 116.187 221.198 116.247 221.024 116.247C220.853 116.247 220.707 116.187 220.586 116.069C220.468 115.951 220.406 115.805 220.406 115.63ZM220.607 122.897V117.992H221.456V122.897H220.607ZM227 121.734V122.708C226.779 122.84 226.528 122.94 226.252 123.006C225.973 123.072 225.674 123.104 225.35 123.104C224.591 123.104 223.979 122.865 223.516 122.383C223.053 121.902 222.82 121.27 222.82 120.487C222.82 119.701 223.06 119.057 223.539 118.559C224.02 118.061 224.634 117.812 225.382 117.812C225.654 117.812 225.921 117.84 226.181 117.899C226.441 117.956 226.685 118.04 226.913 118.152V119.053C226.699 118.914 226.475 118.807 226.247 118.734C226.017 118.661 225.784 118.625 225.549 118.625C224.997 118.625 224.554 118.798 224.221 119.142C223.888 119.488 223.721 119.945 223.721 120.516C223.721 121.019 223.888 121.443 224.223 121.782C224.559 122.121 224.978 122.292 225.483 122.292C225.736 122.292 225.985 122.246 226.229 122.157C226.475 122.068 226.731 121.927 227 121.734ZM164.58 117.817L166.051 121.338L167.373 117.995H168.319L166.134 123.204L164.516 119.442L162.898 123.204L160.706 117.995H161.641L162.953 121.338L164.448 117.817H164.58ZM173.567 120.571H169.672V120.646C169.672 121.172 169.823 121.595 170.124 121.921C170.425 122.244 170.818 122.405 171.301 122.405C171.632 122.405 171.929 122.317 172.194 122.139C172.458 121.962 172.693 121.695 172.896 121.338L173.535 121.768C173.289 122.21 172.974 122.544 172.588 122.769C172.205 122.995 171.76 123.106 171.256 123.106C170.507 123.106 169.903 122.861 169.44 122.367C168.977 121.873 168.746 121.226 168.746 120.428C168.746 119.658 168.974 119.03 169.433 118.541C169.891 118.051 170.48 117.806 171.201 117.806C171.929 117.806 172.504 118.038 172.928 118.502C173.353 118.966 173.565 119.601 173.565 120.405V120.571H173.567ZM172.666 119.89C172.636 119.458 172.492 119.126 172.235 118.891C171.975 118.657 171.619 118.541 171.167 118.541C170.758 118.541 170.418 118.664 170.145 118.907C169.873 119.153 169.716 119.481 169.672 119.89H172.666V119.89ZM174.879 122.897V114.59H175.739V122.897H174.879ZM177.544 122.897V114.59H178.404V122.897H177.544ZM180.165 122.897V117.992H180.987V118.748C181.199 118.434 181.452 118.199 181.749 118.047C182.046 117.892 182.39 117.817 182.78 117.817C183.36 117.817 183.814 117.969 184.14 118.279C184.466 118.586 184.628 119.014 184.628 119.56V122.899H183.77V120.009C183.77 119.513 183.665 119.144 183.456 118.903C183.246 118.661 182.924 118.541 182.486 118.541C182.235 118.541 182.007 118.586 181.801 118.677C181.596 118.768 181.425 118.898 181.288 119.067C181.185 119.196 181.11 119.342 181.067 119.506C181.021 119.67 180.998 119.956 180.998 120.364V122.899H180.165V122.897ZM190.686 120.571H186.791V120.646C186.791 121.172 186.942 121.595 187.243 121.921C187.544 122.244 187.937 122.405 188.42 122.405C188.751 122.405 189.048 122.317 189.312 122.139C189.577 121.962 189.812 121.695 190.015 121.338L190.654 121.768C190.408 122.21 190.093 122.544 189.707 122.769C189.322 122.995 188.879 123.106 188.375 123.106C187.626 123.106 187.022 122.861 186.559 122.367C186.095 121.873 185.865 121.226 185.865 120.428C185.865 119.658 186.093 119.03 186.552 118.541C187.01 118.051 187.599 117.806 188.32 117.806C189.048 117.806 189.623 118.038 190.047 118.502C190.472 118.966 190.684 119.601 190.684 120.405V120.571H190.686ZM189.782 119.89C189.753 119.458 189.609 119.126 189.351 118.891C189.091 118.657 188.735 118.541 188.283 118.541C187.875 118.541 187.535 118.664 187.261 118.907C186.99 119.153 186.832 119.481 186.789 119.89H189.782V119.89ZM191.432 122.071L192.151 121.588C192.288 121.85 192.459 122.043 192.666 122.175C192.874 122.305 193.118 122.371 193.403 122.371C193.679 122.371 193.903 122.303 194.072 122.169C194.243 122.032 194.327 121.855 194.327 121.634C194.327 121.463 194.27 121.32 194.152 121.206C194.035 121.092 193.837 120.985 193.554 120.89L193.415 120.842C192.219 120.43 191.621 119.918 191.621 119.299C191.621 118.862 191.783 118.507 192.105 118.231C192.427 117.956 192.847 117.819 193.362 117.819C193.789 117.819 194.154 117.903 194.457 118.074C194.763 118.245 194.98 118.484 195.112 118.796L194.43 119.214C194.33 118.989 194.181 118.816 193.987 118.693C193.791 118.573 193.565 118.511 193.308 118.511C193.061 118.511 192.86 118.579 192.703 118.718C192.548 118.855 192.47 119.032 192.47 119.246C192.47 119.547 192.796 119.797 193.447 120.002C193.57 120.041 193.666 120.07 193.736 120.093C194.27 120.264 194.642 120.459 194.852 120.68C195.062 120.901 195.167 121.19 195.167 121.552C195.167 122.016 195 122.392 194.67 122.681C194.339 122.97 193.905 123.111 193.371 123.111C192.913 123.111 192.523 123.024 192.203 122.854C191.884 122.676 191.626 122.419 191.432 122.071ZM195.915 122.071L196.634 121.588C196.771 121.85 196.942 122.043 197.15 122.175C197.357 122.305 197.602 122.371 197.887 122.371C198.163 122.371 198.386 122.303 198.555 122.169C198.726 122.032 198.811 121.855 198.811 121.634C198.811 121.463 198.754 121.32 198.635 121.206C198.519 121.092 198.32 120.985 198.037 120.89L197.898 120.842C196.703 120.43 196.105 119.918 196.105 119.299C196.105 118.862 196.267 118.507 196.588 118.231C196.91 117.956 197.33 117.819 197.846 117.819C198.272 117.819 198.637 117.903 198.941 118.074C199.247 118.245 199.463 118.484 199.596 118.796L198.913 119.214C198.813 118.989 198.665 118.816 198.471 118.693C198.275 118.573 198.049 118.511 197.791 118.511C197.544 118.511 197.344 118.579 197.186 118.718C197.031 118.855 196.954 119.032 196.954 119.246C196.954 119.547 197.28 119.797 197.93 120.002C198.053 120.041 198.149 120.07 198.22 120.093C198.754 120.264 199.126 120.459 199.336 120.68C199.545 120.901 199.65 121.19 199.65 121.552C199.65 122.016 199.484 122.392 199.153 122.681C198.822 122.97 198.389 123.111 197.855 123.111C197.396 123.111 197.006 123.024 196.687 122.854C196.365 122.676 196.107 122.419 195.915 122.071ZM88.0571 91.1066C90.357 95.9498 91.4932 103.36 85.4926 112.152C87.8997 106.84 85.9695 101.558 82.992 98.8948C80.6716 96.8192 77.7032 95.0895 74.4063 93.9515C75.8643 89.5248 72.9666 88.1547 70.4477 87.9475C67.9288 87.7404 65.3985 88.6941 65.3803 90.533C65.3597 92.7134 70.2857 93.7626 75.2003 95.8792C80.1149 97.9936 85.0203 101.175 84.9587 107.619C84.8834 115.441 77.3313 119.139 69.818 118.982C62.9732 118.841 56.247 115.109 52.9433 109.724C48.9071 103.146 48.5375 93.1185 54.9077 85.906C53.1395 90.4761 53.6893 94.1267 54.8781 96.4277C57.308 101.139 62.6264 103.128 64.5749 104C62.6652 109.061 66.7287 110.272 69.4347 110.482C72.1407 110.689 74.8558 109.894 74.874 108.151C74.8969 105.718 69.9823 104.685 65.0791 102.675C60.1759 100.663 55.2796 97.6681 55.3389 91.3114C55.4142 83.4161 62.7701 79.39 70.0872 79.4765C72.6198 79.5061 76.2111 80.2071 79.6973 82.1644L76.3297 87.1578C76.0126 87.6266 75.7935 88.0318 75.8392 88.0636C75.8848 88.0932 76.1768 87.7382 76.494 87.2693L79.8685 82.2622C80.6556 82.7152 81.4382 83.2318 82.2003 83.8235L77.9565 88.4983C77.5755 88.9171 77.3017 89.2881 77.3405 89.3245C77.3815 89.3609 77.7215 89.0514 78.1025 88.6326L82.3577 83.9442C83.081 84.5154 83.7837 85.1527 84.4568 85.8628L79.3711 90.0573C78.9353 90.4169 78.609 90.7447 78.6432 90.7856C78.6775 90.8289 79.0608 90.5694 79.4966 90.2098L84.5937 86.0062C85.2234 86.6844 85.828 87.4241 86.3939 88.2366C86.3961 88.2411 86.3984 88.2434 86.4007 88.248L80.5507 91.8007C80.067 92.0943 79.6973 92.372 79.7247 92.4175C79.7544 92.463 80.1696 92.2627 80.6533 91.9691L86.5102 88.4096C87.0099 89.1424 87.5096 89.9845 87.9682 90.9268L81.4633 93.6943C80.9408 93.9151 80.537 94.1358 80.5575 94.1859C80.578 94.236 81.0184 94.0971 81.5409 93.8764L88.0571 91.1066ZM95.2784 76.5291C95.3697 76.454 95.486 76.4245 95.5956 76.4381C95.6024 76.3289 95.6526 76.2219 95.7439 76.1445C95.8351 76.0694 95.9515 76.0398 96.061 76.0535C96.0679 75.9442 96.1181 75.8373 96.2093 75.7599C96.3006 75.6848 96.4169 75.6552 96.5265 75.6688C96.5333 75.5596 96.5835 75.4526 96.6748 75.3752C96.766 75.3001 96.8824 75.2706 96.9919 75.2842C96.9988 75.175 97.0489 75.068 97.1402 74.9906C97.2315 74.9155 97.3478 74.8859 97.4574 74.8996C97.4642 74.7903 97.5144 74.6834 97.6057 74.606C97.6832 74.5422 97.7791 74.5104 97.8749 74.5127C97.8201 74.2691 97.9023 74.0029 98.1076 73.8322C98.3997 73.5909 98.8354 73.6319 99.0773 73.9232C99.3191 74.2145 99.2781 74.6492 98.986 74.8905C98.7784 75.0612 98.5023 75.0908 98.2719 74.9906C98.2559 75.0839 98.208 75.1704 98.1281 75.2364C98.0369 75.3115 97.9205 75.3411 97.811 75.3274C97.8042 75.4367 97.754 75.5437 97.6627 75.621C97.5714 75.6962 97.4551 75.7257 97.3456 75.7121C97.3387 75.8213 97.2885 75.9283 97.1973 76.0057C97.106 76.0808 96.9896 76.1104 96.8801 76.0967C96.8733 76.206 96.8231 76.3129 96.7318 76.3903C96.6405 76.4654 96.5242 76.495 96.4147 76.4814C96.4078 76.5906 96.3576 76.6976 96.2664 76.7749C96.1751 76.8501 96.0587 76.8796 95.9492 76.866C95.9424 76.9752 95.8922 77.0822 95.8009 77.1596C95.7096 77.2347 95.5933 77.2643 95.4838 77.2506C95.4769 77.3599 95.4267 77.4668 95.3355 77.5442C95.2442 77.6193 95.1278 77.6489 95.0183 77.6353C95.0115 77.7445 94.9613 77.8515 94.87 77.9289C94.7787 78.004 94.6624 78.0335 94.5529 78.0199C94.546 78.1291 94.4958 78.2361 94.4046 78.3135C94.3133 78.3886 94.1969 78.4182 94.0874 78.4045C94.0806 78.5138 94.0304 78.6207 93.9391 78.6981C93.8479 78.7732 93.7315 78.8028 93.622 78.7892C93.6151 78.8984 93.5649 79.0054 93.4737 79.0828C93.3824 79.1579 93.266 79.1874 93.1565 79.1738C93.1497 79.283 93.0995 79.39 93.0082 79.4674C92.917 79.5448 92.8006 79.5721 92.6911 79.5584C92.6842 79.6677 92.634 79.7746 92.5428 79.852C92.4515 79.9271 92.3351 79.9567 92.2256 79.9431C92.2188 80.0523 92.1686 80.1593 92.0773 80.2367C91.9861 80.3118 91.8697 80.3413 91.7602 80.3277C91.7533 80.4369 91.7031 80.5439 91.6119 80.6213C91.5206 80.6964 91.4043 80.726 91.2947 80.7123C91.2879 80.8216 91.2377 80.9285 91.1464 81.0059C90.9981 81.1288 90.7882 81.1288 90.6399 81.0196L84.5937 86.0062C84.548 85.9584 84.5047 85.9083 84.4591 85.8605L90.5281 80.8534C90.4483 80.6873 90.4893 80.4825 90.6376 80.3618C90.7289 80.2867 90.8453 80.2571 90.9548 80.2708C90.9616 80.1616 91.0118 80.0546 91.1031 79.9772C91.1943 79.9021 91.3107 79.8725 91.4202 79.8862C91.4271 79.7769 91.4773 79.6699 91.5685 79.5926C91.6598 79.5175 91.7762 79.4879 91.8857 79.5015C91.8925 79.3923 91.9427 79.2853 92.034 79.2079C92.1252 79.1328 92.2416 79.1032 92.3511 79.1169C92.358 79.0076 92.4082 78.9007 92.4994 78.8233C92.5907 78.7482 92.7071 78.7186 92.8166 78.7323C92.8234 78.623 92.8736 78.516 92.9649 78.4387C93.0561 78.3636 93.1725 78.334 93.282 78.3476C93.2889 78.2384 93.3391 78.1314 93.4303 78.054C93.5216 77.9789 93.6379 77.9493 93.7475 77.963C93.7543 77.8537 93.8045 77.7468 93.8958 77.6694C93.987 77.5943 94.1034 77.5647 94.2129 77.5784C94.2198 77.4691 94.27 77.3621 94.3612 77.2848C94.4525 77.2097 94.5688 77.1801 94.6784 77.1937C94.6852 77.0845 94.7354 76.9775 94.8267 76.9001C94.9179 76.825 95.0343 76.7954 95.1438 76.8091C95.137 76.7112 95.1872 76.6043 95.2784 76.5291ZM99.2667 80.0637C99.3693 80.0022 99.4857 79.9886 99.5929 80.0204C99.6158 79.9135 99.6796 79.8133 99.7823 79.7519C99.885 79.6904 100.001 79.6768 100.109 79.7086C100.131 79.6017 100.195 79.5015 100.298 79.4401C100.398 79.3786 100.517 79.365 100.624 79.3968C100.647 79.2899 100.711 79.1897 100.814 79.1283C100.9 79.0759 100.998 79.0577 101.092 79.0737C101.074 78.8233 101.192 78.5729 101.42 78.4341C101.744 78.2361 102.169 78.3385 102.367 78.664C102.566 78.9872 102.463 79.4105 102.137 79.6085C101.909 79.7473 101.63 79.7382 101.416 79.6062C101.386 79.695 101.327 79.7746 101.24 79.8293C101.138 79.8907 101.021 79.9044 100.914 79.8725C100.891 79.9795 100.827 80.0796 100.725 80.1411C100.622 80.2025 100.506 80.2162 100.398 80.1843C100.376 80.2913 100.312 80.3914 100.209 80.4529C100.106 80.5143 99.9899 80.528 99.8827 80.4961C99.8599 80.6031 99.796 80.7032 99.6933 80.7647C99.5907 80.8261 99.4743 80.8398 99.3671 80.8079C99.3442 80.9149 99.2804 81.015 99.1777 81.0765C99.075 81.1379 98.9586 81.1516 98.8514 81.1197C98.8286 81.2267 98.7647 81.3268 98.662 81.3883C98.5594 81.4497 98.443 81.4634 98.3358 81.4315C98.313 81.5385 98.2491 81.6386 98.1464 81.7001C98.0437 81.7615 97.9274 81.7752 97.8201 81.7433C97.7973 81.8503 97.7334 81.9504 97.6308 82.0119C97.5281 82.0733 97.4117 82.087 97.3045 82.0551C97.2817 82.1621 97.2178 82.2622 97.1151 82.3237C97.0124 82.3851 96.8961 82.3988 96.7888 82.3669C96.766 82.4739 96.7021 82.574 96.5995 82.6355C96.4968 82.697 96.3804 82.7106 96.2732 82.6787C96.2504 82.7857 96.1865 82.8859 96.0838 82.9473C95.9812 83.0088 95.8648 83.0224 95.7576 82.9905C95.7347 83.0975 95.6709 83.1977 95.5682 83.2591C95.4655 83.3206 95.3491 83.3342 95.2419 83.3024C95.2191 83.4093 95.1552 83.5095 95.0525 83.5709C94.9499 83.6324 94.8335 83.646 94.7263 83.6142C94.7035 83.7211 94.6396 83.8213 94.5369 83.8827C94.4342 83.9442 94.3179 83.9578 94.2106 83.926C94.1878 84.0329 94.1239 84.1331 94.0213 84.1945C93.9186 84.256 93.8022 84.2696 93.695 84.2378C93.6722 84.3447 93.6083 84.4449 93.5056 84.5063C93.3413 84.6065 93.1337 84.5769 93.0037 84.4471L86.4988 88.4005C86.4623 88.3458 86.4235 88.2889 86.387 88.2366L92.8987 84.2787C92.8439 84.1035 92.9124 83.9055 93.0767 83.8076C93.1793 83.7462 93.2957 83.7325 93.4029 83.7644C93.4258 83.6574 93.4896 83.5573 93.5923 83.4958C93.695 83.4344 93.8113 83.4207 93.9186 83.4526C93.9414 83.3456 94.0053 83.2455 94.108 83.184C94.2106 83.1226 94.327 83.1089 94.4342 83.1408C94.457 83.0338 94.5209 82.9336 94.6236 82.8722C94.7263 82.8107 94.8426 82.7971 94.9499 82.829C94.9727 82.722 95.0366 82.6218 95.1392 82.5604C95.2419 82.4989 95.3583 82.4853 95.4655 82.5172C95.4883 82.4102 95.5522 82.31 95.6549 82.2486C95.7576 82.1871 95.8739 82.1735 95.9812 82.2053C96.004 82.0984 96.0679 81.9982 96.1705 81.9368C96.2732 81.8753 96.3896 81.8617 96.4968 81.8935C96.5196 81.7866 96.5835 81.6864 96.6862 81.625C96.7888 81.5635 96.9052 81.5499 97.0124 81.5817C97.0353 81.4748 97.0991 81.3746 97.2018 81.3132C97.3045 81.2517 97.4208 81.2381 97.5281 81.2699C97.5509 81.163 97.6148 81.0628 97.7175 81.0014C97.8178 80.9399 97.9365 80.9263 98.0437 80.9581C98.0665 80.8512 98.1304 80.751 98.2331 80.6896C98.3358 80.6281 98.4521 80.6145 98.5594 80.6463C98.5822 80.5394 98.6461 80.4392 98.7487 80.3778C98.8514 80.3163 98.9678 80.3027 99.075 80.3345C99.1001 80.2253 99.1663 80.1251 99.2667 80.0637ZM90.8384 74.037C90.8293 73.9277 90.8635 73.8139 90.9434 73.7252C91.0232 73.6364 91.1327 73.5909 91.2445 73.5909C91.2354 73.4817 91.2696 73.3679 91.3495 73.2791C91.4294 73.1903 91.5389 73.1448 91.6507 73.1448C91.6415 73.0356 91.6758 72.9218 91.7556 72.833C91.8355 72.7443 91.945 72.6987 92.0568 72.6987C92.0477 72.5895 92.0819 72.4757 92.1617 72.3869C92.2416 72.2982 92.3511 72.2527 92.4606 72.2527C92.4515 72.1434 92.4857 72.0296 92.5656 71.9408C92.6454 71.8521 92.755 71.8066 92.8645 71.8066C92.8554 71.6973 92.8896 71.5835 92.9694 71.4948C93.0493 71.406 93.1588 71.3605 93.2683 71.3605C93.2592 71.2512 93.2934 71.1374 93.3733 71.0487C93.4531 70.9599 93.5627 70.9144 93.6722 70.9144C93.663 70.8052 93.6973 70.6914 93.7771 70.6026C93.8456 70.5275 93.9346 70.4842 94.0281 70.4706C93.9391 70.2362 93.9802 69.9631 94.1604 69.765C94.416 69.4828 94.8518 69.4623 95.1324 69.7173C95.4153 69.9722 95.4358 70.4069 95.1803 70.6868C95.0001 70.8848 94.7308 70.9531 94.489 70.8894C94.4867 70.9827 94.4502 71.0783 94.3817 71.1534C94.3019 71.2421 94.1924 71.2877 94.0829 71.2877C94.092 71.3969 94.0578 71.5107 93.9779 71.5995C93.898 71.6882 93.7885 71.7337 93.679 71.7337C93.6881 71.843 93.6539 71.9568 93.5741 72.0455C93.4942 72.1343 93.3847 72.1798 93.2729 72.1798C93.282 72.2891 93.2478 72.4029 93.1679 72.4916C93.0881 72.5804 92.9786 72.6259 92.8668 72.6259C92.8759 72.7352 92.8417 72.8489 92.7618 72.9377C92.682 73.0265 92.5724 73.072 92.4606 73.072C92.4698 73.1812 92.4355 73.295 92.3557 73.3838C92.2758 73.4726 92.1663 73.5181 92.0545 73.5181C92.0636 73.6273 92.0294 73.7411 91.9496 73.8299C91.8697 73.9186 91.7602 73.9642 91.6507 73.9642C91.6598 74.0734 91.6256 74.1872 91.5457 74.276C91.4659 74.3647 91.3563 74.4102 91.2468 74.4102C91.256 74.5195 91.2217 74.6333 91.1419 74.722C91.062 74.8108 90.9525 74.8563 90.8407 74.8563C90.8498 74.9656 90.8156 75.0794 90.7357 75.1681C90.6559 75.2569 90.5464 75.3024 90.4346 75.3024C90.4437 75.4117 90.4095 75.5255 90.3296 75.6142C90.2498 75.703 90.1402 75.7485 90.0307 75.7485C90.0399 75.8577 90.0056 75.9715 89.9258 76.0603C89.8459 76.1491 89.7364 76.1946 89.6269 76.1946C89.636 76.3038 89.6018 76.4176 89.5219 76.5064C89.4421 76.5951 89.3326 76.6407 89.223 76.6407C89.2322 76.7499 89.1979 76.8637 89.1181 76.9525C89.0382 77.0412 88.9287 77.0868 88.8192 77.0868C88.8283 77.196 88.7941 77.3098 88.7142 77.3986C88.6344 77.4873 88.5249 77.5328 88.4154 77.5328C88.4245 77.6421 88.3903 77.7559 88.3104 77.8446C88.1803 77.988 87.975 78.0176 87.813 77.9311L82.3531 83.9464C82.3007 83.9055 82.2459 83.8691 82.1934 83.8281L87.6647 77.7991C87.562 77.6466 87.5712 77.4372 87.7012 77.2961C87.7811 77.2074 87.8906 77.1619 88.0001 77.1619C87.991 77.0526 88.0252 76.9388 88.1051 76.8501C88.1849 76.7613 88.2944 76.7158 88.4039 76.7158C88.3948 76.6065 88.429 76.4927 88.5089 76.404C88.5888 76.3152 88.6983 76.2697 88.8078 76.2697C88.7987 76.1604 88.8329 76.0466 88.9127 75.9579C88.9926 75.8691 89.1021 75.8236 89.2116 75.8236C89.2025 75.7144 89.2367 75.6006 89.3166 75.5118C89.3964 75.423 89.506 75.3775 89.6155 75.3775C89.6064 75.2683 89.6406 75.1545 89.7204 75.0657C89.8003 74.977 89.9098 74.9314 90.0193 74.9314C90.0102 74.8222 90.0444 74.7084 90.1243 74.6196C90.2041 74.5309 90.3137 74.4854 90.4254 74.4854C90.4163 74.3761 90.4505 74.2623 90.5304 74.1735C90.6194 74.0825 90.7289 74.037 90.8384 74.037ZM84.4043 75.175C84.2811 75.0384 84.2606 74.8313 84.3678 74.672C84.434 74.5741 84.5366 74.5127 84.6461 74.4967C84.621 74.3898 84.6393 74.2714 84.7055 74.1735C84.7716 74.0757 84.8743 74.0142 84.9838 73.9983C84.9587 73.8913 84.977 73.7753 85.0431 73.6751C85.1093 73.5773 85.212 73.5158 85.3215 73.4999C85.2964 73.3929 85.3147 73.2745 85.3808 73.1767C85.447 73.0788 85.5497 73.0174 85.6592 73.0014C85.6341 72.8945 85.6523 72.7761 85.7185 72.6783C85.7847 72.5804 85.8873 72.5189 85.9969 72.503C85.9718 72.396 85.99 72.2777 86.0562 72.1798C86.1223 72.082 86.225 72.0205 86.3345 72.0046C86.3094 71.8976 86.3277 71.7815 86.3939 71.6814C86.46 71.5835 86.5627 71.5221 86.6722 71.5061C86.6471 71.3992 86.6654 71.2808 86.7315 71.183C86.7977 71.0851 86.9004 71.0236 87.0099 71.0077C86.9848 70.9007 87.003 70.7847 87.0692 70.6845C87.1354 70.5867 87.238 70.5252 87.3476 70.5093C87.3225 70.4023 87.3407 70.284 87.4069 70.1861C87.4731 70.0882 87.5757 70.0268 87.6852 70.0108C87.6601 69.9039 87.6784 69.7855 87.7446 69.6877C87.8107 69.5898 87.9134 69.5283 88.0229 69.5124C87.9978 69.4054 88.0161 69.2871 88.0822 69.1892C88.1484 69.0914 88.2511 69.0299 88.3606 69.014C88.3355 68.907 88.3538 68.7887 88.4199 68.6908C88.4861 68.5929 88.5888 68.5315 88.6983 68.5156C88.6732 68.4086 88.6914 68.2902 88.7576 68.1924C88.8238 68.0945 88.9264 68.0331 89.036 68.0171C89.0109 67.9102 89.0291 67.7918 89.0953 67.6939C89.1614 67.5961 89.2641 67.5346 89.3736 67.5187C89.3485 67.4117 89.3668 67.2934 89.433 67.1955C89.49 67.1113 89.5721 67.0544 89.6634 67.0294C89.5425 66.8109 89.5447 66.5332 89.6931 66.3124C89.9052 65.9984 90.3342 65.9142 90.649 66.1258C90.9639 66.3375 91.0483 66.7654 90.8361 67.0794C90.6856 67.3002 90.43 67.4094 90.1813 67.3776C90.1927 67.4709 90.1722 67.5688 90.1151 67.653C90.049 67.7508 89.9463 67.8123 89.8368 67.8282C89.8619 67.9352 89.8436 68.0535 89.7775 68.1514C89.7113 68.2493 89.6086 68.3107 89.4991 68.3267C89.5242 68.4336 89.506 68.552 89.4398 68.6498C89.3736 68.7477 89.271 68.8092 89.1614 68.8251C89.1865 68.9321 89.1683 69.0504 89.1021 69.1483C89.036 69.2461 88.9333 69.3076 88.8238 69.3235C88.8489 69.4305 88.8306 69.5488 88.7644 69.6467C88.6983 69.7446 88.5956 69.806 88.4861 69.8219C88.5112 69.9289 88.4929 70.045 88.4268 70.1451C88.3606 70.243 88.2579 70.3044 88.1484 70.3204C88.1735 70.4273 88.1553 70.5457 88.0891 70.6436C88.0229 70.7414 87.9202 70.8029 87.8107 70.8188C87.8358 70.9258 87.8176 71.0441 87.7514 71.142C87.6852 71.2399 87.5826 71.3013 87.4731 71.3172C87.4982 71.4242 87.4799 71.5426 87.4137 71.6404C87.3476 71.7383 87.2449 71.7997 87.1354 71.8157C87.1605 71.9226 87.1422 72.041 87.0761 72.1389C87.0099 72.2367 86.9072 72.2982 86.7977 72.3141C86.8228 72.4211 86.8045 72.5394 86.7384 72.6373C86.6722 72.7352 86.5695 72.7966 86.46 72.8125C86.4851 72.9195 86.4669 73.0379 86.4007 73.1357C86.3345 73.2336 86.2319 73.295 86.1223 73.311C86.1474 73.4179 86.1292 73.5363 86.063 73.6341C85.9969 73.732 85.8942 73.7935 85.7847 73.8094C85.8098 73.9164 85.7915 74.0347 85.7253 74.1326C85.6592 74.2304 85.5565 74.2919 85.447 74.3078C85.4721 74.4148 85.4538 74.5331 85.3877 74.631C85.3215 74.7289 85.2188 74.7903 85.1093 74.8063C85.1344 74.9132 85.1162 75.0293 85.05 75.1294C84.9428 75.2888 84.742 75.3479 84.5686 75.2865L79.8685 82.2622C79.8114 82.2281 79.7521 82.1962 79.6951 82.1644L84.4043 75.175ZM104.581 84.7157C104.334 84.8204 104.06 84.7703 103.869 84.611C103.828 84.6952 103.755 84.7658 103.661 84.8067C103.552 84.8523 103.433 84.8477 103.332 84.8045C103.296 84.9092 103.216 84.9957 103.107 85.0434C102.997 85.089 102.878 85.0844 102.778 85.0412C102.742 85.1459 102.662 85.2323 102.552 85.2801C102.443 85.3257 102.324 85.3211 102.224 85.2779C102.187 85.3826 102.107 85.469 101.998 85.5168C101.888 85.5624 101.77 85.5578 101.669 85.5146C101.633 85.6193 101.553 85.7057 101.443 85.7535C101.334 85.8013 101.215 85.7945 101.115 85.7513C101.078 85.856 100.998 85.9424 100.889 85.9902C100.779 86.0358 100.661 86.0312 100.56 85.988C100.524 86.0927 100.444 86.1791 100.334 86.2269C100.225 86.2725 100.106 86.2679 100.006 86.2247C99.9694 86.3294 99.8895 86.4158 99.78 86.4636C99.6705 86.5092 99.5519 86.5046 99.4515 86.4614C99.415 86.5661 99.3351 86.6525 99.2256 86.7003C99.1161 86.7459 98.9974 86.7413 98.897 86.6981C98.8605 86.8027 98.7807 86.8892 98.6712 86.937C98.5616 86.9825 98.443 86.978 98.3426 86.9348C98.3061 87.0394 98.2262 87.1259 98.1167 87.1737C98.0072 87.2215 97.8886 87.2147 97.7882 87.1715C97.7517 87.2761 97.6718 87.3626 97.5623 87.4104C97.4528 87.4559 97.3341 87.4514 97.2338 87.4081C97.1972 87.5128 97.1174 87.5993 97.0079 87.6471C96.8984 87.6949 96.7797 87.6881 96.6793 87.6448C96.6428 87.7495 96.563 87.836 96.4534 87.8838C96.3439 87.9293 96.2253 87.9248 96.1249 87.8815C96.0884 87.9862 96.0085 88.0727 95.899 88.1205C95.7895 88.166 95.6709 88.1615 95.5705 88.1182C95.534 88.2229 95.4541 88.3094 95.3446 88.3572C95.1666 88.4323 94.9658 88.3731 94.8563 88.2275L88.0571 91.1066C88.0275 91.0451 87.9978 90.9882 87.9704 90.929L94.781 88.0318C94.7514 87.8497 94.8472 87.6653 95.0252 87.5902C95.1347 87.5424 95.2533 87.5493 95.3537 87.5925C95.3902 87.4878 95.4701 87.4013 95.5796 87.3535C95.6891 87.308 95.8078 87.3126 95.9081 87.3558C95.9446 87.2511 96.0245 87.1646 96.134 87.1168C96.2435 87.0713 96.3622 87.0759 96.4626 87.1191C96.4991 87.0144 96.5789 86.9279 96.6885 86.8801C96.798 86.8346 96.9166 86.8392 97.017 86.8824C97.0535 86.7777 97.1334 86.6912 97.2429 86.6434C97.3524 86.5979 97.471 86.6025 97.5714 86.6457C97.6079 86.541 97.6878 86.4545 97.7973 86.4067C97.9068 86.3612 98.0255 86.3658 98.1259 86.409C98.1624 86.3043 98.2422 86.2178 98.3517 86.17C98.4613 86.1245 98.5799 86.1291 98.6803 86.1723C98.7168 86.0676 98.7967 85.9811 98.9062 85.9333C99.0157 85.8878 99.1343 85.8924 99.2347 85.9356C99.2712 85.8309 99.3511 85.7444 99.4606 85.6966C99.5701 85.6488 99.6888 85.6557 99.7891 85.6989C99.8257 85.5942 99.9055 85.5077 100.015 85.4599C100.125 85.4144 100.243 85.419 100.344 85.4622C100.38 85.3575 100.46 85.271 100.569 85.2232C100.679 85.1755 100.798 85.1823 100.898 85.2255C100.935 85.1208 101.014 85.0343 101.124 84.9865C101.233 84.941 101.352 84.9456 101.452 84.9888C101.489 84.8841 101.569 84.7976 101.678 84.7498C101.788 84.7043 101.906 84.7089 102.007 84.7521C102.043 84.6474 102.123 84.5609 102.233 84.5132C102.342 84.4676 102.461 84.4722 102.561 84.5154C102.598 84.4107 102.678 84.3242 102.787 84.2765C102.897 84.2309 103.015 84.2355 103.116 84.2787C103.152 84.174 103.232 84.0875 103.342 84.0398C103.435 83.9988 103.536 83.9965 103.625 84.0261C103.64 83.7757 103.796 83.5459 104.042 83.4412C104.391 83.2932 104.797 83.4548 104.946 83.8031C105.094 84.1627 104.93 84.5655 104.581 84.7157Z" fill="white"/>
</g>
<defs>
<clipPath id="clip0">
<rect width="177" height="57.2012" fill="white" transform="translate(50 66)"/>
</clipPath>
</defs>
</svg>
