<svg width="277" height="190" viewBox="0 0 277 190" fill="none" xmlns="http://www.w3.org/2000/svg">
<g clip-path="url(#clip0)">
<path d="M50 91.1855H54.4403V102.09H59.8926V106.658H50V91.1855Z" fill="white"/>
<path d="M65.4959 91.1877H61.0557V106.661H65.4959V91.1877Z" fill="white"/>
<path d="M78.3852 106.096C76.856 106.695 75.4104 106.94 73.587 106.94C69.7472 106.94 66.6611 104.231 66.6611 98.7026C66.6611 93.5077 69.8805 90.9082 73.587 90.9082C75.7604 90.9082 76.8063 91.1298 77.9199 91.4932V95.6579C77.2875 95.1727 76.1104 94.7714 74.8636 94.7714C72.6623 94.7714 71.2088 96.2608 71.2088 99.0799C71.2088 101.21 71.855 103.077 73.6228 103.077C73.937 103.077 74.3008 103.077 74.5653 102.935V98.8104H78.3852V106.096V106.096Z" fill="white"/>
<path d="M87.489 91.1855H91.9273V106.658H87.489V101.082H84.5282V106.658H80.0859V91.1855H84.5282V96.5122H87.489V91.1855Z" fill="white"/>
<path d="M105.188 95.7555H101.274V106.658H96.8361V95.7555H92.9248V91.1855H105.188V95.7555Z" fill="white"/>
<path d="M171.845 95.3582C171.845 93.8648 171.738 93.4176 170.847 93.2899L170.38 93.226C170.209 93.1201 170.189 92.7787 170.4 92.6949C172.207 92.5871 173.927 92.5232 175.731 92.5232C177.516 92.5232 179.022 92.651 180.404 93.1641C183.271 94.2082 184.715 96.64 184.715 99.4551C184.715 102.162 183.42 104.486 180.998 105.81C179.616 106.557 177.874 106.832 176.242 106.832C174.884 106.832 173.522 106.662 172.78 106.662C171.889 106.662 171.123 106.682 170.125 106.726C169.996 106.662 169.954 106.321 170.083 106.191L170.573 106.127C171.803 105.958 171.845 105.7 171.845 103.462V95.3582V95.3582ZM173.585 102.971C173.585 104.101 173.649 104.784 174.009 105.295C174.476 105.956 175.283 106.167 176.624 106.167C180.742 106.167 182.589 103.46 182.589 99.493C182.589 97.1471 181.463 93.182 175.9 93.182C174.645 93.182 173.967 93.3537 173.796 93.4815C173.627 93.6093 173.585 94.1404 173.585 95.1007V102.971Z" fill="white"/>
<path d="M196.5 97.94C196.5 96.6163 196.458 94.1666 196.097 93.5257C195.947 93.2702 195.564 93.1204 195.033 93.0765L194.502 93.0346C194.377 92.8848 194.416 92.6093 194.544 92.5215C195.355 92.5654 196.138 92.5854 196.966 92.5854C197.858 92.5854 198.431 92.5654 199.197 92.5215C199.368 92.6273 199.348 92.9068 199.238 93.0346L198.727 93.0765C198.198 93.1204 197.793 93.3121 197.665 93.5876C197.369 94.2924 197.369 96.7441 197.369 97.94V100.35C197.369 102.205 197.073 104.165 195.882 105.445C194.969 106.447 193.396 107.002 191.827 107.002C190.362 107.002 188.896 106.725 187.856 105.83C186.731 104.892 186.198 103.335 186.198 100.799V95.7638C186.198 93.5457 186.158 93.1823 184.925 93.0765L184.392 93.0346C184.265 92.9507 184.307 92.5854 184.436 92.5215C185.496 92.5654 186.22 92.5854 187.067 92.5854C187.94 92.5854 188.642 92.5654 189.68 92.5215C189.807 92.5854 189.849 92.9487 189.723 93.0346L189.212 93.0765C187.982 93.1823 187.938 93.5457 187.938 95.7638V100.37C187.938 103.804 188.998 106.062 192.247 106.062C195.325 106.062 196.496 103.63 196.496 100.39V97.94H196.5Z" fill="white"/>
<path d="M201.448 95.7836C201.448 93.5655 201.406 93.246 200.151 93.0963L199.811 93.0544C199.684 92.9705 199.728 92.5832 199.855 92.5193C200.766 92.5632 201.488 92.5832 202.363 92.5832H206.354C207.712 92.5832 208.966 92.5832 209.219 92.5193C209.348 92.8827 209.475 94.418 209.559 95.3563C209.473 95.4841 209.133 95.526 209.026 95.4002C208.71 94.396 208.517 93.6513 207.415 93.3738C206.97 93.268 206.29 93.246 205.355 93.246H203.826C203.19 93.246 203.19 93.2879 203.19 94.0985V98.3631C203.19 98.96 203.252 98.96 203.89 98.96H205.123C206.014 98.96 206.674 98.9181 206.926 98.8302C207.183 98.7444 207.328 98.6166 207.435 98.0855L207.606 97.2111C207.712 97.0813 208.074 97.0813 208.157 97.231C208.157 97.7441 208.074 98.5747 208.074 99.3853C208.074 100.152 208.157 100.965 208.157 101.432C208.074 101.581 207.712 101.581 207.606 101.454L207.415 100.621C207.328 100.238 207.183 99.9183 206.757 99.8105C206.461 99.7267 205.952 99.7067 205.123 99.7067H203.89C203.252 99.7067 203.19 99.7267 203.19 100.28V103.288C203.19 104.418 203.252 105.143 203.594 105.505C203.846 105.762 204.293 105.996 206.163 105.996C207.801 105.996 208.416 105.912 208.883 105.678C209.265 105.465 209.839 104.718 210.392 103.608C210.539 103.502 210.836 103.566 210.921 103.758C210.772 104.506 210.243 106.145 209.967 106.722C208.056 106.68 206.163 106.659 204.276 106.659H202.367C201.452 106.659 200.73 106.679 199.475 106.722C199.35 106.659 199.308 106.317 199.436 106.187L200.136 106.123C201.347 106.02 201.454 105.696 201.454 103.458V95.7836H201.448Z" fill="white"/>
<path d="M218.181 103.46C218.181 105.699 218.227 106.02 219.456 106.126L220.136 106.19C220.263 106.275 220.221 106.661 220.094 106.725C218.883 106.683 218.161 106.661 217.312 106.661C216.461 106.661 215.717 106.681 214.359 106.725C214.232 106.661 214.188 106.297 214.359 106.19L215.123 106.126C216.334 106.022 216.441 105.699 216.441 103.46V93.9291C216.441 93.2683 216.441 93.2463 215.803 93.2463H214.636C213.721 93.2463 212.554 93.2882 212.021 93.7794C211.51 94.2486 211.299 94.7177 211.064 95.2508C210.893 95.3786 210.599 95.2748 210.514 95.1011C210.854 94.1407 211.172 92.7771 211.319 91.9246C211.385 91.8827 211.659 91.8607 211.723 91.9246C211.85 92.6074 212.552 92.5835 213.528 92.5835H222.128C223.278 92.5835 223.469 92.5415 223.785 91.9885C223.892 91.9466 224.125 91.9665 224.169 92.0524C223.934 92.9269 223.785 94.6558 223.85 95.2927C223.765 95.4644 223.405 95.4644 223.3 95.3347C223.234 94.8016 223.087 94.013 222.767 93.7794C222.277 93.416 221.47 93.2463 220.305 93.2463H218.796C218.157 93.2463 218.179 93.2683 218.179 93.971V103.46H218.181Z" fill="white"/>
<path d="M226.364 92.2979V92.4696H225.916V93.6335H225.695V92.4696H225.252V92.2979H226.364ZM227.777 93.6335L227.72 92.8289C227.712 92.7251 227.72 92.5973 227.716 92.4676H227.706C227.67 92.5913 227.624 92.7311 227.58 92.8489L227.276 93.6175H227.107L226.811 92.8309C226.773 92.7251 226.737 92.5933 226.704 92.4696H226.694C226.69 92.5973 226.694 92.7111 226.688 92.8309L226.632 93.6355H226.419L226.535 92.2998H226.825L227.111 93.0246C227.149 93.1244 227.177 93.2342 227.215 93.36H227.223C227.254 93.2362 227.29 93.1184 227.326 93.0206L227.61 92.2998H227.897L228.006 93.6355H227.777V93.6335Z" fill="white"/>
<path d="M108.894 88.2688C108.894 85.1582 111.754 83.3893 115.234 83.3893C117.835 83.3893 120.692 84.735 122.482 86.991C120.628 88.9236 119.133 91.1497 117.964 93.4417C117.574 93.5396 116.987 93.5396 116.401 93.5396C113.281 93.5396 108.894 91.5111 108.894 88.2688ZM96.0449 100.527C96.0449 105.019 100.591 106.94 104.456 106.94C106.276 106.94 108.419 106.583 110.109 105.866C115.566 103.554 117.648 98.8982 119.793 93.855C123.82 93.1243 129.445 89.1732 129.445 85.5755C129.445 84.5972 128.924 84.0082 127.819 84.0082C126.128 84.0082 123.919 85.6414 122.75 86.8193C120.952 84.5713 118.155 83 115.1 83C111.3 83 108.055 85.2241 108.055 88.728C108.055 92.3616 112.146 94.3821 115.753 94.3821C116.401 94.3821 116.987 94.2843 117.574 94.2543C114.713 100.531 112.34 106.551 104.291 106.551C101.368 106.551 96.888 104.924 96.888 101.376C96.888 97.0714 101.31 94.0467 105.309 94.0467C107.747 94.0467 110.738 94.989 110.738 97.9179C110.738 101.27 107.455 102.961 104.496 102.961C101.666 102.961 100.433 101.985 100.3 101.985C100.205 101.985 100.139 102.049 100.139 102.148C100.139 102.344 102.022 103.352 104.56 103.352C107.715 103.352 111.127 101.3 111.127 97.9498C111.127 94.4999 107.777 93.0923 104.82 93.0923C100.62 93.0943 96.0449 95.9334 96.0449 100.527ZM129.054 85.5755C129.054 89.0015 123.854 92.6252 120.05 93.1802C120.895 91.3853 121.74 89.4268 123.074 87.7956C123.754 88.6761 124.21 89.6863 124.309 89.6863C124.373 89.6863 124.438 89.6544 124.438 89.5545C124.438 89.4268 123.561 87.9214 123.271 87.5321C124.148 86.2922 126.262 84.3996 127.852 84.3996C128.63 84.4015 129.054 84.8887 129.054 85.5755Z" fill="white"/>
<path d="M119.463 106.772C121.251 103.606 123.072 100.629 124.891 97.8857L124.86 97.8178C123.949 98.832 123.494 99.5188 122.324 100.793C120.926 102.328 120.926 102.458 120.795 102.458C120.698 102.458 120.664 102.392 120.664 102.264C120.664 101.937 124.498 98.4088 127.377 93.4255L130.891 87.3761L132.861 87.1465C131.626 89.3287 125.673 99.1595 123.364 103.276L123.428 103.34C126.55 99.7484 128.908 97.688 130.053 97.688C130.984 97.688 131.334 98.5386 131.334 99.3891C131.334 101.184 127.759 104.488 127.759 105.922C127.759 106.151 127.922 106.379 128.254 106.379C129.268 106.379 130.252 105.466 132.05 103.57C132.796 102.819 133.543 101.773 133.704 101.773C133.804 101.773 133.869 101.839 133.869 101.937C133.869 102.036 133.088 102.949 132.243 103.863C129.958 106.413 128.872 106.772 128.085 106.772C127.441 106.772 126.808 106.415 126.808 104.977C126.808 102.104 130.384 99.8163 130.384 98.5086C130.384 98.281 130.187 98.0833 130.024 98.0833C128.284 98.0833 122.388 104.78 121.477 106.578L119.463 106.772Z" fill="white"/>
<path d="M140.196 98.0835C140.619 98.0835 140.85 98.2792 140.85 98.7025C140.85 101.064 137.406 102.925 135.26 103.185C135.696 101.35 138.468 98.0835 140.196 98.0835ZM141.8 99.2575C141.8 98.3431 141.166 97.6882 140.196 97.6882C138.396 97.6882 136.314 98.96 134.526 100.791C134.266 101.052 133.315 102.065 133.315 102.194C133.315 102.256 133.451 102.388 133.484 102.388C133.516 102.388 133.554 102.324 133.586 102.29C133.586 102.29 133.618 102.29 133.618 102.354C133.636 102.466 133.538 102.825 133.538 103.312C133.538 105.009 134.328 106.804 136.119 106.77C137.646 106.74 138.913 106.119 140.542 104.618C141.516 103.74 142.783 102.238 142.783 102.107C142.783 101.975 142.719 101.911 142.621 101.911C142.494 101.911 142.166 102.498 140.899 103.804C138.915 105.76 137.227 106.413 136.348 106.377C135.34 106.347 134.984 105.924 134.984 104.65C134.984 104.291 135.047 103.933 135.113 103.576C137.036 103.181 141.8 101.709 141.8 99.2575Z" fill="white"/>
<path d="M149.231 98.0835C149.656 98.0835 149.885 98.2792 149.885 98.7025C149.885 101.064 146.439 102.925 144.295 103.185C144.733 101.35 147.505 98.0835 149.231 98.0835ZM150.835 99.2575C150.835 98.3431 150.199 97.6882 149.231 97.6882C147.431 97.6882 145.349 98.96 143.562 100.791C143.303 101.052 142.353 102.065 142.353 102.194C142.353 102.256 142.484 102.388 142.52 102.388C142.555 102.388 142.587 102.324 142.621 102.29C142.621 102.29 142.655 102.29 142.655 102.354C142.675 102.466 142.575 102.825 142.575 103.312C142.575 105.009 143.363 106.804 145.156 106.77C146.683 106.74 147.95 106.119 149.575 104.618C150.549 103.74 151.82 102.238 151.82 102.107C151.82 101.975 151.756 101.911 151.659 101.911C151.529 101.911 151.203 102.498 149.935 103.804C147.95 105.76 146.26 106.413 145.385 106.377C144.377 106.347 144.021 105.924 144.021 104.65C144.021 104.291 144.084 103.933 144.15 103.576C146.071 103.181 150.835 101.709 150.835 99.2575Z" fill="white"/>
<path d="M152.016 106.772C155.299 101.448 157.019 99.4212 157.019 98.5407C157.019 98.2792 156.795 98.0835 156.469 98.0835C156.015 98.0835 155.234 98.4429 153.933 99.7846C151.951 101.841 151.659 102.394 151.527 102.394C151.43 102.394 151.364 102.33 151.364 102.232C151.364 102.069 152.47 100.893 153.283 99.9782C154.683 98.4729 155.687 97.6902 156.6 97.6902C157.409 97.6902 157.859 98.4409 157.859 99.2275C157.859 100.533 156.467 102.757 155.816 103.638L155.882 103.702C157.6 101.675 159.193 100.597 159.483 99.7147C159.809 98.7663 160.489 97.6882 161.666 97.6882C162.221 97.6882 162.448 97.8519 162.448 98.2133C162.448 99.4911 158.807 100.479 158.807 102.745C158.807 103.402 159.292 103.861 159.881 103.861C160.4 103.861 160.923 103.632 161.342 103.207C162.06 102.482 162.321 101.957 162.45 101.957C162.545 101.957 162.643 102.021 162.643 102.12C162.643 102.218 162.122 102.809 161.832 103.173C161.181 103.925 160.465 104.187 159.849 104.187C159.135 104.187 158.417 103.7 158.417 102.911C158.417 102.152 158.644 101.595 159.066 101.07L159.002 101.006C157.312 102.584 155.751 104.478 154.092 106.579L152.016 106.772Z" fill="white"/>
<path d="M164.693 97.7681C165.326 97.7681 165.831 98.2532 165.831 98.8582C165.831 99.4731 165.326 99.9522 164.689 99.9522C164.057 99.9522 163.542 99.4731 163.542 98.8582C163.542 98.2532 164.057 97.7681 164.689 97.7681H164.693ZM164.687 97.9378C164.178 97.9378 163.761 98.351 163.761 98.8582C163.761 99.3753 164.178 99.7825 164.691 99.7825C165.206 99.7865 165.618 99.3753 165.618 98.8622C165.618 98.3491 165.206 97.9378 164.691 97.9378H164.687ZM164.473 99.4931H164.266V98.2772C164.375 98.2632 164.479 98.2492 164.632 98.2492C164.827 98.2492 164.956 98.2872 165.033 98.3411C165.109 98.395 165.151 98.4768 165.151 98.5926C165.151 98.7523 165.037 98.8502 164.9 98.8881V98.8981C165.013 98.9181 165.091 99.0139 165.115 99.1936C165.147 99.3832 165.177 99.4551 165.196 99.495H164.982C164.952 99.4571 164.92 99.3453 164.894 99.1856C164.864 99.0319 164.781 98.972 164.616 98.972H164.473V99.4931ZM164.473 98.8182H164.622C164.793 98.8182 164.936 98.7603 164.936 98.6106C164.936 98.5048 164.854 98.397 164.622 98.397C164.554 98.397 164.508 98.403 164.473 98.4069V98.8182Z" fill="white"/>
</g>
<defs>
<clipPath id="clip0">
<rect width="178" height="24" fill="white" transform="translate(50 83)"/>
</clipPath>
</defs>
</svg>
