<svg width="278" height="190" viewBox="0 0 278 190" fill="none" xmlns="http://www.w3.org/2000/svg">
<path d="M191.146 126.028C144.147 169.447 56.7756 135.248 57.2785 79.1321C57.5726 46.2755 96.5844 34.4271 134.619 51.1555C94.8902 36.7156 69.5624 50.8533 69.5624 73.5129C69.5624 103.527 111.598 132.278 143.99 122.697L119.527 106.452H122.606L159.269 124.062C122.998 145.544 53.5421 109.802 65.6897 64.9287C49.0638 113.768 127.063 160.239 175.668 125.67L124.968 106.452H127.316L191.146 126.028ZM134.412 75.4843C139.084 75.4843 142.858 71.363 143.386 65.7786C143.684 62.7085 142.94 60.036 141.315 58.2439C140.015 56.8184 138.245 56.002 136.204 56.002C131.497 56.002 127.836 60.0017 127.304 65.637C127 68.7842 127.73 71.5046 129.357 73.2802C130.625 74.6777 132.375 75.4843 134.412 75.4843ZM145.418 57.4305C147.447 59.6448 148.388 62.6262 148.092 65.8142C147.447 72.5914 141.503 77.7312 134.228 77.7312C130.649 77.7312 127.445 76.4168 125.304 74.0677C123.312 71.8751 122.378 68.9135 122.68 65.7171C123.324 58.9873 129.358 53.7178 136.415 53.7178C140.047 53.7182 143.237 55.0339 145.418 57.4305ZM165.084 71.374L165.576 72.9364C165.943 74.0915 166.37 75.1706 166.867 75.8179C167.185 76.2286 167.547 76.3812 168.242 76.5669L168.035 77.3849L164.769 77.3917C162.93 77.3917 162.371 76.605 161.481 73.8965L160.134 69.6455C158.978 66.7462 157.218 66.7217 156.223 66.7217H155.006C154.891 67.9683 154.361 73.6782 154.361 73.6782C154.338 73.9622 154.32 74.2381 154.32 74.4895C154.32 75.1694 154.43 75.636 154.614 76.0158C154.73 76.2735 155.019 76.4134 155.492 76.5741L155.344 77.4019L148.642 77.3853L148.507 76.5741C149.346 76.2587 149.976 75.8234 150.147 73.76L151.678 57.7598C151.882 55.6769 151.561 55.2514 150.575 54.8606L150.735 54.0539H158.277C161.285 54.0539 162.646 54.396 164.11 55.526C165.307 56.4819 165.962 57.9256 165.962 59.5371C165.962 59.7278 165.952 59.9199 165.932 60.117C165.704 62.5614 164.24 64.3319 162.17 65.1991C161.522 65.4721 161.15 65.5637 160.561 65.6722C162.005 66.1812 163.67 67.1701 164.413 69.3696L165.084 71.374ZM156.026 56.1839C155.98 56.6654 155.259 64.1225 155.203 64.6846H156.369C157.163 64.6846 161.107 64.4709 161.508 60.2115C161.525 60.008 161.538 59.8109 161.538 59.6253C161.538 58.6381 161.278 57.8412 160.749 57.2694C159.828 56.2542 158.305 56.1834 157.691 56.1834H156.026V56.1839ZM134.091 97.6674L134.589 99.2311C134.961 100.384 135.377 101.468 135.882 102.12C136.196 102.528 136.56 102.68 137.255 102.859L137.046 103.682L133.787 103.694C131.941 103.694 131.379 102.902 130.49 100.195L129.145 95.9423C127.994 93.0447 126.229 93.0214 125.231 93.0214H124.017C123.902 94.2667 123.367 99.9763 123.367 99.9763C123.343 100.253 123.329 100.526 123.329 100.794C123.329 101.461 123.435 101.931 123.619 102.315C123.744 102.569 124.034 102.708 124.507 102.869L124.361 103.702H117.668L117.525 102.869C118.356 102.559 118.991 102.13 119.16 100.053L120.683 84.0528C120.894 81.9754 120.573 81.5465 119.583 81.1586L119.744 80.3507L127.292 80.349C130.295 80.349 131.655 80.6936 133.122 81.8254C134.317 82.7765 134.977 84.2202 134.977 85.8335C134.977 86.0272 134.967 86.2145 134.949 86.415C134.717 88.8561 133.252 90.6278 131.181 91.4938C130.533 91.7693 130.165 91.86 129.576 91.9664C131.022 92.4793 132.68 93.4631 133.424 95.6706L134.091 97.6674ZM125.038 82.4832C124.989 82.966 124.277 90.4201 124.221 90.9835H125.384C126.17 90.9835 130.115 90.7669 130.523 86.5074C130.539 86.3069 130.55 86.1069 130.55 85.9242C130.55 84.9336 130.283 84.1405 129.759 83.567C128.838 82.5515 127.316 82.4828 126.708 82.4828H125.038V82.4832ZM189.837 66.9277C189.962 65.6137 190.304 65.1525 191.333 64.6184L191.15 63.85L185.319 63.8415L185.146 64.6299C185.903 64.9813 186.277 65.4166 186.268 66.4385C186.268 66.6064 186.253 66.7848 186.235 66.9802C186.235 66.9802 185.709 73.0466 185.637 73.8448C185.557 73.8905 185.47 73.9384 185.47 73.9384C182.85 75.1986 181.985 75.4233 180.199 75.4233C177.729 75.4233 175.632 74.5823 174.219 73.0348C172.64 71.2952 172 68.7626 172.283 65.7383C172.801 60.2424 176.76 56.0567 181.494 56.0567C185.322 56.0567 188.251 58.736 188.705 62.3859L189.552 62.3745L189.942 56.2547L189.739 56.1084C186.895 54.4363 184.422 53.7182 181.473 53.7182C174.225 53.7182 168.455 58.797 167.801 65.7451C167.468 69.147 168.37 72.115 170.347 74.2784C172.386 76.5257 175.555 77.7626 179.248 77.7626C182.692 77.7626 186.843 76.5567 189.573 74.7582L189.971 74.4886L189.744 74.2258C189.591 74.0304 189.283 73.7231 189.293 73.4196C189.297 73.3196 189.303 73.2145 189.313 73.086C189.314 73.0856 189.837 66.9378 189.837 66.9277ZM97.5877 103.752L97.6471 102.948C98.3249 102.78 98.6831 102.615 98.9165 101.383C98.9696 101.11 99.0124 100.895 99.0485 100.512L100.695 83.6264C100.73 83.2483 100.746 82.9312 100.746 82.6553C100.746 81.4235 100.397 81.1277 99.7556 80.9586L99.8464 80.2032H107.372C108.905 80.2032 109.68 80.2935 110.591 80.4821C113.189 81.031 115.138 83.1758 115.138 85.3083C115.138 85.4477 115.137 85.5859 115.12 85.7254C114.936 87.5472 113.857 89.188 112.337 90.126C111.758 90.4858 111.4 90.6316 110.91 90.8143C111.273 90.8847 111.462 90.9407 111.788 91.0475C114.465 91.8918 116.058 94.034 116.058 96.7214C116.058 96.9282 116.049 97.1236 116.028 97.3309C115.883 98.8322 115.275 100.062 114.148 101.242C113.416 102.003 112.561 102.561 111.604 102.965C110.265 103.557 108.965 103.752 106.818 103.752H97.5877ZM104.058 92.0482C104.015 92.4772 103.206 101.111 103.155 101.623H106.271C109.63 101.623 111.89 99.8571 112.163 97.0071C112.179 96.8345 112.184 96.6608 112.184 96.4781C112.184 95.3938 111.839 94.438 111.173 93.7055C110.206 92.6442 108.63 92.0482 106.637 92.0482H104.058V92.0482ZM111.013 86.2154C111.023 86.0903 111.028 85.9577 111.028 85.8356C111.028 84.945 110.727 84.1274 110.16 83.5047C109.443 82.718 108.37 82.2878 107.132 82.2878H104.666C104.628 82.7112 103.984 89.4838 103.939 89.9899H106.375C108.893 89.9899 110.798 88.4428 111.013 86.2154ZM176.16 82.7346C176.301 83.2746 177.086 85.9755 177.086 85.9755C177.086 85.9755 178.424 83.2127 178.663 82.654C178.946 81.9907 178.696 81.4303 177.41 81.4303C176.118 81.4303 176.018 82.2005 176.16 82.7346ZM163.427 83.8913C163.022 82.8677 162.868 82.1517 161.684 81.4189L161.615 81.3646L161.983 80.4088H168.162L168.203 81.4748C167.459 81.644 167.404 81.9805 167.375 82.2814C167.355 82.5362 167.865 83.96 168.062 84.6157C168.062 84.6157 171.22 94.6881 171.749 96.3535C172.433 94.995 173.348 93.3228 174.318 91.4531C173.996 90.3956 172.021 83.812 172.021 83.812C171.562 82.2942 171.045 81.8673 170.287 81.4121L170.677 80.3774L183.098 80.3664L183.2 81.4307C182.397 81.738 181.707 82.4756 180.999 83.801C180.999 83.801 178.239 89.2346 178.086 89.5309C178.167 89.8034 179.578 94.2172 180.05 95.7626C181.555 92.5005 185.86 83.1707 185.86 83.1622C186.15 82.551 186.135 82.5481 186.156 82.323C186.204 81.8203 186.038 81.6478 185.17 81.4753L185.37 80.3668L196.87 80.3736C196.87 80.3736 207.577 94.1748 208.45 95.334C208.715 92.5416 209.478 84.3105 209.478 84.3105C209.494 84.0625 209.507 83.8078 209.507 83.5518C209.507 82.8884 209.478 82.3098 209.336 81.9813C209.205 81.6664 209.008 81.4638 208.366 81.1781L208.527 80.3779H213.632L213.744 81.2171C212.458 81.5982 212.111 82.022 211.882 84.3334L209.942 104.559C203.514 96.2683 196.202 86.7478 195.163 85.3634C194.977 87.2377 194.499 92.5891 193.774 100.076C193.709 100.727 193.693 100.846 193.693 101.17C193.693 101.674 193.736 101.918 193.881 102.218C194.045 102.517 194.236 102.675 194.801 102.931L194.63 103.725L189.79 103.708L189.639 102.906C190.98 102.35 191.197 101.846 191.391 99.7936L192.848 84.4635C193.059 82.1768 191.874 81.502 190.899 81.502C189.917 81.502 189.021 82.295 188.138 84.2202L178.747 104.426C178.747 104.426 176.033 96.4196 175.405 94.8004C174.596 96.392 169.941 104.426 169.941 104.426L163.427 83.8913ZM193.917 65.704C193.859 66.3016 193.172 73.6413 193.172 73.6413C192.968 75.6254 192.616 76.0934 191.495 76.555L191.649 77.3302H206.371L207.421 74.1716L206.731 73.7575C206.29 74.275 205.816 74.5052 205.329 74.6662C204.48 74.9392 203.849 75.0503 202.375 75.0503H197.234C197.29 74.4623 198.043 66.3347 198.089 65.8307H201.474C202.606 65.8307 203.014 65.929 203.346 66.0901C203.642 66.1935 203.977 66.5695 204.07 66.9705L204.871 66.862L205.3 62.5436L204.481 62.4334C204.241 62.8848 204.155 63.0429 203.642 63.2697C203.211 63.5193 202.819 63.5634 201.695 63.5634H198.31C198.366 62.9967 198.951 56.7828 199 56.2619H204.081C204.862 56.2619 205.678 56.3967 206.096 56.6154C206.406 56.7731 206.564 56.996 206.731 57.5877L207.551 57.5038L207.881 54.0154H193.883L193.57 54.7957C194.608 55.259 194.869 55.7647 194.682 57.7509L194.103 63.7232L193.917 65.704ZM148.365 101.803C153.045 101.803 156.815 97.6869 157.348 92.1037C157.638 89.04 156.9 86.3629 155.269 84.5691C153.967 83.1483 152.207 82.3289 150.164 82.3289C145.455 82.3289 141.793 86.3298 141.267 91.963C140.964 95.1069 141.691 97.8217 143.316 99.6143C144.582 101.007 146.335 101.803 148.365 101.803ZM159.371 83.7595C161.402 85.9721 162.351 88.957 162.042 92.1415C161.402 98.9187 155.463 104.057 148.187 104.057C144.602 104.057 141.399 102.739 139.26 100.391C137.27 98.2096 136.333 95.2395 136.642 92.0431C137.276 85.3151 143.316 80.0438 150.381 80.0438C153.997 80.0443 157.2 81.3646 159.371 83.7595ZM108.637 65.8273C108.581 66.4267 107.891 73.6396 107.891 73.6396C107.692 75.6254 107.346 76.0917 106.224 76.5567L106.38 77.3302H121.101L122.144 74.1716L121.448 73.7562C121.016 74.2754 120.532 74.5056 120.045 74.665C119.208 74.9409 118.571 75.0507 117.105 75.0507H111.952C112.008 74.4611 112.771 66.3338 112.813 65.8311H116.193C117.323 65.8311 117.734 65.9282 118.077 66.0905C118.366 66.1923 118.697 66.5716 118.789 66.9709L119.596 66.8641L120.017 62.544L119.208 62.4338C118.961 62.8869 118.869 63.0433 118.366 63.2684C117.929 63.5198 117.534 63.5638 116.415 63.5638H113.037C113.093 62.9988 113.675 56.7832 113.721 56.2623H118.8C119.59 56.2623 120.399 56.3971 120.826 56.6175C121.139 56.7735 121.288 56.9969 121.448 57.5882L122.277 57.5042L122.609 54.0158H108.608L108.287 54.7978C109.327 55.2594 109.589 55.7634 109.399 57.753L108.85 63.5859L99.8931 63.5761L99.7085 64.4056C100.513 64.7753 100.909 65.2369 100.894 66.3075C100.894 66.4851 100.884 66.6721 100.863 66.876C100.863 66.8777 100.288 73.4201 100.209 74.2547C100.12 74.3055 100.031 74.353 100.031 74.353C97.2843 75.6818 96.3786 75.9166 94.5019 75.9166C91.905 75.9166 89.7091 75.0295 88.2259 73.4048C86.5664 71.583 85.887 68.2637 86.1862 65.0885C86.7392 59.3226 90.8903 54.9224 95.8604 54.9224C99.8697 54.9224 102.942 57.8925 103.426 61.3534L104.31 61.3436L104.735 55.1348L104.513 54.9788C101.526 53.2244 98.939 52.4708 95.8358 52.4708C88.2343 52.4708 82.1739 57.7975 81.4762 65.1025C81.1409 68.6702 82.0835 72.443 84.1542 74.715C86.3004 77.0734 89.634 78.3713 93.502 78.3713C97.1107 78.3713 101.468 77.1052 104.34 75.216L104.768 74.9354L104.528 74.6561C104.357 74.4539 104.036 74.1288 104.046 73.81C104.048 73.7083 104.053 73.5951 104.067 73.4586C104.067 73.4586 104.65 66.8442 104.65 66.8306C104.65 65.6828 107.533 65.8273 108.637 65.8273ZM161.397 111.439C161.292 112.556 161.601 113.571 162.302 114.345C163.058 115.169 164.226 115.66 165.511 115.66C166.634 115.66 167.685 115.399 168.627 114.891L168.69 114.857L168.693 114.798C169.014 113.016 169.014 113.016 168.882 112.968L168.775 112.932L168.724 113.027C167.824 114.581 166.532 114.749 166.006 114.749C165.137 114.749 164.437 114.484 163.964 113.946C163.4 113.341 163.144 112.372 163.251 111.298C163.43 109.363 164.772 108.062 166.601 108.062C167.256 108.062 168.446 108.28 168.958 109.768L168.992 109.873L169.114 109.854C169.236 109.826 169.236 109.826 169.283 107.912L169.286 107.832L169.211 107.794C168.329 107.367 167.45 107.163 166.453 107.163C163.394 107.163 161.601 109.313 161.397 111.439ZM175.512 108.042C173.946 108.042 172.795 109.294 172.587 111.229C172.564 111.444 172.556 111.636 172.556 111.815C172.556 112.975 172.933 113.643 173.285 114.025C173.689 114.483 174.247 114.723 174.872 114.723C176.422 114.723 177.556 113.46 177.74 111.508C177.867 110.317 177.64 109.322 177.091 108.71C176.688 108.268 176.15 108.042 175.512 108.042ZM170.681 111.336C170.913 109.287 172.742 107.126 175.689 107.163C176.887 107.177 178.048 107.696 178.804 108.525C179.488 109.31 179.801 110.327 179.664 111.469C179.347 114.248 176.921 115.68 174.703 115.659C173.449 115.639 172.301 115.133 171.551 114.299C170.864 113.5 170.555 112.448 170.681 111.336ZM183.577 107.949V107.945V107.949ZM184.072 107.296L184.127 107.551C183.962 107.636 183.867 107.772 183.85 107.966C183.85 107.966 183.225 114.364 183.199 114.619C183.248 114.619 183.296 114.626 183.296 114.626C183.296 114.626 184.357 114.668 184.377 114.668C185.663 114.619 186.009 114.606 186.403 113.99L186.64 114.11L186.212 115.544H181.18L181.117 115.279C181.311 115.187 181.407 115.052 181.427 114.867L182.088 107.945C182.105 107.749 182.041 107.631 181.878 107.55L181.937 107.296H184.072V107.296ZM188.988 107.296L188.932 107.551C189.11 107.631 189.172 107.75 189.156 107.948L188.481 114.867C188.458 115.055 188.363 115.187 188.169 115.279L188.228 115.544H193.28L193.696 114.11L193.461 113.99C193.053 114.612 192.716 114.619 191.425 114.668C191.405 114.668 190.341 114.626 190.341 114.626C190.341 114.626 190.297 114.619 190.254 114.619C190.282 114.364 190.899 107.969 190.899 107.969C190.925 107.767 191.011 107.636 191.185 107.55L191.126 107.296H188.988V107.296ZM200.778 107.296H196.057L196 107.551C196.168 107.641 196.247 107.769 196.231 107.945L195.556 114.867C195.537 115.077 195.427 115.171 195.223 115.286L194.79 115.544H200.444L200.844 114.11L200.612 113.986C200.171 114.635 199.772 114.647 198.852 114.668H198.72C198.187 114.687 197.617 114.657 197.342 114.622C197.369 114.395 197.632 111.637 197.652 111.427H199.306C199.402 111.427 199.533 111.554 199.562 111.667L199.822 111.652L199.95 110.404L199.688 110.333C199.638 110.443 199.461 110.583 199.357 110.583H197.73C197.752 110.345 197.942 108.349 197.961 108.145C198.173 108.149 199.837 108.165 199.837 108.165C200.263 108.19 200.451 108.275 200.607 108.527L200.817 108.88L200.916 107.296H200.778V107.296ZM202.453 111.439C202.349 112.553 202.672 113.566 203.361 114.336C204.132 115.164 205.316 115.661 206.616 115.661C207.612 115.661 209.336 115.316 210.346 114.785L210.509 114.705L210.361 114.57C210.329 114.539 210.257 114.381 210.27 114.214L210.443 112.466C210.458 112.267 210.557 112.131 210.74 112.033L211.168 111.784H208.102L208.503 112.029C208.638 112.107 208.696 112.21 208.696 112.368C208.696 112.389 208.693 112.412 208.693 112.44C208.693 112.44 208.516 114.267 208.503 114.409C208.003 114.697 207.401 114.749 207.092 114.749C206.208 114.749 205.53 114.487 205.04 113.951C204.497 113.35 204.234 112.377 204.339 111.298C204.52 109.363 205.867 108.062 207.674 108.062C207.872 108.062 209.553 108.111 210.025 109.807L210.276 109.779L210.374 107.829L210.293 107.793C209.352 107.367 208.473 107.164 207.544 107.164C204.479 107.163 202.675 109.313 202.453 111.439ZM217.811 107.296H213.072L213.013 107.551C213.191 107.641 213.273 107.768 213.257 107.948L212.578 114.867C212.561 115.079 212.454 115.174 212.25 115.286L211.793 115.543H217.472L217.873 114.109L217.641 113.986C217.187 114.634 216.799 114.646 215.875 114.668H215.737C215.215 114.687 214.645 114.653 214.36 114.622C214.382 114.395 214.657 111.637 214.677 111.427H216.333C216.429 111.427 216.564 111.553 216.595 111.667L216.848 111.652L216.965 110.403L216.726 110.331C216.667 110.443 216.488 110.583 216.384 110.583H214.759C214.784 110.344 214.969 108.349 214.996 108.145C215.2 108.148 216.858 108.165 216.858 108.165C217.286 108.19 217.476 108.275 217.641 108.526L217.852 108.873L217.952 107.296H217.811V107.296Z" fill="white"/>
</svg>
