<svg width="278" height="190" viewBox="0 0 278 190" fill="none" xmlns="http://www.w3.org/2000/svg">
<path d="M214.189 87.3291H217.352V87.7941H216.031V91.194H215.507V87.7941H214.189V87.3291Z" fill="white"/>
<path d="M221.04 91.194V88.9126C221.04 88.7983 221.057 88.3102 221.057 87.9483H221.04L219.951 91.194H219.425L218.327 87.956H218.322C218.322 88.3102 218.327 88.798 218.327 88.9126V91.194H217.822V87.3291H218.574L219.689 90.5967H219.699L220.802 87.3291H221.549V91.194H221.04Z" fill="white"/>
<path d="M123.45 95.3727C123.45 93.4122 123.894 91.7917 124.818 90.7178C125.602 89.7993 126.693 89.3241 127.952 89.3241C129.21 89.3241 130.301 89.799 131.084 90.7178C132.011 91.7917 132.457 93.4122 132.457 95.3727C132.457 97.3307 132.011 98.9508 131.084 100.025C130.301 100.942 129.21 101.421 127.952 101.421C126.693 101.421 125.602 100.942 124.818 100.025C123.894 98.9505 123.45 97.3304 123.45 95.3727ZM135.231 88.3777C133.462 86.6657 131.028 85.8057 127.936 85.8057C124.838 85.8057 122.404 86.6657 120.644 88.3777C118.883 90.0938 118.003 92.4298 118.003 95.3839C118.003 98.3153 118.883 100.639 120.644 102.365C122.404 104.088 124.838 104.948 127.936 104.948C131.048 104.948 133.483 104.088 135.242 102.365C137.003 100.639 137.881 98.3153 137.881 95.3839C137.881 92.4298 137 90.0935 135.231 88.3777Z" fill="white"/>
<path d="M175.416 104.308C176.87 104.308 177.38 104.098 178.073 101.504L178.172 101.125H168.713V96.519H174.103C175.486 96.519 176.064 96.3115 176.761 93.7164L176.862 93.3493H168.713V89.4835H174.531C176.253 89.4835 176.438 89.2747 177.068 86.6552L177.152 86.292H163.205V104.308H175.416V104.308Z" fill="white"/>
<path d="M204.868 101.585C203.625 101.572 202.013 101.38 200.289 100.441L198.987 103.365L199.269 103.515C200.03 103.915 202.19 104.941 205.421 104.941C209.608 104.941 213.43 103.207 213.43 99.3404C213.43 96.4867 211.371 95.153 208.837 93.768C206.31 92.3861 204.622 91.6648 204.653 90.3822C204.675 89.493 205.717 89.0893 207.279 89.1182C209.276 89.1538 210.47 89.5832 211.448 90.1006L212.847 87.3211L212.584 87.182C211.88 86.8102 209.866 85.8638 206.539 85.8638C201.467 85.8638 199.33 88.5122 199.33 90.9859C199.33 92.4433 199.598 94.4141 203.729 96.6139C207.104 98.4254 207.581 98.9948 207.59 99.893C207.605 101.037 206.476 101.602 204.868 101.585Z" fill="white"/>
<path d="M194.788 99.4962C193.797 98.1127 193.011 96.989 192.396 96.0465C194.421 95.3538 195.808 93.8364 195.808 91.2619C195.808 89.3501 195.04 88.1256 193.632 87.2977C192.07 86.378 189.703 86.2922 186.9 86.2922H180.801V104.309H186.172V97.4046H186.721C187.154 97.4046 187.434 97.5077 188.06 98.5144C189.396 100.652 190.058 101.649 190.942 103.062C191.415 103.815 192.173 104.309 193.609 104.309H198.637C198.638 104.309 196.429 101.799 194.788 99.4962ZM189.034 94.119C188.52 94.384 187.732 94.515 186.9 94.515H186.172V89.2323H187.307C189.387 89.2323 190.372 90.1738 190.372 91.8116C190.371 93.1495 189.753 93.7536 189.034 94.119Z" fill="white"/>
<path d="M114.008 99.4962C113.018 98.1127 112.231 96.989 111.612 96.0465C113.639 95.3538 115.021 93.8364 115.021 91.2619C115.021 89.3501 114.255 88.1256 112.849 87.2977C111.285 86.378 108.921 86.2922 106.118 86.2922H100.016V104.309H105.39V97.4046H105.936C106.371 97.4046 106.647 97.5077 107.282 98.5144C108.617 100.652 109.275 101.649 110.16 103.062C110.631 103.815 111.39 104.309 112.826 104.309H117.856C117.856 104.309 115.643 101.799 114.008 99.4962ZM108.252 94.119C107.74 94.384 106.95 94.515 106.115 94.515H105.39V89.2323H106.522C108.604 89.2323 109.589 90.1738 109.589 91.8116C109.589 93.1495 108.963 93.7536 108.252 94.119Z" fill="white"/>
<path d="M159.143 94.6515L159.157 94.6428H149.439C149.439 94.6428 149.843 96.0465 149.906 96.28C150.303 97.6811 150.601 97.8048 151.419 97.8147L151.426 97.825H153.991V101.523C153.28 101.672 152.471 101.737 151.572 101.7C148.313 101.573 145.6 99.3038 145.6 95.305C145.6 91.6299 148.116 89.2493 152.009 89.2493C154.066 89.2493 155.811 89.6732 157.306 90.3534L159.176 87.4069L158.891 87.2399C157.71 86.5482 155.767 85.869 152.471 85.7788C149.018 85.6818 145.878 86.8167 144.234 87.8986C142.695 88.9304 140.122 91.2921 140.122 95.5305C140.122 98.0032 140.884 100.054 142.386 101.624C144.426 103.756 147.894 104.943 151.909 104.943C155.269 104.943 157.678 104.314 159.193 103.443V94.6515H159.143Z" fill="white"/>
<path d="M62.1519 94.4045C60.5869 91.7599 60.0039 89.5524 60.0039 87.5687C60.0039 85.2045 61.4653 82.2183 62.1017 81.5956C65.0676 78.696 68.3688 77.459 73.0476 77.459C77.5063 77.459 81.6203 79.3136 84.6826 82.0641C76.8279 78.3254 67.6217 86.8324 63.5592 92.2066C62.8737 93.1254 62.594 93.6299 62.1519 94.4045Z" fill="white"/>
<path d="M72.3079 105.947C69.6414 107.499 67.4148 108.08 65.417 108.08C63.0341 108.08 60.0245 106.629 59.3975 105.995C56.474 103.053 55.2285 99.7782 55.2285 95.1371C55.2285 90.7144 57.0978 86.6302 59.8688 83.5906C56.1018 91.384 64.68 100.518 70.0949 104.55C71.0193 105.23 71.5262 105.506 72.3079 105.947Z" fill="white"/>
<path d="M83.9416 95.8708C85.5043 98.5151 86.0924 100.724 86.0924 102.706C86.0924 105.072 84.6297 108.058 83.9895 108.678C81.0246 111.578 77.7233 112.817 73.0497 112.817C68.5881 112.817 64.4715 110.96 61.4092 108.21C69.2672 111.949 78.4707 103.441 82.5332 98.0684C83.2198 97.1496 83.4988 96.6467 83.9416 95.8708Z" fill="white"/>
<path d="M73.7871 84.3265C76.4513 82.7776 78.6753 82.1951 80.6728 82.1951C83.0599 82.1951 86.0669 83.6473 86.6958 84.278C89.6157 87.2206 90.8648 90.4968 90.8648 95.1366C90.8648 99.5632 88.9914 103.644 86.2233 106.685C89.9928 98.8898 81.4159 89.7572 76.0004 85.725C75.0747 85.0452 74.5678 84.7658 73.7871 84.3265Z" fill="white"/>
</svg>
