<svg width="278" height="190" viewBox="0 0 278 190" fill="none" xmlns="http://www.w3.org/2000/svg">
<g clip-path="url(#clip0)">
<path fill-rule="evenodd" clip-rule="evenodd" d="M68.5762 38.3079C69.7461 38.596 72.6715 38.3079 73.8422 38.3079C75.0113 38.3079 76.182 38.596 77.3519 38.3079C81.1551 47.2515 83.6413 53.7442 88.0288 63.1212C91.9785 55.4752 94.3183 47.2515 97.8287 38.3079C98.7058 38.596 100.461 38.3079 101.339 38.3079C102.071 38.3079 103.972 38.7397 104.85 38.4516C96.6581 53.8887 93.879 59.5148 91.1 66.1505C91.1 73.7972 91.2464 87.5026 91.5393 92.4074C90.515 92.2637 84.9569 92.1185 83.9334 92.4074C84.5184 86.7805 84.2255 77.5473 84.2255 69.0362C81.7393 63.6989 71.2088 43.2126 68.5762 38.3079Z" fill="white"/>
<path fill-rule="evenodd" clip-rule="evenodd" d="M106.019 68.0268C106.019 53.0237 117.134 40.9048 130.883 40.9048C144.631 40.9048 155.893 53.023 155.893 68.0268C155.893 78.7029 150.189 87.9361 141.852 92.4083H150.481C157.794 86.7814 162.621 77.9814 162.621 68.0268C162.621 51.0032 148.434 37.1541 130.883 37.1541C113.478 37.1541 99.291 51.0039 99.291 68.0268C99.291 77.9814 103.971 86.7814 111.431 92.4083H120.059C111.723 87.9353 106.019 78.7029 106.019 68.0268ZM167.154 97.8907C167.154 96.0146 168.617 94.5718 170.519 94.5718C172.274 94.5718 173.736 96.0146 173.736 97.8907C173.736 99.6217 172.274 101.064 170.519 101.064C168.617 101.064 167.154 99.6217 167.154 97.8907ZM170.519 100.488C170.865 100.489 171.207 100.423 171.527 100.293C171.847 100.163 172.138 99.9715 172.383 99.7302C172.627 99.4889 172.821 99.2021 172.953 98.8865C173.085 98.571 173.152 98.2328 173.15 97.8915C173.15 96.3042 171.981 95.1502 170.519 95.1502C168.909 95.1502 167.887 96.3035 167.887 97.8915C167.887 99.3328 168.909 100.488 170.519 100.488ZM169.788 99.6217H169.203V96.0146H170.665C171.544 96.0146 171.981 96.3035 171.981 97.0241C171.981 97.7463 171.544 98.0337 170.959 98.0337L172.128 99.6209H171.396L170.372 98.0337H169.789V99.6217H169.788V99.6217ZM170.519 97.6026C170.958 97.6026 171.396 97.6026 171.396 97.0249C171.396 96.5923 170.958 96.4479 170.519 96.4479H169.787V97.6026H170.519V97.6026ZM168.032 92.4083C168.032 92.4083 169.202 80.7227 168.764 65.7196C168.324 50.8587 167.739 38.3088 167.739 38.3088H172.274C172.274 38.3088 183.535 53.4563 188.801 60.0927L203.719 79.425C203.719 79.425 203.427 61.6785 203.282 55.6198C203.136 49.5611 202.403 38.308 202.403 38.308H209.424C209.424 38.308 208.4 50.5706 208.4 65.7189C208.4 81.0108 208.837 92.4075 208.837 92.4075H204.304C204.304 92.4075 193.481 77.9807 186.753 69.6133C180.026 61.2459 172.858 51.5801 172.858 51.5801C172.858 51.5801 173.151 64.1316 173.298 71.0561C173.444 77.9807 173.883 92.4075 173.883 92.4075H168.032V92.4083V92.4083ZM121.815 152.28H120.646V142.758H124.594C126.203 142.758 127.227 143.912 127.227 145.499C127.227 146.797 126.495 148.24 124.594 148.24H121.815V152.28ZM121.815 147.23H124.155C125.325 147.23 126.057 146.797 126.057 145.498C126.057 144.344 125.179 143.912 124.301 143.912H121.815V147.23V147.23ZM135.124 149.538L134.247 152.28H132.931L136.294 142.758H137.757L140.974 152.28H139.658L138.781 149.538H135.124V149.538ZM138.342 148.385L137.026 144.2L135.563 148.385H138.342ZM149.019 152.28H147.849V142.758H151.943C153.406 142.758 154.868 143.335 154.868 145.355C154.868 146.797 154.137 147.23 153.7 147.662C154.138 147.807 154.723 148.095 154.723 149.395V151.126C154.723 151.703 154.868 151.847 155.161 152.135V152.28H153.7C153.553 151.703 153.553 150.26 153.553 149.971C153.553 149.105 153.407 148.239 151.944 148.239H149.02V152.28H149.019ZM149.019 147.086H151.797C152.676 147.086 153.7 146.942 153.7 145.499C153.7 144.057 152.676 143.912 152.091 143.912H149.02V147.086H149.019V147.086ZM164.668 152.28H163.498V142.758H164.668V152.28ZM178.417 145.643C178.417 144.057 177.246 143.623 176.222 143.623C175.491 143.623 174.174 143.912 174.174 145.355C174.174 146.077 174.76 146.365 175.2 146.509L177.832 147.086C179.001 147.374 179.878 148.095 179.878 149.682C179.878 151.847 177.832 152.567 176.368 152.567C174.614 152.567 174.029 151.991 173.59 151.558C172.858 150.836 172.711 150.116 172.711 149.25H173.883C173.883 150.981 175.199 151.413 176.367 151.413C177.244 151.413 178.708 151.27 178.708 149.827C178.708 148.816 178.27 148.528 176.807 148.095L174.905 147.662C174.32 147.519 173.004 147.086 173.004 145.498C173.004 144.056 173.883 142.613 176.075 142.613C179.146 142.613 179.586 144.489 179.586 145.643H178.417V145.643V145.643Z" fill="white"/>
<path fill-rule="evenodd" clip-rule="evenodd" d="M120.645 138.285C120.645 138.285 121.376 111.74 121.229 100.631C121.083 89.5232 120.06 67.0164 120.06 67.0164H127.957C127.957 67.0164 127.373 78.1257 127.373 83.0305C127.373 88.0804 127.812 97.0247 127.812 97.0247C127.812 97.0247 133.369 85.3391 135.418 80.5781C137.611 75.6733 140.828 67.0164 140.828 67.0164H147.849C147.849 67.0164 143.168 74.3742 139.511 82.0209C135.855 89.6669 132.053 97.024 132.053 97.024C132.053 97.024 136.148 105.825 138.342 110.297C140.536 114.769 143.753 121.982 143.753 121.982C143.753 121.982 148.726 112.749 150.921 107.412C153.261 102.218 156.039 95.1493 156.039 95.1493H161.305C161.305 95.1493 165.839 106.691 170.08 115.779C174.174 125.012 181.343 138.284 181.343 138.284H171.834C171.834 138.284 170.371 133.524 169.055 130.205C167.886 127.031 166.568 124.146 166.568 124.146H147.848L146.384 127.753C146.384 127.753 147.554 131.072 148.872 133.235C150.042 135.543 151.65 138.284 151.65 138.284H142.582C142.582 138.284 138.78 127.897 135.562 120.251C132.345 112.605 127.665 101.929 127.665 101.929C127.665 101.929 127.079 114.625 127.225 119.963C127.372 125.157 128.395 138.284 128.395 138.284H120.645V138.285ZM164.815 120.684C164.815 120.684 162.182 113.76 161.158 111.307C160.134 108.855 157.648 102.65 157.648 102.65C157.648 102.65 155.16 108.421 153.845 111.307C152.527 114.336 149.458 120.684 149.458 120.684H164.815Z" fill="white"/>
</g>
<defs>
<clipPath id="clip0">
<rect width="144" height="115.556" fill="white" transform="translate(67 37.2222)"/>
</clipPath>
</defs>
</svg>
