<svg width="277" height="190" viewBox="0 0 277 190" fill="none" xmlns="http://www.w3.org/2000/svg">
<path fill-rule="evenodd" clip-rule="evenodd" d="M206.98 93.2893H169.563C171.006 89.9487 171.707 86.7476 171.707 83.5226C171.707 82.6934 171.652 81.8503 171.558 81.0291C168.749 55.8769 131.06 49.2037 109.22 49.2037C93.1675 49.2037 77.693 55.6617 66.7426 66.9332C56.2913 77.7244 50.9379 91.91 51.1954 107.993C51.386 118.469 55.0689 126.964 61.8707 132.579C68.8474 138.318 77.0111 139.517 81.2364 139.707C97.0764 140.496 114.009 136.077 131.62 126.604C135.287 130.857 140.636 133.552 146.611 133.552H206.98C217.922 133.552 226.813 124.525 226.813 113.429C226.813 102.334 217.922 93.2893 206.98 93.2893ZM126.771 113.429C126.771 102.334 135.676 93.2892 146.611 93.2892H166.71C168.545 89.4503 169.469 85.5357 168.991 81.3081C166.356 57.7704 129.083 51.7948 109.22 51.7948C82.05 51.7948 53.1803 71.9241 53.7797 107.955C54.1649 129.846 70.1366 136.544 81.3739 137.108C99.9614 138.007 117.095 131.411 130.038 124.481C127.968 121.296 126.771 117.511 126.771 113.429ZM206.979 95.9262H146.61C137.085 95.9262 129.355 103.753 129.355 113.428C129.355 123.091 137.085 130.905 146.61 130.905H206.979C216.495 130.905 224.207 123.091 224.207 113.428C224.207 103.753 216.495 95.9262 206.979 95.9262Z" fill="white"/>
<path d="M120.767 73.3929L120.679 73.2813L120.689 73.1039L120.716 73.0023L120.767 72.9126V72.791L120.789 72.6973L120.823 72.6874L120.834 72.6216L120.852 72.5438L120.891 72.3844L120.94 72.2788L121.066 72.1193L121.084 72.0555L121.107 71.9877L121.178 71.924L121.216 71.8721L121.302 71.7486L121.326 71.7226V71.6688L121.412 71.6449L121.451 71.607L121.473 71.5472L121.552 71.5233L121.587 71.4476L121.715 71.3559L121.742 71.2861L121.835 71.2682L121.868 71.2303H121.899L121.913 71.1865L121.974 71.1646C122.33 70.9015 122.306 70.9453 122.711 70.7599L122.878 70.7201L123.02 70.6722C123.328 70.6324 123.709 70.5865 123.979 70.7759L124.161 70.73H124.222L124.272 70.7978L124.295 70.8616L124.346 70.9453L124.397 71.0151L124.419 71.0868L124.478 71.1406L124.539 71.2303V71.314L124.584 71.4934L124.564 71.5233L124.584 71.5811L124.592 71.6449L124.627 71.7147L124.639 71.7346L124.627 71.7824L124.539 71.8961L124.478 72.0555L124.462 72.1751L124.444 72.2369L124.419 72.2907L124.397 72.3844L124.346 72.4302L124.295 72.506L124.272 72.5578L124.222 72.6415L124.197 72.7192L124.073 72.8109L123.935 73.0023L123.788 73.1538L123.696 73.2933L123.601 73.4288L123.513 73.5863L123.228 73.7976L123.065 73.9152L122.998 73.975L122.963 74.0507L122.823 74.0766L122.674 74.1743L122.44 74.2799L122.401 74.3457L122.239 74.3596L122.19 74.3297H122.129L121.943 74.3596L121.715 74.3297L121.4 74.254L121.237 74.1922L121.104 74.1045L120.891 73.8773L120.866 73.7976L120.834 73.7198L120.789 73.5863L120.767 73.3929ZM118.505 91.6327L118.466 91.4055C118.448 90.4946 118.612 89.5119 118.663 88.6011L118.698 88.5014L118.663 88.4894H118.698V88.3758L118.716 88.2602L118.698 88.2502L118.728 88.2024V88.1147L118.759 87.8556V87.7938L118.741 87.732L118.777 87.6543L118.802 87.4111L118.834 87.2397V87.1081L118.842 86.8331L118.853 86.6258L118.889 86.564L118.853 86.5122L118.889 86.4504V86.0737H118.902L118.942 86.0438L118.934 86.0179H118.902V85.972L118.942 85.9441L118.902 85.8664L118.934 85.8185L118.942 85.695L118.971 85.4777V85.4259L119.026 85.4139L119.003 85.3581L118.971 85.3462V85.3103L119.003 85.2903L118.971 85.2624L119.026 85.2246L119.003 85.1608V84.9814L119.026 84.8678V84.7542L119.046 84.6764H119.091L119.093 84.6505L119.046 84.5887L119.064 84.5748L119.091 84.4891L119.107 84.2977V84.0904L119.132 84.0167L119.138 83.8552L119.123 83.8034L119.107 83.7536L119.123 83.7396L119.185 83.7277L119.138 83.6519L119.15 83.6141L119.185 83.5682L119.138 83.5124L119.132 83.4965L119.15 83.4885L119.201 83.5124V83.4885L119.15 83.4666V83.4088L119.185 83.3868L119.201 83.3789H119.185L119.201 83.337C119.191 83.1217 119.239 83.0659 119.221 82.8128V82.7909H119.254L119.268 82.7012L119.254 82.6932L119.268 82.6234V82.4899L119.29 82.2726V82.1989L119.313 82.171L119.315 82.1291L119.313 82.0953V82.0275L119.333 81.9816L119.352 81.89H119.368V81.8401L119.352 81.8302V81.7165L119.368 81.7046L119.352 81.6807V81.6667L119.368 81.6807L119.378 81.5491L119.402 81.4235L119.417 81.3279L119.455 81.3079V81.1864L119.417 81.1226L119.474 81.0289L119.482 80.8575V80.7897H119.506L119.482 80.7399H119.506L119.494 80.6661L119.482 80.6502L119.494 80.6422L119.518 80.4808L119.541 80.3951H119.523L119.569 80.1957L119.586 80.0921L119.624 80.0602V79.9884L119.679 79.9007L119.691 79.8788L119.698 79.7991L119.738 79.7672L119.724 79.7233L119.755 79.7094L119.765 79.6915L119.755 79.6655L119.791 79.6536L119.822 79.6237L119.803 79.5838L119.85 79.4862L119.836 79.4224L119.94 79.2689L119.972 79.1872L120.005 79.1672L120.042 79.0676H120.07L120.107 78.9659L120.239 78.8423C120.39 78.647 120.709 78.3401 120.891 78.1946L121.011 78.1447L121.084 78.1188L121.127 78.067H121.151L121.178 78.055L121.237 78.0331L121.302 78.0032L121.367 77.9633H121.495L121.563 77.9155L121.626 77.8896H121.672L121.715 77.9534L121.742 77.9155C122.074 77.8458 122.377 77.8358 122.631 78.0889H122.662V78.1447H122.674L122.707 78.2205L122.674 78.2843H122.707L122.729 78.3341V78.344L122.711 78.4397L122.674 78.4457L122.707 78.4537L122.752 78.4716V78.4995L122.729 78.5374L122.707 78.5494L122.674 78.5992H122.711V78.6351L122.729 78.663V78.6889L122.752 78.663L122.774 78.6351L122.823 78.663H122.849L122.837 78.6729L122.849 78.6988L122.823 78.7367L122.849 78.7267L122.837 78.7547L122.823 78.8423L122.837 78.8782L122.878 78.9261H122.849H122.878V78.9002L122.912 78.9161L122.917 78.9659V78.9938L122.935 79.0158L122.963 79.0257L122.976 79.0676L122.963 79.1254L122.935 79.1872V79.243L122.957 79.3187L122.963 79.3546L122.986 79.3985L122.963 79.4483L122.917 79.4582V79.532L122.912 79.5778L122.837 79.6097L122.878 79.6655V79.6915L122.912 79.6655V79.6915L122.878 79.6994L122.912 79.7094L122.849 79.7233H122.837L122.823 79.7811V79.813H122.837L122.878 79.8649V79.9007L122.774 80.0064L122.752 80.0403V80.0602L122.774 80.0921V80.13H122.788L122.823 80.1439H122.878L122.849 80.1698H122.823L122.788 80.2595L122.823 80.2715V80.2954H122.849L122.837 80.3711H122.823L122.837 80.3951L122.823 80.4489L122.849 80.4967L122.809 80.5366L122.752 80.5505V80.6502H122.809L122.788 80.712L122.774 80.698L122.752 80.7399H122.711L122.752 80.7658V80.8575H122.774L122.752 80.8914V80.9153L122.707 80.9432L122.674 80.9771L122.662 81.0289H122.631L122.607 81.0548L122.625 81.0807L122.607 81.1106L122.707 81.1226H122.809L122.752 81.1565V81.2083L122.707 81.2342L122.729 81.2661L122.752 81.282H122.707V81.2661H122.625V81.282L122.631 81.3279L122.662 81.3598L122.674 81.4076V81.4774L122.631 81.5112V81.4833H122.607L122.587 81.5112L122.631 81.593L122.662 81.6388V81.6508H122.674L122.662 81.6807V81.7165H122.607L122.595 81.7046L122.587 81.7165V81.9816H122.562L122.55 81.9916V82.0394L122.587 82.0953V82.5517L122.607 82.5218L122.631 82.5118V82.5218L122.625 82.5617L122.595 82.6055L122.587 82.6234V82.6533H122.607L122.631 82.6653L122.625 82.6932V82.7012L122.607 82.741H122.631L122.607 82.767L122.631 82.8128L122.662 82.8706V82.8965L122.631 82.9065V83.0201L122.587 83.1178V83.3211L122.631 83.3609V83.3789H122.662V83.4486L122.607 83.4745L122.587 83.5682L122.631 83.6141V83.624L122.607 83.6898L122.587 83.7396V83.921L122.625 83.9469L122.631 83.9669V83.9768H122.674L122.631 84.0326L122.595 84.1084L122.587 84.1841L122.595 84.222L122.587 84.2678L122.631 84.2339L122.662 84.1961L122.674 84.2678L122.625 84.3097L122.595 84.3516L122.607 84.3854L122.587 84.4393V84.5987L122.631 84.6386L122.625 84.6764L122.674 84.7801L122.631 84.796L122.607 84.8518L122.631 84.9296L122.662 84.9814L122.674 85.0412L122.631 85.107L122.625 85.2624L122.674 85.3103V85.3581H122.631L122.55 85.4259L122.587 85.4777L122.55 85.5176V85.5654L122.487 85.5355L122.432 85.6053L122.44 85.7647L122.464 85.8185L122.44 85.8325L122.395 85.9062L122.432 86.0298V86.1036L122.42 86.1494L122.432 86.1973L122.44 86.275L122.587 86.3388L122.607 86.3746L122.631 86.4504L122.662 86.4902L122.631 86.5122L122.625 86.6039V86.6258H122.595L122.587 86.6138V86.5859L122.513 86.55L122.487 86.5122L122.44 86.5261L122.464 86.4902L122.44 86.4504L122.365 86.4902L122.395 86.564V86.6138H122.44L122.487 86.6258L122.464 86.6557V86.7912L122.55 86.8411L122.587 86.8151L122.607 86.869L122.625 86.9208V86.9806L122.587 86.9746L122.42 86.869H122.395L122.365 86.8411V86.9746L122.346 87.0683V87.1341L122.31 87.164L122.353 87.2078L122.326 87.2736C122.289 87.6941 122.32 88.1287 122.265 88.5413L122.291 88.6011L122.265 88.629L122.239 88.7306V89.0077L122.224 89.2907L122.265 89.4143L122.326 89.492L122.31 89.6176V89.7033L122.365 89.7352L122.326 89.7591L122.265 89.8647V89.9484L122.291 90.0461H122.265L122.279 90.0999L122.239 90.3012C122.015 90.8255 121.64 91.3337 121.147 91.6327L120.968 91.7862L120.852 91.8121L120.834 91.83L120.767 91.8579L120.528 91.9994L120.127 92.2147L119.738 92.3562L119.466 92.3702L119.201 92.3403L118.963 92.3044L118.847 92.1729L118.663 92.0333L118.58 91.8739L118.505 91.6327V91.6327ZM146.147 83.4965L146.082 83.6041L146.106 83.624L146.003 83.7396L146.127 83.7038L146.117 83.8552L146.216 83.8911L146.117 83.9669L146.003 83.9768V84.1084L145.948 84.1961V84.2977L145.903 84.3615L145.878 84.2977L145.77 84.4393H145.811L145.716 84.499L145.74 84.5887L145.695 84.6386L145.74 84.7801L145.656 84.7422L145.604 84.7163L145.597 84.7801C145.06 85.8146 143.851 86.4285 142.81 86.8151L142.554 86.869C142.368 86.9447 142.212 86.9806 142.039 87.0324L141.751 87.1081L141.493 87.1978L140.97 87.3732L140.418 87.5407L140.171 87.6543L139.665 87.8357L139.487 87.8815L139.302 87.9951L139.131 88.035L138.984 88.1147L138.814 88.1625L138.667 88.2502L138.528 88.2602L138.41 88.328L138.211 88.4296L138.007 88.5253L137.897 88.5652L137.822 88.629L137.704 88.6449L137.635 88.6947L137.427 88.8083L137.223 88.8861L137.026 88.9718L136.796 89.0834L136.582 89.1372L136.49 89.211L136.395 89.2767L136.171 89.3625V89.3923H136.157C135.572 89.6674 135.008 89.9504 134.452 90.2654L134.371 90.3411V90.3012L134.21 90.4069L134.119 90.4786H134.017L133.848 90.5763L133.819 90.6142L133.801 90.6421L133.675 90.68L133.612 90.7198L133.538 90.7677L133.265 90.8853L133.213 90.9371L133.103 90.9849L133.078 91.0228L133.023 91.0367L132.836 91.1464L132.555 91.2879L132.365 91.3915L132.152 91.4812L131.928 91.6188C131.688 91.7503 131.508 91.838 131.266 91.9596L131.063 92.0852L131.003 92.1151L130.944 92.1549L130.82 92.1609L130.765 92.2386L130.678 92.3044L130.474 92.3802L130.393 92.428L130.325 92.4918L130.142 92.6273L129.959 92.6552L129.88 92.7329C129.31 92.9661 128.843 93.3608 128.298 93.6319L128.247 93.6598L128.143 93.6977C127.394 94.1581 126.612 94.5786 125.861 95.0211L125.785 95.075L125.655 95.1228L125.62 95.1766H125.582L125.486 95.2284C124.549 95.8184 123.59 96.3566 122.631 96.9545L122.44 97.0861L122.035 97.3153L121.823 97.4568C121.534 97.5924 121.607 97.5844 121.367 97.7698L121.19 97.8455L120.956 97.9771C120.604 98.2202 120.357 98.3996 119.977 98.6228L119.928 98.7006L119.877 98.7225L119.661 98.8501V98.88L119.417 98.9796L119.352 99.0534L119.254 99.0932L119.201 99.1311L119.15 99.167L119.064 99.2049L118.989 99.2706L118.934 99.3424L118.942 99.3683L118.847 99.4082L118.759 99.4341L118.657 99.4839L118.623 99.5078L118.627 99.5597L118.505 99.6115L118.411 99.6613C118.059 99.8008 117.825 100.1 117.491 100.267L117.33 100.395L117.144 100.524H117.081L117.02 100.57L116.971 100.614L116.927 100.646L116.892 100.674L116.849 100.71L116.798 100.726L116.723 100.789L116.703 100.841H116.67L116.56 100.911L116.487 100.963L116.444 101.007V100.977L116.367 101.043L116.342 101.063L116.332 101.092H116.297L116.269 101.108L116.22 101.138V101.158L116.214 101.164L116.181 101.23L116.131 101.24L116.063 101.296H116.031L115.97 101.322L115.939 101.358L115.87 101.393L115.831 101.437L115.813 101.449L115.831 101.473L115.795 101.563L115.734 101.662L115.705 101.688L115.65 101.722L115.508 101.75L115.459 101.824L115.363 101.866L115.328 101.904L115.269 101.892L115.214 101.967L115.121 102.093L115.049 102.155V102.221L115.074 102.244V102.254L115.111 102.32L115.092 102.384L115.049 102.434V102.537L115.003 102.639L115.092 102.689L115.111 102.733L115.092 102.791L115.049 102.827H115.003L114.97 102.866H115.015L115.049 102.968L115.003 103.068V103.147L115.049 103.191L115.015 103.285V103.361L115.003 103.409V103.474L115.049 103.558L115.092 103.5L115.121 103.578L115.111 103.624L115.049 103.674L115.015 103.725L114.97 103.789L114.942 103.819L114.937 103.865V103.933L114.895 103.969L114.97 104.032L115.015 104.008L115.049 104.05L115.003 104.142L114.97 104.295V104.349L114.942 104.385L114.895 104.499L114.856 104.549L114.895 104.575L114.942 104.59L114.97 104.612L114.994 104.666L115.049 104.69V104.931L115.003 105.005L114.97 105.069L114.956 105.157L114.937 105.208L114.956 105.262L114.942 105.308L114.937 105.372L114.895 105.41L114.882 105.465L114.937 105.527L114.895 105.623L114.97 105.665L115.003 105.677H115.015V105.699L114.97 105.766L115.003 105.828L114.937 105.892V105.828L114.84 105.816L114.821 105.946L114.856 105.976V106.046L114.895 106.137L114.937 106.191L114.97 106.235L114.956 106.348L114.942 106.364V106.386L114.937 106.448L114.895 106.524L114.856 106.564L114.882 106.717L114.97 106.765L114.942 106.831C114.901 107.028 115.056 106.827 114.895 107.16L114.856 107.176V107.255L114.895 107.287L114.937 107.359L114.856 107.427L114.882 107.491L114.895 107.503L114.937 107.536L114.895 107.592V107.602L114.856 107.65L114.895 107.742L114.856 107.843V107.955H114.895L114.856 108.031V108.322L114.895 108.409L114.937 108.423V108.433L114.895 108.535L114.856 108.589V108.653L114.821 108.692L114.895 108.718V108.702L114.937 108.718L114.956 108.776H114.97V108.816L114.942 108.844L114.937 108.932V108.974H114.97L115.003 108.983V109.033L114.895 109.047L114.821 109.085L114.856 109.131L114.84 109.161L114.807 109.183V109.265L114.726 109.302L114.783 109.314H114.807L114.84 109.302L114.895 109.273V109.448H114.937V109.691H114.895L114.937 109.713V109.767H114.97L114.895 109.777V109.92L114.937 109.93V109.946L114.895 109.984V109.996L114.856 110.124V110.221L114.895 110.239V110.287L114.856 110.361L114.84 110.389H114.807L114.84 110.419L114.895 110.429V110.53L114.856 110.54V110.658L114.882 110.72L114.895 110.769L114.856 110.777V110.923L114.895 110.985V111.12L114.856 111.16L114.807 111.186V111.214L114.856 111.224V111.429L114.821 111.593H114.807V111.668L114.726 111.704V111.728H114.783L114.807 111.704L114.84 111.728L114.856 111.804V111.844H114.807V111.896L114.801 111.921L114.856 112.019L114.895 112.053L114.937 112.059V112.163L114.895 112.197V112.262L114.856 112.312V112.388L114.821 112.462L114.783 112.527L114.807 112.569L114.844 112.541L114.856 112.577L114.821 112.601L114.895 112.633L114.882 112.721L114.807 112.832L114.801 112.946L114.856 112.868L114.895 112.846V112.886L114.84 112.97V113.032L114.807 113.085L114.856 113.097L114.895 113.072L114.84 113.137L114.807 113.183L114.84 113.203L114.895 113.211L114.937 113.263L114.84 113.327L114.856 113.388L114.895 113.428H114.956L114.97 113.468L114.856 113.494L114.726 113.54L114.703 113.582L114.695 113.632L114.689 113.681V113.719L114.646 113.755L114.634 113.807L114.657 113.823L114.689 113.947H114.726V114L114.657 114.06L114.634 114.1L114.657 114.138L114.689 114.186L114.695 114.138L114.801 114.162L114.726 114.238L114.856 114.176L114.895 114.224L114.937 114.303L114.942 114.329L114.937 114.403V114.451L114.856 114.429L114.752 114.391L114.72 114.429L114.657 114.485L114.726 114.543V114.592L114.801 114.63L114.895 114.694L114.882 114.772L114.752 114.8L114.821 114.875L114.895 114.899V114.931L114.856 115.061L114.937 115.087V115.154L114.821 115.214L114.801 115.24H114.72L114.597 115.214L114.695 115.24L114.84 115.254V115.302H114.807L114.726 115.344L114.783 115.368L114.807 115.493L114.726 115.593L114.695 115.621L114.646 115.669L114.634 115.78L114.685 115.822L114.689 115.874L114.726 115.952L114.72 115.974L114.726 116.027V116.085H114.807L114.84 116.063L114.856 116.008L114.895 116.027L114.856 116.063V116.205L114.801 116.253L114.856 116.275V116.364L114.937 116.358L114.97 116.275L114.942 116.318L114.937 116.442L114.856 116.516L114.942 116.544L115.003 116.454L114.895 116.592H114.768L114.72 116.725L114.689 116.761L114.646 116.823L114.634 116.885H114.685L114.695 116.96L114.685 117.06L114.807 117.116L114.801 117.215L114.856 117.297L114.895 117.379L114.657 117.429L114.634 117.528L114.695 117.654L114.634 117.748L114.657 117.807L114.685 117.873L114.783 117.889L114.84 117.807L114.821 117.736L114.895 117.783L114.856 117.807V117.873L114.882 117.991L114.856 118.009L114.937 118.039L115.003 118.078L114.937 118.152L114.768 118.24L114.807 118.294V118.344L114.856 118.415L114.84 118.621L114.726 118.722L114.895 118.852L114.856 118.965H114.956V119.067H114.97L115.139 119.073L115.121 119.117L115.082 119.167L115.049 119.191V119.217H115.003L114.97 119.448L114.937 119.537H115.015L115.168 119.593H115.111L115.049 119.657V119.751L115.074 119.848L115.168 119.872H115.222L115.214 119.924L115.139 120.016L115.269 120.139L115.168 120.279L115.279 120.293L115.233 120.379L115.222 120.442L115.233 120.524L115.269 120.6L115.222 120.624V120.672V120.66L115.049 120.634L115.121 120.763L115.139 120.877L115.082 120.937V120.965L115.074 121.028L115.049 121.054V121.092L115.003 121.14L115.082 121.18V121.198H115.111V121.256L115.092 121.295H115.121L115.214 121.357L115.222 121.417H115.298V121.317L115.328 121.295L115.363 121.272L115.398 121.343L115.363 121.385V121.417H115.418L115.448 121.457L115.485 121.471V121.507L115.459 121.559L115.448 121.598V121.674L115.459 121.698V121.736L115.426 121.682L115.398 121.724L115.448 121.748V121.778L115.459 121.786L115.485 121.877L115.508 121.965L115.528 122.067H115.56L115.571 122.077L115.579 122.178L115.56 122.228L115.583 122.22L115.579 122.294H115.67L115.65 122.342L115.715 122.294L115.681 122.368L115.734 122.438L115.65 122.541L115.67 122.581L115.634 122.635L115.528 122.715L115.603 122.8L115.485 122.826L115.328 122.85L115.298 122.956L115.347 122.988L115.418 122.888L115.56 122.978L115.571 122.964L115.459 123.079H115.298L115.318 123.105L115.328 123.153H115.318L115.347 123.177L115.328 123.257L115.298 123.281V123.323L115.318 123.394L115.347 123.448L115.328 123.534L115.363 123.645L115.571 123.751L115.634 123.55L115.697 123.584L115.67 123.645L115.697 123.837L115.727 123.763L115.795 123.819L115.85 123.865L115.919 123.95L115.821 124.018L115.754 123.938L115.622 124.028H115.754L115.87 124.138L115.943 124.194L116.045 124.216L115.962 124.359L115.943 124.245L115.925 124.305L115.87 124.369L115.784 124.359L115.831 124.369L115.907 124.471L115.795 124.524L115.784 124.624L115.67 124.612L115.603 124.546L115.571 124.499L115.579 124.546L115.571 124.56L115.583 124.586V124.66L115.705 124.678L115.734 124.66L115.789 124.678L115.813 124.8L115.734 124.811L115.705 124.877H115.67L115.65 124.941L115.705 125.015L115.67 125.053L115.789 125.081L115.831 125.13H115.85L115.813 125.182L115.896 125.13L115.87 125.244L115.919 125.332L115.87 125.38L115.939 125.451L115.943 125.38L116 125.451H116.092L116.131 125.509L116.167 125.451L116.155 125.575L116.031 125.663L115.97 125.79V125.878H115.919L115.962 125.918L116 125.962L115.87 126.037L115.831 126.123L115.795 126.219L115.813 126.32H115.87L115.925 126.36L116.131 126.424L116.031 126.456L115.97 126.51H115.943L115.925 126.558L115.813 126.575L115.789 126.627C115.552 126.926 115.76 126.986 115.363 127.363L115.279 127.448C115.111 127.578 114.937 127.714 114.72 127.855L114.597 127.891L114.508 127.967H114.404L114.282 128.019L113.822 128.068L113.408 128.054L113.146 128.007L112.647 127.867L112.449 127.734L112.26 127.636L112.055 127.476L111.973 127.363L111.875 127.275L111.759 127.157L111.668 126.928L111.637 126.902L111.613 126.843L111.598 126.701L111.491 126.456L111.478 126.348L111.448 126.235H111.419L111.385 126.003L111.348 125.878L111.362 125.828L111.311 125.814L111.281 125.706L111.273 125.563L111.262 125.421L111.252 125.372V125.308L111.262 125.28L111.252 125.272V125.081C111.128 124.379 111.265 123.604 111.252 122.866V122.751C111.238 121.983 111.309 121.176 111.281 120.432L111.348 120.329V120.193L111.362 119.988L111.336 119.912L111.348 119.801L111.362 119.537V118.985L111.385 118.736L111.362 118.621L111.385 118.457L111.419 118.202V118.078L111.385 117.991L111.419 117.873V117.471L111.395 117.215L111.385 116.946L111.395 116.823L111.448 116.645L111.419 116.442L111.385 116.053L111.362 115.91L111.385 115.792V115.527L111.419 115.302V115.097L111.478 114.919L111.419 114.686L111.478 114.568V114.441L111.419 114.329L111.385 114.224V114.1L111.491 114.088L111.505 113.807L111.523 113.747L111.491 113.681L111.505 113.618L111.491 113.54L111.478 113.416L111.491 113.363V112.721C111.517 112.388 111.517 111.902 111.491 111.567L111.505 111.288L111.491 111.234L111.513 111.214C111.495 111.007 111.497 110.807 111.513 110.602V110.175H111.523V109.93C111.491 108.924 111.509 107.887 111.513 106.877L111.491 106.689L111.513 106.677L111.505 106.402V106.137L111.523 105.623L111.505 105.551L111.539 105.41L111.513 105.182V105.069L111.523 105.005L111.55 104.864L111.539 104.764L111.55 104.612H111.539L111.362 104.706L111.348 104.736C111.051 104.856 111.024 104.943 110.786 105.059L110.719 105.095L110.525 105.23C110.23 105.396 109.825 105.743 109.548 105.954L109.479 106.022L109.389 106.107L109.292 106.173L109.22 106.249C108.978 106.47 108.709 106.653 108.449 106.847L108.314 106.966L108.202 107.062L108.076 107.132L107.978 107.196L107.915 107.287L107.814 107.339L107.728 107.387L107.693 107.477L107.583 107.536L107.524 107.602H107.437L107.427 107.65C107.099 107.921 106.708 108.2 106.394 108.489L106.305 108.577V108.567L106.268 108.589C105.749 108.898 105.132 109.538 104.67 109.855L104.627 109.946L104.55 109.954C104.33 110.259 103.884 110.454 103.632 110.777L103.568 110.791L103.56 110.829L103.442 110.905L103.235 111.072L103.171 111.16L103.117 111.174L103.106 111.224C102.793 111.445 102.473 111.762 102.16 111.997L102.033 112.059L102.027 112.095C101.105 112.81 100.213 113.614 99.3127 114.351L99.1732 114.485V114.451L99.0651 114.554L98.9511 114.644L98.8745 114.716L98.7978 114.8L98.6288 114.899L98.5561 114.987L98.4637 115.061L98.3733 115.127L98.3222 115.214L98.2141 115.254L98.1277 115.344L97.9528 115.457L97.9213 115.557L97.8309 115.659L97.6874 115.822L97.5774 115.874L97.4988 115.952L97.3632 116.111L97.2335 116.275L97.202 116.358L97.09 116.454L96.9524 116.592L96.8817 116.671L96.7972 116.725L96.6576 116.885L96.5731 116.946L96.5299 117.012L96.3648 117.14L96.2253 117.237L96.0504 117.323L95.7674 117.568L95.5925 117.783L95.4805 117.889L95.4038 117.991L95.3193 118.104L95.2446 118.152L95.1857 118.202V118.24L95.0795 118.326L94.9695 118.505L94.8535 118.581L94.7651 118.682L94.6157 118.852L94.547 118.926L94.2188 119.217L93.979 119.593L93.7648 119.735L93.6154 119.872L93.5899 119.98L93.5034 120.038L93.3737 120.205L93.2184 120.379L93.1477 120.442L93.0927 120.508H93.0494L92.9374 120.66L92.8667 120.713C92.678 120.903 92.5129 121.106 92.3282 121.295L92.2535 121.357L92.1179 121.507L91.9567 121.636L91.8152 121.798L91.7209 121.877L91.656 121.923L91.6089 122.041L91.5342 122.067L91.4969 122.077L91.491 122.117L91.4497 122.129L91.4261 122.153L91.3573 122.22L91.2571 122.368L91.1824 122.493L91.0055 122.685L90.9309 122.79L90.8503 122.866L90.8306 122.956L90.7068 123.03L90.6321 123.131L90.5457 123.165L90.4828 123.257L90.4278 123.323L90.3433 123.384L90.2843 123.484L90.2312 123.584L90.1408 123.645L89.9699 123.819L89.8048 123.964C89.3036 124.511 88.5804 125.188 88.038 125.706L87.9672 125.756H87.8454L87.8277 125.79L87.7923 125.814L87.6862 125.878H87.4347L87.3069 125.956L87.1831 125.918L87.0731 125.956L86.9414 125.918L86.8235 125.928L86.7606 125.918H86.7056L86.4363 125.878L86.3243 125.814H86.1946L86.0845 125.756L85.9705 125.71C85.1216 125.393 84.8936 124.54 84.7992 123.733L84.8621 123.448L84.8779 123.323L84.984 123.079C86.4737 120.879 88.946 118.918 90.8503 117.012L91.0684 116.823L91.1294 116.813L91.1549 116.725L91.3043 116.592C91.7032 116.207 92.2456 115.802 92.6308 115.414L92.7782 115.302L93.018 115.127C93.3265 114.845 93.6449 114.57 93.979 114.315L94.0497 114.186L94.1716 114.138C94.3799 114.024 94.4939 113.823 94.7081 113.681L95.1326 113.301L95.339 113.137L95.4805 113.072L95.5473 113L95.6671 112.846L95.8028 112.747L96.2626 112.35L96.4808 112.163L96.5496 112.053L96.6262 111.931L96.8326 111.844L96.9937 111.704L97.2767 111.413L97.3514 111.463L97.5499 111.224C98.9629 110.124 100.423 108.896 101.775 107.764L101.995 107.602V107.548L102.08 107.503L102.211 107.427L102.398 107.297L102.595 107.16L102.689 107.096L102.758 107.02L102.772 107.062L102.819 106.99C103.214 106.749 103.204 106.719 103.534 106.448H103.583L103.607 106.402L103.723 106.348L103.801 106.273L103.876 106.191L104.031 106.079L104.214 105.976L104.281 105.93L104.356 105.882L104.42 105.79L104.503 105.766V105.741L104.8 105.551L105.083 105.308C105.499 105.007 105.68 104.931 106.077 104.575L106.268 104.475L106.394 104.361L106.498 104.25L106.6 104.208L106.704 104.142L106.791 104.084L106.908 104.008L106.983 103.889L107.066 103.829L107.307 103.713L107.392 103.624L107.461 103.548C107.693 103.45 107.84 103.247 108.027 103.147C108.213 103.03 108.331 102.866 108.52 102.753L108.915 102.424C109.123 102.33 109.131 102.221 109.375 102.069L109.601 101.912C109.786 101.79 109.937 101.597 110.183 101.525H110.153L110.2 101.485C110.599 101.194 110.925 100.901 111.348 100.646L111.505 100.586V100.57L111.491 100.538V100.481L111.505 100.409V100.323L111.513 100.193L111.523 100.128L111.55 100.106V100.028L111.57 99.9384V99.8865L111.523 99.8148V99.6972L111.588 99.6354L111.523 99.5477C111.517 99.2567 111.545 98.9776 111.513 98.6807L111.419 98.4096H111.374L111.262 98.4315L111.189 98.5471L111.049 98.5949L110.916 98.6807L110.786 98.7504L110.729 98.88L110.576 98.9019L110.477 99.0155L110.414 99.0534L110.393 99.0932L110.253 99.1311L110.21 99.1789L110.128 99.1969L109.988 99.3085L109.788 99.3563H109.587L109.526 99.4082L109.426 99.4341L109.469 99.5078H109.326L109.153 99.5736L109.041 99.6234L109.139 99.6832H108.978L108.874 99.7111L108.787 99.6832H108.709L108.705 99.6354L108.622 99.6234L108.603 99.6733C108.141 99.8586 108.068 99.757 107.693 99.8626L107.524 99.8526V99.8865H107.27V99.8965L107.199 99.9284V99.8865H107.058C106.793 99.9085 106.535 99.8586 106.293 99.763L106.156 99.739V99.763L106.073 99.7111L105.997 99.6354L105.769 99.5597L105.425 99.3424L105.379 99.3683L105.368 99.3085C104.633 98.7504 104.452 97.7917 104.391 96.9127L104.356 96.7492H104.401L104.381 96.4941C104.401 96.2689 104.356 96.0656 104.381 95.8603V95.5174L104.391 95.366L104.401 94.8218C104.391 94.5806 104.403 94.3674 104.403 94.1282L104.381 93.9727L104.316 93.8471V93.5322L104.344 93.3867V93.2133L104.356 93.0499L104.42 92.9103L104.464 92.7708V92.6014C104.464 92.418 104.464 92.2546 104.503 92.0752C104.511 91.8998 104.503 91.7304 104.511 91.543L104.54 91.3038V91.24L104.566 91.2022C104.515 90.6819 104.715 90.8554 104.66 90.5165L104.67 90.4069L104.715 90.1617C104.709 89.8548 104.886 89.2429 104.943 88.91L105.032 88.6668L105.075 88.4655L105.13 88.2881L105.155 88.1466C105.287 87.9293 105.358 87.6862 105.429 87.4271L105.482 87.3394L105.517 87.2397L105.566 87.1341L105.629 87.0324L105.672 86.9567L105.69 86.9108L105.716 86.869L105.743 86.8411L105.757 86.7653L105.812 86.6796L105.9 86.5859L105.92 86.4902H105.951L105.997 86.3607C106.331 85.9122 106.59 85.4638 106.92 85.0412L106.958 84.9814H107.013L107.052 84.8817L107.113 84.796L107.27 84.6505C107.455 84.509 107.978 84.0187 108.202 83.9469L108.251 83.921L108.314 83.8792L108.351 83.8552L108.449 83.7675L108.528 83.6818L108.603 83.624L108.787 83.5682L108.911 83.4965L109.041 83.4745L109.11 83.4267L109.22 83.3868C109.583 83.3111 109.617 83.2174 109.988 83.1835L110.102 83.1576H110.21L110.324 83.2075H110.414L110.525 83.2613L110.637 83.2852L110.754 83.337L110.786 83.4088L110.872 83.4745L110.916 83.5802V83.6818V83.6519L110.957 83.7775L110.984 83.8792L110.971 84.1183L110.916 84.2977L110.872 84.3516L110.935 84.4512L110.835 84.7043L110.849 84.796L110.786 84.8817L110.774 85.0571L110.65 85.1708L110.607 85.2465L110.587 85.3103V85.398L110.477 85.4339L110.45 85.5355L110.414 85.6192L110.324 85.7647L110.238 85.8325L110.128 85.9222L110.027 85.972L110.031 86.0179H110.012L109.994 86.0298L109.825 86.2371L109.75 86.4902H109.693L109.536 86.6557V86.6457L109.45 86.7653L109.389 86.869L109.369 87.0324H109.375L109.292 87.1739L109.196 87.2218C109.003 87.7201 108.87 88.2223 108.585 88.6768L108.52 88.9857L108.449 89.2608L108.388 89.3625L108.351 89.5L108.331 89.6176L108.314 89.7591L108.213 89.9484L108.188 90.0641L108.156 90.4547L108.135 90.6142L108.156 90.7457L108.139 90.8095L108.188 90.8374L108.239 90.961L108.314 91.2281L108.213 91.4553L108.202 91.543L108.139 91.6327V91.8221L108.113 91.9197L108.135 92.0852L108.113 92.3562L108.044 92.8605L108.046 93.1376L108.015 93.3568L107.94 93.4565V93.594L107.978 93.7176L108.015 93.9508L107.978 94.0146L108.027 94.1023C107.956 96.0257 108.884 96.6057 110.45 95.5174L110.477 95.4317L110.525 95.4457L110.65 95.342L110.892 95.051L111.036 94.9275C111.252 94.6444 111.336 94.3275 111.385 94.0146L111.448 93.7614L111.491 93.6598V93.5322L111.588 92.996L111.613 92.7329L111.653 92.428L111.708 92.3403V92.1888L111.745 91.8121L111.759 91.557L111.784 91.3497H111.818V91.1125C111.904 90.4886 111.991 89.8707 111.991 89.2369L111.981 89.0974L111.998 89.0834V88.7565L111.936 88.7306L111.961 88.629L112.065 88.5652V88.3758C112.378 86.6079 112.215 83.8313 112.724 82.2726L112.743 82.2587V82.171L112.847 82.0953L112.834 82.0693H112.847C113.282 81.585 112.952 81.874 113.482 81.4973L113.614 81.4774L113.618 81.4076L113.761 81.3956C114.559 80.997 115.662 81.1644 116.031 82.0693L116.045 82.159L116.155 82.171L116.131 82.2089L116.031 82.2467L116.092 82.3225L116.045 82.4241V82.6932L116 82.8128L116.045 82.9065L116.063 83.0101L116.031 83.0699V83.1576L116.057 83.3609L116.155 83.4267L116.131 83.5124L116 83.5682L116.031 83.6818L116.057 83.7675L116.092 83.8911L116.031 84.0087L115.97 84.2678V84.3854L116 84.4891L115.962 84.5748L116.031 84.6764L115.943 84.8678L115.962 84.9575L115.97 85.0571V85.1827L116.031 85.2983L116 85.4259V85.4777L115.962 85.4897V85.695L115.919 85.6511L115.87 85.7448L115.925 85.8963L115.87 85.8664L115.85 86.0179L115.831 86.1494L115.939 86.1056L115.813 86.275V86.5799L115.795 86.7573L115.734 86.8949L115.789 87.0324L115.715 87.164L115.754 87.2218L115.734 87.2736V87.4749L115.715 87.8357V88.035L115.697 88.2243C115.67 88.4655 115.67 88.6947 115.65 88.9319C115.65 89.203 115.583 89.4681 115.579 89.7352L115.571 89.9325V90.1876L115.528 90.4268V90.6142L115.485 90.66V90.7537L115.459 90.9371L115.448 91.2879C115.44 91.7363 115.375 92.0014 115.328 92.418V92.6552L115.318 92.7848L115.418 92.8107L115.347 92.8605L115.298 92.9781V93.0997L115.279 93.4465L115.269 93.604L115.233 93.6698L115.298 93.7176L115.269 93.7714L115.233 93.8471L115.222 94.0265L115.233 94.2039L115.318 94.3275V94.4312L115.328 94.469V94.5348L115.298 94.6205L115.328 94.7242L115.269 94.9275L115.222 94.9992L115.298 95.075H115.222L115.269 95.3121V95.4158L115.214 95.6231L115.279 95.7726L115.269 95.8224L115.298 95.8603L115.279 95.9261L115.269 96.0237L115.214 96.0875L115.233 96.1294V96.1852L115.214 96.3068L115.168 96.522V97.0143L115.186 97.2276L115.168 97.4568L115.186 97.5545L115.168 97.6681V97.7877L115.139 97.8634L115.168 98.0707L115.398 97.999C115.939 97.5166 116.583 97.1578 117.23 96.7971L117.33 96.7393C117.525 96.5599 117.741 96.4443 117.945 96.3167C118.291 96.0875 118.627 95.8882 118.971 95.6709C119.15 95.5473 119.315 95.4158 119.523 95.3121C119.724 95.2284 119.877 95.063 120.078 94.9992L120.07 94.9793L120.201 94.8756L120.314 94.7859C120.809 94.5248 121.186 94.2159 121.715 93.9608L121.899 93.8471L121.943 93.7973L122.065 93.6977L122.239 93.594L122.464 93.4565L122.674 93.3768L122.912 93.2771L123.104 93.1535L123.159 93.0738L123.252 93.0499L123.44 92.9103L123.501 92.8864L123.491 92.8605L123.625 92.7708L123.713 92.8226L123.81 92.7848L123.935 92.7329L124.022 92.6712L124.173 92.5416L124.254 92.5296L124.272 92.4918L124.338 92.4698L124.36 92.428L124.419 92.418H124.462L124.539 92.3164L124.639 92.3044L124.753 92.2247L124.828 92.1729L124.946 92.1151L125.02 92.0433L125.136 91.9875L125.252 91.9197L125.427 91.8221L125.861 91.5191L126.074 91.3915L126.18 91.3776L126.268 91.3038L126.441 91.1603L126.651 91.0766L127.062 90.8853L127.229 90.7457L127.481 90.5923L127.913 90.3411L128.373 90.0999L128.467 90.0342L128.581 89.9823L128.617 89.9584L128.676 89.9744L128.729 89.8867C129.346 89.5917 129.861 89.2309 130.456 88.91L130.568 88.8861L130.537 88.8562L130.724 88.7306L131.17 88.4894L131.266 88.4376L131.38 88.3599L131.62 88.2502C131.94 88.1008 132.227 87.8735 132.539 87.7041L132.98 87.4908C133.516 87.162 134.045 86.8171 134.577 86.4902L134.638 86.3746L134.55 86.275L134.328 86.1494L134.241 86.0737C134.033 85.8903 133.874 85.7408 133.819 85.4777L133.756 85.398L133.707 85.2983C133.544 84.7263 133.652 84.23 133.612 83.7277V83.6041L133.636 83.4666L133.597 83.337L133.636 83.1576V82.9822L133.675 82.9304L133.707 82.8965L133.724 82.741L133.707 82.4341L133.724 82.171L133.756 81.89L133.724 81.6388L133.636 81.4076L133.724 81.0807L133.707 80.9531L133.746 80.8415L133.819 80.6123V80.5505L133.766 80.4967L133.746 80.3492V80.2814L133.707 80.2595L133.746 80.108L133.819 80.0183L133.801 79.9007L133.756 79.8928V79.7672L133.779 79.6994H133.819L133.848 79.5639V79.243C133.854 79.0536 133.864 78.8503 133.884 78.663V78.3819L133.903 78.1447H133.884L133.848 78.0889L133.884 78.067L133.903 77.9633V77.6704C133.884 77.481 133.903 77.2717 133.903 77.0545C133.903 76.8611 133.903 76.6897 133.884 76.5083V76.315L133.848 76.309L133.801 76.1954L133.746 76.0618L133.339 75.7967H133.078L133.023 75.7908L132.997 75.7967L132.952 75.7609L132.866 75.7509L132.756 75.7908L132.555 75.7967L132.365 75.9243C132.03 76.0539 131.742 76.2911 131.46 76.5203L131.437 76.6V76.6897L131.264 76.7754L131.205 77.0285L131.105 77.0943L131.014 77.1701L130.82 77.3415L130.69 77.469L130.643 77.481L130.611 77.4232L130.537 77.4451L130.611 77.5488L130.568 77.776L130.374 77.9155L130.266 77.9633L130.252 78.055L130.24 78.3221L130.207 78.4198L130.167 78.5374H130.142L130.152 78.5852L130.142 78.6351H130.071L130.038 78.6729L130.057 78.7746L130.038 78.9002V79.1114L130.008 79.1553L130.038 79.2689L129.959 79.3546L129.916 79.4862L130.038 79.5141L129.959 79.6655L129.93 79.6915H129.857L129.776 79.6097L129.804 79.6994L129.739 79.7094L129.727 79.7672L129.857 79.8788L129.93 79.9007L129.857 79.9665L129.804 80.0403L129.869 80.13L129.7 80.2037L129.831 80.2356L129.88 80.2954L129.7 80.3353L129.568 80.4748L129.625 80.5764V80.69L129.666 80.7658L129.633 80.8914L129.727 80.9771L129.755 81.0289L129.776 81.1864L129.666 81.3358H129.568L129.619 81.3697L129.458 81.4774L129.523 81.6129L129.507 81.6508L129.395 81.6129V81.7165L129.419 81.7265L129.395 81.8302L129.458 81.89L129.568 82.0275L129.633 82.0693L129.619 82.0953L129.647 82.2089L129.568 82.2587L129.633 82.3384V82.4341L129.619 82.5218L129.678 82.5756V82.6414L129.568 82.6932L129.474 82.7012L129.458 82.5517L129.419 82.6234L129.405 82.7012L129.458 82.767L129.367 82.8965L129.32 83.042L129.381 83.0699L129.458 83.1178L129.474 83.2194H129.381L129.32 83.2852V83.3609L129.307 83.4267L129.32 83.6519L129.307 83.8552L129.293 84.1343V84.2678L129.269 84.3854L129.356 84.4512L129.269 84.5628L129.356 84.5887L129.419 84.525L129.458 84.5369V84.525L129.487 84.5369L129.448 84.7043L129.32 84.7801L129.381 84.8678L129.32 84.9236V85.0332L129.395 85.1229L129.458 85.1608V85.2246L129.269 85.2624L129.419 85.3362L129.487 85.3581L129.507 85.4897L129.405 85.6511V85.695L129.419 85.7448L129.395 85.8564L129.32 85.972L129.356 85.984L129.367 86.0438L129.405 86.1753L129.395 86.275L129.269 86.0856L129.32 86.275L129.356 86.4504L129.448 86.5799L129.419 86.7573L129.32 86.7912V86.869L129.269 86.8949L129.187 86.9925L129.12 87.0862V87.1739L129.083 87.1978L129.065 87.2736L129.045 87.3493L129.065 87.4271L128.994 87.4629L128.97 87.5187L128.915 87.5287V87.5885L128.945 87.6642V87.8177L128.784 87.9592H128.805L128.695 87.9732L128.591 88.1147L128.532 88.1625L128.515 88.2243L128.444 88.2502L128.373 88.2602L128.269 88.3499C128.155 88.4396 127.64 88.6688 127.481 88.7824L127.143 88.922L126.795 88.9857L126.484 88.9718L126.441 88.9857L126.323 88.9718L126.18 88.9319L125.869 88.7824L125.655 88.5413L125.608 88.3898L125.565 88.316V88.2881L125.533 88.2502L125.486 87.9214V87.7679C125.502 87.435 125.455 87.0942 125.533 86.7653L125.508 86.6796L125.486 86.6258C125.557 86.2949 125.571 85.6671 125.565 85.2983L125.578 85.095L125.582 84.8937L125.608 84.8678L125.578 84.8518L125.608 84.7163C125.633 84.0745 125.663 83.4546 125.683 82.8048L125.72 82.741L125.655 82.6932L125.72 82.5517V82.4341L125.759 82.2208L125.747 82.1072L125.72 81.9238L125.747 81.7265L125.72 81.5631L125.769 81.3956V81.294L125.789 80.9153C125.826 80.3412 125.789 79.829 125.854 79.2569L125.861 78.9002L125.881 78.4397C125.905 78.2304 125.922 78.055 125.944 77.8757L125.964 77.5826C126.038 76.8352 126.504 75.8167 127.137 75.3802L127.2 75.3722L127.206 75.3283L127.333 75.2526L127.546 75.1151L127.795 74.9736L127.87 74.9636L127.982 74.9118L128.23 74.85L128.784 74.7762L129.065 74.7842H129.32L129.405 74.7224L129.507 74.6566L129.776 74.6467H129.869L129.959 74.7124L130.038 74.7762H130.207L130.325 74.8121L130.429 74.85L130.653 74.8121H130.804L130.9 74.7762L131.014 74.6865L131.134 74.6566L131.339 74.5689L131.527 74.4294L131.586 74.3596L131.686 74.2799L131.854 74.1404L131.928 74.0148L132.015 73.963L132.066 73.8853V73.8673L132.365 73.5185L132.475 73.4428L132.555 73.3929L132.704 73.2156L132.866 73.0382L132.997 72.9405L133.023 72.8368L133.213 72.6973L133.438 72.5717L133.854 72.3186L134.092 72.1891L134.241 72.1193C134.972 71.7864 135.876 71.619 136.627 72.0555L136.721 72.1293L136.812 72.217L136.961 72.4043L137.067 72.3405L137.036 72.4302L137.067 72.5199L137.156 72.6096L137.187 72.6973L137.199 72.8986L137.309 72.8588L137.278 72.9624L137.329 73.1916L137.335 73.3112L137.435 73.3531L137.541 73.5185H137.39V73.7976L137.453 73.9152L137.541 74.0507H137.659L137.643 74.1045L137.59 74.1922V74.3596L137.612 74.4473L137.645 74.4832L137.7 74.4932L137.688 74.549H137.612L137.59 74.5689H137.474L137.409 74.6566L137.372 74.9118V75.0792L137.429 75.1529L137.427 75.2526L137.372 75.3064L137.39 75.4081L137.486 75.3802L137.624 75.2865L137.612 75.3283L137.59 75.3722V75.723L137.659 75.7908L137.643 75.8625L137.541 75.7967L137.486 75.8844L137.541 75.9662V76.0618L137.453 76.1037L137.541 76.1475L137.504 76.1954V76.2651L137.496 76.309L137.541 76.4326L137.59 76.586L137.643 76.6897L137.624 76.7076V76.7634H137.486L137.372 76.7415L137.354 77.0166L137.486 77.1043L137.541 77.196L137.429 77.2279L137.354 77.3235V77.4451H137.427L137.429 77.4969L137.541 77.5627L137.486 77.5826H137.335V77.7879L137.354 77.8537L137.329 77.9633L137.335 78.2683L137.329 78.5852L137.309 78.8782L137.329 79.1553L137.335 79.3187L137.398 79.3985L137.453 79.4862L137.429 79.5778H137.329L137.335 79.6337V79.7811L137.368 79.8788L137.429 79.9406L137.329 79.9884L137.335 80.0403L137.329 80.13V80.1957L137.335 80.2715L137.496 80.3353L137.504 80.4349L137.427 80.5107L137.453 80.6003L137.486 80.6502L137.504 80.7399L137.541 80.7897V80.8276L137.504 80.8914V80.7897L137.453 80.8575L137.427 80.9153L137.39 81.009L137.429 81.0807V81.3697L137.335 81.3598L137.329 81.4076V81.5112L137.335 81.593L137.309 81.6249L137.39 81.6508L137.429 81.5491L137.486 81.6129V81.7165H137.368L137.354 81.7943L137.429 81.8401L137.329 81.864L137.39 82.0394L137.496 82.0693L137.453 82.171L137.354 82.159L137.335 82.2587L137.372 82.3584L137.335 82.46V82.5517L137.354 82.6055L137.335 82.6234L137.427 82.6653L137.541 82.6932L137.486 82.8706V82.9942H137.59L137.612 83.042L137.659 83.056L137.688 83.1576L137.541 83.3211L137.504 83.3609L137.559 83.3868L137.504 83.4088L137.559 83.4745L137.645 83.4267L137.736 83.5124V83.7536L137.822 83.7775L137.812 83.8333L137.775 83.8652L137.848 83.921L138.007 83.9469L138.087 84.1084L138.221 84.1961V84.2339L138.372 84.2878H138.528L138.984 84.1502L139.211 84.0885L139.392 83.9768L139.489 83.9669L139.695 83.8552L139.897 83.7675L139.984 83.7396L140.094 83.6519H140.135L140.145 83.624H140.2L140.283 83.5802L140.367 83.5224L140.41 83.5682V83.5124L140.558 83.4486L140.636 83.4088L140.701 83.3609L140.858 83.2613L140.908 83.2852L140.996 83.1835L141.088 83.1576L141.132 83.1178L141.206 83.0819L141.479 82.9523L141.631 82.8407L141.815 82.741L141.984 82.6414L142.032 82.6533L142.157 82.5756L142.193 82.5896L142.232 82.5756L142.301 82.4999L142.48 82.3863L142.916 82.2089L142.985 82.171L143.219 82.0953L143.423 82.0693L143.563 82.0275L143.618 81.9916L143.643 82.0195C144.649 81.9557 144.14 82.0634 144.989 82.1291H145.117L145.078 82.0693H145.194L145.229 82.171L145.388 82.2348L145.339 82.159L145.443 82.2208C145.722 82.4979 145.768 82.7012 146.003 82.9304V83.056L146.043 83.0819V83.1477L146.106 83.2075L146.053 83.3211L146.141 83.3609L146.184 83.4088L146.165 83.4486L146.147 83.4965V83.4965ZM98.277 88.6449L98.3045 88.6011C99.3736 88.4336 99.2144 88.5114 100.223 88.1008L100.409 88.035L100.386 88.0051L100.325 88.035L100.429 87.9732L100.449 87.9592L100.521 87.9214H100.663L100.775 87.8177L100.852 87.7679L100.95 87.732L101.009 87.7181L101.048 87.7041L101.083 87.732L101.195 87.6642L101.131 87.6184L101.235 87.5885V87.5407H101.258L101.27 87.6324L101.335 87.5885V87.5187L101.445 87.5287L101.531 87.4908L101.559 87.4629L101.583 87.453L101.606 87.4271L101.744 87.4111L101.856 87.3732L101.98 87.3493H102.147L102.18 87.3394L102.455 87.3892L102.571 87.4271C102.774 87.5466 103.084 87.9632 103.117 88.2024L103.161 88.2881L103.186 88.316L103.18 88.328L103.186 88.3599L103.218 88.3898V88.4017L103.235 88.4376L103.292 88.5413H103.31L103.271 88.629L103.359 88.7306L103.31 88.8861L103.271 88.9997L103.292 89.2767L103.235 89.492L103.186 89.5558L103.171 89.6674L103.08 89.7352L103.031 89.8029L102.968 89.9823L102.707 90.2395L102.628 90.2893L102.595 90.3411H102.553L102.402 90.4786L102.247 90.5763L102.147 90.66L102.072 90.7298L102.027 90.7457L101.995 90.7677L101.921 90.8573L101.775 90.9969L101.606 91.0846L101.496 91.1882L101.39 91.2879L101.398 91.3038L101.323 91.3437L101.27 91.3915L101.235 91.4433H101.172L101.131 91.4812L101.089 91.5191L101.022 91.6188L100.93 91.6726H100.95V91.6805L100.852 91.7084C100.555 92.2247 100.034 92.6433 99.9062 93.2412L99.9612 93.3568L99.7863 93.4824L99.7588 93.604L99.861 93.6598L99.747 93.6977L99.7235 93.8352C99.8256 94.2358 99.4542 94.0684 99.6389 94.762L99.6252 94.8119H99.5702L99.4876 94.8617L99.407 94.9275L99.4699 95.0391L99.4346 95.1009L99.4012 95.1766L99.4346 95.2763L99.4012 95.4158L99.3854 95.5473H99.3697L99.3854 95.5693L99.3697 95.6231L99.4012 95.641L99.3697 95.8603V96.2131L99.407 96.3167L99.3363 96.4941L99.3127 96.7612L99.3107 96.9386L99.3225 97.0781L99.299 97.1917L99.2773 97.4568V97.8634C99.2498 98.2999 99.2636 98.7285 99.2007 99.167L99.2203 99.3683L99.2577 99.4082L99.2007 99.4719L99.2459 99.6354L99.2577 99.8148L99.1889 99.9384L99.1732 100.193L99.1339 100.279V100.931L99.071 101.218L99.0415 101.371L99.0042 101.437L99.0356 101.525L98.9354 101.702L98.8469 101.904L98.7231 102.093L98.6367 102.296L98.5561 102.384L98.4873 102.434L98.2888 102.677L98.222 102.753L98.2004 102.827H98.0825L98.0176 102.892L97.9213 102.942L97.8741 103.018L97.7739 103.068L97.6874 103.092L97.6501 103.147L97.599 103.167L97.5617 103.191L97.5184 103.223L97.4261 103.285L97.2512 103.383L97.0271 103.474L96.9269 103.482L96.7657 103.558L96.5731 103.614H96.4808L96.4277 103.66L96.3648 103.674H95.9639L95.8421 103.598L95.7241 103.558V103.482L95.6907 103.474L95.6121 103.436L95.5807 103.416L95.5709 103.383L95.5414 103.349L95.4922 103.285L95.3861 103.167L95.3566 103.092V103.018L95.2859 102.992L95.2682 102.892L95.2446 102.827V102.711L95.1857 102.619L95.1699 102.358L95.1326 102.081L95.1699 101.81V101.535L95.1326 101.27L95.1699 101.164C94.9656 100.598 95.3409 101.027 95.2446 99.8965V99.6115H95.2682V99.5975L95.2446 99.3185L95.2073 99.2049L95.1699 99.1311L95.2073 99.0155V98.88L95.2446 98.7225V98.6089L95.2682 98.5152L95.2859 98.3956L95.339 98.3398V98.2701L95.2859 98.1804L95.2682 97.9511L95.2446 97.8276L95.3193 97.7239V97.5924L95.339 97.2794L95.3193 97.1519V97.0402L95.339 96.825L95.4038 96.5599L95.4805 96.4562V96.4084C95.5374 95.071 95.6888 93.8252 95.7025 92.4698L95.7143 92.2247L95.7241 91.7862C95.7536 91.6188 95.7674 91.4434 95.8185 91.258L95.8892 90.9849L95.9639 90.7457L95.9384 90.6142L96.0504 90.4069L96.1251 90.1518L96.2253 89.9584L96.2685 89.8727L96.3294 89.8448L96.3393 89.8029L96.465 89.6594L96.6105 89.492L96.9524 89.193C97.3042 88.9239 97.3239 88.9937 97.6363 88.8183L97.9213 88.6947L98.2141 88.6011V88.619L98.277 88.6449V88.6449ZM92.7291 93.3389L92.452 93.4565L92.4304 93.7714L92.5326 94.0704L92.6308 94.2538L92.6662 94.3036L92.6092 94.4032L92.566 94.6105L92.6544 94.7859L92.6092 94.9613L92.452 95.2284L92.4304 95.3959L92.4795 95.4816L92.452 95.5473V95.8104L92.397 95.9958L92.4146 96.1134L92.3694 96.2131C92.2161 97.415 92.1474 96.7313 92.1493 98.2701V98.7225L92.053 98.7723V98.9019L92.0039 99.2148L91.9567 99.3085L91.9469 99.5357L91.9567 99.7968L91.9469 100.05L91.9076 100.267L91.8408 100.369L91.8329 100.496H91.8152V100.777L91.7445 100.977L91.7543 101.23L91.6836 101.459L91.6659 101.722L91.656 101.838L91.6325 101.967L91.6187 102.244L91.6089 102.358L91.5539 102.462L91.5656 102.733H91.6089V102.892L91.5656 102.942L91.5106 103.092L91.5342 103.147L91.5539 103.311L91.5106 103.558L91.5656 103.933L91.5814 104.084L91.5539 104.22L91.4969 104.409L91.4497 104.533V104.549L91.4811 104.612L91.4497 104.764L91.4261 105.021V105.157L91.3809 105.27L91.3573 105.551L91.2217 105.776V105.97L91.2571 106.006C91.3809 106.006 91.491 105.904 91.4811 106.107L91.43 106.273L91.4065 106.307L91.3102 106.348L91.1903 106.249L91.1176 106.488L90.9053 106.524C90.412 106.919 89.9522 107.395 89.3469 107.602L89.2722 107.716H89.0481L88.9361 107.78L88.8241 107.764L88.3839 107.65L88.1716 107.592L88.0852 107.536L88.0203 107.459L87.9024 107.287L87.8454 107.084L87.7923 106.865C87.7668 105.998 87.7943 105.224 87.8415 104.361L87.8336 104.12L87.8454 103.889C87.8415 103.598 87.8945 103.311 87.8945 103.018L87.9024 102.639H87.8729V102.508L87.9378 102.027L88.0203 101.587L87.9967 101.336L88.038 101.108C88.038 101.063 87.8729 100.646 88.0852 100.789L88.1186 100.425H88.1225L88.1087 100.106V99.7968C88.209 99.5357 88.1716 99.167 88.1972 98.9019L88.1834 98.7225C88.2188 98.3498 88.3092 97.4847 88.2463 97.1618L88.319 96.6994C88.319 96.4941 88.3603 96.3267 88.3465 96.1294C88.3328 95.926 88.3839 95.7726 88.4055 95.5952L88.4448 95.1627L88.4645 95.1009L88.545 94.7859L88.6747 94.469C88.7848 94.188 88.8732 93.9129 89.001 93.6319L89.2466 93.2771L89.508 92.9861L89.6554 92.7947L89.7556 92.705L89.8834 92.6552L89.8343 92.6273L90.0544 92.4918L90.2843 92.3164C90.5241 92.1549 90.8188 92.0333 91.0802 91.9436L91.5342 91.844L91.8152 91.8878L92.0039 91.9197L92.1631 92.0971L92.2928 92.2546L92.4087 92.6014L92.4795 92.7708L92.509 92.8605L92.5326 92.8864L92.4913 93.1376L92.7291 93.3389V93.3389ZM94.2797 84.4512L94.2227 84.525V84.6186L94.2659 84.6266L94.2188 84.7163L94.2797 84.796H94.2227L94.2188 84.8518L94.1873 84.9296L94.1539 85.0711L94.034 85.2246L94.0183 85.2624L93.979 85.2903V85.3581L93.9299 85.398L93.8768 85.5176L93.7766 85.6192L93.7097 85.677L93.5899 85.7448L93.6331 85.8325L93.5899 85.8664L93.5663 85.9222L93.4169 86.0438L93.3167 86.1036L93.2676 86.1973L93.2302 86.2371L93.1241 86.3089L92.9708 86.4245L92.9158 86.4902L92.8195 86.5122L92.8175 86.55L92.731 86.5859L92.6308 86.6258L92.6092 86.6557L92.566 86.6916L92.4913 86.7474L92.4146 86.8151L92.3694 86.8331L92.3537 86.8411L92.2535 86.8789L92.1867 86.9567L92.053 87.0583L91.9292 87.0922L91.8742 87.1739H91.7956L91.8152 87.152L91.6836 87.1978L91.6659 87.2397L91.6089 87.2517L91.4811 87.2736L91.3573 87.2397V87.2078L91.3043 87.2397H91.2217L91.1294 87.2218L91.1254 87.1978L91.0055 87.2397L90.9603 87.1978L91.0055 87.152L90.8739 87.1081H90.7933L90.756 87.0683L90.6577 86.9925L90.6066 86.8411L90.5457 86.8151L90.4906 86.7015L90.4828 86.7274H90.4572L90.4454 86.6796L90.3963 86.5122V86.3906L90.3433 86.3388L90.3786 86.275L90.3531 86.1753L90.3786 86.1315L90.3433 86.1056L90.3531 86.0438L90.3786 85.8963L90.3963 85.7328L90.4278 85.677L90.4572 85.6053L90.5221 85.4777L90.5241 85.3462L90.5693 85.2983L90.583 85.2465L90.6321 85.1608L90.7068 85.0412L90.7284 84.9435V84.816L90.8306 84.7422C91.2119 84.1841 92.2201 83.327 92.8667 83.1576H92.9885L92.9924 83.1178L93.0671 83.1058L93.1791 83.0699H93.5034L93.5152 83.0819L93.5545 83.0699L93.6331 83.0819L93.6783 83.1058L93.7274 83.1178L93.8198 83.1576V83.2075L93.9299 83.2932L93.979 83.3609L93.9908 83.4666L94.034 83.5124V83.5802L94.0714 83.6141L94.0812 83.6898L94.091 83.7895L94.1873 83.9469L94.2659 84.0685V84.1841L94.2797 84.4512V84.4512ZM84.7599 96.4941L84.7992 96.4443C84.9407 96.3845 84.9879 95.7108 84.9309 95.5832V95.5174L84.8779 95.4816L84.8621 95.366C84.8464 95.1766 84.9407 94.9992 84.9643 94.8119L84.984 94.6683L85.0213 94.6105L85.0764 94.6205L85.1982 94.5348L85.2454 94.3933L85.2513 94.2896L85.1982 94.2538H85.1609V94.188L85.2513 94.1023L85.3004 93.9727L85.2709 93.9129L85.2454 93.8471L85.2709 93.7455L85.3004 93.6319L85.3377 93.594L85.3181 93.5322L85.2709 93.4465L85.3004 93.3289L85.3377 93.1754L85.3476 93.0499L85.4006 92.8864L85.4242 92.8226L85.438 92.7708L85.4615 92.705L85.4792 92.5057L85.4989 92.428L85.5126 92.418L85.4989 92.4041L85.5126 92.3562L85.5343 92.2546L85.5618 92.123L85.6109 92.0194V91.8739L85.662 91.7463V91.6327L85.717 91.5011L85.7229 91.4055V91.258L85.7504 91.2022L85.7956 91.1603L85.774 91.0607L85.8035 91.0228L85.8114 90.9371L85.8487 90.8195L85.9057 90.5404L85.9646 90.4069L86.0118 90.3132L85.9705 90.2395L86.0118 90.1876L85.9922 90.1757L86 90.1378L86.057 89.9484V89.8029L86.0845 89.7591V89.7033L86.1101 89.5558L86.1455 89.5L86.1612 89.4282L86.1769 89.3485H86.1946L86.226 89.3126L86.2457 89.1611V89.0834L86.3046 89.0615L86.2889 88.9598L86.3046 88.922V88.8442L86.338 88.7964L86.3616 88.7306L86.3813 88.6668L86.3891 88.629V88.5413L86.4265 88.4376L86.4638 88.328L86.5012 88.2243L86.513 88.1725L86.5228 88.1008L86.5503 88.035L86.5365 87.9592L86.5621 87.9074L86.5778 87.8357L86.6112 87.7679L86.6368 87.732L86.6309 87.7041L86.6604 87.5885L86.7056 87.5407L86.7291 87.5187H86.7665L86.7606 87.4749L86.7665 87.3892L86.8412 87.3134L86.8844 87.2218V87.1221L86.9217 86.9108L87.0043 86.8331L87.0337 86.6916L87.0593 86.55L87.2244 86.4006L87.2322 86.3388L87.2499 86.2989V86.1973L87.2637 86.0438L87.3325 85.9441L87.36 85.8664L87.362 85.8325L87.3855 85.8086L87.4072 85.677L87.4347 85.5355L87.472 85.398L87.5467 85.2903L87.6391 85.1708L87.696 85.1608L87.7334 85.1229L87.8336 85.0332L87.8415 84.9575L87.8454 84.8817L87.8729 84.8359L87.9024 84.7801L87.9672 84.6764L87.9967 84.5987L88.0203 84.5628V84.2977L88.0596 84.1841L88.038 84.1183L88.0203 84.0685L88.038 83.921V83.7675L88.0596 83.7038V83.6519L88.0852 83.4965L88.1087 83.351V83.2852L88.1343 83.2075L88.1225 83.1477L88.1186 83.0819L88.1598 83.042L88.1716 82.9822L88.209 82.8547L88.1972 82.7012L88.2463 82.6533V82.4341L88.3465 82.159L88.4802 81.864L88.6413 81.5631L88.6492 81.4774L88.6315 81.4076L88.6865 81.2521L88.7691 80.9771L88.8064 80.8276L88.8241 80.6741L88.8732 80.5366L88.889 80.4489L88.9577 80.3951L89.0481 80.2814L89.1209 80.0403L89.2093 79.9884L89.2466 79.9007L89.2525 79.813L89.1602 79.6915L89.1464 79.4862L89.1779 79.4483L89.2093 79.3745L89.2722 79.2211L89.3056 79.0536L89.3154 78.9659L89.3587 78.9002L89.4471 78.8304L89.4825 78.7267L89.4943 78.6351L89.4471 78.5852L89.4825 78.4397L89.5434 78.2843V78.1447L89.5965 78.0411L89.62 77.9633L89.6829 77.9155L89.6377 77.8896L89.62 77.8238L89.6377 77.6504L89.7183 77.4451L89.7497 77.4232L89.7556 77.3933L89.7871 77.3235L89.7949 77.1701L89.8696 77.0166L89.9345 76.887L89.9895 76.7634V76.6897L90.0426 76.6239L90.0249 76.5442L90.0426 76.4724L90.1015 76.4326L90.1212 76.3568L90.0956 76.309L90.1349 76.2313L90.1664 76.1555L90.2312 76.1137V76.0539C90.3098 75.7469 90.4179 75.2526 90.5693 74.9736L90.5889 74.9118L90.6321 74.8978C90.7226 74.844 90.7068 74.8121 90.7068 74.7124L90.7284 74.6865L90.7068 74.6566L90.7284 74.5988H90.7442L90.7736 74.5689L90.8188 74.5351L90.8306 74.4673L90.8188 74.3297L90.8306 74.2799L90.8582 74.2161L90.8935 74.1045V74.0507L90.9603 73.9391V73.9152L90.9938 73.8773V73.7976L91.0055 73.7457L91.0311 73.6321L91.0802 73.6082L91.1294 73.4806V73.4189L91.1903 73.2933L91.2355 73.1538L91.4261 72.8588L91.4969 72.6973L91.5342 72.6096L91.5106 72.5438L91.6325 72.4043L91.6659 72.217C91.7838 72.1213 91.8427 72.0216 91.8703 71.8721L91.9076 71.7486L91.8565 71.6449L91.8703 71.5273L91.8742 71.4476L91.9567 71.2861L92.0314 71.0988L92.1179 70.8755L92.1631 70.7978L92.1867 70.6722L92.2928 70.4689V70.4151L92.3537 70.3792L92.3694 70.2596L92.4304 70.164V70.1002L92.452 70.0484L92.5502 69.8869L92.5895 69.8331L92.566 69.7693L92.6092 69.7454V69.6976L92.6662 69.57V69.5301L92.8057 69.2391C92.8804 69.0358 92.9885 68.8465 93.0494 68.6691L93.2066 68.3402L93.2302 68.2365C93.4189 67.8598 93.527 67.5409 93.7274 67.1582L93.7392 67.0885L93.7648 67.0626L93.8002 66.9749L93.8591 66.8333L93.9534 66.6818L93.979 66.6061L94.0714 66.4387L94.1539 66.2892L94.2404 66.2234L94.3268 66.1616L94.4015 65.9344L94.4428 65.8088L94.5371 65.755L94.6039 65.5936L94.5784 65.5677L94.6531 65.5437L94.6668 65.4381L94.7651 65.3145L94.8535 65.171L94.9027 65.0953L95.0029 64.9179L95.2446 64.6169L95.2682 64.577L95.339 64.5511L95.3861 64.4535L95.4372 64.3359L95.5414 64.2521L95.5925 64.1605L95.6671 64.0488L95.7536 63.9591L95.8185 63.8934L95.8539 63.8575L95.8715 63.8176L95.903 63.7519L95.9384 63.694L96.0032 63.6502L96.0504 63.6024L96.0582 63.5685L96.1251 63.5266L96.1703 63.4628L96.2253 63.4389V63.3771L96.3393 63.2336H96.4808L96.5299 63.132L96.5692 63.108L96.5908 63.0323L96.6105 62.9964V62.9426L96.6478 62.9227L96.7087 62.9865L96.6911 63.0223L96.6576 63.0323L96.693 63.0841L96.7657 63.0323L96.8129 62.9964L96.8522 62.9326L96.8326 62.831V62.7533L96.8994 62.7154L96.9269 62.6377L96.9524 62.6775L96.9328 62.7333H96.9937L97.0271 62.7034V62.6197L97.0645 62.6377L97.0762 62.5799L97.1136 62.55L97.1647 62.54V62.524L97.2335 62.55V62.5799H97.2767L97.2964 62.54V62.524L97.3514 62.4782L97.375 62.4264V62.3466L97.4103 62.3008L97.4634 62.2888L97.485 62.239L97.4988 62.1692L97.5381 62.0497L97.5184 61.9201L97.5852 61.8184H97.6363V61.8045L97.6992 61.8184L97.6717 61.7288L97.6992 61.665L97.7543 61.6271L97.7739 61.5673V61.5394H97.8132L97.8407 61.4637L97.8741 61.4258V61.3979L97.8997 61.364L97.9213 61.3241L98.0176 61.2265L98.0608 61.081L98.0923 61.0471L98.1473 60.9574H98.1827V60.8916L98.2475 60.792L98.2888 60.6504L98.3045 60.6126L98.3399 60.5647L98.3438 60.481L98.3517 60.4372L98.3949 60.2956L98.3989 60.1501L98.4382 60.0844L98.4421 60.0126H98.4067L98.3949 59.9688L98.4382 59.9189V59.7655C98.4185 59.3947 98.4008 59.1057 98.2888 58.7529V58.6612L98.2318 58.5636C98.0962 58.2227 97.9606 57.8899 97.6992 57.6248L97.599 57.551L97.5774 57.5111H97.542L97.5086 57.4494L97.4634 57.4374L97.4437 57.3716H97.4103L97.4005 57.3477L97.3317 57.3058L97.314 57.2421H97.2335C97.09 57.1005 96.5417 56.8494 96.3648 56.8414H96.3393L96.3294 56.8135L96.1879 56.7517H96.0327L95.8715 56.6899H95.7025L95.5414 56.6541L95.4805 56.664L95.3861 56.6541L95.3193 56.6899L95.2446 56.6541L95.0402 56.6899L94.8398 56.6999L94.6708 56.8016L94.4939 56.8414L94.3268 56.9152C94.0497 57.0248 93.8395 57.2321 93.5899 57.4095L93.3914 57.5988L93.3737 57.6387H93.301L93.2676 57.7703L93.1477 57.8819H93.0927L93.0317 57.9576L92.9885 58.0692L92.8175 58.2486L92.6662 58.4519L92.4304 58.8067L92.3537 59.018L92.1238 59.3588L91.9292 59.7555C91.8152 59.9688 91.7209 60.2099 91.6462 60.481L91.4654 60.8916L91.3043 61.2962L91.1294 61.7806L90.9603 62.239C90.8582 62.5061 90.7284 62.7533 90.6321 63.0323L90.471 63.4887L90.3354 63.9213C90.2312 64.1943 90.1349 64.4893 90.0367 64.7544L89.905 65.0195L89.7949 65.3624C89.7183 65.5796 89.6377 65.8088 89.5434 66.0101C89.4589 66.2593 89.3822 66.5045 89.284 66.7436C89.2093 67.0346 89.0737 67.3396 88.9794 67.6565L88.8241 68.0193L88.6865 68.4518L88.4979 68.9342C88.4389 69.1355 88.3839 69.3527 88.3092 69.5301C88.2208 69.7454 88.1186 69.9666 88.038 70.1919C87.9476 70.4809 87.8454 70.7599 87.7334 71.043C87.472 71.7147 87.2637 72.4203 87.0534 73.1139L86.963 73.2933L86.9119 73.4607L86.8117 73.6321L86.7056 73.8394L86.6112 74.3038C86.5778 74.5351 86.5012 74.6726 86.4265 74.8719L86.3243 75.1948C86.2673 75.3722 86.1101 75.5715 86.0767 75.7908L85.9194 76.1555L85.8192 76.6L85.7504 76.9269L85.6109 77.3235L85.5126 77.7541L85.3377 78.1527C85.3377 78.3341 85.3181 78.4537 85.3476 78.6151L85.2139 78.8423L85.151 79.1114L85.1255 79.3745L84.9997 79.6655C84.9014 80.0403 84.8091 80.413 84.6872 80.7897C84.6302 80.9771 84.6086 81.1684 84.5359 81.3598C84.5064 81.5391 84.3983 81.7165 84.3433 81.9238C84.245 82.2726 84.1704 82.6653 84.0996 83.056L83.9758 83.4666L84.0131 83.6519L83.9011 83.8792L83.8363 84.1841L83.6653 84.7043C83.5867 85.095 83.4393 85.4777 83.3548 85.8664C83.284 86.1753 83.1818 86.4743 83.1072 86.7653L83.0639 87.1739C82.9637 87.6304 82.8104 88.0569 82.7023 88.5014L82.6532 88.7565C82.6276 88.9598 82.5667 89.1372 82.5156 89.3306C82.4547 89.6176 82.3604 89.8867 82.2916 90.1876L82.2169 90.6421C82.1481 90.9231 82.1029 91.2281 82.0439 91.5011L81.9516 91.9436L81.8671 92.3802L81.812 92.7947L81.702 93.1874L81.6273 93.594C81.5782 93.7973 81.5271 93.9966 81.5055 94.2159C81.4662 94.4032 81.4406 94.5567 81.3876 94.7461L81.3482 95.1627C81.2913 95.366 81.2657 95.5593 81.2362 95.7985C81.191 96.2131 81.0987 96.6476 81.0259 97.0861C80.9827 97.2535 80.9257 97.4568 80.9257 97.6561C80.8884 97.9392 80.794 98.2262 80.7783 98.5152L80.7056 98.8222C80.6584 99.0534 80.6584 99.2706 80.6152 99.5078C80.5641 99.8865 80.5071 100.343 80.4069 100.726L80.342 101.164C80.2674 101.712 80.173 102.254 80.1023 102.827C80.0531 103.068 80.0256 103.349 80.0178 103.598L79.9608 104.02C79.8822 104.469 79.9333 104.758 79.7367 105.198L79.662 105.334L79.6031 105.208L79.4282 105.157L79.3791 105.031V104.905L79.3928 104.549L79.3437 104.433L79.3928 104.295L79.155 104.12L79.2041 104.02C79.214 103.135 79.0469 103.11 79.0666 102.462L79.1295 102.207C79.0469 101.944 79.155 102.005 79.1295 101.904L79.0469 101.662L78.9722 101.597L78.9054 101.473L78.8976 101.393L78.9722 101.358L78.9369 101.344L78.8976 101.383L78.8307 101.27L78.8504 101.208L78.8425 101.108L78.9722 101.007L78.9369 100.977L78.8877 101.007L78.7934 101.043L78.7128 101.031L78.7325 100.951L78.7128 100.893V100.726L78.7325 100.586L78.7875 100.481L78.7325 100.395V100.335L78.7757 100.221L78.7934 100.128L78.8307 100.002H78.8504L78.8877 99.9284L78.9369 99.8526C78.9035 99.6414 78.6814 98.9956 78.5694 98.8002V98.7006L78.5202 98.4415C78.6106 97.6721 78.3119 97.8256 78.2982 97.1279L78.2785 97.0263L78.2589 96.9545L78.363 96.9127L78.4082 96.825L78.2785 96.6476C78.0741 96.0935 78.308 96.1553 77.9287 95.342L77.9365 95.2643L77.854 95.2025V95.1228L77.8068 95.075L77.7931 94.9992L77.8186 94.8876L77.854 94.7859L77.7322 94.7242L77.6594 94.6444V94.3275L77.6064 94.2159L77.6594 94.0385L77.6496 93.9508L77.571 93.901L77.4826 93.4306L77.4963 93.3289L77.4708 93.2133L77.402 92.9861L77.3706 92.8107L77.3293 92.6273L77.3647 92.5815L77.4217 92.5296L77.345 92.4918L77.3096 92.428L77.3293 92.3702L77.3096 92.3164L77.2959 92.1549L77.3096 92.0852L77.2959 92.0333L77.2546 92.0194V91.9197L77.2212 91.844L77.2094 91.8121L77.1976 91.7862V91.7204L77.2212 91.6726L77.1976 91.6188L77.1819 91.5191L77.2546 91.4433L77.2959 91.3776L77.2546 91.3038V91.2281L77.2212 91.1364V91.0467L77.1504 90.971L77.2212 90.9231L77.1878 90.8573L77.2546 90.7956L77.1976 90.7457L77.06 90.6959L77.0502 90.5404L77.0954 90.4069L77.0856 90.377L77.0502 90.3012V90.1239L77.0954 90.0999L77.0502 90.0641L76.948 90.0999V90.072L76.9107 90.0142L76.9736 89.9744L76.9952 89.9046L76.948 89.8867L76.9009 89.7352L76.9736 89.7033L76.948 89.6594L76.9009 89.5897L76.8537 89.5279L76.8065 89.3485L76.836 89.2767L76.8537 89.211L76.7829 89.0475L76.7436 88.91V88.8183L76.724 88.7306L76.7043 88.6449V88.5014L76.669 88.2602L76.6336 88.1147L76.5884 87.9453L76.5569 87.7679V87.6642L76.5491 87.5626L76.5294 87.3732V87.3015L76.4823 87.2218V87.0204L76.439 86.9806L76.4724 86.9208L76.4154 86.7573L76.3722 86.564L76.382 86.4743L76.3408 86.3746L76.327 86.275V86.1973L76.2956 86.1494V85.9441L76.2327 85.7906V85.6192L76.2209 85.4259L76.1835 85.2624L76.1717 85.1229C75.9536 84.21 76.0578 84.0665 75.6097 83.1576L75.5664 83.1178L75.5389 83.056L75.4505 82.9822C73.9058 81.4794 72.1705 82.6713 71.7499 84.8518L71.6988 85.0332L71.6536 85.095L71.6792 85.1708L71.6281 85.1827L71.6143 85.2465C71.5632 85.4139 71.4885 85.6053 71.4414 85.7906L71.3844 85.8963L71.3804 86.0079L71.2979 86.2371L71.2311 86.4504C71.123 86.7015 71.0758 87.0085 70.9913 87.2736L70.8321 87.5287C70.7909 88.1645 70.3074 88.8661 70.3546 89.2608L70.2425 89.5817C70.1934 89.7591 70.1345 89.9325 70.0755 90.1239L69.9281 90.6142L69.8141 90.8853L69.708 91.1125L69.6294 91.3776L69.5901 91.6726C69.5272 91.8579 69.4545 92.0194 69.4093 92.2247C69.3798 92.418 69.2304 92.5296 69.1656 92.6712L69.0732 92.9861C69.087 93.4664 68.7922 93.7076 68.6448 94.2896L68.6074 94.5707C68.521 94.7999 68.4168 95.0172 68.3402 95.2284C68.2301 95.5174 68.0906 95.7586 68.0061 96.0417L68.0552 96.0576L68.0061 96.2689C67.7604 96.7911 67.6287 97.3472 67.4362 97.8894L67.2829 98.3398C67.2042 98.6488 67.0667 98.9796 67.1158 99.3085L67.2789 99.7749C67.4185 99.9922 67.6346 100.267 67.8469 100.395L68.2046 100.524L68.3657 100.586H68.7155L68.8472 100.538L69.0418 100.524H69.144L69.2304 100.481C69.4898 100.373 69.7571 100.261 69.9379 100.028L69.9969 99.9543L70.0382 99.8626H70.2111L70.1934 99.7749L70.2111 99.5597L70.3133 99.4341L70.3546 99.3085L70.3487 99.2049L70.3742 99.167L70.445 99.0932L70.4666 98.9537L70.5236 98.8879L70.5275 98.7504L70.6533 98.5571L70.6906 98.4534L70.6729 98.3956L70.8144 98.2262L70.8321 98.1186L70.9147 98.0388V97.9113L70.9618 97.7877L71.0444 97.5545L71.1505 97.4568L71.2645 97.4209L71.123 97.3831L71.1505 97.2535L71.1957 97.2037L71.2311 97.1519V97.0861L71.2861 97.0781V96.9725H71.2979L71.2959 96.9127L71.2861 96.8888L71.3372 96.825L71.3254 96.7851L71.3627 96.7712L71.3844 96.7492L71.4138 96.6476L71.4885 96.5599V96.4941L71.463 96.4443L71.4885 96.4184L71.463 96.4084V96.3426L71.5023 96.2928L71.5259 96.241L71.5632 96.2131V96.1852L71.5259 96.1892L71.463 96.1852L71.4885 96.0995L71.5259 96.0656H71.5534L71.577 96.0875L71.6281 96.0995L71.6359 96.0656L71.6005 96.0237L71.6536 95.9898V95.7985L71.6792 95.7347L71.7283 95.7008L71.7499 95.641L71.7165 95.6231L71.6988 95.5473L71.7283 95.4158H71.7754L71.7637 95.366L71.799 95.2424L71.8246 95.1926L71.915 95.1766L71.9445 95.075L71.9071 95.051L71.8953 95.0172L71.915 94.8756L71.9504 94.8398L71.9622 94.7999L71.9818 94.7242L72.0015 94.6683L72.0152 94.6444H72.0506L72.082 94.6205H72.1194L72.1253 94.5567L72.0506 94.5408V94.5089L72.082 94.469L72.1076 94.4032L72.1449 94.3933L72.1253 94.3275L72.2314 94.3036L72.2864 94.188L72.2412 94.1501L72.2235 94.1023H72.2864V94.0146L72.2982 93.9966V93.9508L72.3316 93.8192L72.2982 93.8471L72.2864 93.7973L72.2412 93.7355V93.6598L72.3532 93.6977L72.3866 93.6598L72.426 93.6319H72.5223L72.5655 93.6698L72.5733 93.6598L72.5223 93.604V93.5701H72.4731L72.4515 93.594L72.4731 93.4983L72.4613 93.4565L72.4849 93.4465V93.3389L72.6421 93.4007L72.6638 93.3568L72.6795 93.3389V93.2412H72.7247L72.762 93.2133V93.1535L72.7424 93.0997L72.762 93.0499L72.7738 93.0359L72.8387 92.996L72.8622 92.9602V92.9103L72.874 92.8864C72.9173 92.7987 72.9448 92.7011 72.933 92.6014L73.0234 92.5296H73.1531L73.1885 92.5815H73.2494L73.3103 92.6014L73.3614 92.6173L73.4125 92.6273L73.4243 92.705L73.5049 92.7848L73.5285 92.8107L73.5992 92.7947L73.5658 92.8346V92.9223L73.5285 92.9781V93.024L73.5049 93.1256L73.5285 93.1754L73.5658 93.2133L73.611 93.1535L73.725 93.0997L73.837 93.1635L73.7722 93.2412L73.725 93.2771L73.7407 93.3289V93.4684L73.7211 93.5322L73.8095 93.604L73.7879 93.6319L73.7722 93.6698H73.7407L73.6975 93.7076L73.7211 93.7614L73.7407 93.8192L73.725 93.885L73.6975 93.9966L73.8095 94.0704L73.7879 94.174L73.8095 94.4431L73.9078 94.5567H73.9648V94.6325L73.9844 94.6683V94.7321H74.0335L74.0689 94.7999L74.1023 95.0211L74.0276 95.2284L74.1121 95.1627L74.1456 95.4158C74.2399 95.954 74.3323 96.4921 74.3755 97.0402L74.4089 97.1279L74.3932 97.1519C74.4246 97.4827 74.631 98.1046 74.6054 98.4315L74.6251 98.4714L74.5877 98.5152V98.6488L74.572 98.9238L74.6054 98.9896L74.572 99.0534L74.686 99.2049L74.6998 99.3085L74.7607 99.3683V99.5357L74.8098 99.8247L74.8413 100.064L74.8786 100.166L74.8413 100.267L74.8786 100.395L74.8963 100.496L74.9218 100.756L75.0083 101.27V101.383L75.0555 101.485V101.625C75.1813 102.223 75.2363 102.811 75.3188 103.416L75.3385 103.5L75.3188 103.598L75.3562 103.624V103.7L75.3837 103.819C75.4996 104.254 75.5134 104.868 75.6175 105.284L75.6352 105.398L75.6097 105.511L75.6745 105.623L75.6529 105.741L75.6981 105.87L75.7099 105.93L75.6981 105.976L75.7237 106.071L75.6981 106.137L75.7237 106.191L75.7748 106.348L75.7433 106.438L75.7944 106.488V106.637L75.8396 106.809V106.921L75.8573 106.946V107.02L75.8828 107.096V107.247H75.9222V107.287L75.9005 107.313L75.9222 107.415V107.503L75.9418 107.602V107.716L75.9713 107.742V107.792L75.9968 107.981V108.144L76.0519 108.186L76.0283 108.248L76.0342 108.35L76.0519 108.423L76.0597 108.577L76.0833 108.589L76.0597 108.641L76.0971 108.679V108.756L76.1167 108.844V108.946L76.1717 108.983V109.107L76.1914 109.201L76.2209 109.233L76.1914 109.273L76.2327 109.372L76.2091 109.466C76.3211 109.847 76.2857 109.761 76.3015 110.088L76.3447 110.211V110.287L76.3958 110.361L76.382 110.419V110.49L76.4154 110.58L76.382 110.712L76.327 110.805L76.3408 110.923L76.327 110.985L76.2956 111.072L76.3015 111.186L76.382 111.224L76.4508 111.274L76.5294 111.363L76.5569 111.463L76.5786 111.527L76.5825 111.593L76.5569 111.646L76.494 111.744L76.439 111.794L76.382 111.838V111.858L76.3408 111.906L76.3958 111.886L76.4508 111.896L76.494 111.858L76.5786 111.896L76.6336 111.906L76.6473 111.961C76.7397 112.27 76.6473 112.342 76.7829 112.689L76.7653 112.721L76.7829 112.747V112.886L76.8065 112.946L76.7829 113L76.724 113.01L76.7829 113.085L76.8242 113.145L76.8537 113.211V113.301L76.893 113.363V113.428L76.9107 113.494V113.582L76.948 113.755V113.845L76.893 113.897L76.9009 114.048L76.9598 114.088L76.9952 114.138L77.0227 114.261L77.0502 114.429L77.06 114.485V114.554L77.0856 114.592L77.0954 114.808L77.1504 114.959L77.1819 115.127L77.1878 115.202V115.254L77.1976 115.302H77.2212V115.443L77.1976 115.493V115.557L77.2546 115.621V115.669L77.2664 115.734L77.3096 115.974L77.345 116.205L77.3647 116.318L77.3706 116.442L77.402 116.544L77.4217 116.635V116.771L77.4708 116.843L77.4963 117.012L77.5317 117.164V117.323L77.5749 117.429L77.5573 117.484L77.5926 117.51L77.571 117.528L77.5749 117.568L77.5926 117.608V117.646L77.5749 117.71L77.6182 117.807L77.6319 117.859L77.6594 117.873V117.991L77.6929 118.114L77.7046 118.166L77.6929 118.23L77.7322 118.304L77.7675 118.415V118.469H77.7322L77.7931 118.543L77.8068 118.682L77.8186 118.778L77.854 118.814V118.926L77.8933 118.985V119.067L77.8992 119.117L77.9287 119.266L77.9365 119.342L77.9641 119.418V119.48L78.0093 119.647V119.695L78.0289 119.735L78.0466 119.771L78.0839 119.912V119.988L78.1115 120.102L78.1508 120.139L78.1842 120.219L78.2589 120.355L78.2785 120.395L78.363 120.508L78.4377 120.556V120.6L78.4554 120.612L78.4927 120.672L78.5458 120.713L78.646 120.773L78.7128 120.813L78.7325 120.851L78.7875 120.915L78.8877 120.937L79.0469 121.012L79.1295 121.028L79.2493 121.054L79.3928 121.092L79.4459 121.082L79.5481 121.054H79.7171L79.7937 121.028H79.89L80.0374 120.991L80.3302 120.915L80.3145 120.851H80.3853L80.4285 120.813C80.6506 120.7 80.9709 120.448 81.0495 120.193L81.0987 120.139L81.1163 120.092L81.1635 120.026L81.191 119.924L81.2362 119.801L81.2657 119.647L81.3168 119.583L81.3482 119.518V119.358L81.3777 119.296L81.3876 119.217L81.417 119.067L81.4406 118.985V118.926L81.5055 118.682L81.5605 118.621L81.5055 118.581V118.523L81.5467 118.369L81.5782 118.214V118.053L81.6273 118.009V117.807L81.6647 117.654C81.6863 117.435 81.7472 117.221 81.757 117L81.7649 116.912V116.771L81.812 116.623C81.8199 116.5 81.8769 116.376 81.8396 116.253L81.8671 116.205L81.869 116.141C81.8907 115.75 81.9418 116.133 81.926 115.659L81.9653 115.621V115.557L81.983 115.527L81.9653 115.493C82.0086 115.117 82.0734 114.764 82.1186 114.375L82.1422 114.365V114.204L82.1619 114.088L82.1796 114.024L82.2031 113.869L82.2169 113.707L82.2031 113.632L82.2169 113.582L82.2405 113.514V113.454L82.2542 113.388V113.241L82.2778 113.085L82.2916 113.01L82.2778 113L82.2916 112.97C82.2876 112.765 82.3486 112.434 82.3898 112.226L82.3997 112.087V112.095V111.987L82.4252 111.896L82.4468 111.728L82.4547 111.668L82.4743 111.605L82.5038 111.567V111.288C82.5333 110.961 82.5903 111.19 82.5667 110.72V110.618L82.5785 110.58H82.5903L82.5785 110.53L82.6158 110.49C82.6001 110.004 82.7672 109.51 82.7652 109.047L82.7829 109.033L82.7652 109.005V108.962L82.8281 108.816L82.8045 108.756L82.8281 108.692L82.8379 108.535V108.489L82.8517 108.403L82.8772 108.322V108.234L82.8654 108.16H82.9047V108.031L82.9244 107.955L82.9401 107.857V107.704L82.9696 107.548L82.9991 107.387V107.233L83.0443 107.176L83.0521 107.096L83.1072 107.062V107.02L83.1445 106.99V106.946L83.1818 106.932V106.831L83.1917 106.765L83.231 106.743V106.524L83.2152 106.438L83.2015 106.402L83.231 106.386L83.2369 106.348L83.2487 106.307L83.3135 106.273L83.2939 106.307H83.4019L83.4766 106.273L83.4884 106.249V106.191L83.5552 106.121L83.5277 106.059L83.5041 106.006L83.4884 105.954L83.453 105.93L83.4236 105.882L83.3528 105.842L83.284 105.741L83.2939 105.665L83.3174 105.589L83.3135 105.551L83.284 105.465L83.3135 105.41L83.2939 105.346L83.3528 105.248L83.3744 105.079V104.931L83.4019 104.792L83.4236 104.652L83.4393 104.513L83.453 104.361L83.4884 104.309V104.25L83.453 104.12V104.032L83.4884 103.995V103.917L83.5651 103.789H83.5867V103.753L83.6162 103.713L83.6221 103.598H83.6653L83.7282 103.558L83.797 103.5L83.8363 103.383L83.8775 103.285L83.8579 103.167L83.8657 103.068V103.052L83.9011 103.03V103.018H83.9129L83.9758 102.992V102.711L84.0131 102.619L84.0328 102.547L84.0524 102.486L84.0328 102.394L83.9758 102.358V102.221L84.0131 102.207V102.131H84.0328L83.9758 102.117V102.027L83.9011 102.055L83.8029 101.997L83.7832 101.892V101.824L83.7655 101.778V101.712H83.797L83.7832 101.702L83.8029 101.571L83.797 101.525V101.459L83.8107 101.383V101.27L83.8363 101.218V101.164L83.8579 101.108L83.8657 101.043L83.8775 101.031V100.977L83.9011 100.963L83.9326 100.911L83.9522 100.841L83.9326 100.789L83.9522 100.71L83.9679 100.646L83.9758 100.524V100.425L84.0328 100.395L84.0603 100.343V100.221L84.0996 100.064L84.076 100.002L84.0878 99.9922L84.076 99.9384L84.1075 99.8865L84.1153 99.8247L84.1605 99.7968H84.2195L84.1271 99.7251L84.1429 99.6613H84.1605V99.6115L84.2018 99.5736L84.1605 99.5078L84.1153 99.446L84.1271 99.3942L84.1507 99.3424L84.1605 99.3085V99.2706L84.2372 99.1969L84.2745 99.153L84.302 99.1311L84.3237 99.1132L84.3433 98.866V98.7225L84.3178 98.7006L84.3433 98.571V98.5371L84.3571 98.4315L84.418 98.3398L84.3571 98.2541L84.3846 98.1365L84.3433 98.0169L84.4357 97.7877L84.5064 97.6681L84.5143 97.6442L84.5359 97.6223V97.4469L84.5713 97.3831L84.6086 97.2794L84.6224 97.2535L84.6538 97.1618V97.0143L84.6224 96.9924L84.6086 96.9725V96.8967L84.5988 96.8369L84.6224 96.7851V96.7393L84.6302 96.6735L84.6538 96.6476V96.6197H84.6872L84.6597 96.5958L84.7187 96.5599H84.7521V96.532L84.7599 96.4941" fill="white"/>
<path fill-rule="evenodd" clip-rule="evenodd" d="M196.013 102.027C196.809 102.055 197.491 102.733 197.491 103.558V120.265C197.467 121.092 196.838 121.736 196.056 121.786H195.863C195.081 121.724 194.47 121.082 194.47 120.255V103.5C194.49 102.711 195.13 102.069 195.907 102.027H195.93H196.013ZM191.668 120.255C191.668 121.082 191.009 121.764 190.196 121.786H190.121C189.301 121.764 188.623 121.082 188.623 120.255V109.767C188.623 108.918 189.301 108.234 190.107 108.22H190.141C190.984 108.234 191.668 108.918 191.668 109.767V120.255ZM152.921 120.255C152.921 121.092 152.28 121.764 151.472 121.786H151.411C150.588 121.786 149.91 121.104 149.91 120.255V112.079C149.91 110.769 149.049 109.92 147.41 109.92C146.52 109.92 146.011 110.05 145.425 110.287V120.219C145.425 121.104 144.751 121.786 143.89 121.786H143.867C143.065 121.764 142.418 121.092 142.387 120.255V108.958C143.729 108.3 145.193 107.971 147.41 107.971C149.558 107.971 150.802 108.589 151.57 109.448C152.472 108.641 153.832 107.971 155.855 107.971C159.029 107.971 160.442 109.984 160.442 112.135V120.255C160.412 121.092 159.801 121.748 158.991 121.786H158.899C158.091 121.764 157.45 121.104 157.431 120.265V112.149C157.431 110.959 156.768 109.93 155.183 109.93C154.237 109.93 153.555 110.239 152.921 110.887V120.255V120.255ZM210.864 120.165C210.864 120.556 210.648 120.915 210.306 121.082C209.373 121.595 207.946 122.041 205.88 122.041C202.103 122.041 199.709 119.538 199.709 114.959C199.709 110.54 201.909 107.971 205.397 107.971C208.936 107.971 210.892 110.375 210.764 114.919L202.561 116.141C202.811 118.635 204.005 119.9 206.216 119.9C207.59 119.9 208.634 119.593 209.355 119.266L209.838 119.129C210.4 119.129 210.864 119.593 210.864 120.165ZM191.811 104.361C191.811 105.208 191.078 105.882 190.141 105.882C189.231 105.882 188.474 105.208 188.474 104.361C188.474 103.5 189.231 102.827 190.141 102.827C191.078 102.827 191.811 103.5 191.811 104.361ZM179.992 120.14C179.44 120.14 178.862 120.038 178.471 119.872V110.239C178.96 109.946 179.44 109.829 180.271 109.829C182.539 109.829 183.335 112.049 183.335 114.873C183.335 118.079 182.386 120.14 179.992 120.14ZM186.348 114.686C186.348 119.241 184.025 122.041 179.878 122.041C177.82 122.041 176.311 121.595 175.437 121.054V103.558C175.437 102.711 176.132 102.027 176.971 102.027H177.034C177.82 102.081 178.471 102.753 178.471 103.558V108.589C179.106 108.3 179.817 108.047 181.093 108.047C184.194 108.047 186.348 110.636 186.348 114.686ZM173.514 115.013C173.514 119.027 171.695 122.041 167.947 122.041C164.207 122.041 162.401 119.027 162.401 115.013C162.401 110.959 164.207 107.971 167.947 107.971C171.712 107.971 173.514 110.959 173.514 115.013V115.013ZM170.521 114.987C170.521 117.568 170.111 119.95 167.947 119.95C165.86 119.95 165.4 117.568 165.4 114.987C165.4 112.388 165.815 109.92 167.947 109.92C170.111 109.92 170.521 112.388 170.521 114.987ZM205.283 109.855C206.963 109.855 207.946 110.959 207.946 113.719L202.394 114.555C202.313 111.316 203.55 109.855 205.283 109.855" fill="white"/>
</svg>
