<svg width="278" height="190" viewBox="0 0 278 190" fill="none" xmlns="http://www.w3.org/2000/svg">
<path fill-rule="evenodd" clip-rule="evenodd" d="M51.0879 123.793H60.749V102.492L71.4504 114.514H84.956L69.1647 97.009L83.0861 80.9808H69.788L60.749 91.3148V80.1372H51.0879V123.793Z" fill="white"/>
<path d="M98.5011 80.2557C89.1836 80.2557 81.6475 87.905 81.6475 97.3623C81.6475 106.819 89.1836 114.506 98.5011 114.506C107.819 114.506 115.391 106.819 115.391 97.3623C115.391 87.905 107.819 80.2557 98.5011 80.2557V80.2557ZM98.5011 92.0279C101.416 92.0279 103.793 94.4032 103.793 97.3623C103.793 100.321 101.416 102.733 98.5011 102.733C95.5858 102.733 93.2456 100.321 93.2456 97.3623C93.2435 96.6612 93.3779 95.9665 93.6413 95.3183C93.9046 94.6701 94.2916 94.0812 94.7801 93.5854C95.2685 93.0897 95.8488 92.6968 96.4874 92.4295C97.126 92.1622 97.8104 92.0258 98.5011 92.0279V92.0279ZM135.972 80.4033C126.65 80.4033 119.1 88.0671 119.1 97.5282C119.1 106.989 126.65 114.653 135.972 114.653C145.293 114.653 152.844 106.989 152.844 97.5282C152.844 88.0671 145.293 80.4033 135.972 80.4033V80.4033ZM135.972 89.9874C140.065 89.9874 143.401 93.3735 143.401 97.5282C143.401 101.683 140.065 105.069 135.972 105.069C131.878 105.069 128.542 101.683 128.542 97.5282C128.542 93.3735 131.878 89.9874 135.972 89.9874ZM182.187 66.2068V84.2543C179.538 82.3741 176.319 80.5267 172.843 80.5267C164.847 80.5267 156.116 86.1743 156.116 97.8361C156.116 106.993 163.821 114.444 172.843 114.444C182.737 114.444 189.969 105.531 189.969 97.8361V66.2068H182.187ZM172.588 88.2403C177.672 88.2403 181.788 92.4544 181.788 97.6147C181.788 102.775 177.672 106.952 172.588 106.952C167.504 106.952 163.352 102.775 163.352 97.6147C163.352 92.4544 167.504 88.2403 172.588 88.2403ZM210.022 80.3422C200.706 80.3422 193.169 88.0214 193.169 97.4671C193.169 106.913 200.706 114.592 210.022 114.592C219.338 114.592 226.912 106.913 226.912 97.4671C226.912 88.0214 219.338 80.3422 210.022 80.3422ZM210.022 85.5428C216.521 85.5428 221.82 90.8777 221.82 97.4671C221.82 104.056 216.521 109.391 210.022 109.391C203.523 109.391 198.261 104.056 198.261 97.4671C198.261 90.8777 203.523 85.5428 210.022 85.5428Z" fill="white"/>
</svg>
