<svg xmlns="http://www.w3.org/2000/svg" width="26" height="26" viewBox="0 0 26 26"><g><g><path fill="#f98e25" d="M18.047 16.394a6.292 6.292 0 0 1-2.9 2.9l-5.18 2.529-2.895-2.895a.815.815 0 0 0-1.148 0 .806.806 0 0 0 0 1.148l2.499 2.498-6.785 3.312c-.564.274-1.25.04-1.524-.523a1.152 1.152 0 0 1 0-1L6.62 11.02l2.55 2.55a.812.812 0 1 0 1.147-1.149L7.514 9.62c1.813-2.2 4.952-2.971 7.628-1.666a6.311 6.311 0 0 1 2.905 8.44zM26 7.719c-2.113 2.555-5.46 2.667-7.714.402l-.407-.407C15.614 5.46 15.726 2.118 18.28 0c2.017 1.67 2.53 4.114 1.54 6.18 2.066-.99 4.51-.477 6.18 1.54z"/></g></g></svg>