<svg viewBox="0 0 63 48.4">
    <style type="text/css">
    .st0 {
        fill: #B17742;
    }
    </style>
    <g>
        <g>
            <g>
                <path class="st0" d="M41.7,13.1c-0.8-0.8-1.3-2-1.3-3.1c0-2.5,2-4.4,4.4-4.4s4.4,2,4.4,4.4s-2,4.4-4.4,4.4l0,0
				C43.6,14.4,42.5,13.9,41.7,13.1z M44.8,7.8c-1.2,0-2.1,0.9-2.1,2.1c0,1.2,0.9,2.1,2.1,2.1c1.2,0,2.1-0.9,2.1-2.1
				C46.9,8.8,46,7.8,44.8,7.8L44.8,7.8L44.8,7.8z" />
            </g>
            <g>
                <path class="st0" d="M61.8,41.2c0.6,0,1.2,0.5,1.2,1.2v2.3c0,2-1.7,3.7-3.7,3.7c0,0,0,0,0,0H3.7c-2,0-3.7-1.7-3.7-3.7
				c0,0,0,0,0,0v-2.3c0-0.6,0.5-1.2,1.2-1.2H4v-30c0-1.5,1.2-2.8,2.8-2.8h19.4l1.8-2.5c0.3-0.4,0.8-0.6,1.3-0.4l4.9,1.7
				C38.7,2.5,45.1-0.2,51.7,0c1.6,0.1,3,1.4,3,3c0.1,1.8-0.1,3.7-0.5,5.5h2c1.5,0,2.8,1.2,2.8,2.8v30H61.8z M53.6,10.8
				c-0.4,1.1-0.8,2.2-1.3,3.3H53c0.6,0,1.2,0.5,1.2,1.2v26h2.5V11.3c0-0.2-0.2-0.4-0.4-0.4L53.6,10.8z M51.8,41.2V16.4h-0.9
				c-1,1.5-2.2,2.9-3.5,4.2l1.7,4.9c0.2,0.5,0,1-0.4,1.3l-9.7,7c-0.3,0.2-0.8,0.3-1.2,0.1c-0.4-0.2-0.6-0.6-0.6-1.1l0.3-6.2
				l-0.6,0.3c-0.2,0.1-0.4,0.1-0.6,0.1c-0.3,0-0.5-0.2-0.8-0.2l-4.5,8.1c2,1.4,3.2,3.7,3.2,6.1v0.3H51.8z M31.7,41.2v-0.3
				c0-2.8-2.3-5.1-5.1-5.1c-1.3,0-2.5,0.5-3.4,1.3c-0.5,0.4-0.9,0.9-1.2,1.5c-0.2,0.4-0.6,0.6-1,0.6c-0.2,0-0.4,0-0.5-0.1
				c-0.6-0.3-0.8-1-0.5-1.6c0,0,0,0,0,0c0.3-0.5,0.6-0.9,0.9-1.3c-0.9-0.9-2.3-1.1-3.4-0.4c-0.1,0.1-0.3,0.2-0.4,0.3
				c-0.2,0.2-0.5,0.3-0.7,0.3c-0.3,0-0.7-0.2-0.9-0.4c-0.4-0.5-0.3-1.2,0.2-1.6c0.1-0.1,0.2-0.2,0.4-0.3c0.3-0.4,0.4-0.9,0.4-1.4
				c0-1-0.5-2-1.4-2.5c-0.4-0.3-0.6-0.7-0.5-1.2c0.5-2.4-1-4.7-3.3-5.4v17.7L31.7,41.2z M11.1,16.4v4.7c2.5,0.4,4.6,2.2,5.4,4.7
				l11.4-6.4c-0.1-0.3-0.1-0.5-0.2-0.8c0-0.2,0-0.4,0.1-0.6l0.3-0.6l-6.2,0.2c-0.4,0-0.8-0.2-1-0.6c-0.1-0.2-0.1-0.3-0.1-0.5H11.1z
				 M26.6,33.5c0.7,0,1.5,0.1,2.2,0.3l4.4-7.8c-0.8-0.4-1.5-0.9-2.2-1.6l-5.4,3.8c-0.2,0.1-0.4,0.2-0.7,0.2c-0.6,0-1.2-0.5-1.2-1.2
				c0-0.4,0.2-0.7,0.5-1l5.2-3.6c-0.2-0.3-0.5-0.7-0.6-1.1l-11.9,6.7v0.3c1.1,1,1.8,2.4,1.8,4c0,0.2,0,0.3,0,0.5
				c1.5-0.1,3,0.5,4,1.6C23.8,33.9,25.2,33.5,26.6,33.5L26.6,33.5z M45.6,22.2c-1.4,1.1-3,2-4.6,2.8l-1.2,0.5l-0.2,4.9l7.1-5.1
				L45.6,22.2L45.6,22.2z M51.6,2.3C43.1,2.1,35.3,7,31.8,14.8l-1.7,3.7c0.6,3.1,3,5.4,6,6l3.8-1.7c7.8-3.4,12.7-11.2,12.4-19.7
				C52.4,2.8,52,2.4,51.6,2.3L51.6,2.3z M24.3,15.1l4.9-0.2l0.5-1.1c0.7-1.7,1.7-3.2,2.8-4.7L29.3,8L24.3,15.1z M6.3,41.2h2.5v-26
				c0-0.6,0.5-1.2,1.2-1.2h12.2l2.3-3.3H6.8c-0.2,0-0.4,0.2-0.4,0.4V41.2z M2.3,44.7c0,0.8,0.6,1.4,1.4,1.4c0,0,0,0,0,0H21
				c-0.2-0.4-0.2-0.8-0.2-1.3v-1.2H2.3V44.7z M38.7,46c0.7,0,1.3-0.6,1.3-1.3v-1.2H23.1v1.2c0,0.7,0.6,1.3,1.3,1.3H38.7z M60.7,43.6
				H42.2v1.2c0,0.4-0.1,0.9-0.2,1.3h17.3c0.8,0,1.4-0.6,1.4-1.4V43.6z" />
            </g>
            <g>
                <path class="st0" d="M29.2,28.9c-0.5-0.5-1.2-0.5-1.6,0l-1.9,1.8c-0.5,0.4-0.5,1.2-0.1,1.6c0.2,0.2,0.5,0.4,0.8,0.4
				c0.3,0,0.6-0.1,0.8-0.3l1.9-1.9C29.6,30,29.7,29.3,29.2,28.9L29.2,28.9z" />
            </g>
        </g>
    </g>
</svg>