<?xml version="1.0" encoding="utf-8"?>
<!-- Generator: Adobe Illustrator 21.1.0, SVG Export Plug-In . SVG Version: 6.00 Build 0)  -->
<svg version="1.1" id="Слой_1" xmlns="http://www.w3.org/2000/svg" xmlns:xlink="http://www.w3.org/1999/xlink" x="0px" y="0px"
	 viewBox="0 0 57 62.2" style="enable-background:new 0 0 57 62.2;" xml:space="preserve">
<style type="text/css">
	.st0{fill:#B17742;}
</style>
<g>
	<g>
		<g>
			<path class="st0" d="M45.8,36.1c-1,2.4-2.6,4.5-4.5,6.3c-1.8,1.7-3.2,3.7-4.1,6h0.3c1.9,0,3.4,1.5,3.4,3.4c0,0,0,0,0,0v0.3
				c0.1,1.9-1.4,3.4-3.3,3.5c0,0-0.1,0-0.1,0H36c-0.5,4.1-4.3,7.1-8.4,6.5c-3.4-0.4-6.1-3.1-6.5-6.5h-1.6c-1.9,0-3.4-1.5-3.5-3.4
				c0,0,0-0.1,0-0.1v-0.3c0-1.9,1.5-3.4,3.4-3.4c0,0,0,0,0,0h0.3c-0.9-2.2-2.2-4.2-4-5.8c-7.7-7.1-8.2-19-1.2-26.7s19-8.2,26.7-1.2
				c0,0,0.1,0.1,0.1,0.1c3.8,3.6,6,8.6,6,13.8C47.4,31.2,46.9,33.7,45.8,36.1L45.8,36.1z M31.8,58.7c0.9-0.8,1.6-1.9,1.8-3H23.4
				c0.5,2.5,2.6,4.2,5.1,4.2C29.7,59.9,30.9,59.4,31.8,58.7z M19.5,50.7c-0.6,0-1.1,0.5-1.1,1.1c0,0,0,0,0,0v0.3
				c0,0.6,0.5,1.1,1.1,1.1h18.1c0.6,0,1.1-0.5,1.1-1.1v-0.3c0-0.6-0.5-1.1-1.1-1.1L19.5,50.7z M24.8,33.2c0-0.8-0.7-1.5-1.5-1.5
				h-0.4c-0.8,0-1.5,0.7-1.5,1.5v0.4c0,0.8,0.7,1.5,1.5,1.5h1.9L24.8,33.2z M29.9,48.4v-11h-2.8v11L29.9,48.4z M34.8,48.4
				c1-2.9,2.7-5.6,5-7.7c3.4-3.1,5.3-7.5,5.3-12.2c0-9.2-7.4-16.6-16.6-16.6c-0.3,0-0.7,0-1,0c-8.3,0.6-14.9,7.3-15.5,15.6
				c-0.3,5,1.7,9.9,5.4,13.3c2.2,2.1,3.9,4.6,4.9,7.5h2.5v-11h-1.9c-2.1,0-3.8-1.7-3.8-3.8l0,0v-0.4c0-2.1,1.7-3.8,3.8-3.8
				c0,0,0,0,0,0h0.4c2.1,0,3.8,1.7,3.8,3.8v1.9h2.8v-1.9c0-2.1,1.7-3.8,3.8-3.8h0.4c2.1,0,3.8,1.7,3.8,3.8c0,0,0,0,0,0v0.4
				c0,2.1-1.7,3.8-3.8,3.8c0,0,0,0,0,0h-1.9v11H34.8z M34.2,35.1c0.8,0,1.5-0.7,1.5-1.5v-0.4c0-0.8-0.7-1.5-1.5-1.5h-0.4
				c-0.8,0-1.5,0.7-1.5,1.5v1.9H34.2z"/>
		</g>
		<g>
			<path class="st0" d="M18.6,19c-1.4,1.4-2.5,3-3.2,4.8c-0.2,0.6,0,1.3,0.6,1.5c0.1,0.1,0.3,0.1,0.4,0.1c0.5,0,0.9-0.3,1.1-0.7
				c0.6-1.5,1.5-2.9,2.7-4c0.5-0.4,0.5-1.2,0-1.7C19.8,18.5,19.1,18.5,18.6,19L18.6,19L18.6,19z"/>
		</g>
		<g>
			<path class="st0" d="M23.9,15.7c-0.6,0.2-1.1,0.4-1.6,0.7c-0.6,0.3-0.8,1-0.5,1.6c0.2,0.4,0.6,0.7,1.1,0.7c0.2,0,0.4,0,0.5-0.1
				c0.4-0.2,0.9-0.4,1.4-0.6c0.6-0.2,0.9-0.9,0.7-1.5C25.1,15.9,24.5,15.6,23.9,15.7z"/>
		</g>
		<g>
			<path class="st0" d="M28.5,5.5c0.6,0,1.2-0.5,1.2-1.2V1.2c0-0.6-0.5-1.2-1.1-1.2c-0.6,0-1.2,0.5-1.2,1.1c0,0,0,0,0,0.1v3.1
				C27.3,5,27.9,5.5,28.5,5.5z"/>
		</g>
		<g>
			<path class="st0" d="M10.5,12.3c0.5,0.4,1.2,0.4,1.6-0.1c0.4-0.4,0.4-1.1,0-1.5L10,8.4C9.5,8,8.7,8,8.3,8.5C7.9,9,7.9,9.6,8.3,10
				L10.5,12.3z"/>
		</g>
		<g>
			<path class="st0" d="M4.3,27.4H1.1C0.5,27.4,0,28,0,28.6c0,0.6,0.5,1.1,1.1,1.1h3.1c0.6,0,1.2-0.6,1.1-1.2
				C5.4,27.9,4.9,27.4,4.3,27.4z"/>
		</g>
		<g>
			<path class="st0" d="M10.6,44.9l-2.2,2.2c-0.4,0.5-0.4,1.2,0.1,1.6c0.4,0.4,1.1,0.4,1.5,0l2.2-2.2c0.5-0.5,0.5-1.2,0-1.7
				C11.7,44.4,11,44.4,10.6,44.9L10.6,44.9z"/>
		</g>
		<g>
			<path class="st0" d="M46.5,44.9c-0.4-0.5-1.2-0.5-1.6-0.1c-0.5,0.4-0.5,1.2-0.1,1.6c0,0,0.1,0.1,0.1,0.1l2.2,2.2
				c0.5,0.4,1.2,0.4,1.6-0.1c0.4-0.4,0.4-1.1,0-1.5L46.5,44.9z"/>
		</g>
		<g>
			<path class="st0" d="M55.9,27.4h-3.1c-0.6,0-1.2,0.6-1.1,1.2c0,0.6,0.5,1.1,1.1,1.1h3.1c0.6,0,1.2-0.6,1.1-1.2
				C57,27.9,56.5,27.4,55.9,27.4z"/>
		</g>
		<g>
			<path class="st0" d="M47.1,8.4l-2.2,2.2c-0.5,0.5-0.5,1.2,0,1.7c0.5,0.5,1.2,0.5,1.7,0l0,0l2.2-2.2c0.4-0.5,0.4-1.2-0.1-1.6
				C48.2,8,47.5,8,47.1,8.4L47.1,8.4z"/>
		</g>
	</g>
</g>
</svg>
