<svg xmlns="http://www.w3.org/2000/svg" width="54" height="56" viewBox="0 0 54 56"><g><g><g/><g><path fill="#b17742" d="M19.332 26.648a1.33 1.33 0 0 1-1.262.053 1.4 1.4 0 0 1-.768-1.57l.711-4.13-2.975-2.846a1.4 1.4 0 0 1-.361-1.435 1.377 1.377 0 0 1 1.166-.945l4.154-.607 1.796-3.756a1.388 1.388 0 0 1 1.249-.782 1.365 1.365 0 0 1 1.248.782l1.867 3.756 4.106.525a1.377 1.377 0 0 1 1.167.945 1.412 1.412 0 0 1-.35 1.435l-3.01 2.929.712 4.176a1.4 1.4 0 0 1-2.03 1.47l-3.71-1.948zm.665-6.93a1.388 1.388 0 0 1 .396 1.237l-.466 2.742 2.461-1.295c.203-.101.427-.153.654-.152.223-.003.443.05.641.152l2.474 1.341-.467-2.741a1.387 1.387 0 0 1 .397-1.284l1.995-1.948-2.754-.397a1.389 1.389 0 0 1-1.05-.77l-1.236-2.496-1.237 2.508a1.4 1.4 0 0 1-1.038.758l-2.765.397z"/></g><g><path fill="#b17742" d="M29.263 48.18H16.827a1.167 1.167 0 0 0 0 2.333h12.436a1.167 1.167 0 1 0 0-2.333z"/></g><g><path fill="#b17742" d="M52.67 52.854a1.167 1.167 0 1 1 0 2.334H1.337a1.167 1.167 0 1 1 0-2.334h3.43v-5.833a3.5 3.5 0 0 1 3.5-3.5h4.281v-2.823a1.167 1.167 0 0 1 1.167-1.167h2.718v-3.185a8.166 8.166 0 0 1-6.218-7.922v-2.042a6.778 6.778 0 0 1-3.628-1.878l-2.672-2.707a5.028 5.028 0 0 1-1.482-3.57v-6.171a3.5 3.5 0 0 1 3.5-3.5h4.282V7.004a3.115 3.115 0 1 1 0-6.218h25.667a3.115 3.115 0 1 1 0 6.218v1.587h4.27a3.5 3.5 0 0 1 3.5 3.5v6.171a5.007 5.007 0 0 1-1.482 3.57l-2.66 2.672a6.86 6.86 0 0 1-3.628 1.878v1.4a14 14 0 0 1 11.526 25.072zM38.938 37.197a1.168 1.168 0 0 1 .899 1.389l-1.097 5.11a3.5 3.5 0 0 1 1.96 1.377l2.018-9.334-2.683-.583-1.867 1.867zm12.402 4.037a11.586 11.586 0 0 0-15.68-10.897 8.167 8.167 0 0 1-5.997 6.009v3.185h2.719a1.167 1.167 0 0 1 1.166 1.167v2.823h2.789l.968-4.317-1.715-.373a1.167 1.167 0 0 1-.583-1.972l3.826-3.826a1.166 1.166 0 0 1 1.074-.315l4.445.968a1.167 1.167 0 0 1 .898 1.388l-3.033 14a1.167 1.167 0 0 1-.887.887v2.765A11.667 11.667 0 0 0 51.34 41.21zm-15.458-30.31v13.043a4.399 4.399 0 0 0 1.983-1.166l2.66-2.66a2.67 2.67 0 0 0 .805-1.925v-6.172a1.167 1.167 0 0 0-1.167-1.166zm-26.449-7a.782.782 0 0 0 .782.735h25.667a.781.781 0 1 0 0-1.552H10.215a.782.782 0 0 0-.782.77zM8.232 22.848a4.457 4.457 0 0 0 1.983 1.131V10.924H5.933a1.167 1.167 0 0 0-1.166 1.167v6.171a2.718 2.718 0 0 0 .805 1.925l2.695 2.614zm4.316 5.576a5.834 5.834 0 0 0 5.869 5.834h9.333a5.834 5.834 0 0 0 5.833-5.834V7.004h-21v21.373zm6.219 11.06h8.598v-2.94h-8.563zm-3.85 4.037H31.25v-1.703H14.917zM7.1 52.854h31.897v-5.833a1.167 1.167 0 0 0-1.167-1.167H8.267A1.167 1.167 0 0 0 7.1 47.021z"/></g></g></g></svg>