<svg viewBox="0 0 11 11">
    <path d="M8.8 0a2.11 2.11 0 0 1 2.11 2.108v6.693a2.11 2.11 0 0 1-2.11 2.108H2.109A2.11 2.11 0 0 1 0 8.801V2.108A2.11 2.11 0 0 1 2.108 0zm.606 1.258l-1.609.004.006 1.85 1.844-.006v-1.85zM3.535 5.455c0 1.058.861 1.92 1.92 1.92s1.92-.862 1.92-1.92c0-.419-.136-.805-.364-1.12a1.918 1.918 0 0 0-1.556-.8c-.641 0-1.208.316-1.557.8a1.911 1.911 0 0 0-.363 1.12zM9.846 8.8V4.335H8.218c.14.346.22.724.22 1.12a2.987 2.987 0 0 1-2.983 2.983 2.986 2.986 0 0 1-2.983-2.983c0-.396.079-.774.22-1.12h-1.63V8.8c0 .576.47 1.045 1.046 1.045h6.693c.576 0 1.045-.469 1.045-1.045z" />
</svg>