<svg xmlns="http://www.w3.org/2000/svg" width="15" height="15" viewBox="0 0 15 15"><g><g><g/><g><path fill="#f98e25" d="M10.412 9.458a3.63 3.63 0 0 1-1.673 1.673l-2.989 1.46-1.67-1.671a.47.47 0 0 0-.662 0 .465.465 0 0 0 0 .662l1.441 1.442-3.914 1.91a.659.659 0 0 1-.88-.879L3.82 6.358l1.471 1.47a.468.468 0 1 0 .662-.661L4.335 5.549a3.64 3.64 0 0 1 4.4-.96 3.641 3.641 0 0 1 1.677 4.869zM15 4.454c-1.219 1.473-3.15 1.538-4.45.231l-.235-.234C9.008 3.15 9.073 1.22 10.546 0c1.164.964 1.46 2.373.888 3.566 1.193-.572 2.602-.276 3.566.888z"/></g></g></g></svg>