<svg width="219" height="63" viewBox="0 0 219 63" fill="none" xmlns="http://www.w3.org/2000/svg">
<g clip-path="url(#clip0)">
<path d="M94.245 6.58154H93.584V61.6278H94.245V6.58154Z" fill="white"/>
<path d="M109.778 4.04391C109.565 4.26004 109.306 4.36828 109.002 4.36828C108.697 4.36828 108.439 4.26004 108.226 4.04391C108.013 3.82778 107.906 3.55486 107.906 3.22515C107.906 2.89611 108.013 2.62286 108.226 2.40639C108.439 2.19026 108.697 2.08203 109.002 2.08203C109.306 2.08203 109.565 2.19026 109.778 2.40639C109.991 2.62253 110.097 2.89578 110.097 3.22515C110.097 3.55486 109.991 3.82745 109.778 4.04391ZM108.332 6.62312H109.549V19.2269H108.332V6.62312Z" fill="white"/>
<path d="M113.931 19.2267V6.62299H115.148V8.59991C115.979 7.09701 117.248 6.34473 118.951 6.34473C120.493 6.34473 121.639 6.93165 122.39 8.10551C122.796 8.76493 122.999 9.8252 122.999 11.2873V19.2264H121.782V11.2877C121.782 10.1138 121.619 9.26968 121.295 8.75457C120.808 7.93113 119.996 7.51892 118.86 7.51892C117.48 7.51892 116.466 8.10584 115.817 9.2797C115.371 10.0828 115.148 11.2159 115.148 12.6777V19.2267H113.931V19.2267Z" fill="white"/>
<path d="M130.848 7.79691H128.688V19.2268H127.471V7.79691H126.102V6.62306H127.471V2.11304H128.688V6.62306H130.848V7.79691Z" fill="white"/>
<path d="M144.389 13.0796H133.77C133.77 14.645 134.251 15.9217 135.215 16.9102C136.178 17.8986 137.34 18.393 138.699 18.393C139.673 18.393 140.535 18.1304 141.285 17.6053C142.036 17.0802 142.614 16.385 143.02 15.5202L144.054 16.1378C143.587 17.0444 142.908 17.8422 142.016 18.532C141.123 19.2221 139.987 19.5669 138.608 19.5669C136.721 19.5669 135.23 18.9442 134.134 17.6978C133.039 16.4522 132.491 14.8818 132.491 12.9871C132.491 10.9073 133.084 9.2801 134.271 8.10624C135.458 6.93239 136.873 6.34546 138.516 6.34546C140.2 6.34546 141.599 6.97381 142.715 8.22984C143.831 9.48587 144.389 11.1023 144.389 13.0796ZM133.861 11.9057H143.111C142.949 10.629 142.447 9.57874 141.605 8.75497C140.763 7.93153 139.734 7.51931 138.516 7.51931C137.279 7.51931 136.234 7.93621 135.382 8.77033C134.53 9.60413 134.023 10.6497 133.861 11.9057Z" fill="white"/>
<path d="M158.203 6.62299H159.42V18.8559C159.42 21.224 158.868 23.062 157.762 24.3701C156.656 25.6776 155.13 26.3317 153.183 26.3317C151.498 26.3317 150.083 25.853 148.938 24.8952C147.791 23.9375 147.178 22.614 147.097 20.9257H148.375C148.476 22.2232 148.968 23.2527 149.851 24.0147C150.733 24.7763 151.844 25.1578 153.183 25.1578C154.095 25.1578 154.891 24.9724 155.571 24.6016C156.251 24.2308 156.753 23.8086 157.077 23.3352C157.401 22.8612 157.655 22.285 157.838 21.6052C158.021 20.9257 158.127 20.4003 158.157 20.0298C158.188 19.6593 158.203 19.2675 158.203 18.8559V17.0641C157.027 18.7323 155.393 19.5661 153.304 19.5661C151.661 19.5661 150.231 18.9792 149.014 17.8053C147.797 16.6315 147.188 15.005 147.188 12.9245C147.188 11.0508 147.756 9.48547 148.892 8.22911C150.028 6.97308 151.55 6.34473 153.457 6.34473C155.485 6.34473 157.067 7.1685 158.204 8.81604V6.62299H158.203ZM156.91 9.06357C156.007 8.03402 154.815 7.51892 153.335 7.51892C151.853 7.51892 150.672 8.04939 149.79 9.10967C148.907 10.1706 148.466 11.4627 148.466 12.9867C148.466 14.5313 148.907 15.8184 149.79 16.848C150.672 17.8778 151.833 18.3926 153.274 18.3926C154.775 18.3926 155.982 17.8675 156.895 16.8172C157.808 15.767 158.264 14.4491 158.264 12.8631C158.264 11.3602 157.813 10.0934 156.91 9.06357Z" fill="white"/>
<path d="M163.802 19.2269V6.62315H165.019V8.26033C165.567 6.98359 166.48 6.34521 167.758 6.34521C168.245 6.34521 168.681 6.44844 169.066 6.65421L168.457 7.76627C168.234 7.60158 167.929 7.51907 167.544 7.51907C166.956 7.51907 166.474 7.6891 166.099 8.02883C165.723 8.36856 165.47 8.84258 165.338 9.44988C165.206 10.0575 165.12 10.5673 165.079 10.9792C165.039 11.3914 165.019 11.8858 165.019 12.462V19.2272H163.802V19.2269Z" fill="white"/>
<path d="M181.482 8.81652V6.62315H182.699V19.2269H181.482V16.9717C180.366 18.7018 178.753 19.5666 176.643 19.5666C174.959 19.5666 173.529 18.9593 172.353 17.744C171.176 16.5291 170.588 14.9226 170.588 12.925C170.588 10.9688 171.146 9.38307 172.261 8.1678C173.377 6.95285 174.838 6.34521 176.643 6.34521C178.713 6.34521 180.326 7.16932 181.482 8.81652ZM176.704 7.51907C175.385 7.51907 174.25 7.99776 173.296 8.95549C172.343 9.91321 171.866 11.2057 171.866 12.8325C171.866 14.336 172.302 15.6388 173.175 16.7402C174.047 17.8422 175.233 18.3928 176.735 18.3928C178.216 18.3928 179.387 17.8523 180.25 16.7709C181.112 15.6896 181.543 14.3768 181.543 12.8322C181.543 11.1231 181.045 9.80999 180.052 8.89336C179.057 7.97772 177.942 7.51907 176.704 7.51907Z" fill="white"/>
<path d="M190.55 7.79691H188.389V19.2268H187.172V7.79691H185.803V6.62306H187.172V2.11304H188.389V6.62306H190.55V7.79691Z" fill="white"/>
<path d="M204.09 13.0796H193.47C193.47 14.645 193.952 15.9217 194.915 16.9102C195.878 17.8986 197.04 18.393 198.399 18.393C199.373 18.393 200.235 18.1304 200.986 17.6053C201.736 17.0802 202.314 16.385 202.72 15.5202L203.755 16.1378C203.288 17.0444 202.608 17.8422 201.716 18.532C200.823 19.2221 199.687 19.5669 198.308 19.5669C196.421 19.5669 194.93 18.9442 193.835 17.6978C192.739 16.4522 192.191 14.8818 192.191 12.9871C192.191 10.9073 192.785 9.2801 193.972 8.10624C195.158 6.93239 196.573 6.34546 198.216 6.34546C199.9 6.34546 201.3 6.97381 202.416 8.22984C203.531 9.48587 204.09 11.1023 204.09 13.0796ZM193.561 11.9057H202.811C202.649 10.629 202.147 9.57874 201.305 8.75497C200.463 7.93153 199.434 7.51931 198.217 7.51931C196.979 7.51931 195.934 7.93621 195.082 8.77033C194.231 9.60446 193.723 10.6497 193.561 11.9057Z" fill="white"/>
<path d="M217.782 8.81659L217.796 2.2251H218.953L218.999 19.227H217.782V16.9718C216.666 18.7018 215.064 19.5667 212.974 19.5667C211.29 19.5667 209.855 18.9751 208.669 17.7905C207.482 16.6067 206.889 14.9641 206.889 12.8633C206.889 10.7217 207.487 9.09987 208.684 7.99783C209.881 6.89647 211.311 6.34528 212.974 6.34528C215.044 6.34528 216.646 7.16938 217.782 8.81659ZM212.974 7.51914C211.615 7.51914 210.474 7.98247 209.551 8.90912C208.628 9.83578 208.167 11.1439 208.167 12.8322C208.167 14.583 208.643 15.9476 209.597 16.9253C210.55 17.9038 211.696 18.3928 213.035 18.3928C214.354 18.3928 215.485 17.9038 216.428 16.9253C217.372 15.9476 217.843 14.583 217.843 12.8322C217.843 11.3083 217.407 10.0419 216.535 9.03272C215.662 8.02422 214.475 7.51914 212.974 7.51914Z" fill="white"/>
<path d="M108.332 40.7274V28.1236H109.549V29.699C110.259 28.4634 111.334 27.8457 112.775 27.8457C114.519 27.8457 115.675 28.608 116.243 30.1316C116.953 28.6077 118.181 27.8457 119.925 27.8457C121.102 27.8457 122.035 28.1961 122.725 28.896C123.435 29.6172 123.79 30.76 123.79 32.325V40.7274H122.573V32.325C122.573 31.1101 122.329 30.2452 121.843 29.7301C121.396 29.2567 120.777 29.0196 119.986 29.0196C119.378 29.0196 118.845 29.1432 118.389 29.3904C117.932 29.6376 117.598 29.9155 117.385 30.2245C117.172 30.5335 117.009 30.9146 116.898 31.3676C116.786 31.8209 116.72 32.1606 116.7 32.3871C116.679 32.614 116.67 32.8611 116.67 33.1284V40.7277H115.452V32.6337C115.452 30.2241 114.54 29.0192 112.714 29.0192C111.679 29.0192 110.893 29.4261 110.355 30.2395C109.818 31.0533 109.549 32.1192 109.549 33.4367V40.7271H108.332V40.7274Z" fill="white"/>
<path d="M138.274 30.317V28.1236H139.491V40.7274H138.274V38.4722C137.158 40.2023 135.545 41.0671 133.435 41.0671C131.751 41.0671 130.321 40.4598 129.145 39.2445C127.968 38.0296 127.38 36.4231 127.38 34.4255C127.38 32.4693 127.938 30.8836 129.053 29.6683C130.169 28.4533 131.63 27.8457 133.435 27.8457C135.505 27.8457 137.118 28.6695 138.274 30.317ZM133.496 29.0196C132.177 29.0196 131.042 29.4983 130.088 30.456C129.134 31.4137 128.658 32.7061 128.658 34.333C128.658 35.8365 129.094 37.1393 129.967 38.2407C130.839 39.3427 132.025 39.8933 133.527 39.8933C135.007 39.8933 136.179 39.3528 137.042 38.2714C137.904 37.1901 138.335 35.8773 138.335 34.3326C138.335 32.6236 137.837 31.3105 136.844 30.3938C135.849 29.4779 134.734 29.0196 133.496 29.0196Z" fill="white"/>
<path d="M143.872 40.7274V28.1236H145.089V29.7608C145.637 28.4841 146.55 27.8457 147.828 27.8457C148.315 27.8457 148.751 27.9489 149.136 28.1547L148.527 29.2668C148.304 29.1021 148 29.0196 147.615 29.0196C147.026 29.0196 146.545 29.1896 146.169 29.5293C145.793 29.8691 145.54 30.3431 145.408 30.9504C145.276 31.558 145.19 32.0678 145.15 32.4797C145.109 32.8919 145.089 33.3863 145.089 33.9625V40.7277H143.872V40.7274Z" fill="white"/>
<path d="M151.734 27.0305L153.012 27.1541L153.001 33.5295L158.113 28.1235H159.695L154.461 33.5913L161.399 40.7273H159.756L153.64 34.4872L153.001 35.1359V40.7273H151.783L151.734 27.0305Z" fill="white"/>
<path d="M173.998 34.5798H163.378C163.378 36.1452 163.86 37.4219 164.824 38.4104C165.787 39.3989 166.948 39.8933 168.308 39.8933C169.281 39.8933 170.143 39.6307 170.894 39.1056C171.644 38.5804 172.222 37.8853 172.628 37.0204L173.663 37.6381C173.196 38.5447 172.516 39.3424 171.624 40.0322C170.731 40.7224 169.595 41.0671 168.216 41.0671C166.33 41.0671 164.838 40.4444 163.743 39.1981C162.647 37.9524 162.1 36.382 162.1 34.4873C162.1 32.4075 162.693 30.7803 163.88 29.6065C165.067 28.4326 166.482 27.8457 168.125 27.8457C169.808 27.8457 171.208 28.4741 172.324 29.7301C173.439 30.9865 173.998 32.6029 173.998 34.5798ZM163.469 33.406H172.719C172.557 32.1292 172.055 31.079 171.213 30.2552C170.371 29.4318 169.342 29.0196 168.125 29.0196C166.887 29.0196 165.843 29.4365 164.991 30.2706C164.139 31.1047 163.631 32.1503 163.469 33.406Z" fill="white"/>
<path d="M181.056 29.2974H178.896V40.7273H177.679V29.2974H176.31V28.1235H177.679V23.6135H178.896V28.1235H181.056V29.2974Z" fill="white"/>
<path d="M184.875 25.5442C184.662 25.7603 184.404 25.8685 184.099 25.8685C183.795 25.8685 183.536 25.7603 183.323 25.5442C183.111 25.328 183.004 25.0551 183.004 24.7254C183.004 24.3964 183.111 24.1231 183.323 23.9066C183.536 23.6902 183.795 23.5823 184.099 23.5823C184.404 23.5823 184.662 23.6905 184.875 23.9066C185.088 24.1228 185.195 24.396 185.195 24.7254C185.195 25.0554 185.088 25.328 184.875 25.5442ZM183.491 28.1237H184.708V40.7274H183.491V28.1237Z" fill="white"/>
<path d="M189.089 40.7275V28.1237H190.306V30.1006C191.138 28.5977 192.406 27.8455 194.11 27.8455C195.651 27.8455 196.797 28.4324 197.548 29.6062C197.954 30.2657 198.157 31.3259 198.157 32.7881V40.7271H196.94V32.7884C196.94 31.6146 196.777 30.7704 196.453 30.2553C195.966 29.4319 195.154 29.0196 194.018 29.0196C192.639 29.0196 191.625 29.6066 190.976 30.7804C190.529 31.5835 190.306 32.7166 190.306 34.1784V40.7275H189.089Z" fill="white"/>
<path d="M212.763 28.1237H213.98V40.3567C213.98 42.7248 213.427 44.5627 212.321 45.8708C211.216 47.1783 209.689 47.8324 207.742 47.8324C206.058 47.8324 204.643 47.3537 203.497 46.396C202.351 45.4383 201.737 44.1147 201.656 42.4264H202.934C203.036 43.7239 203.528 44.7534 204.41 45.5154C205.293 46.2771 206.403 46.6585 207.742 46.6585C208.655 46.6585 209.451 46.4731 210.131 46.1023C210.81 45.7315 211.312 45.3093 211.637 44.836C211.961 44.3619 212.215 43.7857 212.398 43.1059C212.58 42.4264 212.686 41.901 212.717 41.5305C212.747 41.1597 212.763 40.7682 212.763 40.3567V38.5648C211.586 40.2331 209.953 41.0669 207.864 41.0669C206.221 41.0669 204.79 40.4799 203.573 39.3061C202.356 38.1322 201.748 36.5057 201.748 34.4253C201.748 32.5516 202.315 30.9862 203.452 29.7298C204.588 28.4738 206.109 27.8455 208.016 27.8455C210.044 27.8455 211.627 28.6692 212.763 30.3168V28.1237H212.763ZM211.469 30.564C210.566 29.5344 209.375 29.0193 207.894 29.0193C206.413 29.0193 205.231 29.5498 204.349 30.6101C203.466 31.671 203.025 32.9631 203.025 34.4871C203.025 36.0317 203.466 37.3188 204.349 38.3484C205.231 39.3782 206.392 39.893 207.833 39.893C209.334 39.893 210.541 39.3679 211.454 38.3176C212.367 37.2674 212.823 35.9495 212.823 34.3635C212.824 32.8606 212.372 31.5942 211.469 30.564Z" fill="white"/>
<path d="M114.661 51.385L113.627 51.9412C113.22 50.9942 112.501 50.5202 111.466 50.5202C110.816 50.5202 110.304 50.7263 109.929 51.1378C109.554 51.55 109.366 52.0134 109.366 52.5278C109.366 52.9193 109.478 53.2537 109.701 53.5316C109.924 53.8096 110.157 54.0157 110.401 54.1493C110.644 54.2836 111.029 54.4533 111.557 54.6591C111.638 54.6798 111.836 54.7569 112.15 54.8909C112.465 55.0252 112.673 55.1124 112.774 55.1535C112.876 55.1949 113.053 55.272 113.307 55.3853C113.56 55.4989 113.748 55.6014 113.87 55.6943C113.991 55.7868 114.138 55.9057 114.311 56.0494C114.483 56.1937 114.63 56.348 114.752 56.5127C115.178 57.0485 115.391 57.728 115.391 58.5514C115.391 59.8903 114.99 60.8945 114.189 61.5632C113.388 62.2323 112.44 62.567 111.344 62.567C110.289 62.567 109.376 62.2684 108.606 61.6711C107.834 61.0742 107.317 60.2608 107.054 59.2305L108.241 58.8597C108.443 59.6628 108.834 60.2861 109.412 60.7288C109.99 61.1717 110.634 61.3929 111.344 61.3929C112.135 61.3929 112.794 61.1303 113.322 60.6052C113.849 60.08 114.113 59.4159 114.113 58.6125C114.113 57.9538 113.91 57.444 113.505 57.0833C113.099 56.7232 112.379 56.3263 111.344 55.894C109.924 55.2971 109.021 54.7409 108.636 54.2258C108.271 53.7314 108.088 53.1862 108.088 52.5886C108.088 51.6416 108.402 50.8639 109.032 50.2563C109.66 49.649 110.452 49.345 111.405 49.345C113.007 49.346 114.093 50.0258 114.661 51.385Z" fill="white"/>
<path d="M129.601 56.0803H118.981C118.981 57.6457 119.463 58.9224 120.427 59.9109C121.39 60.8993 122.552 61.3937 123.911 61.3937C124.885 61.3937 125.747 61.1312 126.497 60.6061C127.248 60.0809 127.826 59.3858 128.232 58.5209L129.266 59.1386C128.799 60.0452 128.12 60.8429 127.228 61.5327C126.334 62.2229 125.199 62.5676 123.82 62.5676C121.933 62.5676 120.442 61.9449 119.346 60.6986C118.251 59.4529 117.703 57.8825 117.703 55.9878C117.703 53.908 118.296 52.2808 119.483 51.107C120.67 49.9331 122.085 49.3462 123.728 49.3462C125.411 49.3462 126.811 49.9745 127.927 51.2306C129.043 52.4866 129.601 54.1031 129.601 56.0803ZM119.073 54.9065H128.323C128.161 53.6297 127.659 52.5795 126.817 51.7557C125.975 50.9323 124.946 50.52 123.728 50.52C122.491 50.52 121.446 50.9369 120.594 51.7711C119.742 52.6052 119.235 53.6504 119.073 54.9065Z" fill="white"/>
<path d="M133.192 62.2276V49.6239H134.41V51.2611C134.957 49.9843 135.87 49.3459 137.148 49.3459C137.635 49.3459 138.071 49.4492 138.457 49.6549L137.848 50.767C137.624 50.6023 137.32 50.5198 136.935 50.5198C136.346 50.5198 135.865 50.6898 135.489 51.0296C135.114 51.3693 134.86 51.8433 134.729 52.4506C134.596 53.0583 134.511 53.568 134.47 53.9799C134.429 54.3921 134.409 54.8865 134.409 55.4628V62.228H133.192V62.2276Z" fill="white"/>
<path d="M139.46 49.6243H140.799L145.181 60.0964L149.501 49.6243H150.84L145.181 63.0003L139.46 49.6243Z" fill="white"/>
<path d="M154.72 46.8593C154.507 47.0755 154.248 47.1837 153.944 47.1837C153.64 47.1837 153.381 47.0755 153.168 46.8593C152.955 46.6432 152.849 46.3703 152.849 46.0406C152.849 45.7115 152.955 45.4383 153.168 45.2218C153.381 45.0057 153.64 44.8975 153.944 44.8975C154.248 44.8975 154.507 45.0057 154.72 45.2218C154.933 45.438 155.039 45.7112 155.039 46.0406C155.039 46.3703 154.933 46.6432 154.72 46.8593ZM153.274 49.6243H154.492V62.228H153.274V49.6243Z" fill="white"/>
<path d="M168.824 50.9524V52.5896C167.647 51.21 166.217 50.5198 164.533 50.5198C163.032 50.5198 161.794 51.0403 160.821 52.0798C159.847 53.1201 159.36 54.4229 159.36 55.9876C159.36 57.6765 159.877 58.9994 160.912 59.9571C161.946 60.9148 163.133 61.3935 164.472 61.3935C166.116 61.3935 167.616 60.6419 168.976 59.1383V60.8066C167.677 61.9804 166.166 62.5674 164.442 62.5674C162.575 62.5674 161.049 61.9447 159.862 60.6983C158.675 59.4527 158.082 57.8926 158.082 56.0183C158.082 54.1032 158.67 52.5121 159.847 51.2457C161.023 49.9793 162.586 49.3459 164.533 49.3459C166.136 49.3459 167.566 49.8818 168.824 50.9524Z" fill="white"/>
<path d="M183.429 56.0803H172.81C172.81 57.6457 173.291 58.9224 174.255 59.9109C175.218 60.8993 176.38 61.3937 177.739 61.3937C178.713 61.3937 179.575 61.1312 180.325 60.6061C181.076 60.0809 181.654 59.3858 182.06 58.5209L183.094 59.1386C182.628 60.0452 181.948 60.8429 181.056 61.5327C180.163 62.2229 179.027 62.5676 177.648 62.5676C175.761 62.5676 174.27 61.9449 173.175 60.6986C172.079 59.4529 171.531 57.8825 171.531 55.9878C171.531 53.908 172.125 52.2808 173.311 51.107C174.498 49.9331 175.913 49.3462 177.556 49.3462C179.24 49.3462 180.639 49.9745 181.756 51.2306C182.871 52.4866 183.429 54.1031 183.429 56.0803ZM172.901 54.9065H182.151C181.989 53.6297 181.487 52.5795 180.645 51.7557C179.803 50.9323 178.774 50.52 177.557 50.52C176.319 50.52 175.275 50.9369 174.423 51.7711C173.571 52.6052 173.063 53.6504 172.901 54.9065Z" fill="white"/>
<path d="M193.349 51.385L192.314 51.9412C191.908 50.9942 191.188 50.5202 190.153 50.5202C189.504 50.5202 188.992 50.7263 188.617 51.1378C188.241 51.55 188.054 52.0134 188.054 52.5278C188.054 52.9193 188.165 53.2537 188.388 53.5316C188.612 53.8096 188.845 54.0157 189.088 54.1493C189.332 54.2836 189.717 54.4533 190.245 54.6591C190.326 54.6798 190.523 54.7569 190.838 54.8909C191.152 55.0252 191.36 55.1124 191.462 55.1535C191.563 55.1949 191.74 55.272 191.994 55.3853C192.248 55.4989 192.435 55.6014 192.557 55.6943C192.679 55.7868 192.826 55.9057 192.998 56.0494C193.171 56.1937 193.318 56.348 193.44 56.5127C193.866 57.0485 194.079 57.728 194.079 58.5514C194.079 59.8903 193.678 60.8945 192.877 61.5632C192.075 62.2323 191.127 62.567 190.032 62.567C188.977 62.567 188.064 62.2684 187.293 61.6711C186.522 61.0742 186.004 60.2608 185.741 59.2305L186.928 58.8597C187.131 59.6628 187.521 60.2861 188.1 60.7288C188.678 61.1717 189.321 61.3929 190.032 61.3929C190.823 61.3929 191.482 61.1303 192.01 60.6052C192.537 60.08 192.801 59.4159 192.801 58.6125C192.801 57.9538 192.598 57.444 192.192 57.0833C191.786 56.7232 191.066 56.3263 190.031 55.894C188.611 55.2971 187.708 54.7409 187.323 54.2258C186.958 53.7314 186.775 53.1862 186.775 52.5886C186.775 51.6416 187.09 50.8639 187.719 50.2563C188.347 49.649 189.139 49.345 190.092 49.345C191.695 49.346 192.781 50.0258 193.349 51.385Z" fill="white"/>
<path d="M152.891 24.4688L151.705 24.2844L151.674 23.5442H152.892L152.891 24.4688Z" fill="white"/>
<path d="M47.6515 18.8826C47.1231 19.1174 46.5577 19.3289 45.9549 19.5176C45.3521 19.7063 44.6176 19.8005 43.7506 19.8005C42.4627 19.8005 41.5074 19.4822 40.8842 18.8465C40.2607 18.2101 39.9487 17.3018 39.9487 16.1213V8.41042H37.7197V7.04014H39.9984V3.23096H44.0105V7.04014H47.4903V8.41042H44.0352V15.2905C44.0352 16.27 44.1698 16.9645 44.4393 17.3747C44.7085 17.7845 45.1909 17.99 45.8868 17.99C46.1106 17.99 46.4209 17.9733 46.819 17.9396C47.2162 17.9061 47.4939 17.8684 47.6512 17.8263V18.8826H47.6515Z" fill="white"/>
<path d="M64.6163 19.4608H57.1738V18.5432C57.339 18.5265 57.5328 18.5054 57.7559 18.4804C57.9787 18.4553 58.1438 18.4132 58.2511 18.3548C58.4245 18.2626 58.5466 18.1286 58.6167 17.9526C58.6865 17.7765 58.7217 17.517 58.7217 17.1732V11.2893C58.7217 10.4261 58.5627 9.78068 58.2452 9.35309C57.9273 8.92551 57.4749 8.71205 56.8888 8.71205C56.5585 8.71205 56.2515 8.76249 55.9668 8.86304C55.6819 8.96359 55.4028 9.11024 55.1304 9.30298C54.8908 9.47068 54.699 9.64238 54.5549 9.81843C54.4104 9.99447 54.2883 10.1498 54.1893 10.2834V17.0343C54.1893 17.3443 54.2265 17.5895 54.3008 17.7698C54.3752 17.9502 54.5154 18.0989 54.722 18.2161C54.8457 18.2916 55.009 18.3588 55.2117 18.4172C55.414 18.476 55.6095 18.5178 55.7993 18.5428V19.4605H48.2453V18.5432C48.4615 18.5265 48.6714 18.5054 48.8751 18.4804C49.0781 18.4553 49.2591 18.4132 49.4174 18.3548C49.6832 18.2542 49.8639 18.1096 49.9593 17.9212C50.0547 17.7324 50.1025 17.4832 50.1025 17.1732V3.15545C50.1025 2.8872 50.0406 2.60226 49.9165 2.30061C49.7928 1.99896 49.6194 1.77247 49.3963 1.62182C49.2311 1.51292 48.9919 1.42707 48.678 1.36426C48.3644 1.30146 48.0837 1.26171 47.8359 1.24467V0.326702L54.0037 0L54.1896 0.201099V8.85035H54.2393C54.5526 8.56573 54.8349 8.30785 55.0863 8.07735C55.338 7.84686 55.6453 7.61436 56.0076 7.37952C56.3127 7.17842 56.7102 7.00672 57.2004 6.86408C57.6914 6.72144 58.2208 6.65029 58.7898 6.65029C60.1254 6.65029 61.1293 7.04012 61.8009 7.81946C62.4725 8.59881 62.8085 9.62568 62.8085 10.8994V17.0596C62.8085 17.3696 62.8539 17.6172 62.9447 17.8012C63.0355 17.9856 63.2047 18.1326 63.4524 18.2412C63.6012 18.3083 63.766 18.3668 63.9477 18.4172C64.1293 18.4677 64.3521 18.5098 64.6163 18.5428V19.4608Z" fill="white"/>
<path d="M79.0682 16.4564C78.7793 16.9341 78.4308 17.3847 78.0221 17.8079C77.6134 18.2312 77.1488 18.5936 76.6286 18.8953C76.0755 19.214 75.5161 19.4548 74.9511 19.6182C74.3855 19.7815 73.7349 19.8633 73.0001 19.8633C71.7784 19.8633 70.7238 19.6873 69.8367 19.3352C68.9492 18.9831 68.2161 18.5098 67.6383 17.9145C67.0604 17.3196 66.6294 16.6177 66.3448 15.8086C66.0598 14.9999 65.917 14.122 65.917 13.175C65.917 12.3201 66.0723 11.5011 66.3819 10.7174C66.6916 9.93368 67.1309 9.23585 67.7004 8.62421C68.2618 8.02926 68.9703 7.54756 69.8245 7.17843C70.679 6.80964 71.6343 6.62524 72.6908 6.62524C73.8465 6.62524 74.7961 6.76788 75.5391 7.05283C76.2821 7.33777 76.8971 7.73162 77.3841 8.2347C77.8546 8.71239 78.1972 9.27627 78.4121 9.92567C78.6266 10.5751 78.7339 11.2565 78.7339 11.9684V12.7855H70.3628C70.3628 14.5035 70.6889 15.811 71.3411 16.7079C71.9933 17.6048 73.0294 18.0531 74.4493 18.0531C75.2252 18.0531 75.9228 17.8377 76.542 17.4057C77.1613 16.9741 77.6895 16.4273 78.1271 15.7652L79.0682 16.4564ZM74.3377 11.6791C74.3377 11.1764 74.3131 10.6609 74.2634 10.1328C74.2137 9.60464 74.1271 9.17305 74.0034 8.838C73.8629 8.44415 73.6711 8.14651 73.4279 7.94541C73.1844 7.74431 72.8764 7.64377 72.5049 7.64377C71.8692 7.64377 71.3615 7.97047 70.9817 8.62421C70.602 9.27794 70.3957 10.3132 70.3625 11.7295L74.3377 11.6791Z" fill="white"/>
<path d="M28.9272 28.9341C28.5474 28.9929 28.1967 29.1209 27.8745 29.3176C27.5527 29.5147 27.2803 29.8815 27.0572 30.4177C26.4793 31.8507 26.017 33.0076 25.6702 33.8875C25.3234 34.7673 24.8364 36.0371 24.2089 37.6966C24.0769 38.0404 23.9183 38.5137 23.7324 39.1173C23.5465 39.7206 23.3997 40.2154 23.2925 40.6009H20.872L17.7539 32.0422L14.8312 40.6009H12.4446C11.6108 38.313 10.9543 36.5385 10.4756 35.2768C9.99679 34.0154 9.35678 32.3498 8.5562 30.2797C8.40747 29.8859 8.1541 29.5759 7.7951 29.3494C7.4361 29.1232 7.06625 28.9849 6.68652 28.9345V28.0168H14.2899V28.9345C14.0092 28.9595 13.6746 29.027 13.286 29.1356C12.898 29.2445 12.7039 29.3915 12.7039 29.5755C12.7039 29.6594 12.7138 29.7325 12.7345 29.7957C12.7552 29.8588 12.7908 29.9737 12.8401 30.1414C13.0629 30.7968 13.3689 31.643 13.7572 32.6802C14.1461 33.7174 14.6002 34.9247 15.1211 36.302L17.871 28.0168H20.3271L23.4517 36.5562C23.9302 35.2677 24.2997 34.2529 24.5593 33.5123C24.8189 32.7717 25.1467 31.8157 25.5429 30.6438C25.6008 30.4681 25.6353 30.3111 25.6478 30.1728C25.6603 30.0345 25.6626 29.9447 25.6544 29.9026C25.6544 29.7516 25.58 29.6156 25.4316 29.494C25.2836 29.3728 25.1062 29.2739 24.9009 29.1987C24.6946 29.1232 24.4948 29.0648 24.301 29.0227C24.1075 28.9809 23.9447 28.9515 23.8127 28.9348V28.0172H28.9272V28.9341V28.9341Z" fill="white"/>
<path d="M45.5714 40.4873H38.1289V39.5697C38.294 39.553 38.4878 39.5319 38.7109 39.5069C38.934 39.4818 39.0989 39.4397 39.2062 39.3813C39.3796 39.2891 39.5017 39.1551 39.5717 38.9791C39.6415 38.803 39.6767 38.5435 39.6767 38.1997V32.3158C39.6767 31.4526 39.5178 30.8072 39.2003 30.3796C38.8824 29.952 38.4299 29.7386 37.8439 29.7386C37.5135 29.7386 37.2065 29.789 36.9219 29.8896C36.6369 29.9901 36.3579 30.1368 36.0854 30.3295C35.8459 30.4972 35.6541 30.6689 35.5099 30.8449C35.3655 31.021 35.2434 31.1763 35.1444 31.3099V38.0608C35.1444 38.3708 35.1815 38.616 35.2559 38.7964C35.3303 38.9767 35.4704 39.1254 35.6771 39.2426C35.8008 39.3181 35.964 39.3853 36.1667 39.4437C36.3691 39.5025 36.5645 39.5443 36.7544 39.5694V40.487H29.2004V39.5694C29.4165 39.5526 29.6265 39.5316 29.8302 39.5066C30.0332 39.4815 30.2142 39.4394 30.3724 39.3809C30.6383 39.2804 30.819 39.1358 30.9144 38.9473C31.0098 38.7586 31.0575 38.5094 31.0575 38.1994V24.182C31.0575 23.9137 30.9957 23.6288 30.8716 23.3271C30.7476 23.0255 30.5745 22.799 30.3514 22.6483C30.1862 22.5394 29.947 22.4536 29.6331 22.3908C29.3195 22.328 29.0388 22.2882 28.791 22.2712V21.3536L34.9581 21.0269L35.144 21.228V29.8772H35.1937C35.507 29.5926 35.7893 29.3347 36.0407 29.1042C36.2924 28.8737 36.5998 28.6412 36.962 28.4064C37.2671 28.2053 37.6646 28.0336 38.1549 27.8909C38.6458 27.7483 39.1752 27.6771 39.7442 27.6771C41.0798 27.6771 42.0837 28.067 42.7553 28.8463C43.4269 29.6257 43.7629 30.6525 43.7629 31.9263V38.0865C43.7629 38.3965 43.8083 38.644 43.8991 38.8281C43.9899 39.0125 44.1591 39.1595 44.4068 39.268C44.5556 39.3352 44.7204 39.3936 44.9021 39.4441C45.0837 39.4945 45.3065 39.5366 45.5707 39.5697V40.4873H45.5714Z" fill="white"/>
<path d="M54.5365 40.4874H46.71V39.5698C46.9246 39.5531 47.1352 39.532 47.3415 39.507C47.5478 39.4819 47.7255 39.4398 47.8739 39.3814C48.1381 39.2808 48.3237 39.1362 48.4313 38.9478C48.5386 38.759 48.5922 38.5098 48.5922 38.1998V30.8828C48.5922 30.5895 48.5261 30.3316 48.3941 30.1098C48.2622 29.888 48.097 29.7096 47.8989 29.5756C47.7502 29.4751 47.5257 29.3789 47.2243 29.2864C46.9226 29.1942 46.6482 29.1354 46.4004 29.1103V28.1927L52.4684 27.866L52.6544 28.0547V38.0365C52.6544 38.3301 52.7162 38.5793 52.8403 38.7844C52.964 38.9899 53.1417 39.1429 53.3727 39.2434C53.5379 39.3189 53.7195 39.3861 53.9176 39.4445C54.1157 39.5033 54.322 39.5451 54.5369 39.5701V40.4874H54.5365ZM52.7287 23.3396C52.7287 23.9766 52.4875 24.5194 52.0048 24.9677C51.5218 25.416 50.9499 25.6402 50.2891 25.6402C49.6205 25.6402 49.045 25.416 48.5619 24.9677C48.0789 24.5194 47.837 23.9766 47.837 23.3396C47.837 22.7029 48.0789 22.1577 48.5619 21.7054C49.045 21.2528 49.6202 21.0266 50.2891 21.0266C50.9581 21.0266 51.5316 21.2528 52.0104 21.7054C52.4892 22.158 52.7287 22.7029 52.7287 23.3396Z" fill="white"/>
<path d="M64.8888 39.9092C64.3604 40.144 63.795 40.3555 63.1922 40.5442C62.5894 40.733 61.855 40.8272 60.9879 40.8272C59.7 40.8272 58.7448 40.5088 58.1215 39.8731C57.498 39.2367 57.186 38.3285 57.186 37.1479V29.437H54.957V28.0668H57.2357V24.2576H61.2479V28.0668H64.7276V29.437H61.2725V36.3171C61.2725 37.2966 61.4071 37.9911 61.6766 38.4013C61.9458 38.8112 62.4282 39.0166 63.1241 39.0166C63.3479 39.0166 63.6582 38.9999 64.0563 38.9662C64.4535 38.9328 64.7312 38.895 64.8885 38.8529V39.9092H64.8888Z" fill="white"/>
<path d="M79.0682 37.483C78.7793 37.9607 78.4308 38.4113 78.0221 38.8346C77.6134 39.2578 77.1488 39.6202 76.6286 39.9219C76.0755 40.2406 75.5161 40.4814 74.9511 40.6448C74.3855 40.8081 73.7349 40.89 73.0001 40.89C71.7784 40.89 70.7238 40.7139 69.8367 40.3618C68.9492 40.0097 68.2161 39.5364 67.6383 38.9411C67.0604 38.3462 66.6294 37.6443 66.3448 36.8353C66.0598 36.0265 65.917 35.1486 65.917 34.2016C65.917 33.3468 66.0723 32.5277 66.3819 31.744C66.6916 30.9603 67.1309 30.2625 67.7004 29.6508C68.2618 29.0559 68.9703 28.5742 69.8245 28.205C70.679 27.8363 71.6343 27.6519 72.6908 27.6519C73.8465 27.6519 74.7961 27.7945 75.5391 28.0794C76.2821 28.3644 76.8971 28.7582 77.3841 29.2613C77.8546 29.739 78.1972 30.3029 78.4121 30.9523C78.6266 31.6017 78.7339 32.2831 78.7339 32.995V33.8121H70.3628C70.3628 35.5301 70.6889 36.8376 71.3411 37.7345C71.9933 38.6314 73.0294 39.0797 74.4493 39.0797C75.2252 39.0797 75.9228 38.8643 76.542 38.4324C77.1613 38.0008 77.6895 37.4539 78.1271 36.7918L79.0682 37.483ZM74.3377 32.7057C74.3377 32.203 74.3131 31.6875 74.2634 31.1594C74.2137 30.6313 74.1271 30.1997 74.0034 29.8646C73.8629 29.4708 73.6711 29.1731 73.4279 28.972C73.1844 28.7709 72.8764 28.6704 72.5049 28.6704C71.8692 28.6704 71.3615 28.9971 70.9817 29.6508C70.602 30.3046 70.3957 31.3398 70.3625 32.7562L74.3377 32.7057Z" fill="white"/>
<path d="M12.5069 51.3434C12.5069 51.9804 12.3128 52.5396 11.9249 53.0217C11.5369 53.5037 11.0249 53.7445 10.3892 53.7445C9.78634 53.7445 9.27664 53.5902 8.86006 53.2812C8.44315 52.9725 8.2342 52.5176 8.2342 51.9166C8.2342 51.6247 8.25493 51.3972 8.29606 51.2345C8.3372 51.0718 8.37438 50.9195 8.40761 50.7775C8.02789 50.7942 7.62743 50.9272 7.20657 51.1764C6.78539 51.4256 6.41388 51.7579 6.09207 52.1732V59.075C6.09207 59.3686 6.13748 59.6115 6.2283 59.8042C6.31912 59.9973 6.4718 60.148 6.68634 60.2569C6.86798 60.3494 7.16347 60.4266 7.57215 60.4894C7.98083 60.5522 8.27566 60.5879 8.4573 60.5963V61.5139H0.173081V60.5963C0.379397 60.5796 0.588345 60.5565 0.798939 60.5271C1.00953 60.4977 1.18854 60.458 1.33727 60.4075C1.6015 60.3153 1.78313 60.173 1.88218 59.9799C1.98122 59.7872 2.03091 59.5356 2.03091 59.2256V51.9089C2.03091 51.6073 1.96082 51.337 1.82032 51.0982C1.67981 50.8593 1.51068 50.6689 1.31259 50.5263C1.16386 50.4257 0.976627 50.3422 0.749581 50.2748C0.522206 50.2076 0.272455 50.1615 0 50.1365V49.2188L5.90682 48.8921L6.09273 49.0809V50.9038H6.14242C6.71201 50.2333 7.31713 49.7075 7.95714 49.326C8.59649 48.9446 9.26315 48.7542 9.95679 48.7542C10.7245 48.7542 11.3421 48.995 11.8087 49.477C12.2736 49.9587 12.5069 50.5811 12.5069 51.3434Z" fill="white"/>
<path d="M27.5153 61.25C27.153 61.4093 26.7243 61.556 26.23 61.6899C25.7358 61.8239 25.2129 61.891 24.6608 61.891C23.648 61.891 22.902 61.738 22.4242 61.432C21.9461 61.1261 21.6207 60.6884 21.4476 60.1182H21.3732C21.0926 60.4032 20.8214 60.6464 20.5608 60.8475C20.3009 61.0486 20.0212 61.2203 19.7237 61.3629C19.3348 61.547 18.961 61.6853 18.601 61.7778C18.242 61.87 17.7392 61.9161 17.0942 61.9161C16.1351 61.9161 15.316 61.6285 14.6382 61.0536C13.9603 60.4787 13.6211 59.717 13.6211 58.7683C13.6211 58.2228 13.6955 57.7592 13.8448 57.377C13.9936 56.9952 14.2045 56.6571 14.4773 56.3635C14.7251 56.0946 15.0127 55.8724 15.3391 55.6961C15.6662 55.5197 16.0235 55.3563 16.4124 55.205C17.1564 54.9281 18.0495 54.6408 19.0913 54.3428C20.133 54.0445 20.8935 53.7783 21.3732 53.5431V52.3362C21.3732 52.1267 21.3568 51.8501 21.3235 51.5064C21.2906 51.1627 21.2202 50.8737 21.113 50.6389C20.9975 50.3706 20.8158 50.1445 20.568 49.9601C20.3203 49.776 19.9942 49.6835 19.5894 49.6835C19.2262 49.6835 18.9228 49.7359 18.679 49.8405C18.4351 49.9454 18.2393 50.0523 18.0906 50.1612C18.1153 50.3289 18.1857 50.5844 18.3015 50.9281C18.4177 51.2719 18.4753 51.6029 18.4753 51.9213C18.4753 52.0639 18.4381 52.242 18.3637 52.4554C18.289 52.6692 18.1814 52.8389 18.0406 52.9645C17.8504 53.1322 17.6372 53.2622 17.4012 53.3544C17.165 53.4469 16.8027 53.4927 16.3147 53.4927C15.6188 53.4927 15.0929 53.323 14.7369 52.9836C14.3812 52.6442 14.2029 52.2022 14.2029 51.6574C14.2029 51.188 14.3868 50.7668 14.7543 50.394C15.1212 50.0212 15.5691 49.7132 16.0975 49.47C16.6178 49.2185 17.2163 49.0237 17.8932 48.8854C18.57 48.7471 19.1975 48.678 19.7754 48.678C20.5763 48.678 21.311 48.7264 21.9797 48.8226C22.6483 48.9192 23.2511 49.1179 23.7878 49.4199C24.2998 49.7135 24.7062 50.1385 25.0079 50.696C25.3094 51.2535 25.4594 51.9804 25.4594 52.877C25.4594 53.8244 25.4413 54.9471 25.4041 56.2462C25.3669 57.5454 25.3479 58.4005 25.3479 58.8107C25.3479 59.1879 25.4041 59.4855 25.5153 59.7033C25.6269 59.9215 25.7977 60.0848 26.029 60.1937C26.1695 60.2609 26.3903 60.3006 26.692 60.3133C26.9934 60.326 27.2675 60.332 27.515 60.332V61.25H27.5153ZM21.3732 54.6999C20.9093 54.8596 20.4496 55.0423 19.9938 55.2481C19.5381 55.4539 19.1653 55.67 18.8757 55.8972C18.5691 56.1323 18.3288 56.433 18.1551 56.7981C17.981 57.1635 17.8938 57.5941 17.8938 58.0895C17.8938 58.7449 18.0409 59.2196 18.3354 59.5136C18.6293 59.8079 18.9919 59.9545 19.4226 59.9545C19.8784 59.9545 20.2531 59.86 20.547 59.6709C20.8412 59.4819 21.1001 59.2487 21.3239 58.9714L21.3732 54.6999Z" fill="white"/>
<path d="M43.2431 55.3662C43.2431 57.252 42.6304 58.8153 41.4047 60.0553C40.1787 61.2956 38.6242 61.916 36.7421 61.916C36.0155 61.916 35.3906 61.8635 34.8665 61.759C34.3419 61.6541 33.8981 61.5265 33.5348 61.3755C33.1551 61.2165 32.852 61.0595 32.6249 60.9041C32.3976 60.7491 32.2179 60.6212 32.086 60.5206L30.315 62.1548L29.5845 61.8655C29.6256 61.2539 29.6608 60.5895 29.6901 59.8729C29.7191 59.1564 29.7329 58.1903 29.7329 56.975V45.2081C29.7329 44.8897 29.6694 44.5941 29.5414 44.3219C29.4131 44.0496 29.2416 43.8422 29.0271 43.6995C28.8701 43.599 28.6414 43.5108 28.3404 43.4356C28.0386 43.3601 27.7599 43.3144 27.5039 43.2973V42.3797L33.6338 42.053L33.8197 42.2541V50.4256H33.8941C34.4959 49.8307 35.1142 49.3947 35.7493 49.1182C36.384 48.8416 37.0191 48.7033 37.6539 48.7033C39.385 48.7033 40.7496 49.3026 41.7473 50.5011C42.7446 51.6997 43.2431 53.3215 43.2431 55.3662ZM38.7976 55.5172C38.7976 54.8805 38.7506 54.2662 38.6555 53.6756C38.5604 53.085 38.4025 52.5629 38.18 52.1106C37.9576 51.6579 37.6654 51.2955 37.3034 51.0232C36.9411 50.751 36.492 50.6147 35.9569 50.6147C35.4541 50.6147 35.0382 50.6985 34.7092 50.8662C34.3798 51.0339 34.0833 51.2811 33.8197 51.6078V58.9246C33.8694 59.0922 33.9619 59.3124 34.0981 59.5846C34.2334 59.8569 34.3719 60.0687 34.5117 60.2197C34.7095 60.4378 34.9194 60.6032 35.1415 60.7164C35.364 60.8296 35.6769 60.8861 36.0807 60.8861C36.9207 60.8861 37.5838 60.4191 38.0691 59.4844C38.5548 58.5491 38.7976 57.2269 38.7976 55.5172Z" fill="white"/>
<path d="M59.6133 55.3662C59.6133 57.252 59.0006 58.8153 57.7749 60.0553C56.5488 61.2956 54.9944 61.916 53.1122 61.916C52.3856 61.916 51.7608 61.8635 51.2366 61.759C50.7121 61.6541 50.2682 61.5265 49.9049 61.3755C49.5252 61.2165 49.2221 61.0595 48.9951 60.9041C48.7677 60.7491 48.588 60.6212 48.4561 60.5206L46.6851 62.1548L45.9546 61.8655C45.9958 61.2539 46.031 60.5895 46.0603 59.8729C46.0892 59.1564 46.103 58.1903 46.103 56.975V45.2081C46.103 44.8897 46.0395 44.5941 45.9115 44.3219C45.7832 44.0496 45.6118 43.8422 45.3972 43.6995C45.2403 43.599 45.0116 43.5108 44.7105 43.4356C44.4087 43.3601 44.13 43.3144 43.874 43.2973V42.3797L50.0039 42.053L50.1899 42.2541V50.4256H50.2642C50.8661 49.8307 51.4844 49.3947 52.1194 49.1182C52.7542 48.8416 53.3892 48.7033 54.024 48.7033C55.7551 48.7033 57.1197 49.3026 58.1174 50.5011C59.1148 51.6997 59.6133 53.3215 59.6133 55.3662ZM55.1678 55.5172C55.1678 54.8805 55.1207 54.2662 55.0256 53.6756C54.9305 53.085 54.7726 52.5629 54.5501 52.1106C54.3277 51.6579 54.0355 51.2955 53.6735 51.0232C53.3113 50.751 52.8621 50.6147 52.3271 50.6147C51.8243 50.6147 51.4083 50.6985 51.0793 50.8662C50.7499 51.0339 50.4534 51.2811 50.1899 51.6078V58.9246C50.2396 59.0922 50.332 59.3124 50.4679 59.5846C50.6032 59.8569 50.7417 60.0687 50.8815 60.2197C51.0793 60.4378 51.2892 60.6032 51.5113 60.7164C51.7338 60.8296 52.0467 60.8861 52.4505 60.8861C53.2905 60.8861 53.9532 60.4191 54.4389 59.4844C54.9249 58.5491 55.1678 57.2269 55.1678 55.5172Z" fill="white"/>
<path d="M69.0375 61.5138H61.211V60.5961C61.4255 60.5794 61.6361 60.5584 61.8425 60.5333C62.0488 60.5083 62.2265 60.4662 62.3749 60.4077C62.6391 60.3072 62.8247 60.1626 62.9323 59.9741C63.0395 59.7854 63.0932 59.5362 63.0932 59.2262V51.9095C63.0932 51.6162 63.027 51.3583 62.8951 51.1365C62.7631 50.9147 62.598 50.7363 62.3999 50.6023C62.2511 50.5018 62.0267 50.4056 61.7253 50.3131C61.4236 50.2209 61.1491 50.1621 60.9014 50.137V49.2194L66.9694 48.8927L67.1553 49.0814V59.0632C67.1553 59.3568 67.2172 59.606 67.3412 59.8111C67.465 60.0166 67.6427 60.1696 67.8736 60.2701C68.0388 60.3456 68.2205 60.4128 68.4186 60.4712C68.6166 60.53 68.823 60.5718 69.0378 60.5968V61.5138H69.0375ZM67.2294 44.3659C67.2294 45.003 66.9882 45.5458 66.5055 45.9941C66.0224 46.4424 65.4505 46.6666 64.7898 46.6666C64.1211 46.6666 63.5456 46.4424 63.0626 45.9941C62.5795 45.5458 62.3377 45.003 62.3377 44.3659C62.3377 43.7292 62.5795 43.1841 63.0626 42.7318C63.5456 42.2791 64.1208 42.053 64.7898 42.053C65.4587 42.053 66.0323 42.2791 66.511 42.7318C66.9898 43.1844 67.2294 43.7292 67.2294 44.3659Z" fill="white"/>
<path d="M79.3908 60.9356C78.8623 61.1704 78.297 61.3819 77.6942 61.5706C77.0914 61.7593 76.3569 61.8535 75.4899 61.8535C74.2019 61.8535 73.2467 61.5352 72.6235 60.8995C71.9996 60.2631 71.688 59.3548 71.688 58.1743V50.4637H69.459V49.0935H71.7377V45.2839H75.7498V49.0931H79.2295V50.4634H75.7745V57.3435C75.7745 58.3229 75.9091 59.0174 76.1786 59.4277C76.4477 59.8375 76.9301 60.043 77.6261 60.043C77.8498 60.043 78.1601 60.0263 78.5583 59.9925C78.9554 59.9591 79.2332 59.9214 79.3904 59.8793V60.9356H79.3908Z" fill="white"/>
</g>
<defs>
<clipPath id="clip0">
<rect width="219" height="63" fill="white"/>
</clipPath>
</defs>
</svg>
