<svg width="222" height="63" viewBox="0 0 222 63" fill="none" xmlns="http://www.w3.org/2000/svg">
<g clip-path="url(#clip0)">
<path d="M95.5363 6.58154H94.8662V61.6278H95.5363V6.58154Z" fill="#F18B2A"/>
<path d="M111.282 4.04391C111.066 4.26004 110.804 4.36828 110.495 4.36828C110.187 4.36828 109.924 4.26004 109.709 4.04391C109.493 3.82778 109.385 3.55486 109.385 3.22515C109.385 2.89611 109.493 2.62286 109.709 2.40639C109.924 2.19026 110.187 2.08203 110.495 2.08203C110.804 2.08203 111.066 2.19026 111.282 2.40639C111.498 2.62253 111.606 2.89578 111.606 3.22515C111.606 3.55486 111.498 3.82745 111.282 4.04391ZM109.816 6.62312H111.05V19.2269H109.816V6.62312Z" fill="white"/>
<path d="M115.491 19.2267V6.62299H116.725V8.59991C117.568 7.09701 118.854 6.34473 120.581 6.34473C122.143 6.34473 123.305 6.93165 124.066 8.10551C124.478 8.76493 124.683 9.8252 124.683 11.2873V19.2264H123.45V11.2877C123.45 10.1138 123.285 9.26968 122.956 8.75457C122.462 7.93113 121.64 7.51892 120.488 7.51892C119.09 7.51892 118.062 8.10584 117.404 9.2797C116.951 10.0828 116.725 11.2159 116.725 12.6777V19.2267H115.491V19.2267Z" fill="white"/>
<path d="M132.641 7.79691H130.451V19.2268H129.217V7.79691H127.829V6.62306H129.217V2.11304H130.451V6.62306H132.641V7.79691Z" fill="white"/>
<path d="M146.367 13.0796H135.602C135.602 14.645 136.09 15.9217 137.067 16.9102C138.043 17.8986 139.221 18.393 140.599 18.393C141.586 18.393 142.46 18.1304 143.22 17.6053C143.981 17.0802 144.567 16.385 144.979 15.5202L146.027 16.1378C145.554 17.0444 144.865 17.8422 143.961 18.532C143.055 19.2221 141.904 19.5669 140.506 19.5669C138.594 19.5669 137.082 18.9442 135.971 17.6978C134.861 16.4522 134.306 14.8818 134.306 12.9871C134.306 10.9073 134.907 9.2801 136.11 8.10624C137.313 6.93239 138.748 6.34546 140.413 6.34546C142.12 6.34546 143.539 6.97381 144.67 8.22984C145.801 9.48587 146.367 11.1023 146.367 13.0796ZM135.694 11.9057H145.071C144.907 10.629 144.397 9.57874 143.544 8.75497C142.691 7.93153 141.647 7.51931 140.413 7.51931C139.159 7.51931 138.1 7.93621 137.236 8.77033C136.373 9.60413 135.859 10.6497 135.694 11.9057Z" fill="white"/>
<path d="M160.371 6.62299H161.605V18.8559C161.605 21.224 161.044 23.062 159.924 24.3701C158.803 25.6776 157.256 26.3317 155.281 26.3317C153.574 26.3317 152.14 25.853 150.979 24.8952C149.816 23.9375 149.194 22.614 149.112 20.9257H150.408C150.511 22.2232 151.009 23.2527 151.904 24.0147C152.798 24.7763 153.924 25.1578 155.281 25.1578C156.207 25.1578 157.014 24.9724 157.703 24.6016C158.392 24.2308 158.901 23.8086 159.23 23.3352C159.558 22.8612 159.816 22.285 160.001 21.6052C160.186 20.9257 160.294 20.4003 160.325 20.0298C160.355 19.6593 160.371 19.2675 160.371 18.8559V17.0641C159.178 18.7323 157.522 19.5661 155.405 19.5661C153.739 19.5661 152.289 18.9792 151.056 17.8053C149.822 16.6315 149.205 15.005 149.205 12.9245C149.205 11.0508 149.78 9.48547 150.933 8.22911C152.084 6.97308 153.626 6.34473 155.559 6.34473C157.615 6.34473 159.22 7.1685 160.371 8.81604V6.62299H160.371ZM159.06 9.06357C158.145 8.03402 156.937 7.51892 155.436 7.51892C153.934 7.51892 152.736 8.04939 151.842 9.10967C150.948 10.1706 150.5 11.4627 150.5 12.9867C150.5 14.5313 150.948 15.8184 151.842 16.848C152.737 17.8778 153.914 18.3926 155.374 18.3926C156.896 18.3926 158.119 17.8675 159.045 16.8172C159.97 15.767 160.433 14.4491 160.433 12.8631C160.433 11.3602 159.975 10.0934 159.06 9.06357Z" fill="white"/>
<path d="M166.046 19.2269V6.62315H167.28V8.26033C167.835 6.98359 168.76 6.34521 170.056 6.34521C170.55 6.34521 170.992 6.44844 171.382 6.65421L170.765 7.76627C170.539 7.60158 170.23 7.51907 169.84 7.51907C169.243 7.51907 168.755 7.6891 168.374 8.02883C167.994 8.36856 167.737 8.84258 167.603 9.44988C167.469 10.0575 167.382 10.5673 167.341 10.9792C167.3 11.3914 167.279 11.8858 167.279 12.462V19.2272H166.046V19.2269Z" fill="white"/>
<path d="M183.968 8.81652V6.62315H185.202V19.2269H183.968V16.9717C182.837 18.7018 181.202 19.5666 179.063 19.5666C177.356 19.5666 175.907 18.9593 174.714 17.744C173.521 16.5291 172.925 14.9226 172.925 12.925C172.925 10.9688 173.49 9.38307 174.621 8.1678C175.752 6.95285 177.233 6.34521 179.063 6.34521C181.161 6.34521 182.796 7.16932 183.968 8.81652ZM179.125 7.51907C177.788 7.51907 176.637 7.99776 175.67 8.95549C174.704 9.91321 174.221 11.2057 174.221 12.8325C174.221 14.336 174.663 15.6388 175.547 16.7402C176.431 17.8422 177.634 18.3928 179.156 18.3928C180.657 18.3928 181.845 17.8523 182.719 16.7709C183.593 15.6896 184.03 14.3768 184.03 12.8322C184.03 11.1231 183.526 9.80999 182.518 8.89336C181.51 7.97772 180.379 7.51907 179.125 7.51907Z" fill="white"/>
<path d="M193.16 7.79691H190.969V19.2268H189.736V7.79691H188.348V6.62306H189.736V2.11304H190.969V6.62306H193.16V7.79691Z" fill="white"/>
<path d="M206.885 13.0796H196.12C196.12 14.645 196.608 15.9217 197.585 16.9102C198.562 17.8986 199.739 18.393 201.117 18.393C202.104 18.393 202.978 18.1304 203.739 17.6053C204.499 17.0802 205.086 16.385 205.497 15.5202L206.546 16.1378C206.073 17.0444 205.384 17.8422 204.479 18.532C203.574 19.2221 202.423 19.5669 201.024 19.5669C199.112 19.5669 197.6 18.9442 196.49 17.6978C195.38 16.4522 194.824 14.8818 194.824 12.9871C194.824 10.9073 195.426 9.2801 196.629 8.10624C197.832 6.93239 199.266 6.34546 200.932 6.34546C202.639 6.34546 204.057 6.97381 205.189 8.22984C206.319 9.48587 206.885 11.1023 206.885 13.0796ZM196.213 11.9057H205.59C205.425 10.629 204.916 9.57874 204.063 8.75497C203.209 7.93153 202.166 7.51931 200.932 7.51931C199.678 7.51931 198.618 7.93621 197.755 8.77033C196.891 9.60446 196.377 10.6497 196.213 11.9057Z" fill="white"/>
<path d="M220.765 8.81659L220.78 2.2251H221.952L221.999 19.227H220.765V16.9718C219.634 18.7018 218.01 19.5667 215.892 19.5667C214.185 19.5667 212.73 18.9751 211.527 17.7905C210.324 16.6067 209.723 14.9641 209.723 12.8633C209.723 10.7217 210.329 9.09987 211.543 7.99783C212.756 6.89647 214.205 6.34528 215.892 6.34528C217.989 6.34528 219.613 7.16938 220.765 8.81659ZM215.892 7.51914C214.514 7.51914 213.357 7.98247 212.422 8.90912C211.486 9.83578 211.018 11.1439 211.018 12.8322C211.018 14.583 211.501 15.9476 212.468 16.9253C213.434 17.9038 214.596 18.3928 215.954 18.3928C217.29 18.3928 218.437 17.9038 219.393 16.9253C220.349 15.9476 220.827 14.583 220.827 12.8322C220.827 11.3083 220.385 10.0419 219.501 9.03272C218.616 8.02422 217.413 7.51914 215.892 7.51914Z" fill="white"/>
<path d="M109.816 40.7274V28.1236H111.05V29.699C111.77 28.4634 112.859 27.8457 114.32 27.8457C116.088 27.8457 117.26 28.608 117.836 30.1316C118.556 28.6077 119.8 27.8457 121.568 27.8457C122.761 27.8457 123.707 28.1961 124.406 28.896C125.126 29.6172 125.486 30.76 125.486 32.325V40.7274H124.252V32.325C124.252 31.1101 124.005 30.2452 123.512 29.7301C123.059 29.2567 122.432 29.0196 121.63 29.0196C121.013 29.0196 120.474 29.1432 120.011 29.3904C119.548 29.6376 119.209 29.9155 118.993 30.2245C118.777 30.5335 118.612 30.9146 118.499 31.3676C118.386 31.8209 118.319 32.1606 118.299 32.3871C118.278 32.614 118.268 32.8611 118.268 33.1284V40.7277H117.034V32.6337C117.034 30.2241 116.109 29.0192 114.258 29.0192C113.209 29.0192 112.412 29.4261 111.867 30.2395C111.322 31.0533 111.05 32.1192 111.05 33.4367V40.7271H109.816V40.7274Z" fill="white"/>
<path d="M140.168 30.317V28.1236H141.402V40.7274H140.168V38.4722C139.037 40.2023 137.402 41.0671 135.263 41.0671C133.556 41.0671 132.107 40.4598 130.914 39.2445C129.721 38.0296 129.125 36.4231 129.125 34.4255C129.125 32.4693 129.69 30.8836 130.821 29.6683C131.952 28.4533 133.433 27.8457 135.263 27.8457C137.361 27.8457 138.996 28.6695 140.168 30.317ZM135.325 29.0196C133.988 29.0196 132.837 29.4983 131.871 30.456C130.904 31.4137 130.421 32.7061 130.421 34.333C130.421 35.8365 130.863 37.1393 131.747 38.2407C132.631 39.3427 133.834 39.8933 135.356 39.8933C136.857 39.8933 138.045 39.3528 138.919 38.2714C139.793 37.1901 140.23 35.8773 140.23 34.3326C140.23 32.6236 139.726 31.3105 138.719 30.3938C137.711 29.4779 136.579 29.0196 135.325 29.0196Z" fill="white"/>
<path d="M145.844 40.7274V28.1236H147.078V29.7608C147.633 28.4841 148.558 27.8457 149.854 27.8457C150.347 27.8457 150.789 27.9489 151.18 28.1547L150.563 29.2668C150.336 29.1021 150.028 29.0196 149.638 29.0196C149.041 29.0196 148.553 29.1896 148.172 29.5293C147.791 29.8691 147.535 30.3431 147.401 30.9504C147.267 31.558 147.18 32.0678 147.139 32.4797C147.098 32.8919 147.077 33.3863 147.077 33.9625V40.7277H145.844V40.7274Z" fill="white"/>
<path d="M153.813 27.0305L155.109 27.1541L155.097 33.5295L160.279 28.1235H161.883L156.578 33.5913L163.61 40.7273H161.945L155.745 34.4872L155.097 35.1359V40.7273H153.863L153.813 27.0305Z" fill="white"/>
<path d="M176.382 34.5798H165.616C165.616 36.1452 166.105 37.4219 167.082 38.4104C168.058 39.3989 169.235 39.8933 170.613 39.8933C171.6 39.8933 172.474 39.6307 173.235 39.1056C173.996 38.5804 174.582 37.8853 174.993 37.0204L176.042 37.6381C175.569 38.5447 174.88 39.3424 173.975 40.0322C173.07 40.7224 171.919 41.0671 170.521 41.0671C168.608 41.0671 167.097 40.4444 165.986 39.1981C164.876 37.9524 164.32 36.382 164.32 34.4873C164.32 32.4075 164.922 30.7803 166.125 29.6065C167.328 28.4326 168.762 27.8457 170.428 27.8457C172.134 27.8457 173.553 28.4741 174.685 29.7301C175.815 30.9865 176.382 32.6029 176.382 34.5798ZM165.709 33.406H175.086C174.921 32.1292 174.412 31.079 173.559 30.2552C172.705 29.4318 171.662 29.0196 170.428 29.0196C169.174 29.0196 168.115 29.4365 167.251 30.2706C166.387 31.1047 165.873 32.1503 165.709 33.406Z" fill="white"/>
<path d="M183.537 29.2974H181.346V40.7273H180.113V29.2974H178.725V28.1235H180.113V23.6135H181.346V28.1235H183.537V29.2974Z" fill="white"/>
<path d="M187.408 25.5442C187.192 25.7603 186.93 25.8685 186.621 25.8685C186.313 25.8685 186.05 25.7603 185.835 25.5442C185.619 25.328 185.511 25.0551 185.511 24.7254C185.511 24.3964 185.619 24.1231 185.835 23.9066C186.05 23.6902 186.313 23.5823 186.621 23.5823C186.93 23.5823 187.192 23.6905 187.408 23.9066C187.624 24.1228 187.732 24.396 187.732 24.7254C187.732 25.0554 187.624 25.328 187.408 25.5442ZM186.004 28.1237H187.238V40.7274H186.004V28.1237Z" fill="white"/>
<path d="M191.68 40.7275V28.1237H192.914V30.1006C193.756 28.5977 195.042 27.8455 196.769 27.8455C198.332 27.8455 199.494 28.4324 200.255 29.6062C200.666 30.2657 200.872 31.3259 200.872 32.7881V40.7271H199.638V32.7884C199.638 31.6146 199.473 30.7704 199.144 30.2553C198.651 29.4319 197.828 29.0196 196.677 29.0196C195.278 29.0196 194.25 29.6066 193.592 30.7804C193.14 31.5835 192.914 32.7166 192.914 34.1784V40.7275H191.68Z" fill="white"/>
<path d="M215.678 28.1237H216.911V40.3567C216.911 42.7248 216.351 44.5627 215.23 45.8708C214.109 47.1783 212.562 47.8324 210.588 47.8324C208.881 47.8324 207.447 47.3537 206.285 46.396C205.123 45.4383 204.501 44.1147 204.419 42.4264H205.715C205.817 43.7239 206.316 44.7534 207.211 45.5154C208.105 46.2771 209.231 46.6585 210.588 46.6585C211.513 46.6585 212.32 46.4731 213.009 46.1023C213.698 45.7315 214.207 45.3093 214.536 44.836C214.865 44.3619 215.122 43.7857 215.307 43.1059C215.492 42.4264 215.6 41.901 215.631 41.5305C215.662 41.1597 215.678 40.7682 215.678 40.3567V38.5648C214.485 40.2331 212.829 41.0669 210.712 41.0669C209.046 41.0669 207.596 40.4799 206.362 39.3061C205.128 38.1322 204.512 36.5057 204.512 34.4253C204.512 32.5516 205.087 30.9862 206.239 29.7298C207.391 28.4738 208.933 27.8455 210.866 27.8455C212.922 27.8455 214.526 28.6692 215.678 30.3168V28.1237H215.678ZM214.366 30.564C213.451 29.5344 212.243 29.0193 210.742 29.0193C209.241 29.0193 208.043 29.5498 207.148 30.6101C206.254 31.671 205.807 32.9631 205.807 34.4871C205.807 36.0317 206.254 37.3188 207.148 38.3484C208.043 39.3782 209.22 39.893 210.68 39.893C212.202 39.893 213.425 39.3679 214.351 38.3176C215.276 37.2674 215.739 35.9495 215.739 34.3635C215.739 32.8606 215.281 31.5942 214.366 30.564Z" fill="white"/>
<path d="M116.232 51.385L115.183 51.9412C114.772 50.9942 114.042 50.5202 112.993 50.5202C112.335 50.5202 111.816 50.7263 111.435 51.1378C111.055 51.55 110.865 52.0134 110.865 52.5278C110.865 52.9193 110.978 53.2537 111.204 53.5316C111.43 53.8096 111.667 54.0157 111.913 54.1493C112.16 54.2836 112.551 54.4533 113.086 54.6591C113.168 54.6798 113.368 54.7569 113.687 54.8909C114.006 55.0252 114.216 55.1124 114.319 55.1535C114.422 55.1949 114.602 55.272 114.859 55.3853C115.116 55.4989 115.306 55.6014 115.43 55.6943C115.553 55.7868 115.702 55.9057 115.877 56.0494C116.052 56.1937 116.201 56.348 116.324 56.5127C116.756 57.0485 116.972 57.728 116.972 58.5514C116.972 59.8903 116.566 60.8945 115.754 61.5632C114.941 62.2323 113.98 62.567 112.87 62.567C111.8 62.567 110.875 62.2684 110.094 61.6711C109.312 61.0742 108.787 60.2608 108.521 59.2305L109.724 58.8597C109.929 59.6628 110.325 60.2861 110.911 60.7288C111.497 61.1717 112.15 61.3929 112.87 61.3929C113.672 61.3929 114.34 61.1303 114.875 60.6052C115.409 60.08 115.677 59.4159 115.677 58.6125C115.677 57.9538 115.471 57.444 115.06 57.0833C114.648 56.7232 113.919 56.3263 112.87 55.894C111.43 55.2971 110.515 54.7409 110.125 54.2258C109.754 53.7314 109.569 53.1862 109.569 52.5886C109.569 51.6416 109.888 50.8639 110.526 50.2563C111.163 49.649 111.965 49.345 112.932 49.345C114.556 49.346 115.656 50.0258 116.232 51.385Z" fill="white"/>
<path d="M131.378 56.0803H120.612C120.612 57.6457 121.101 58.9224 122.078 59.9109C123.054 60.8993 124.231 61.3937 125.609 61.3937C126.596 61.3937 127.47 61.1312 128.231 60.6061C128.992 60.0809 129.578 59.3858 129.989 58.5209L131.038 59.1386C130.565 60.0452 129.876 60.8429 128.971 61.5327C128.066 62.2229 126.915 62.5676 125.517 62.5676C123.604 62.5676 122.093 61.9449 120.982 60.6986C119.872 59.4529 119.316 57.8825 119.316 55.9878C119.316 53.908 119.918 52.2808 121.121 51.107C122.324 49.9331 123.758 49.3462 125.424 49.3462C127.13 49.3462 128.549 49.9745 129.681 51.2306C130.812 52.4866 131.378 54.1031 131.378 56.0803ZM120.705 54.9065H130.082C129.917 53.6297 129.408 52.5795 128.555 51.7557C127.701 50.9323 126.658 50.52 125.424 50.52C124.17 50.52 123.111 50.9369 122.247 51.7711C121.383 52.6052 120.869 53.6504 120.705 54.9065Z" fill="white"/>
<path d="M135.017 62.2276V49.6239H136.25V51.2611C136.806 49.9843 137.731 49.3459 139.027 49.3459C139.52 49.3459 139.962 49.4492 140.353 49.6549L139.736 50.767C139.509 50.6023 139.201 50.5198 138.81 50.5198C138.214 50.5198 137.725 50.6898 137.345 51.0296C136.964 51.3693 136.707 51.8433 136.574 52.4506C136.44 53.0583 136.353 53.568 136.312 53.9799C136.27 54.3921 136.25 54.8865 136.25 55.4628V62.228H135.017V62.2276Z" fill="white"/>
<path d="M141.371 49.6243H142.728L147.17 60.0964L151.55 49.6243H152.907L147.17 63.0003L141.371 49.6243Z" fill="white"/>
<path d="M156.84 46.8593C156.624 47.0755 156.362 47.1837 156.054 47.1837C155.745 47.1837 155.483 47.0755 155.267 46.8593C155.051 46.6432 154.943 46.3703 154.943 46.0406C154.943 45.7115 155.051 45.4383 155.267 45.2218C155.483 45.0057 155.745 44.8975 156.054 44.8975C156.362 44.8975 156.624 45.0057 156.84 45.2218C157.056 45.438 157.164 45.7112 157.164 46.0406C157.164 46.3703 157.056 46.6432 156.84 46.8593ZM155.375 49.6243H156.609V62.228H155.375V49.6243Z" fill="white"/>
<path d="M171.137 50.9524V52.5896C169.944 51.21 168.494 50.5198 166.787 50.5198C165.265 50.5198 164.011 51.0403 163.024 52.0798C162.037 53.1201 161.544 54.4229 161.544 55.9876C161.544 57.6765 162.068 58.9994 163.117 59.9571C164.165 60.9148 165.369 61.3935 166.726 61.3935C168.392 61.3935 169.913 60.6419 171.291 59.1383V60.8066C169.975 61.9804 168.443 62.5674 166.695 62.5674C164.802 62.5674 163.255 61.9447 162.053 60.6983C160.849 59.4527 160.248 57.8926 160.248 56.0183C160.248 54.1032 160.844 52.5121 162.037 51.2457C163.23 49.9793 164.813 49.3459 166.787 49.3459C168.412 49.3459 169.862 49.8818 171.137 50.9524Z" fill="white"/>
<path d="M185.942 56.0803H175.177C175.177 57.6457 175.665 58.9224 176.642 59.9109C177.618 60.8993 178.796 61.3937 180.174 61.3937C181.161 61.3937 182.035 61.1312 182.796 60.6061C183.556 60.0809 184.142 59.3858 184.554 58.5209L185.602 59.1386C185.129 60.0452 184.44 60.8429 183.536 61.5327C182.63 62.2229 181.479 62.5676 180.081 62.5676C178.169 62.5676 176.657 61.9449 175.547 60.6986C174.436 59.4529 173.881 57.8825 173.881 55.9878C173.881 53.908 174.482 52.2808 175.685 51.107C176.888 49.9331 178.323 49.3462 179.988 49.3462C181.695 49.3462 183.114 49.9745 184.245 51.2306C185.376 52.4866 185.942 54.1031 185.942 56.0803ZM175.269 54.9065H184.646C184.482 53.6297 183.973 52.5795 183.12 51.7557C182.266 50.9323 181.223 50.52 179.989 50.52C178.734 50.52 177.675 50.9369 176.812 51.7711C175.948 52.6052 175.434 53.6504 175.269 54.9065Z" fill="white"/>
<path d="M195.998 51.385L194.949 51.9412C194.537 50.9942 193.808 50.5202 192.759 50.5202C192.1 50.5202 191.581 50.7263 191.201 51.1378C190.821 51.55 190.63 52.0134 190.63 52.5278C190.63 52.9193 190.743 53.2537 190.97 53.5316C191.196 53.8096 191.432 54.0157 191.679 54.1493C191.926 54.2836 192.316 54.4533 192.851 54.6591C192.933 54.6798 193.134 54.7569 193.453 54.8909C193.771 55.0252 193.982 55.1124 194.085 55.1535C194.188 55.1949 194.368 55.272 194.625 55.3853C194.882 55.4989 195.072 55.6014 195.196 55.6943C195.319 55.7868 195.468 55.9057 195.643 56.0494C195.817 56.1937 195.967 56.348 196.09 56.5127C196.522 57.0485 196.738 57.728 196.738 58.5514C196.738 59.8903 196.332 60.8945 195.519 61.5632C194.707 62.2323 193.746 62.567 192.635 62.567C191.566 62.567 190.64 62.2684 189.859 61.6711C189.077 61.0742 188.553 60.2608 188.286 59.2305L189.489 58.8597C189.695 59.6628 190.091 60.2861 190.677 60.7288C191.263 61.1717 191.915 61.3929 192.635 61.3929C193.437 61.3929 194.105 61.1303 194.64 60.6052C195.175 60.08 195.442 59.4159 195.442 58.6125C195.442 57.9538 195.237 57.444 194.825 57.0833C194.414 56.7232 193.684 56.3263 192.635 55.894C191.195 55.2971 190.28 54.7409 189.89 54.2258C189.52 53.7314 189.335 53.1862 189.335 52.5886C189.335 51.6416 189.653 50.8639 190.291 50.2563C190.928 49.649 191.73 49.345 192.697 49.345C194.322 49.346 195.422 50.0258 195.998 51.385Z" fill="white"/>
<path d="M154.986 24.4688L153.783 24.2844L153.752 23.5442H154.987L154.986 24.4688Z" fill="white"/>
<path d="M48.3042 18.8826C47.7685 19.1174 47.1954 19.3289 46.5843 19.5176C45.9732 19.7063 45.2287 19.8005 44.3498 19.8005C43.0443 19.8005 42.0759 19.4822 41.4442 18.8465C40.8121 18.2101 40.4959 17.3018 40.4959 16.1213V8.41042H38.2363V7.04014H40.5462V3.23096H44.6133V7.04014H48.1407V8.41042H44.6383V15.2905C44.6383 16.27 44.7748 16.9645 45.048 17.3747C45.3208 17.7845 45.8098 17.99 46.5153 17.99C46.7421 17.99 47.0566 17.9733 47.4603 17.9396C47.8629 17.9061 48.1444 17.8684 48.3038 17.8263V18.8826H48.3042Z" fill="white"/>
<path d="M65.5015 19.4608H57.957V18.5432C58.1244 18.5265 58.3209 18.5054 58.5471 18.4804C58.7729 18.4553 58.9403 18.4132 59.0491 18.3548C59.2249 18.2626 59.3486 18.1286 59.4197 17.9526C59.4904 17.7765 59.5261 17.517 59.5261 17.1732V11.2893C59.5261 10.4261 59.3649 9.78068 59.0431 9.35309C58.7208 8.92551 58.2622 8.71205 57.6681 8.71205C57.3332 8.71205 57.022 8.76249 56.7335 8.86304C56.4446 8.96359 56.1618 9.11024 55.8856 9.30298C55.6427 9.47068 55.4483 9.64238 55.3022 9.81843C55.1557 9.99447 55.032 10.1498 54.9316 10.2834V17.0343C54.9316 17.3443 54.9693 17.5895 55.0447 17.7698C55.1201 17.9502 55.2622 18.0989 55.4716 18.2161C55.597 18.2916 55.7625 18.3588 55.968 18.4172C56.1731 18.476 56.3712 18.5178 56.5637 18.5428V19.4605H48.9062V18.5432C49.1253 18.5265 49.3381 18.5054 49.5446 18.4804C49.7504 18.4553 49.9339 18.4132 50.0943 18.3548C50.3638 18.2542 50.5469 18.1096 50.6437 17.9212C50.7404 17.7324 50.7888 17.4832 50.7888 17.1732V3.15545C50.7888 2.8872 50.7261 2.60226 50.6003 2.30061C50.4749 1.99896 50.2991 1.77247 50.073 1.62182C49.9055 1.51292 49.663 1.42707 49.3448 1.36426C49.0269 1.30146 48.7424 1.26171 48.4912 1.24467V0.326702L54.7435 0L54.9319 0.201099V8.85035H54.9823C55.2998 8.56573 55.586 8.30785 55.8409 8.07735C56.0961 7.84686 56.4076 7.61436 56.7748 7.37952C57.0841 7.17842 57.487 7.00672 57.984 6.86408C58.4817 6.72144 59.0184 6.65029 59.5951 6.65029C60.949 6.65029 61.9667 7.04012 62.6475 7.81946C63.3283 8.59881 63.6689 9.62568 63.6689 10.8994V17.0596C63.6689 17.3696 63.7149 17.6172 63.807 17.8012C63.899 17.9856 64.0705 18.1326 64.3217 18.2412C64.4724 18.3083 64.6395 18.3668 64.8237 18.4172C65.0078 18.4677 65.2336 18.5098 65.5015 18.5428V19.4608Z" fill="white"/>
<path d="M80.1517 16.4564C79.8588 16.9341 79.5055 17.3847 79.0913 17.8079C78.677 18.2312 78.206 18.5936 77.6786 18.8953C77.1179 19.214 76.5509 19.4548 75.9782 19.6182C75.4048 19.7815 74.7453 19.8633 74.0005 19.8633C72.762 19.8633 71.6929 19.6873 70.7937 19.3352C69.8941 18.9831 69.1509 18.5098 68.5652 17.9145C67.9794 17.3196 67.5425 16.6177 67.2539 15.8086C66.9651 14.9999 66.8203 14.122 66.8203 13.175C66.8203 12.3201 66.9778 11.5011 67.2916 10.7174C67.6055 9.93368 68.0508 9.23585 68.6282 8.62421C69.1973 8.02926 69.9154 7.54756 70.7813 7.17843C71.6476 6.80964 72.6159 6.62524 73.687 6.62524C74.8584 6.62524 75.8211 6.76788 76.5742 7.05283C77.3274 7.33777 77.9508 7.73162 78.4445 8.2347C78.9215 8.71239 79.2687 9.27627 79.4865 9.92567C79.704 10.5751 79.8128 11.2565 79.8128 11.9684V12.7855H71.327C71.327 14.5035 71.6576 15.811 72.3187 16.7079C72.9798 17.6048 74.0302 18.0531 75.4695 18.0531C76.256 18.0531 76.9632 17.8377 77.5909 17.4057C78.2187 16.9741 78.754 16.4273 79.1977 15.7652L80.1517 16.4564ZM75.3564 11.6791C75.3564 11.1764 75.3314 10.6609 75.281 10.1328C75.2307 9.60464 75.1429 9.17305 75.0175 8.838C74.8751 8.44415 74.6806 8.14651 74.4341 7.94541C74.1873 7.74431 73.8751 7.64377 73.4985 7.64377C72.8541 7.64377 72.3394 7.97047 71.9544 8.62421C71.5695 9.27794 71.3604 10.3132 71.3267 11.7295L75.3564 11.6791Z" fill="white"/>
<path d="M29.3236 28.9341C28.9387 28.9929 28.5831 29.1209 28.2566 29.3176C27.9303 29.5147 27.6542 29.8815 27.428 30.4177C26.8423 31.8507 26.3736 33.0076 26.022 33.8875C25.6705 34.7673 25.1768 36.0371 24.5407 37.6966C24.4069 38.0404 24.2462 38.5137 24.0577 39.1173C23.8693 39.7206 23.7205 40.2154 23.6117 40.6009H21.1581L17.9973 32.0422L15.0346 40.6009H12.6153C11.77 38.313 11.1046 36.5385 10.6193 35.2768C10.1339 34.0154 9.48516 32.3498 8.67361 30.2797C8.52284 29.8859 8.266 29.5759 7.90208 29.3494C7.53817 29.1232 7.16325 28.9849 6.77832 28.9345V28.0168H14.4859V28.9345C14.2014 28.9595 13.8621 29.027 13.4682 29.1356C13.0749 29.2445 12.8781 29.3915 12.8781 29.5755C12.8781 29.6594 12.8881 29.7325 12.9091 29.7957C12.9302 29.8588 12.9662 29.9737 13.0162 30.1414C13.242 30.7968 13.5522 31.643 13.9458 32.6802C14.3401 33.7174 14.8004 34.9247 15.3285 36.302L18.116 28.0168H20.6057L23.7732 36.5562C24.2582 35.2677 24.6328 34.2529 24.8959 33.5123C25.1591 32.7717 25.4914 31.8157 25.893 30.6438C25.9517 30.4681 25.9867 30.3111 25.9994 30.1728C26.012 30.0345 26.0144 29.9447 26.006 29.9026C26.006 29.7516 25.9307 29.6156 25.7802 29.494C25.6301 29.3728 25.4503 29.2739 25.2422 29.1987C25.033 29.1232 24.8306 29.0648 24.6341 29.0227C24.438 28.9809 24.2729 28.9515 24.1391 28.9348V28.0172H29.3236V28.9341V28.9341Z" fill="white"/>
<path d="M46.1958 40.4873H38.6513V39.5697C38.8187 39.553 39.0152 39.5319 39.2414 39.5069C39.4675 39.4818 39.6346 39.4397 39.7434 39.3813C39.9192 39.2891 40.0429 39.1551 40.114 38.9791C40.1847 38.803 40.2204 38.5435 40.2204 38.1997V32.3158C40.2204 31.4526 40.0593 30.8072 39.7374 30.3796C39.4152 29.952 38.9565 29.7386 38.3624 29.7386C38.0275 29.7386 37.7163 29.789 37.4278 29.8896C37.1389 29.9901 36.8561 30.1368 36.5799 30.3295C36.3371 30.4972 36.1426 30.6689 35.9965 30.8449C35.8501 31.021 35.7263 31.1763 35.6259 31.3099V38.0608C35.6259 38.3708 35.6636 38.616 35.739 38.7964C35.8144 38.9767 35.9565 39.1254 36.1659 39.2426C36.2914 39.3181 36.4568 39.3853 36.6623 39.4437C36.8674 39.5025 37.0656 39.5443 37.258 39.5694V40.487H29.6005V39.5694C29.8196 39.5526 30.0325 39.5316 30.2389 39.5066C30.4447 39.4815 30.6282 39.4394 30.7886 39.3809C31.0582 39.2804 31.2413 39.1358 31.338 38.9473C31.4347 38.7586 31.4831 38.5094 31.4831 38.1994V24.182C31.4831 23.9137 31.4204 23.6288 31.2946 23.3271C31.1689 23.0255 30.9934 22.799 30.7673 22.6483C30.5998 22.5394 30.3573 22.4536 30.0391 22.3908C29.7212 22.328 29.4367 22.2882 29.1855 22.2712V21.3536L35.4371 21.0269L35.6256 21.228V29.8772H35.676C35.9935 29.5926 36.2797 29.3347 36.5345 29.1042C36.7897 28.8737 37.1012 28.6412 37.4685 28.4064C37.7777 28.2053 38.1806 28.0336 38.6777 27.8909C39.1753 27.7483 39.712 27.6771 40.2887 27.6771C41.6427 27.6771 42.6604 28.067 43.3411 28.8463C44.0219 29.6257 44.3625 30.6525 44.3625 31.9263V38.0865C44.3625 38.3965 44.4085 38.644 44.5006 38.8281C44.5927 39.0125 44.7641 39.1595 45.0153 39.268C45.1661 39.3352 45.3332 39.3936 45.5173 39.4441C45.7014 39.4945 45.9272 39.5366 46.1951 39.5697V40.4873H46.1958Z" fill="white"/>
<path d="M55.2837 40.4874H47.35V39.5698C47.5675 39.5531 47.781 39.532 47.9901 39.507C48.1993 39.4819 48.3794 39.4398 48.5298 39.3814C48.7977 39.2808 48.9858 39.1362 49.0949 38.9478C49.2036 38.759 49.258 38.5098 49.258 38.1998V30.8828C49.258 30.5895 49.1909 30.3316 49.0572 30.1098C48.9234 29.888 48.756 29.7096 48.5552 29.5756C48.4044 29.4751 48.1769 29.3789 47.8714 29.2864C47.5655 29.1942 47.2873 29.1354 47.0361 29.1103V28.1927L53.1873 27.866L53.3758 28.0547V38.0365C53.3758 38.3301 53.4385 38.5793 53.5642 38.7844C53.6896 38.9899 53.8698 39.1429 54.1039 39.2434C54.2714 39.3189 54.4555 39.3861 54.6563 39.4445C54.8571 39.5033 55.0663 39.5451 55.2841 39.5701V40.4874H55.2837ZM53.4512 23.3396C53.4512 23.9766 53.2067 24.5194 52.7173 24.9677C52.2277 25.416 51.6479 25.6402 50.9781 25.6402C50.3004 25.6402 49.717 25.416 49.2273 24.9677C48.7376 24.5194 48.4925 23.9766 48.4925 23.3396C48.4925 22.7029 48.7376 22.1577 49.2273 21.7054C49.717 21.2528 50.3 21.0266 50.9781 21.0266C51.6563 21.0266 52.2377 21.2528 52.723 21.7054C53.2083 22.158 53.4512 22.7029 53.4512 23.3396Z" fill="white"/>
<path d="M65.7778 39.9092C65.2421 40.144 64.669 40.3555 64.058 40.5442C63.4469 40.733 62.7024 40.8272 61.8234 40.8272C60.5179 40.8272 59.5496 40.5088 58.9178 39.8731C58.2857 39.2367 57.9695 38.3285 57.9695 37.1479V29.437H55.71V28.0668H58.0199V24.2576H62.087V28.0668H65.6144V29.437H62.112V36.3171C62.112 37.2966 62.2484 37.9911 62.5216 38.4013C62.7944 38.8112 63.2834 39.0166 63.9889 39.0166C64.2157 39.0166 64.5303 38.9999 64.9339 38.9662C65.3365 38.9328 65.618 38.895 65.7775 38.8529V39.9092H65.7778Z" fill="white"/>
<path d="M80.1517 37.483C79.8588 37.9607 79.5055 38.4113 79.0913 38.8346C78.677 39.2578 78.206 39.6202 77.6786 39.9219C77.1179 40.2406 76.5509 40.4814 75.9782 40.6448C75.4048 40.8081 74.7453 40.89 74.0005 40.89C72.762 40.89 71.6929 40.7139 70.7937 40.3618C69.8941 40.0097 69.1509 39.5364 68.5652 38.9411C67.9794 38.3462 67.5425 37.6443 67.2539 36.8353C66.9651 36.0265 66.8203 35.1486 66.8203 34.2016C66.8203 33.3468 66.9778 32.5277 67.2916 31.744C67.6055 30.9603 68.0508 30.2625 68.6282 29.6508C69.1973 29.0559 69.9154 28.5742 70.7813 28.205C71.6476 27.8363 72.6159 27.6519 73.687 27.6519C74.8584 27.6519 75.8211 27.7945 76.5742 28.0794C77.3274 28.3644 77.9508 28.7582 78.4445 29.2613C78.9215 29.739 79.2687 30.3029 79.4865 30.9523C79.704 31.6017 79.8128 32.2831 79.8128 32.995V33.8121H71.327C71.327 35.5301 71.6576 36.8376 72.3187 37.7345C72.9798 38.6314 74.0302 39.0797 75.4695 39.0797C76.256 39.0797 76.9632 38.8643 77.5909 38.4324C78.2187 38.0008 78.754 37.4539 79.1977 36.7918L80.1517 37.483ZM75.3564 32.7057C75.3564 32.203 75.3314 31.6875 75.281 31.1594C75.2307 30.6313 75.1429 30.1997 75.0175 29.8646C74.8751 29.4708 74.6806 29.1731 74.4341 28.972C74.1873 28.7709 73.8751 28.6704 73.4985 28.6704C72.8541 28.6704 72.3394 28.9971 71.9544 29.6508C71.5695 30.3046 71.3604 31.3398 71.3267 32.7562L75.3564 32.7057Z" fill="white"/>
<path d="M12.6783 51.3434C12.6783 51.9804 12.4815 52.5396 12.0882 53.0217C11.6949 53.5037 11.1759 53.7445 10.5315 53.7445C9.9204 53.7445 9.40372 53.5902 8.98143 53.2812C8.55881 52.9725 8.347 52.5176 8.347 51.9166C8.347 51.6247 8.36801 51.3972 8.40971 51.2345C8.4514 51.0718 8.4891 50.9195 8.52279 50.7775C8.13786 50.7942 7.73192 50.9272 7.30529 51.1764C6.87834 51.4256 6.50175 51.7579 6.17552 52.1732V59.075C6.17552 59.3686 6.22156 59.6115 6.31362 59.8042C6.40568 59.9973 6.56045 60.148 6.77793 60.2569C6.96206 60.3494 7.2616 60.4266 7.67588 60.4894C8.09016 60.5522 8.38903 60.5879 8.57315 60.5963V61.5139H0.175452V60.5963C0.384594 60.5796 0.596405 60.5565 0.809883 60.5271C1.02336 60.4977 1.20482 60.458 1.35559 60.4075C1.62344 60.3153 1.80756 60.173 1.90796 59.9799C2.00836 59.7872 2.05873 59.5356 2.05873 59.2256V51.9089C2.05873 51.6073 1.98768 51.337 1.84525 51.0982C1.70282 50.8593 1.53137 50.6689 1.33057 50.5263C1.1798 50.4257 0.990005 50.3422 0.759849 50.2748C0.529359 50.2076 0.276187 50.1615 0 50.1365V49.2188L5.98773 48.8921L6.17619 49.0809V50.9038H6.22656C6.80395 50.2333 7.41737 49.7075 8.06614 49.326C8.71425 48.9446 9.39004 48.7542 10.0932 48.7542C10.8714 48.7542 11.4975 48.995 11.9705 49.477C12.4418 49.9587 12.6783 50.5811 12.6783 51.3434Z" fill="white"/>
<path d="M27.8922 61.25C27.5249 61.4093 27.0903 61.556 26.5893 61.6899C26.0883 61.8239 25.5583 61.891 24.9985 61.891C23.9719 61.891 23.2157 61.738 22.7313 61.432C22.2467 61.1261 21.9168 60.6884 21.7413 60.1182H21.666C21.3814 60.4032 21.1066 60.6464 20.8424 60.8475C20.5789 61.0486 20.2954 61.2203 19.9938 61.3629C19.5995 61.547 19.2206 61.6853 18.8557 61.7778C18.4918 61.87 17.9821 61.9161 17.3283 61.9161C16.356 61.9161 15.5258 61.6285 14.8387 61.0536C14.1515 60.4787 13.8076 59.717 13.8076 58.7683C13.8076 58.2228 13.883 57.7592 14.0344 57.377C14.1852 56.9952 14.399 56.6571 14.6755 56.3635C14.9267 56.0946 15.2182 55.8724 15.5491 55.6961C15.8807 55.5197 16.2429 55.3563 16.6372 55.205C17.3914 54.9281 18.2967 54.6408 19.3527 54.3428C20.4088 54.0445 21.1796 53.7783 21.666 53.5431V52.3362C21.666 52.1267 21.6493 51.8501 21.6156 51.5064C21.5822 51.1627 21.5108 50.8737 21.4021 50.6389C21.285 50.3706 21.1009 50.1445 20.8497 49.9601C20.5986 49.776 20.268 49.6835 19.8577 49.6835C19.4895 49.6835 19.1819 49.7359 18.9348 49.8405C18.6876 49.9454 18.4891 50.0523 18.3384 50.1612C18.3634 50.3289 18.4348 50.5844 18.5522 50.9281C18.6699 51.2719 18.7283 51.6029 18.7283 51.9213C18.7283 52.0639 18.6906 52.242 18.6152 52.4554C18.5395 52.6692 18.4304 52.8389 18.2877 52.9645C18.0949 53.1322 17.8787 53.2622 17.6396 53.3544C17.4001 53.4469 17.0328 53.4927 16.5381 53.4927C15.8327 53.4927 15.2996 53.323 14.9387 52.9836C14.5781 52.6442 14.3974 52.2022 14.3974 51.6574C14.3974 51.188 14.5838 50.7668 14.9564 50.394C15.3283 50.0212 15.7823 49.7132 16.318 49.47C16.8453 49.2185 17.4521 49.0237 18.1382 48.8854C18.8244 48.7471 19.4605 48.678 20.0462 48.678C20.8581 48.678 21.6029 48.7264 22.2807 48.8226C22.9585 48.9192 23.5696 49.1179 24.1136 49.4199C24.6326 49.7135 25.0446 50.1385 25.3505 50.696C25.656 51.2535 25.8081 51.9804 25.8081 52.877C25.8081 53.8244 25.7898 54.9471 25.7521 56.2462C25.7144 57.5454 25.695 58.4005 25.695 58.8107C25.695 59.1879 25.7521 59.4855 25.8648 59.7033C25.9779 59.9215 26.151 60.0848 26.3855 60.1937C26.5279 60.2609 26.7517 60.3006 27.0576 60.3133C27.3632 60.326 27.641 60.332 27.8918 60.332V61.25H27.8922ZM21.666 54.6999C21.1956 54.8596 20.7297 55.0423 20.2677 55.2481C19.8057 55.4539 19.4278 55.67 19.1342 55.8972C18.8234 56.1323 18.5799 56.433 18.4037 56.7981C18.2273 57.1635 18.1389 57.5941 18.1389 58.0895C18.1389 58.7449 18.288 59.2196 18.5865 59.5136C18.8844 59.8079 19.252 59.9545 19.6886 59.9545C20.1506 59.9545 20.5305 59.86 20.8284 59.6709C21.1266 59.4819 21.3891 59.2487 21.6159 58.9714L21.666 54.6999Z" fill="white"/>
<path d="M43.8347 55.3662C43.8347 57.252 43.2136 58.8153 41.9711 60.0553C40.7283 61.2956 39.1525 61.916 37.2446 61.916C36.5081 61.916 35.8747 61.8635 35.3433 61.759C34.8116 61.6541 34.3616 61.5265 33.9934 61.3755C33.6084 61.2165 33.3012 61.0595 33.0711 60.9041C32.8406 60.7491 32.6585 60.6212 32.5247 60.5206L30.7295 62.1548L29.989 61.8655C30.0307 61.2539 30.0664 60.5895 30.0961 59.8729C30.1254 59.1564 30.1394 58.1903 30.1394 56.975V45.2081C30.1394 44.8897 30.075 44.5941 29.9453 44.3219C29.8152 44.0496 29.6414 43.8422 29.4239 43.6995C29.2648 43.599 29.033 43.5108 28.7278 43.4356C28.4219 43.3601 28.1394 43.3144 27.8799 43.2973V42.3797L34.0938 42.053L34.2822 42.2541V50.4256H34.3576C34.9677 49.8307 35.5945 49.3947 36.2382 49.1182C36.8817 48.8416 37.5254 48.7033 38.1689 48.7033C39.9237 48.7033 41.307 49.3026 42.3184 50.5011C43.3294 51.6997 43.8347 53.3215 43.8347 55.3662ZM39.3283 55.5172C39.3283 54.8805 39.2806 54.2662 39.1842 53.6756C39.0878 53.085 38.9277 52.5629 38.7022 52.1106C38.4768 51.6579 38.1806 51.2955 37.8136 51.0232C37.4464 50.751 36.9911 50.6147 36.4487 50.6147C35.939 50.6147 35.5174 50.6985 35.1838 50.8662C34.85 51.0339 34.5494 51.2811 34.2822 51.6078V58.9246C34.3326 59.0922 34.4263 59.3124 34.5644 59.5846C34.7015 59.8569 34.8419 60.0687 34.9837 60.2197C35.1842 60.4378 35.397 60.6032 35.6221 60.7164C35.8476 60.8296 36.1648 60.8861 36.5741 60.8861C37.4257 60.8861 38.0978 60.4191 38.5898 59.4844C39.0822 58.5491 39.3283 57.2269 39.3283 55.5172Z" fill="white"/>
<path d="M60.4304 55.3662C60.4304 57.252 59.8094 58.8153 58.5668 60.0553C57.324 61.2956 55.7483 61.916 53.8403 61.916C53.1038 61.916 52.4704 61.8635 51.939 61.759C51.4073 61.6541 50.9573 61.5265 50.5891 61.3755C50.2042 61.2165 49.8969 61.0595 49.6668 60.9041C49.4363 60.7491 49.2542 60.6212 49.1204 60.5206L47.3252 62.1548L46.5847 61.8655C46.6264 61.2539 46.6621 60.5895 46.6918 59.8729C46.7211 59.1564 46.7351 58.1903 46.7351 56.975V45.2081C46.7351 44.8897 46.6707 44.5941 46.541 44.3219C46.4109 44.0496 46.2371 43.8422 46.0196 43.6995C45.8605 43.599 45.6287 43.5108 45.3235 43.4356C45.0176 43.3601 44.7351 43.3144 44.4756 43.2973V42.3797L50.6895 42.053L50.8779 42.2541V50.4256H50.9533C51.5634 49.8307 52.1902 49.3947 52.8339 49.1182C53.4774 48.8416 54.1211 48.7033 54.7646 48.7033C56.5194 48.7033 57.9027 49.3026 58.9141 50.5011C59.9251 51.6997 60.4304 53.3215 60.4304 55.3662ZM55.924 55.5172C55.924 54.8805 55.8763 54.2662 55.7799 53.6756C55.6835 53.085 55.5234 52.5629 55.2979 52.1106C55.0725 51.6579 54.7763 51.2955 54.4093 51.0232C54.0421 50.751 53.5868 50.6147 53.0444 50.6147C52.5347 50.6147 52.1131 50.6985 51.7796 50.8662C51.4457 51.0339 51.1451 51.2811 50.8779 51.6078V58.9246C50.9283 59.0922 51.022 59.3124 51.1598 59.5846C51.2969 59.8569 51.4373 60.0687 51.5791 60.2197C51.7796 60.4378 51.9924 60.6032 52.2175 60.7164C52.443 60.8296 52.7602 60.8861 53.1695 60.8861C54.0211 60.8861 54.6929 60.4191 55.1852 59.4844C55.6779 58.5491 55.924 57.2269 55.924 55.5172Z" fill="white"/>
<path d="M69.9839 61.5138H62.0502V60.5961C62.2677 60.5794 62.4812 60.5584 62.6903 60.5333C62.8995 60.5083 63.0796 60.4662 63.23 60.4077C63.4979 60.3072 63.686 60.1626 63.7951 59.9741C63.9038 59.7854 63.9582 59.5362 63.9582 59.2262V51.9095C63.9582 51.6162 63.8911 51.3583 63.7574 51.1365C63.6236 50.9147 63.4562 50.7363 63.2554 50.6023C63.1046 50.5018 62.8771 50.4056 62.5716 50.3131C62.2657 50.2209 61.9875 50.1621 61.7363 50.137V49.2194L67.8875 48.8927L68.076 49.0814V59.0632C68.076 59.3568 68.1387 59.606 68.2644 59.8111C68.3898 60.0166 68.57 60.1696 68.8041 60.2701C68.9716 60.3456 69.1557 60.4128 69.3565 60.4712C69.5573 60.53 69.7664 60.5718 69.9843 60.5968V61.5138H69.9839ZM68.151 44.3659C68.151 45.003 67.9065 45.5458 67.4172 45.9941C66.9275 46.4424 66.3478 46.6666 65.678 46.6666C65.0002 46.6666 64.4168 46.4424 63.9271 45.9941C63.4375 45.5458 63.1923 45.003 63.1923 44.3659C63.1923 43.7292 63.4375 43.1841 63.9271 42.7318C64.4168 42.2791 64.9999 42.053 65.678 42.053C66.3561 42.053 66.9375 42.2791 67.4229 42.7318C67.9082 43.1844 68.151 43.7292 68.151 44.3659Z" fill="white"/>
<path d="M80.478 60.9356C79.9423 61.1704 79.3692 61.3819 78.7582 61.5706C78.1471 61.7593 77.4026 61.8535 76.5236 61.8535C75.2181 61.8535 74.2498 61.5352 73.618 60.8995C72.9856 60.2631 72.6697 59.3548 72.6697 58.1743V50.4637H70.4102V49.0935H72.7201V45.2839H76.7872V49.0931H80.3146V50.4634H76.8122V57.3435C76.8122 58.3229 76.9486 59.0174 77.2218 59.4277C77.4946 59.8375 77.9836 60.043 78.6891 60.043C78.9159 60.043 79.2305 60.0263 79.6341 59.9925C80.0367 59.9591 80.3182 59.9214 80.4777 59.8793V60.9356H80.478Z" fill="white"/>
</g>
<defs>
<clipPath id="clip0">
<rect width="222" height="63" fill="white"/>
</clipPath>
</defs>
</svg>
