<svg xmlns="http://www.w3.org/2000/svg" width="243" height="60" viewBox="0 0 243 60"><g><g><g/><g><g><g><path fill="#fff" d="M5.773 31.243l-.113.743H3.21l-1.32 6.01c-.038.15-.038.298-.038.409 0 .482.226.742.679.742.716 0 1.659-.482 2.79-1.41l.34.334c-1.584 1.41-2.98 2.115-4.186 2.115-.83 0-1.244-.371-1.244-1.113 0-.297.113-.928.301-1.818l1.17-5.307H.08l.075-.408c1.395-.148 2.489-1.002 3.243-2.56h.452l-.49 2.3h2.413z"/></g><g><path fill="#fff" d="M12.478 24.23l-1.735 8.2.038.075c1.018-1.04 2.074-1.559 3.092-1.559.716 0 1.282.223 1.734.705.453.483.679 1.076.679 1.855 0 .26-.038.557-.076.891l-.791 3.859c-.038.223-.076.371-.076.52 0 .37.302.593.943.667l-.113.446H12.44l.113-.446c.49-.037.792-.185.98-.408.19-.222.34-.668.49-1.336l.755-3.413c.037-.26.075-.52.075-.742 0-1.002-.528-1.522-1.621-1.522-.83 0-1.697.52-2.64 1.522l-1.017 4.86c-.038.149-.038.297-.038.372 0 .445.34.667 1.056.667l-.113.446H6.86l.113-.446c.34 0 .603-.111.754-.37.151-.26.302-.706.415-1.374l2.262-10.983c.076-.408.113-.668.113-.78 0-.259-.113-.407-.301-.482-.189-.074-.528-.11-1.056-.11l.075-.372 2.677-.668h.566z"/></g><g><path fill="#fff" d="M19.644 36.033c-.038.223-.038.446-.038.631 0 1.559.716 2.3 2.149 2.3 1.056 0 2.036-.63 2.979-1.854l.263.37c-.64.965-1.244 1.67-1.847 2.079-.603.445-1.32.63-2.187.63-.905 0-1.621-.26-2.149-.779-.49-.52-.754-1.224-.754-2.152 0-1.596.566-3.043 1.734-4.341 1.131-1.3 2.413-1.967 3.77-1.967.529 0 .981.148 1.283.408.301.26.452.631.452 1.076 0 .78-.528 1.484-1.546 2.152-.942.742-2.337 1.188-4.11 1.447zm.113-.445c2.677-.482 3.996-1.373 3.996-2.634 0-.26-.113-.483-.34-.705a1.094 1.094 0 0 0-.79-.334c-.642 0-1.283.37-1.848 1.15a5.967 5.967 0 0 0-1.018 2.523z"/></g></g></g><g><g><g><path fill="#fff" d="M58.405 18.511v.631c-.905.111-1.66.52-2.3 1.299-.641.779-1.244 1.966-1.81 3.6l-5.769 16.622h-.678L41.4 23.632l-5.806 17.031h-.64l-6.825-18.07c-.528-1.41-1.018-2.3-1.433-2.746-.415-.408-1.093-.668-2.036-.742v-.63h9.464v.63c-.98.186-1.433.705-1.433 1.521 0 .371.113.854.301 1.447l3.96 10.39 3.732-10.946c-.377-.89-.792-1.484-1.169-1.781-.377-.297-1.018-.52-1.923-.668v-.63h9.35v.63c-.942.26-1.394.78-1.394 1.521 0 .297.075.594.188.928l4.148 10.909 3.054-8.868c.377-1.113.565-1.967.565-2.56 0-1.077-.64-1.707-1.923-1.967V18.4h6.825z"/></g><g><path fill="#fff" d="M68.924 37.215v-4.453h-7.39v4.787c0 .705.113 1.15.377 1.447.226.26.754.482 1.508.705v.445h-7.201v-.445c.565-.148.942-.297 1.206-.445.264-.149.453-.371.566-.594.113-.26.15-.705.15-1.41v-9.685c0-.667-.113-1.15-.376-1.447-.264-.297-.792-.52-1.584-.705v-.445h7.201v.445c-.754.186-1.244.408-1.508.668-.264.297-.377.742-.377 1.336v4.23h7.39v-4.082c0-.668-.113-1.15-.377-1.447-.264-.297-.754-.52-1.546-.705v-.445h7.315v.445c-.83.223-1.358.446-1.584.705-.226.26-.377.854-.377 1.744v9.685c0 .668.113 1.15.377 1.41s.754.52 1.584.705v.445h-7.24v-.445c.755-.186 1.245-.408 1.509-.705.264-.26.377-.854.377-1.744z"/></g><g><path fill="#fff" d="M83.777 25.007v.445c-.754.186-1.282.409-1.546.668-.264.297-.377.854-.377 1.744v9.685c0 .668.113 1.15.377 1.41s.754.482 1.546.705v.445h-7.24v-.445c.529-.148.943-.297 1.207-.445.264-.149.453-.371.566-.594.113-.26.15-.705.15-1.41v-9.648c0-.667-.113-1.15-.376-1.447-.264-.26-.792-.52-1.584-.705v-.445h7.277z"/></g><g><path fill="#fff" d="M95.918 39.664v.445h-7.202v-.445c.755-.149 1.282-.371 1.546-.668.264-.297.377-.817.377-1.633V25.86h-1.546c-.942 0-1.658.186-2.224.594-.528.408-.943 1.039-1.207 1.892h-.452l.15-3.636h.491c.34.223.83.297 1.508.297h9.916c.679 0 1.207-.111 1.508-.297h.49l.151 3.636h-.452c-.264-.853-.679-1.484-1.207-1.892-.527-.408-1.282-.594-2.224-.594h-1.546v11.577c0 .742.15 1.262.415 1.596.301.297.791.52 1.508.63z"/></g><g><path fill="#fff" d="M110.737 30.202h.49v4.675h-.49c-.189-1.298-.905-1.93-2.112-1.93h-2.714V37.4c0 .668.15 1.15.49 1.448.34.296.867.408 1.621.408h.905c1.508 0 2.564-.928 3.243-2.82h.452l-.264 3.673H100.67v-.445c.754-.148 1.282-.371 1.546-.705.264-.297.377-.89.377-1.744V27.53c0-.705-.15-1.187-.377-1.484-.264-.26-.754-.482-1.546-.63v-.446h11.5v3.34h-.453c-.264-1.002-.565-1.633-.942-2.004-.377-.334-.98-.52-1.81-.52h-2.979v6.234h2.715c.603 0 1.093-.148 1.395-.445.302-.297.49-.668.64-1.373z"/></g></g></g><g><g><g><path fill="#fff" d="M153.3 40.074c1.282-.111 1.96-.742 1.96-1.93v-10.24c0-.706-.15-1.188-.414-1.448s-.792-.482-1.546-.63v-.446h7.315c1.922 0 3.393.334 4.41 1.002 1.019.668 1.547 1.595 1.547 2.783 0 .853-.264 1.595-.792 2.226-.528.63-1.32 1.076-2.3 1.373v.037c.377.074.754.371 1.169.89.415.483 1.018 1.485 1.81 2.932.791 1.41 1.357 2.338 1.696 2.709.34.37.83.63 1.47.705v.445h-4.448c-.566-.668-1.32-1.892-2.225-3.673-.64-1.225-1.093-2.041-1.395-2.45-.302-.408-.603-.704-.942-.853-.34-.148-.98-.26-1.961-.26v4.639c0 .667.15 1.15.452 1.484.302.334.792.52 1.509.63v.446H153.3zm5.316-13.84v6.196c.264 0 .528.037.754.037 1.207 0 2.112-.26 2.677-.779.566-.52.83-1.336.83-2.449.037-2.004-1.056-3.006-3.205-3.006z"/></g><g><path fill="#fff" d="M179.544 40.072c.64-.111 1.093-.26 1.32-.445.263-.186.376-.408.376-.742 0-.26-.113-.631-.301-1.15l-.905-2.338h-5.467l-.754 2.003c-.189.52-.302.928-.302 1.225 0 .668.528 1.15 1.546 1.41v.445h-4.977v-.408a2.506 2.506 0 0 0 1.546-.928c.452-.52.867-1.335 1.32-2.523l4.41-11.651h2.112l4.675 12.097c.415 1.076.83 1.818 1.245 2.263.414.445.942.668 1.62.705v.445h-7.464zm-4.45-5.751h4.563l-2.338-6.123z"/></g><g><path fill="#fff" d="M188.22 40.52v-.446c.792-.148 1.32-.371 1.546-.705.226-.297.377-.78.377-1.447V27.903c0-.705-.15-1.187-.415-1.484-.264-.297-.792-.482-1.508-.594v-.445h8.106c1.66 0 2.941.297 3.884.928.942.63 1.395 1.484 1.395 2.634 0 1.744-1.131 2.932-3.394 3.562v.037c2.904.52 4.374 1.856 4.374 3.97 0 1.188-.452 2.153-1.395 2.895-.98.742-2.187 1.113-3.733 1.113zm5.279-14.287v6.086h1.244c.98 0 1.734-.26 2.3-.817.565-.556.83-1.298.83-2.263 0-2.004-1.132-3.006-3.394-3.006zm.037 6.94v4.637c0 .668.189 1.15.528 1.448.34.296.905.408 1.734.408.98 0 1.735-.297 2.263-.854.565-.556.83-1.335.83-2.337 0-1.002-.302-1.781-.943-2.375-.641-.63-1.509-.928-2.602-.928z"/></g><g><path fill="#fff" d="M204.35 40.52v-.446c.792-.148 1.32-.371 1.546-.705.226-.297.377-.78.377-1.447V27.903c0-.705-.15-1.187-.415-1.484-.264-.297-.792-.482-1.508-.594v-.445h8.106c1.66 0 2.941.297 3.884.928.942.63 1.395 1.484 1.395 2.634 0 1.744-1.131 2.932-3.394 3.562v.037c2.904.52 4.374 1.856 4.374 3.97 0 1.188-.452 2.153-1.395 2.895-.942.742-2.187 1.113-3.733 1.113zm5.316-14.287v6.086h1.244c.98 0 1.735-.26 2.3-.817.566-.556.83-1.298.83-2.263 0-2.004-1.131-3.006-3.393-3.006zm0 6.94v4.637c0 .668.189 1.15.528 1.448.34.296.905.408 1.734.408.98 0 1.735-.297 2.263-.854.565-.556.83-1.335.83-2.337 0-1.002-.302-1.781-.943-2.375-.641-.63-1.509-.928-2.602-.928z"/></g><g><path fill="#fff" d="M227.315 25.377v.445c-.755.186-1.282.409-1.546.668-.264.297-.377.854-.377 1.744v9.685c0 .668.113 1.15.377 1.41s.754.482 1.545.705v.445h-7.276v-.408c.528-.148.942-.297 1.206-.445.264-.149.453-.371.566-.594.113-.26.15-.705.15-1.41v-9.685c0-.667-.113-1.15-.376-1.447-.264-.26-.792-.52-1.584-.705v-.445h7.315z"/></g><g><path fill="#fff" d="M239.458 40.07v.446h-7.202v-.445c.754-.149 1.282-.371 1.546-.668.264-.297.377-.816.377-1.633V26.23h-1.546c-.942 0-1.659.186-2.224.594-.528.408-.943 1.039-1.207 1.892h-.452l.15-3.636h.491c.34.223.83.297 1.508.297h9.916c.679 0 1.207-.111 1.508-.297h.49l.151 3.636h-.452c-.264-.853-.679-1.484-1.207-1.892-.528-.408-1.282-.594-2.224-.594h-1.546v11.577c0 .742.15 1.262.415 1.596.301.297.791.52 1.508.668z"/></g></g></g><g><g><g><path fill="#fff" d="M0 50.98h.679v8.98H0z"/></g><g><path fill="#fff" d="M11.428 50.98v8.98H10.9l-6.221-7.793v7.793H4v-8.98h.566l6.183 7.792V50.98z"/></g><g><path fill="#fff" d="M16.51 51.574h-3.28v-.594h7.24v.594h-3.281v8.386h-.679z"/></g><g><path fill="#fff" d="M28.539 59.366v.594H22.28v-8.98h6.108v.594h-5.467v3.525h4.864v.593H22.92v3.674z"/></g><g><path fill="#fff" d="M37.592 55.508h.641v3.34c-.415.37-.867.668-1.433.853a5.776 5.776 0 0 1-1.81.297c-.904 0-1.734-.186-2.45-.594-.716-.408-1.282-.927-1.697-1.632-.414-.705-.603-1.485-.603-2.338s.189-1.633.603-2.338c.415-.705.98-1.224 1.697-1.632.716-.408 1.546-.594 2.45-.594.68 0 1.283.111 1.848.297.566.222 1.056.52 1.433.927l-.415.446a3.585 3.585 0 0 0-1.282-.817c-.49-.148-.98-.26-1.583-.26a4.44 4.44 0 0 0-2.112.52 3.565 3.565 0 0 0-1.47 1.41 3.978 3.978 0 0 0-.528 2.004c0 .742.188 1.41.528 2.004a4.085 4.085 0 0 0 1.47 1.41 4.44 4.44 0 0 0 2.112.52c1.055 0 1.923-.26 2.601-.817v-3.006z"/></g><g><path fill="#fff" d="M47.654 59.93l-2.187-3.006c-.339.037-.603.074-.867.074H42v2.932h-.679v-8.98h3.28c1.131 0 2.036.26 2.677.816.641.52.98 1.262.98 2.227 0 .705-.188 1.298-.565 1.78-.377.483-.905.817-1.584 1.003l2.263 3.154zm-3.091-3.488c.98 0 1.696-.223 2.224-.631.528-.408.754-1.04.754-1.781 0-.78-.264-1.373-.754-1.781-.528-.408-1.244-.631-2.224-.631H41.96v4.86h2.602z"/></g><g><path fill="#fff" d="M56.484 57.406h-5.279l-1.169 2.524h-.716l4.185-8.98h.679l4.185 8.98h-.716zm-.227-.52l-2.413-5.157-2.375 5.158z"/></g><g><path fill="#fff" d="M61.49 51.574h-3.28v-.594h7.24v.594h-3.281v8.386h-.679z"/></g><g><path fill="#fff" d="M73.527 59.366v.594H67.23v-8.98h6.108v.594h-5.43v3.525h4.864v.593H67.91v3.674z"/></g><g><path fill="#fff" d="M76.12 50.98h3.62c.942 0 1.772.186 2.526.594.716.37 1.32.927 1.696 1.595.415.668.604 1.447.604 2.3 0 .854-.189 1.633-.604 2.301a4.355 4.355 0 0 1-1.696 1.596 5.505 5.505 0 0 1-2.526.594h-3.62zm3.544 8.386c.83 0 1.584-.149 2.225-.482.64-.334 1.13-.78 1.47-1.373.34-.594.528-1.262.528-2.041 0-.742-.189-1.447-.528-2.041-.34-.594-.83-1.039-1.47-1.373-.641-.334-1.395-.482-2.225-.482h-2.903v7.792z"/></g><g><path fill="#fff" d="M100.786 59.93v-7.681l-3.808 6.493h-.339l-3.808-6.456v7.644h-.641v-8.98h.566l4.072 6.939 4.072-6.939h.527v8.98z"/></g><g><path fill="#fff" d="M110.394 57.406h-5.279l-1.169 2.524h-.716l4.185-8.98h.679l4.185 8.98h-.716zm-.227-.52l-2.413-5.157-2.375 5.158z"/></g><g><path fill="#fff" d="M120.464 59.93l-2.187-3.006c-.339.037-.603.074-.867.074h-2.601v2.932h-.679v-8.98h3.28c1.131 0 2.036.26 2.677.816.641.52.98 1.262.98 2.227 0 .705-.188 1.298-.565 1.78-.377.483-.905.817-1.584 1.003l2.263 3.154zm-3.091-3.488c.98 0 1.696-.223 2.224-.631.528-.408.754-1.04.754-1.781 0-.78-.264-1.373-.754-1.781-.528-.408-1.244-.631-2.224-.631h-2.602v4.86h2.601z"/></g><g><path fill="#fff" d="M126.385 55.514l-2.036 2.078v2.338h-.679v-8.98h.679v5.751l5.693-5.751h.792l-3.997 4.082 4.298 4.898h-.791z"/></g><g><path fill="#fff" d="M139.276 59.366v.594h-6.296v-8.98h6.108v.594h-5.43v3.525h4.864v.593h-4.863v3.674z"/></g><g><path fill="#fff" d="M143.61 51.574h-3.28v-.594h7.24v.594h-3.281v8.386h-.679z"/></g><g><path fill="#fff" d="M149.34 50.98h.679v8.98h-.679z"/></g><g><path fill="#fff" d="M160.768 50.98v8.98h-.528l-6.221-7.793v7.793h-.679v-8.98h.566l6.183 7.792V50.98z"/></g><g><path fill="#fff" d="M170.612 55.508h.641v3.34c-.415.37-.867.668-1.433.853a5.776 5.776 0 0 1-1.81.297c-.904 0-1.734-.186-2.45-.594-.716-.408-1.282-.927-1.697-1.632-.414-.705-.603-1.485-.603-2.338s.189-1.633.603-2.338c.415-.705.98-1.224 1.697-1.632.716-.408 1.546-.594 2.45-.594.68 0 1.283.111 1.848.297.566.222 1.056.52 1.433.927l-.415.446a3.585 3.585 0 0 0-1.282-.817c-.49-.148-.98-.26-1.583-.26a4.44 4.44 0 0 0-2.112.52 3.565 3.565 0 0 0-1.47 1.41 3.978 3.978 0 0 0-.528 2.004c0 .742.188 1.41.528 2.004a4.085 4.085 0 0 0 1.47 1.41 4.44 4.44 0 0 0 2.112.52c1.055 0 1.923-.26 2.601-.817v-3.006z"/></g><g><path fill="#fff" d="M179.955 59.664c-.603-.223-1.056-.52-1.395-.89l.302-.483c.339.334.754.594 1.282.816.527.223 1.093.297 1.696.297.867 0 1.508-.148 1.96-.482.453-.334.68-.742.68-1.262 0-.408-.114-.705-.34-.964a2.883 2.883 0 0 0-.867-.557c-.34-.111-.83-.26-1.395-.408a12.527 12.527 0 0 1-1.621-.483 2.496 2.496 0 0 1-1.018-.705c-.264-.333-.415-.742-.415-1.298 0-.445.113-.817.34-1.188.225-.37.603-.668 1.055-.853.49-.223 1.093-.334 1.81-.334.49 0 .98.074 1.47.223.49.148.905.334 1.244.593l-.264.52a3.568 3.568 0 0 0-1.206-.557c-.452-.111-.867-.185-1.282-.185-.83 0-1.47.185-1.923.482-.452.334-.64.78-.64 1.299 0 .408.112.705.339.965.226.222.527.408.867.556.339.111.83.26 1.432.408.68.149 1.207.334 1.584.483.415.148.754.37 1.018.705.264.296.415.742.415 1.261 0 .446-.113.817-.34 1.188-.226.37-.603.63-1.093.853-.49.223-1.093.334-1.81.334a5.453 5.453 0 0 1-1.885-.334z"/></g><g><path fill="#fff" d="M193.876 59.366v.594h-6.296v-8.98h6.108v.594h-5.43v3.525h4.864v.593h-4.863v3.674z"/></g><g><path fill="#fff" d="M202.774 59.93l-2.187-3.006c-.339.037-.603.074-.867.074h-2.601v2.932h-.679v-8.98h3.28c1.131 0 2.036.26 2.677.816.641.52.98 1.262.98 2.227 0 .705-.188 1.298-.565 1.78-.377.483-.905.817-1.584 1.003l2.263 3.154zm-3.054-3.488c.98 0 1.697-.223 2.225-.631.528-.408.754-1.04.754-1.781 0-.78-.264-1.373-.754-1.781-.528-.408-1.244-.631-2.225-.631h-2.601v4.86h2.601z"/></g><g><path fill="#fff" d="M213.253 50.98l-4.072 8.98h-.679l-4.072-8.98h.716l3.695 8.126 3.695-8.126z"/></g><g><path fill="#fff" d="M214.91 50.98h.679v8.98h-.679z"/></g><g><path fill="#fff" d="M220.34 59.404c-.716-.408-1.282-.927-1.697-1.632-.414-.705-.603-1.485-.603-2.338s.189-1.633.603-2.338c.415-.705.98-1.224 1.697-1.632.716-.408 1.508-.594 2.413-.594.64 0 1.282.111 1.81.297a4.13 4.13 0 0 1 1.432.927l-.414.409c-.717-.705-1.66-1.076-2.79-1.076a4.29 4.29 0 0 0-2.074.52 3.565 3.565 0 0 0-1.47 1.41 3.978 3.978 0 0 0-.528 2.003c0 .742.188 1.41.528 2.004.339.593.829 1.076 1.47 1.41a4.4 4.4 0 0 0 2.074.519c1.13 0 2.073-.371 2.79-1.076l.414.408c-.377.408-.867.705-1.432.928a4.896 4.896 0 0 1-1.81.334 3.845 3.845 0 0 1-2.413-.483z"/></g><g><path fill="#fff" d="M234.667 59.366v.594h-6.297v-8.98h6.108v.594h-5.43v3.525h4.864v.593h-4.863v3.674z"/></g><g><path fill="#fff" d="M237.755 59.664c-.603-.223-1.056-.52-1.395-.89l.302-.483c.339.334.754.594 1.282.816.527.223 1.093.297 1.696.297.867 0 1.508-.148 1.96-.482.453-.334.68-.742.68-1.262 0-.408-.114-.705-.34-.964a2.883 2.883 0 0 0-.867-.557c-.34-.111-.83-.26-1.395-.408a12.527 12.527 0 0 1-1.621-.483 2.496 2.496 0 0 1-1.018-.705c-.264-.333-.415-.742-.415-1.298 0-.445.113-.817.34-1.188.225-.37.603-.668 1.055-.853.49-.223 1.093-.334 1.81-.334.49 0 .98.074 1.47.223.49.148.905.334 1.244.593l-.264.52a3.568 3.568 0 0 0-1.206-.557c-.452-.111-.867-.185-1.282-.185-.83 0-1.47.185-1.923.482-.452.334-.64.78-.64 1.299 0 .408.112.705.339.965.226.222.527.408.867.556.339.111.83.26 1.432.408.68.149 1.207.334 1.584.483.415.148.754.37 1.018.705.264.296.415.742.415 1.261 0 .446-.113.817-.34 1.188-.226.37-.603.63-1.093.853-.49.223-1.093.334-1.81.334a5.453 5.453 0 0 1-1.885-.334z"/></g></g></g><g><path fill="#fff" d="M132.303 19.815c.038-.111-1.206-4.378-1.357-7.458-.151-3.08-.113-7.459.452-7.83.566-.37 1.584 2.078 2.376 4.787.83 2.709 1.734 5.084 2.79 6.642 1.055 1.558 1.923 3.006 2.337 4.007.415 1.002.49 1.633.377 1.559-.113-.074-1.13-.445-2.3-.742-1.168-.297-3.016-.483-3.544-.594-.49-.148-1.13-.371-1.13-.371z"/></g><g><path fill="#fff" d="M136.9 31.654c.114 0 .19-.074.19-.148 0-.112-.076-.186-.152-.186-.113 0-.188.074-.188.148-.038.112.038.186.15.186z"/></g><g><path fill="#fff" d="M138.032 31.46c.188 0 .339-.11.339-.296s-.113-.334-.302-.334c-.188 0-.339.111-.339.297 0 .148.113.334.302.334z"/></g><g><g><path fill="#fff" d="M145.162 40.851c-.114.074-.227.111-.302.186a2.477 2.477 0 0 0-.792-.26c-.34-.037-.679 0-1.056-.111-.339-.075-.678-.26-.98-.408-.113-.038-.452.037-.34.185.642.89 1.848.705 2.79 1.002a.747.747 0 0 0 0 .408c.114.445-.49.742-1.583 1.558-1.093.817-2.45-.222-3.544-.779-1.093-.556-1.923-.705-4.788-1.298-2.187-.446-3.167-1.002-4.374-1.819a45.09 45.09 0 0 1 8.069-.853c.113 0 .415-.148.15-.148-2.79.074-5.617.37-8.37.927-.377-.26-.754-.556-1.206-.853-2.036-1.41-2.187-2.152-3.016-4.75-.83-2.597.64-3.822.603-4.786-.038-.965-1.923-2.672-4.26-4.602-2.376-1.93-4.11-6.419-5.166-9.462-1.056-3.08-1.47-13.21-1.131-14.62.34-1.41 2.3 1.967 3.054 3.08.754 1.114 2.187 3.266 4.034 5.38 1.848 2.116 3.13 3.823 4.6 5.344 1.47 1.522 2.564 4.638 3.054 5.937.49 1.299.867 2.857 1.093 3.896.227 1.04.377.854.453.705.113-.148-.189-1.41-.302-1.855-.113-.445-.716-2.375-.716-2.375s.867 0 5.655.705c4.789.705 5.166 2.078 7.013 4.342 1.848 2.226 1.508 3.747 1.66 4.23.15.482.075 1.335-.378 2.152-.452.816-.075.63.113 1.373.189.705.83 1.632.943 2.857.113.965-.226 1.484-.377 1.67-.453 0-.792-.186-1.131-.372-.076-.074-.113-.148-.189-.185a1.794 1.794 0 0 0-.565-.223c-.227-.074-.528-.074-.717.037-.113.038-.188.112-.113.223.038.037.189.074.264.074.189.186.83.186.98.26h.038c.038 0 .113.037.15.074.416.186.83.26 1.245.186.113.26.377 1.002.49 1.558.151.668-.452 1.076-1.055 1.41zm-16.175-17.55c0 .11.377.036.377-.112-.151-3.562-2.3-6.53-4.826-8.906-1.32-1.261-2.753-2.411-4.148-3.599a51.625 51.625 0 0 1-2.111-1.93c-.641-.63-1.66-1.446-1.508-2.448.037-.149-.34-.112-.377.037-.113.779.377 1.336.867 1.892.64.668 1.32 1.336 2.036 1.967 1.433 1.261 2.94 2.449 4.336 3.748 2.715 2.486 5.165 5.565 5.354 9.35zm10.029 13.988c-2.15-.074-4.336-.185-6.485-.26-.189 0-.415.26-.151.26 2.15.074 4.336.185 6.485.26.15 0 .377-.223.15-.26zm1.018-.63a62.872 62.872 0 0 0-10.859-1.3c-.113 0-.415.186-.15.186 3.619.111 7.238.52 10.783 1.262.113.037.452-.149.226-.149zm-2.715-4.416c.754.074 1.395-.446 1.47-1.15v-.186a7.684 7.684 0 0 0-2.45-.631c-.113.148-.15.334-.189.557-.075.705.453 1.335 1.17 1.41zm2.753-2.227c-1.132-.927-2.602-1.335-4.072-1.187-.114.037-.415.185-.151.185 1.169 0 2.3.223 3.242.854-.075.037-.113.074-.075.111.264.26.679.854 1.131.668.377-.148.15-.408-.075-.63z"/></g><g><path fill="#fff" d="M127.962 39.852c-.226.037-.189.186.038.112.754-.186 1.47-.334 2.224-.483-.037-.037-.113-.074-.15-.111-.717.148-1.396.297-2.112.482z"/></g></g></g></g></svg>