<svg width="287" height="81" viewBox="0 0 287 81" fill="none" xmlns="http://www.w3.org/2000/svg">
<g clip-path="url(#clip0)">
<path d="M123.294 8.46191H122.429V79.2357H123.294V8.46191Z" fill="#F18B2A"/>
<path d="M143.613 5.19942C143.335 5.4773 142.996 5.61646 142.598 5.61646C142.2 5.61646 141.862 5.4773 141.583 5.19942C141.305 4.92154 141.165 4.57064 141.165 4.14673C141.165 3.72368 141.305 3.37235 141.583 3.09404C141.862 2.81616 142.2 2.677 142.598 2.677C142.996 2.677 143.335 2.81616 143.613 3.09404C143.892 3.37192 144.031 3.72325 144.031 4.14673C144.031 4.57064 143.892 4.92111 143.613 5.19942ZM141.722 8.51554H143.314V24.7204H141.722V8.51554Z" fill="white"/>
<path d="M149.047 24.7203V8.51548H150.639V11.0572C151.727 9.12494 153.386 8.15771 155.615 8.15771C157.631 8.15771 159.131 8.91234 160.113 10.4216C160.644 11.2694 160.91 12.6326 160.91 14.5125V24.7199H159.318V14.5129C159.318 13.0037 159.105 11.9184 158.68 11.2561C158.043 10.1974 156.982 9.66739 155.496 9.66739C153.691 9.66739 152.364 10.422 151.515 11.9312C150.931 12.9638 150.64 14.4206 150.64 16.3001V24.7203H149.047Z" fill="white"/>
<path d="M171.179 10.0249H168.353V24.7205H166.76V10.0249H164.969V8.51564H166.76V2.71704H168.353V8.51564H171.179V10.0249Z" fill="white"/>
<path d="M188.893 16.8169H175C175 18.8295 175.63 20.471 176.891 21.7419C178.151 23.0127 179.671 23.6484 181.449 23.6484C182.723 23.6484 183.851 23.3108 184.832 22.6356C185.814 21.9605 186.57 21.0667 187.101 19.9547L188.455 20.7489C187.844 21.9145 186.955 22.9402 185.788 23.8271C184.619 24.7144 183.134 25.1576 181.329 25.1576C178.861 25.1576 176.91 24.3571 175.477 22.7546C174.044 21.153 173.328 19.134 173.328 16.6979C173.328 14.0239 174.104 11.9318 175.656 10.4226C177.209 8.91331 179.06 8.15869 181.21 8.15869C183.412 8.15869 185.243 8.96657 186.703 10.5815C188.163 12.1964 188.893 14.2747 188.893 16.8169ZM175.12 15.3076H187.221C187.008 13.6661 186.352 12.3158 185.25 11.2566C184.149 10.1979 182.802 9.66793 181.21 9.66793C179.591 9.66793 178.224 10.2039 177.11 11.2764C175.995 12.3484 175.332 13.6927 175.12 15.3076Z" fill="white"/>
<path d="M206.965 8.51548H208.557V24.2436C208.557 27.2882 207.834 29.6513 206.388 31.3332C204.941 33.0142 202.944 33.8552 200.397 33.8552C198.193 33.8552 196.342 33.2397 194.844 32.0084C193.344 30.777 192.541 29.0754 192.435 26.9047H194.107C194.24 28.5729 194.883 29.8966 196.038 30.8762C197.192 31.8555 198.645 32.346 200.397 32.346C201.591 32.346 202.632 32.1076 203.521 31.6308C204.41 31.1541 205.067 30.6112 205.492 30.0026C205.916 29.3932 206.248 28.6523 206.487 27.7783C206.726 26.9047 206.865 26.2291 206.905 25.7528C206.945 25.2765 206.965 24.7727 206.965 24.2436V21.9397C205.425 24.0846 203.289 25.1567 200.556 25.1567C198.406 25.1567 196.535 24.402 194.943 22.8928C193.351 21.3836 192.555 19.2923 192.555 16.6175C192.555 14.2084 193.297 12.1958 194.784 10.5805C196.27 8.96559 198.261 8.15771 200.755 8.15771C203.409 8.15771 205.479 9.21685 206.965 11.3351V8.51548H206.965ZM205.273 11.6534C204.092 10.3297 202.533 9.66739 200.596 9.66739C198.658 9.66739 197.112 10.3494 195.958 11.7126C194.804 13.0767 194.226 14.738 194.226 16.6973C194.226 18.6833 194.804 20.3382 195.958 21.6619C197.113 22.986 198.631 23.6478 200.516 23.6478C202.48 23.6478 204.059 22.9727 205.253 21.6224C206.448 20.272 207.044 18.5777 207.044 16.5384C207.044 14.6061 206.454 12.9775 205.273 11.6534Z" fill="white"/>
<path d="M214.29 24.7204V8.51554H215.882V10.6205C216.599 8.97897 217.793 8.1582 219.465 8.1582C220.102 8.1582 220.672 8.29092 221.176 8.55549L220.38 9.98527C220.088 9.77353 219.689 9.66745 219.186 9.66745C218.416 9.66745 217.785 9.88606 217.295 10.3229C216.803 10.7596 216.472 11.3691 216.299 12.1499C216.126 12.9312 216.014 13.5866 215.961 14.1161C215.908 14.6461 215.881 15.2818 215.881 16.0227V24.7208H214.29V24.7204Z" fill="white"/>
<path d="M237.419 11.3356V8.51554H239.011V24.7204H237.419V21.8208C235.959 24.0452 233.849 25.1571 231.089 25.1571C228.886 25.1571 227.015 24.3763 225.476 22.8138C223.937 21.2518 223.167 19.1863 223.167 16.6179C223.167 14.1028 223.897 12.064 225.356 10.5015C226.816 8.93945 228.727 8.1582 231.089 8.1582C233.796 8.1582 235.906 9.21776 237.419 11.3356ZM231.169 9.66744C229.443 9.66744 227.957 10.2829 226.71 11.5143C225.463 12.7456 224.839 14.4073 224.839 16.499C224.839 18.4321 225.41 20.1072 226.551 21.5232C227.692 22.9401 229.244 23.6479 231.209 23.6479C233.146 23.6479 234.678 22.953 235.807 21.5627C236.934 20.1724 237.498 18.4845 237.498 16.4985C237.498 14.3013 236.848 12.6129 235.548 11.4344C234.247 10.2571 232.787 9.66744 231.169 9.66744Z" fill="white"/>
<path d="M249.281 10.0249H246.454V24.7205H244.862V10.0249H243.071V8.51564H244.862V2.71704H246.454V8.51564H249.281V10.0249Z" fill="white"/>
<path d="M266.995 16.8169H253.102C253.102 18.8295 253.732 20.471 254.993 21.7419C256.253 23.0127 257.772 23.6484 259.551 23.6484C260.824 23.6484 261.952 23.3108 262.934 22.6356C263.916 21.9605 264.672 21.0667 265.203 19.9547L266.556 20.7489C265.946 21.9145 265.057 22.9402 263.889 23.8271C262.721 24.7144 261.235 25.1576 259.431 25.1576C256.963 25.1576 255.012 24.3571 253.579 22.7546C252.146 21.153 251.429 19.134 251.429 16.6979C251.429 14.0239 252.205 11.9318 253.758 10.4226C255.311 8.91331 257.162 8.15869 259.311 8.15869C261.514 8.15869 263.345 8.96657 264.805 10.5815C266.264 12.1964 266.995 14.2747 266.995 16.8169ZM253.221 15.3076H265.322C265.11 13.6661 264.453 12.3158 263.352 11.2566C262.25 10.1979 260.904 9.66793 259.312 9.66793C257.693 9.66793 256.326 10.2039 255.211 11.2764C254.097 12.3488 253.433 13.6927 253.221 15.3076Z" fill="white"/>
<path d="M284.907 11.3356L284.926 2.86084H286.439L286.5 24.7204H284.907V21.8209C283.448 24.0452 281.351 25.1572 278.618 25.1572C276.415 25.1572 274.537 24.3965 272.985 22.8735C271.432 21.3514 270.656 19.2396 270.656 16.5385C270.656 13.785 271.439 11.6998 273.005 10.2829C274.571 8.86688 276.441 8.15822 278.618 8.15822C281.325 8.15822 283.421 9.21778 284.907 11.3356ZM278.618 9.66746C276.84 9.66746 275.347 10.2632 274.14 11.4546C272.932 12.646 272.328 14.3279 272.328 16.4986C272.328 18.7495 272.952 20.504 274.199 21.7612C275.446 23.0191 276.946 23.6479 278.697 23.6479C280.422 23.6479 281.902 23.0191 283.136 21.7612C284.37 20.504 284.987 18.7495 284.987 16.4986C284.987 14.5392 284.416 12.911 283.276 11.6135C282.134 10.3169 280.581 9.66746 278.618 9.66746Z" fill="white"/>
<path d="M141.722 52.3639V36.1591H143.314V38.1846C144.243 36.5959 145.649 35.8018 147.534 35.8018C149.816 35.8018 151.329 36.7819 152.072 38.7408C153.001 36.7814 154.606 35.8018 156.889 35.8018C158.428 35.8018 159.648 36.2523 160.551 37.1521C161.48 38.0794 161.944 39.5487 161.944 41.5608V52.3639H160.352V41.5608C160.352 39.9988 160.034 38.8868 159.397 38.2245C158.813 37.6159 158.004 37.311 156.969 37.311C156.172 37.311 155.476 37.4699 154.879 37.7877C154.282 38.1056 153.844 38.4629 153.565 38.8602C153.286 39.2575 153.074 39.7475 152.928 40.3299C152.781 40.9127 152.695 41.3495 152.669 41.6407C152.642 41.9324 152.629 42.2502 152.629 42.5938V52.3643H151.037V41.9577C151.037 38.8598 149.843 37.3106 147.454 37.3106C146.101 37.3106 145.072 37.8337 144.369 38.8795C143.666 39.9258 143.314 41.2963 143.314 42.9902V52.3635H141.722V52.3639Z" fill="white"/>
<path d="M180.893 38.9792V36.1591H182.486V52.3639H180.893V49.4644C179.434 51.6887 177.324 52.8007 174.564 52.8007C172.36 52.8007 170.49 52.0199 168.951 50.4574C167.411 48.8953 166.642 46.8299 166.642 44.2615C166.642 41.7464 167.371 39.7076 168.831 38.1451C170.29 36.583 172.201 35.8018 174.563 35.8018C177.27 35.8018 179.381 36.8609 180.893 38.9792ZM174.643 37.311C172.918 37.311 171.432 37.9265 170.185 39.1578C168.937 40.3892 168.314 42.0509 168.314 44.1425C168.314 46.0757 168.884 47.7507 170.026 49.1668C171.166 50.5837 172.719 51.2915 174.683 51.2915C176.62 51.2915 178.153 50.5965 179.281 49.2063C180.409 47.816 180.973 46.1281 180.973 44.1421C180.973 41.9448 180.322 40.2565 179.022 39.0779C177.722 37.9003 176.262 37.311 174.643 37.311Z" fill="white"/>
<path d="M188.217 52.3639V36.1591H189.81V38.264C190.526 36.6225 191.72 35.8018 193.392 35.8018C194.029 35.8018 194.6 35.9345 195.104 36.199L194.308 37.6288C194.015 37.4171 193.617 37.311 193.113 37.311C192.343 37.311 191.714 37.5296 191.222 37.9664C190.731 38.4032 190.399 39.0127 190.227 39.7935C190.054 40.5747 189.942 41.2301 189.889 41.7597C189.835 42.2897 189.809 42.9254 189.809 43.6662V52.3643H188.217V52.3639Z" fill="white"/>
<path d="M198.503 34.7537L200.175 34.9126L200.159 43.1095L206.847 36.159H208.917L202.07 43.1889L211.146 52.3638H208.997L200.995 44.3408L200.159 45.1749V52.3638H198.567L198.503 34.7537Z" fill="white"/>
<path d="M227.627 44.4599H213.734C213.734 46.4725 214.365 48.1141 215.625 49.3849C216.885 50.6558 218.405 51.2915 220.183 51.2915C221.457 51.2915 222.585 50.9539 223.567 50.2787C224.548 49.6036 225.305 48.7098 225.836 47.5978L227.189 48.392C226.578 49.5576 225.689 50.5832 224.522 51.4701C223.354 52.3575 221.868 52.8007 220.064 52.8007C217.596 52.8007 215.645 52.0001 214.212 50.3977C212.779 48.7961 212.062 46.7771 212.062 44.341C212.062 41.6669 212.838 39.5749 214.391 38.0656C215.944 36.5564 217.795 35.8018 219.944 35.8018C222.146 35.8018 223.978 36.6096 225.438 38.2245C226.897 39.8399 227.627 41.9182 227.627 44.4599ZM213.854 42.9507H225.955C225.742 41.3092 225.086 39.9588 223.985 38.8997C222.883 37.841 221.537 37.311 219.944 37.311C218.325 37.311 216.959 37.847 215.844 38.9195C214.73 39.9919 214.066 41.3362 213.854 42.9507Z" fill="white"/>
<path d="M236.862 37.6682H234.035V52.3638H232.443V37.6682H230.652V36.159H232.443V30.3604H234.035V36.159H236.862V37.6682Z" fill="white"/>
<path d="M241.857 32.8425C241.579 33.1204 241.24 33.2595 240.842 33.2595C240.444 33.2595 240.106 33.1204 239.827 32.8425C239.549 32.5646 239.409 32.2137 239.409 31.7898C239.409 31.3667 239.549 31.0154 239.827 30.7371C240.106 30.4588 240.444 30.3201 240.842 30.3201C241.24 30.3201 241.579 30.4592 241.857 30.7371C242.136 31.015 242.275 31.3663 242.275 31.7898C242.275 32.2141 242.136 32.5646 241.857 32.8425ZM240.046 36.159H241.638V52.3639H240.046V36.159Z" fill="white"/>
<path d="M247.371 52.3638V36.159H248.963V38.7008C250.051 36.7685 251.71 35.8013 253.939 35.8013C255.955 35.8013 257.455 36.5559 258.437 38.0651C258.968 38.913 259.234 40.2762 259.234 42.1561V52.3634H257.641V42.1565C257.641 40.6472 257.429 39.5619 257.004 38.8996C256.367 37.8409 255.305 37.3109 253.82 37.3109C252.015 37.3109 250.688 38.0656 249.839 39.5748C249.255 40.6073 248.963 42.0641 248.963 43.9436V52.3638H247.371Z" fill="white"/>
<path d="M278.34 36.159H279.933V51.8871C279.933 54.9318 279.209 57.2949 277.763 58.9768C276.316 60.6578 274.32 61.4988 271.772 61.4988C269.569 61.4988 267.718 60.8833 266.219 59.6519C264.719 58.4206 263.916 56.7189 263.811 54.5483H265.483C265.615 56.2164 266.259 57.5401 267.413 58.5198C268.568 59.499 270.021 59.9895 271.772 59.9895C272.966 59.9895 274.008 59.7511 274.897 59.2744C275.786 58.7977 276.443 58.2548 276.867 57.6462C277.291 57.0367 277.624 56.2959 277.862 55.4218C278.101 54.5483 278.24 53.8727 278.28 53.3963C278.32 52.9196 278.34 52.4162 278.34 51.8871V49.5833C276.801 51.7282 274.664 52.8002 271.931 52.8002C269.782 52.8002 267.911 52.0456 266.318 50.5364C264.726 49.0271 263.93 46.9359 263.93 44.261C263.93 41.852 264.673 39.8394 266.16 38.224C267.646 36.6091 269.636 35.8013 272.131 35.8013C274.784 35.8013 276.854 36.8604 278.341 38.9787V36.159H278.34ZM276.648 39.2965C275.467 37.9728 273.908 37.3105 271.971 37.3105C270.033 37.3105 268.487 37.9925 267.333 39.3558C266.179 40.7198 265.601 42.3811 265.601 44.3405C265.601 46.3265 266.179 47.9813 267.333 49.305C268.488 50.6291 270.006 51.291 271.891 51.291C273.855 51.291 275.434 50.6158 276.628 49.2655C277.822 47.9152 278.42 46.2208 278.42 44.1816C278.42 42.2493 277.829 40.6211 276.648 39.2965Z" fill="white"/>
<path d="M150.002 66.0665L148.649 66.7816C148.118 65.564 147.176 64.9546 145.823 64.9546C144.973 64.9546 144.303 65.2196 143.812 65.7487C143.321 66.2787 143.076 66.8744 143.076 67.5358C143.076 68.0392 143.221 68.4691 143.513 68.8265C143.805 69.1838 144.111 69.4488 144.429 69.6206C144.748 69.7932 145.251 70.0114 145.942 70.276C146.048 70.3026 146.306 70.4018 146.718 70.5741C147.129 70.7467 147.401 70.8588 147.534 70.9117C147.667 70.9649 147.899 71.0641 148.231 71.2097C148.562 71.3557 148.808 71.4876 148.967 71.607C149.126 71.726 149.318 71.8789 149.544 72.0636C149.77 72.2491 149.962 72.4475 150.122 72.6593C150.679 73.3482 150.958 74.2218 150.958 75.2805C150.958 77.0019 150.433 78.2929 149.385 79.1528C148.336 80.0131 147.096 80.4434 145.663 80.4434C144.283 80.4434 143.089 80.0595 142.08 79.2915C141.071 78.524 140.395 77.4782 140.05 76.1536L141.603 75.6769C141.868 76.7094 142.379 77.5108 143.135 78.0799C143.892 78.6494 144.734 78.9337 145.663 78.9337C146.698 78.9337 147.56 78.5962 148.251 77.921C148.94 77.2458 149.286 76.392 149.286 75.3591C149.286 74.5121 149.02 73.8567 148.49 73.3928C147.959 72.9298 147.017 72.4196 145.663 71.8638C143.805 71.0963 142.624 70.3812 142.12 69.7189C141.643 69.0833 141.404 68.3824 141.404 67.614C141.404 66.3964 141.815 65.3965 142.638 64.6153C143.46 63.8344 144.495 63.4436 145.743 63.4436C147.839 63.4449 149.259 64.3189 150.002 66.0665Z" fill="white"/>
<path d="M169.548 72.1035H155.655C155.655 74.1161 156.285 75.7576 157.546 77.0285C158.806 78.2994 160.325 78.935 162.104 78.935C163.377 78.935 164.505 78.5974 165.487 77.9223C166.469 77.2471 167.225 76.3533 167.756 75.2414L169.11 76.0355C168.499 77.2012 167.61 78.2268 166.442 79.1137C165.274 80.001 163.789 80.4443 161.984 80.4443C159.516 80.4443 157.565 79.6437 156.132 78.0412C154.699 76.4397 153.982 74.4206 153.982 71.9845C153.982 69.3105 154.759 67.2184 156.311 65.7092C157.864 64.1999 159.715 63.4453 161.864 63.4453C164.067 63.4453 165.898 64.2532 167.358 65.8681C168.818 67.483 169.548 69.5613 169.548 72.1035ZM155.774 70.5942H167.876C167.663 68.9527 167.006 67.6024 165.905 66.5433C164.804 65.4846 163.457 64.9546 161.865 64.9546C160.246 64.9546 158.879 65.4906 157.765 66.563C156.65 67.6355 155.986 68.9793 155.774 70.5942Z" fill="white"/>
<path d="M174.245 80.007V63.8022H175.837V65.9071C176.554 64.2656 177.748 63.4448 179.42 63.4448C180.057 63.4448 180.628 63.5775 181.132 63.8421L180.335 65.2719C180.043 65.0602 179.645 64.9541 179.141 64.9541C178.371 64.9541 177.741 65.1727 177.25 65.6095C176.759 66.0463 176.427 66.6557 176.255 67.4365C176.082 68.2178 175.97 68.8732 175.917 69.4028C175.863 69.9328 175.837 70.5684 175.837 71.3093V80.0074H174.245V80.007Z" fill="white"/>
<path d="M182.445 63.8025H184.196L189.929 77.2667L195.581 63.8025H197.333L189.929 81.0003L182.445 63.8025Z" fill="white"/>
<path d="M202.409 60.2478C202.13 60.5256 201.792 60.6648 201.393 60.6648C200.995 60.6648 200.657 60.5256 200.378 60.2478C200.1 59.9699 199.96 59.619 199.96 59.1951C199.96 58.772 200.1 58.4207 200.378 58.1424C200.657 57.8645 200.995 57.7253 201.393 57.7253C201.792 57.7253 202.13 57.8645 202.409 58.1424C202.687 58.4203 202.827 58.7716 202.827 59.1951C202.827 59.619 202.687 59.9699 202.409 60.2478ZM200.517 63.8027H202.11V80.0075H200.517V63.8027Z" fill="white"/>
<path d="M220.859 65.5103V67.6152C219.32 65.8414 217.449 64.9541 215.247 64.9541C213.282 64.9541 211.664 65.6232 210.39 66.9598C209.116 68.2973 208.479 69.9723 208.479 71.984C208.479 74.1556 209.156 75.8564 210.509 77.0877C211.863 78.3191 213.415 78.9345 215.167 78.9345C217.317 78.9345 219.28 77.9682 221.058 76.035V78.1799C219.36 79.6892 217.383 80.4438 215.127 80.4438C212.685 80.4438 210.688 79.6432 209.136 78.0408C207.583 76.4392 206.807 74.4334 206.807 72.0235C206.807 69.5613 207.576 67.5156 209.116 65.8874C210.655 64.2591 212.699 63.4448 215.247 63.4448C217.343 63.4448 219.214 64.1337 220.859 65.5103Z" fill="white"/>
<path d="M239.966 72.1035H226.073C226.073 74.1161 226.703 75.7576 227.964 77.0285C229.224 78.2994 230.744 78.935 232.522 78.935C233.796 78.935 234.924 78.5974 235.906 77.9223C236.887 77.2471 237.643 76.3533 238.175 75.2414L239.528 76.0355C238.917 77.2012 238.028 78.2268 236.861 79.1137C235.693 80.001 234.207 80.4443 232.402 80.4443C229.935 80.4443 227.984 79.6437 226.551 78.0412C225.118 76.4397 224.401 74.4206 224.401 71.9845C224.401 69.3105 225.177 67.2184 226.73 65.7092C228.282 64.1999 230.133 63.4453 232.283 63.4453C234.485 63.4453 236.316 64.2532 237.777 65.8681C239.236 67.483 239.966 69.5613 239.966 72.1035ZM226.193 70.5942H238.294C238.082 68.9527 237.425 67.6024 236.324 66.5433C235.223 65.4846 233.876 64.9546 232.284 64.9546C230.665 64.9546 229.298 65.4906 228.183 66.563C227.069 67.6355 226.405 68.9793 226.193 70.5942Z" fill="white"/>
<path d="M252.943 66.0665L251.589 66.7816C251.058 65.564 250.116 64.9546 248.763 64.9546C247.913 64.9546 247.243 65.2196 246.753 65.7487C246.261 66.2787 246.016 66.8744 246.016 67.5358C246.016 68.0392 246.162 68.4691 246.454 68.8265C246.746 69.1838 247.051 69.4488 247.37 69.6206C247.688 69.7932 248.192 70.0114 248.882 70.276C248.988 70.3026 249.247 70.4018 249.658 70.5741C250.069 70.7467 250.341 70.8588 250.475 70.9117C250.607 70.9649 250.839 71.0641 251.171 71.2097C251.502 71.3557 251.748 71.4876 251.908 71.607C252.067 71.726 252.259 71.8789 252.485 72.0636C252.71 72.2491 252.903 72.4475 253.062 72.6593C253.62 73.3482 253.898 74.2218 253.898 75.2805C253.898 77.0019 253.374 78.2929 252.326 79.1528C251.277 80.0131 250.037 80.4434 248.604 80.4434C247.224 80.4434 246.029 80.0595 245.021 79.2915C244.012 78.524 243.335 77.4782 242.991 76.1536L244.543 75.6769C244.809 76.7094 245.32 77.5108 246.076 78.0799C246.832 78.6494 247.674 78.9337 248.604 78.9337C249.639 78.9337 250.501 78.5962 251.191 77.921C251.881 77.2458 252.226 76.392 252.226 75.3591C252.226 74.5121 251.961 73.8567 251.43 73.3928C250.899 72.9298 249.957 72.4196 248.603 71.8638C246.745 71.0963 245.564 70.3812 245.06 69.7189C244.583 69.0833 244.344 68.3824 244.344 67.614C244.344 66.3964 244.755 65.3965 245.578 64.6153C246.4 63.8344 247.435 63.4436 248.683 63.4436C250.78 63.4449 252.2 64.3189 252.943 66.0665Z" fill="white"/>
<path d="M200.016 31.4601L198.463 31.223L198.423 30.2712H200.017L200.016 31.4601Z" fill="white"/>
<path d="M62.3391 24.2776C61.6478 24.5795 60.9082 24.8514 60.1196 25.094C59.331 25.3367 58.3702 25.4578 57.2359 25.4578C55.551 25.4578 54.3014 25.0485 53.486 24.2312C52.6703 23.413 52.2622 22.2452 52.2622 20.7274V10.8134H49.3462V9.05157H52.3272V4.15405H57.576V9.05157H62.1282V10.8134H57.6082V19.6592C57.6082 20.9185 57.7843 21.8114 58.1369 22.3388C58.489 22.8658 59.1201 23.13 60.0305 23.13C60.3232 23.13 60.7292 23.1085 61.25 23.0651C61.7696 23.0222 62.1329 22.9736 62.3387 22.9195V24.2776H62.3391Z" fill="white"/>
<path d="M84.5335 25.021H74.797V23.8412C75.0131 23.8197 75.2667 23.7927 75.5585 23.7605C75.85 23.7283 76.0661 23.6741 76.2064 23.599C76.4332 23.4804 76.593 23.3082 76.6846 23.0819C76.7759 22.8555 76.822 22.5218 76.822 22.0799V14.5148C76.822 13.4049 76.614 12.5752 76.1986 12.0254C75.7828 11.4757 75.1909 11.2012 74.4242 11.2012C73.992 11.2012 73.5904 11.2661 73.218 11.3953C72.8453 11.5246 72.4802 11.7132 72.1238 11.961C71.8104 12.1766 71.5594 12.3973 71.3709 12.6237C71.1819 12.85 71.0222 13.0497 70.8926 13.2215V21.9012C70.8926 22.2998 70.9413 22.615 71.0386 22.8469C71.1358 23.0789 71.3192 23.27 71.5896 23.4207C71.7514 23.5178 71.9649 23.6041 72.2301 23.6793C72.4949 23.7549 72.7506 23.8086 72.9989 23.8408V25.0206H63.1166V23.8412C63.3994 23.8197 63.674 23.7927 63.9405 23.7605C64.2061 23.7283 64.4428 23.6741 64.6499 23.599C64.9977 23.4697 65.2341 23.2837 65.3589 23.0415C65.4837 22.7988 65.5462 22.4784 65.5462 22.0799V4.057C65.5462 3.71212 65.4652 3.34576 65.3029 2.95793C65.1411 2.57009 64.9142 2.2789 64.6224 2.08519C64.4063 1.94518 64.0933 1.8348 63.6826 1.75405C63.2724 1.67331 62.9052 1.6222 62.5811 1.60029V0.420045L70.6498 0L70.8931 0.258555V11.379H70.9581C71.3679 11.0131 71.7372 10.6815 72.0661 10.3852C72.3954 10.0888 72.7975 9.78989 73.2714 9.48795C73.6705 9.2294 74.1905 9.00864 74.8319 8.82524C75.4742 8.64185 76.1668 8.55037 76.9111 8.55037C78.6584 8.55037 79.9717 9.05159 80.8503 10.0536C81.7289 11.0556 82.1684 12.3759 82.1684 14.0135V21.9338C82.1684 22.3324 82.2278 22.6507 82.3467 22.8873C82.4655 23.1244 82.6867 23.3134 83.0109 23.453C83.2055 23.5393 83.4211 23.6144 83.6587 23.6793C83.8964 23.7442 84.1878 23.7983 84.5335 23.8408V25.021Z" fill="white"/>
<path d="M103.439 21.1581C103.061 21.7723 102.605 22.3516 102.071 22.8958C101.536 23.44 100.928 23.906 100.248 24.2938C99.5239 24.7035 98.7921 25.0132 98.053 25.2232C97.313 25.4333 96.4619 25.5385 95.5007 25.5385C93.9024 25.5385 92.5227 25.3121 91.3622 24.8595C90.2012 24.4068 89.2421 23.7982 88.4862 23.0328C87.7303 22.2679 87.1663 21.3655 86.794 20.3253C86.4212 19.2855 86.2344 18.1568 86.2344 16.9392C86.2344 15.8401 86.4376 14.787 86.8426 13.7794C87.2477 12.7718 87.8224 11.8746 88.5675 11.0882C89.3019 10.3232 90.2287 9.7039 91.3462 9.22931C92.4642 8.75515 93.7138 8.51807 95.0961 8.51807C96.6079 8.51807 97.8502 8.70146 98.8222 9.06782C99.7942 9.43418 100.599 9.94055 101.236 10.5874C101.851 11.2015 102.3 11.9265 102.581 12.7615C102.861 13.5964 103.002 14.4726 103.002 15.3878V16.4384H92.0505C92.0505 18.6473 92.4771 20.3283 93.3303 21.4815C94.1835 22.6347 95.539 23.2111 97.3965 23.2111C98.4116 23.2111 99.3241 22.934 100.134 22.3787C100.944 21.8238 101.635 21.1207 102.208 20.2695L103.439 21.1581ZM97.2506 15.0159C97.2506 14.3695 97.2183 13.7068 97.1533 13.0278C97.0883 12.3487 96.9751 11.7938 96.8132 11.363C96.6294 10.8567 96.3784 10.474 96.0603 10.2154C95.7418 9.95687 95.3388 9.82759 94.8528 9.82759C94.0212 9.82759 93.357 10.2476 92.8602 11.0882C92.3634 11.9287 92.0935 13.2597 92.05 15.0807L97.2506 15.0159Z" fill="white"/>
<path d="M37.8442 37.2011C37.3474 37.2767 36.8885 37.4412 36.4671 37.6942C36.0461 37.9476 35.6896 38.4192 35.3978 39.1085C34.6419 40.951 34.0371 42.4384 33.5833 43.5697C33.1296 44.7009 32.4925 46.3334 31.6716 48.4672C31.499 48.9091 31.2915 49.5177 31.0483 50.2938C30.8051 51.0695 30.6131 51.7056 30.4728 52.2012H27.3062L23.227 41.1971L19.4036 52.2012H16.2814C15.1906 49.2596 14.3318 46.9781 13.7054 45.3559C13.0791 43.7341 12.2418 41.5927 11.1945 38.9311C10.9999 38.4247 10.6684 38.0262 10.1988 37.735C9.72915 37.4442 9.2453 37.2664 8.74854 37.2015V36.0217H18.6955V37.2015C18.3283 37.2338 17.8905 37.3205 17.3821 37.4601C16.8746 37.6001 16.6206 37.7891 16.6206 38.0257C16.6206 38.1335 16.6335 38.2276 16.6606 38.3088C16.6877 38.39 16.7342 38.5377 16.7988 38.7533C17.0902 39.596 17.4906 40.6839 17.9985 42.0175C18.5073 43.351 19.1014 44.9032 19.7828 46.674L23.3803 36.0217H26.5933L30.6811 47.0009C31.307 45.3443 31.7904 44.0395 32.1301 43.0873C32.4697 42.1351 32.8985 40.9059 33.4168 39.3993C33.4925 39.1734 33.5377 38.9715 33.5541 38.7937C33.5704 38.6159 33.5734 38.5003 33.5627 38.4462C33.5627 38.2521 33.4654 38.0773 33.2713 37.9209C33.0775 37.765 32.8455 37.6379 32.5769 37.5413C32.307 37.4442 32.0457 37.3691 31.7922 37.3149C31.539 37.2612 31.326 37.2235 31.1533 37.202V36.0222H37.8442V37.2011Z" fill="white"/>
<path d="M59.6174 52.055H49.881V50.8752C50.0971 50.8537 50.3506 50.8267 50.6425 50.7945C50.9343 50.7622 51.15 50.7081 51.2903 50.633C51.5172 50.5144 51.6769 50.3422 51.7686 50.1159C51.8599 49.8895 51.9059 49.5558 51.9059 49.1139V41.5487C51.9059 40.4389 51.698 39.6091 51.2826 39.0594C50.8668 38.5096 50.2749 38.2352 49.5082 38.2352C49.076 38.2352 48.6744 38.3001 48.302 38.4293C47.9292 38.5586 47.5642 38.7472 47.2077 38.995C46.8944 39.2106 46.6434 39.4313 46.4549 39.6577C46.2659 39.884 46.1062 40.0837 45.9766 40.2555V48.9352C45.9766 49.3337 46.0252 49.649 46.1225 49.8809C46.2198 50.1129 46.4032 50.304 46.6735 50.4547C46.8354 50.5518 47.0489 50.6381 47.3141 50.7133C47.5788 50.7889 47.8345 50.8426 48.0829 50.8748V52.0546H38.2005V50.8748C38.4834 50.8533 38.758 50.8262 39.0245 50.794C39.2901 50.7618 39.5268 50.7077 39.7339 50.6325C40.0817 50.5033 40.318 50.3173 40.4429 50.0751C40.5677 49.8324 40.6301 49.512 40.6301 49.1134V31.091C40.6301 30.7461 40.5492 30.3798 40.3869 29.9919C40.2246 29.6041 39.9982 29.3129 39.7063 29.1192C39.4902 28.9792 39.1773 28.8688 38.7666 28.788C38.3564 28.7073 37.9892 28.6562 37.665 28.6343V27.4545L45.7329 27.0344L45.9762 27.293V38.4134H46.0412C46.451 38.0475 46.8203 37.7159 47.1492 37.4196C47.4785 37.1232 47.8806 36.8243 48.3545 36.5224C48.7536 36.2638 49.2736 36.0431 49.915 35.8597C50.5573 35.6763 51.2499 35.5848 51.9942 35.5848C53.7414 35.5848 55.0548 36.086 55.9334 37.088C56.812 38.09 57.2515 39.4103 57.2515 41.048V48.9683C57.2515 49.3668 57.3109 49.6851 57.4297 49.9217C57.5485 50.1588 57.7698 50.3478 58.094 50.4874C58.2885 50.5737 58.5042 50.6489 58.7418 50.7137C58.9794 50.7786 59.2709 50.8327 59.6165 50.8752V52.055H59.6174Z" fill="white"/>
<path d="M71.346 52.0552H61.1072V50.8754C61.3879 50.8539 61.6634 50.8269 61.9333 50.7946C62.2032 50.7624 62.4357 50.7083 62.6298 50.6332C62.9755 50.5039 63.2183 50.3179 63.359 50.0757C63.4994 49.833 63.5695 49.5126 63.5695 49.114V39.7064C63.5695 39.3293 63.483 38.9977 63.3104 38.7126C63.1378 38.4274 62.9217 38.198 62.6625 38.0258C62.4679 37.8965 62.1744 37.7728 61.7801 37.6538C61.3853 37.5353 61.0263 37.4597 60.7021 37.4275V36.2477L68.6405 35.8276L68.8837 36.0703V48.904C68.8837 49.2815 68.9646 49.6019 69.1269 49.8657C69.2888 50.1298 69.5212 50.3265 69.8234 50.4558C70.0395 50.5528 70.2771 50.6392 70.5363 50.7143C70.7954 50.7899 71.0653 50.8436 71.3464 50.8758V52.0552H71.346ZM68.981 30.008C68.981 30.827 68.6654 31.525 68.0339 32.1013C67.402 32.6777 66.6539 32.9659 65.7895 32.9659C64.9148 32.9659 64.1618 32.6777 63.5299 32.1013C62.898 31.525 62.5816 30.827 62.5816 30.008C62.5816 29.1894 62.898 28.4884 63.5299 27.9069C64.1618 27.3249 64.9143 27.0342 65.7895 27.0342C66.6646 27.0342 67.4149 27.3249 68.0413 27.9069C68.6676 28.4889 68.981 29.1894 68.981 30.008Z" fill="white"/>
<path d="M84.8894 51.3117C84.1981 51.6137 83.4585 51.8855 82.6699 52.1282C81.8813 52.3709 80.9205 52.492 79.7862 52.492C78.1013 52.492 76.8517 52.0827 76.0363 51.2654C75.2206 50.4472 74.8125 49.2794 74.8125 47.7615V37.8475H71.8965V36.0858H74.8775V31.1882H80.1263V36.0858H84.6785V37.8475H80.1585V46.6934C80.1585 47.9527 80.3346 48.8456 80.6872 49.373C81.0393 49.9 81.6704 50.1641 82.5808 50.1641C82.8735 50.1641 83.2795 50.1427 83.8003 50.0993C84.3199 50.0563 84.6832 50.0078 84.889 49.9537V51.3117H84.8894Z" fill="white"/>
<path d="M103.439 48.1923C103.061 48.8064 102.605 49.3858 102.071 49.93C101.536 50.4742 100.928 50.9402 100.248 51.328C99.5239 51.7377 98.7921 52.0474 98.053 52.2574C97.313 52.4674 96.4619 52.5727 95.5007 52.5727C93.9024 52.5727 92.5227 52.3463 91.3622 51.8936C90.2012 51.441 89.2421 50.8324 88.4862 50.067C87.7303 49.3021 87.1663 48.3997 86.794 47.3595C86.4212 46.3197 86.2344 45.191 86.2344 43.9733C86.2344 42.8743 86.4376 41.8211 86.8426 40.8135C87.2477 39.806 87.8224 38.9087 88.5675 38.1223C89.3019 37.3574 90.2287 36.7381 91.3462 36.2635C92.4642 35.7893 93.7138 35.5522 95.0961 35.5522C96.6079 35.5522 97.8502 35.7356 98.8222 36.102C99.7942 36.4684 100.599 36.9747 101.236 37.6215C101.851 38.2357 102.3 38.9607 102.581 39.7956C102.861 40.6306 103.002 41.5068 103.002 42.422V43.4725H92.0505C92.0505 45.6814 92.4771 47.3625 93.3303 48.5157C94.1835 49.6689 95.539 50.2452 97.3965 50.2452C98.4116 50.2452 99.3241 49.9682 100.134 49.4129C100.944 48.858 101.635 48.1549 102.208 47.3036L103.439 48.1923ZM97.2506 42.0501C97.2506 41.4037 97.2183 40.741 97.1533 40.0619C97.0883 39.3829 96.9751 38.828 96.8132 38.3972C96.6294 37.8908 96.3784 37.5082 96.0603 37.2496C95.7418 36.991 95.3388 36.8618 94.8528 36.8618C94.0212 36.8618 93.357 37.2818 92.8602 38.1223C92.3634 38.9629 92.0935 40.2939 92.05 42.1149L97.2506 42.0501Z" fill="white"/>
<path d="M16.3623 66.0128C16.3623 66.8319 16.1083 67.5509 15.6008 68.1706C15.0933 68.7904 14.4235 69.1001 13.5918 69.1001C12.8032 69.1001 12.1364 68.9016 11.5914 68.5043C11.046 68.1075 10.7726 67.5225 10.7726 66.7499C10.7726 66.3745 10.7997 66.082 10.8536 65.8728C10.9074 65.6637 10.956 65.4678 10.9995 65.2853C10.5027 65.3068 9.97884 65.4777 9.42826 65.7981C8.87726 66.1185 8.39126 66.5458 7.97025 67.0797V75.9535C7.97025 76.331 8.02966 76.6433 8.14847 76.8911C8.26728 77.1393 8.46702 77.333 8.74769 77.473C8.98531 77.592 9.37187 77.6912 9.90652 77.772C10.4412 77.8527 10.8269 77.8987 11.0645 77.9094V79.0892H0.226917V77.9094C0.496823 77.8879 0.770173 77.8583 1.04568 77.8205C1.32118 77.7827 1.55535 77.7316 1.74993 77.6667C2.0956 77.5482 2.33322 77.3652 2.46279 77.117C2.59236 76.8692 2.65736 76.5458 2.65736 76.1472V66.74C2.65736 66.3522 2.56567 66.0047 2.38186 65.6976C2.19805 65.3905 1.97679 65.1457 1.71764 64.9623C1.52307 64.833 1.27813 64.7257 0.981104 64.6389C0.683648 64.5526 0.356919 64.4933 0.000488281 64.4611V63.2813L7.7279 62.8612L7.97112 63.1039V65.4476H8.03612C8.78126 64.5856 9.5729 63.9096 10.4102 63.4191C11.2466 62.9286 12.1187 62.6838 13.0262 62.6838C14.0304 62.6838 14.8384 62.9935 15.4489 63.6133C16.0571 64.2326 16.3623 65.0327 16.3623 66.0128Z" fill="white"/>
<path d="M35.997 78.7499C35.5231 78.9548 34.9622 79.1434 34.3156 79.3156C33.669 79.4878 32.985 79.5741 32.2627 79.5741C30.9377 79.5741 29.9618 79.3774 29.3367 78.984C28.7113 78.5906 28.2855 78.028 28.0591 77.2948H27.9618C27.5946 77.6612 27.2399 77.9738 26.899 78.2324C26.5589 78.491 26.193 78.7117 25.8039 78.8951C25.295 79.1318 24.806 79.3096 24.3351 79.4285C23.8654 79.5471 23.2077 79.6063 22.364 79.6063C21.1091 79.6063 20.0377 79.2366 19.1509 78.4974C18.2641 77.7582 17.8203 76.779 17.8203 75.5592C17.8203 74.8579 17.9176 74.2617 18.113 73.7704C18.3076 73.2795 18.5835 72.8448 18.9404 72.4673C19.2645 72.1216 19.6408 71.8359 20.0678 71.6092C20.4957 71.3824 20.9632 71.1724 21.472 70.9778C22.4453 70.6218 23.6136 70.2524 24.9765 69.8693C26.3394 69.4858 27.3342 69.1434 27.9618 68.8411V67.2893C27.9618 67.02 27.9403 66.6644 27.8968 66.2225C27.8538 65.7805 27.7616 65.409 27.6213 65.1071C27.4702 64.7622 27.2326 64.4714 26.9085 64.2343C26.5843 63.9977 26.1577 63.8787 25.6282 63.8787C25.153 63.8787 24.7561 63.9461 24.4371 64.0806C24.1181 64.2154 23.862 64.3529 23.6674 64.4929C23.6997 64.7085 23.7918 65.0371 23.9434 65.479C24.0953 65.921 24.1706 66.3466 24.1706 66.7559C24.1706 66.9393 24.122 67.1682 24.0247 67.4427C23.927 67.7175 23.7862 67.9357 23.602 68.0972C23.3532 68.3128 23.0742 68.4799 22.7656 68.5984C22.4565 68.7174 21.9826 68.7762 21.3442 68.7762C20.4337 68.7762 19.7458 68.558 19.28 68.1217C18.8147 67.6853 18.5814 67.1171 18.5814 66.4166C18.5814 65.8132 18.822 65.2716 19.3029 64.7922C19.7828 64.3129 20.3687 63.9169 21.06 63.6043C21.7406 63.2809 22.5237 63.0305 23.4091 62.8527C24.2946 62.6748 25.1155 62.5859 25.8714 62.5859C26.9192 62.5859 27.8805 62.6482 28.7552 62.7719C29.6299 62.896 30.4185 63.1516 31.1206 63.5398C31.7904 63.9174 32.3221 64.4637 32.7168 65.1805C33.1111 65.8973 33.3074 66.8319 33.3074 67.9847C33.3074 69.2027 33.2837 70.6463 33.2351 72.3166C33.1865 73.9869 33.1615 75.0864 33.1615 75.6138C33.1615 76.0987 33.2351 76.4814 33.3806 76.7614C33.5265 77.0418 33.7499 77.2519 34.0526 77.3919C34.2364 77.4782 34.5252 77.5293 34.92 77.5456C35.3143 77.562 35.6729 77.5697 35.9966 77.5697V78.7499H35.997ZM27.9618 70.3284C27.3548 70.5337 26.7535 70.7687 26.1573 71.0332C25.5611 71.2978 25.0733 71.5757 24.6945 71.8677C24.2933 72.1701 23.9791 72.5566 23.7518 73.0261C23.5241 73.4959 23.41 74.0496 23.41 74.6865C23.41 75.5292 23.6024 76.1395 23.9877 76.5174C24.3721 76.8958 24.8465 77.0844 25.41 77.0844C26.0062 77.0844 26.4965 76.9628 26.8809 76.7197C27.2657 76.4766 27.6045 76.1768 27.8972 75.8204L27.9618 70.3284Z" fill="white"/>
<path d="M56.5713 71.1852C56.5713 73.6097 55.7698 75.6197 54.1663 77.214C52.5623 78.8087 50.5288 79.6063 48.0665 79.6063C47.116 79.6063 46.2985 79.5388 45.6128 79.4044C44.9266 79.2695 44.3459 79.1055 43.8707 78.9113C43.3739 78.7069 42.9774 78.505 42.6804 78.3053C42.3829 78.106 42.1479 77.9415 41.9753 77.8123L39.6585 79.9133L38.7028 79.5414C38.7566 78.755 38.8027 77.9007 38.841 76.9795C38.8789 76.0582 38.897 74.8161 38.897 73.2536V58.1247C38.897 57.7154 38.8139 57.3353 38.6464 56.9852C38.4786 56.6352 38.2543 56.3685 37.9736 56.1851C37.7683 56.0558 37.4691 55.9424 37.0752 55.8458C36.6805 55.7487 36.3159 55.6899 35.981 55.668V54.4882L44.0002 54.0681L44.2435 54.3267V64.833H44.3407C45.1281 64.068 45.9369 63.5075 46.7677 63.1519C47.5981 62.7963 48.4289 62.6185 49.2593 62.6185C51.524 62.6185 53.3092 63.389 54.6144 64.93C55.9192 66.471 56.5713 68.5562 56.5713 71.1852ZM50.7556 71.3793C50.7556 70.5607 50.6941 69.7708 50.5697 69.0115C50.4453 68.2522 50.2386 67.5809 49.9476 66.9993C49.6566 66.4174 49.2744 65.9514 48.8009 65.6013C48.3269 65.2513 47.7393 65.076 47.0394 65.076C46.3816 65.076 45.8375 65.1838 45.407 65.3995C44.9761 65.6151 44.5883 65.9329 44.2435 66.3529V75.7601C44.3085 75.9757 44.4294 76.2588 44.6076 76.6088C44.7846 76.9589 44.9658 77.2312 45.1487 77.4253C45.4074 77.7057 45.6821 77.9183 45.9727 78.0639C46.2637 78.2095 46.673 78.2821 47.2012 78.2821C48.3002 78.2821 49.1676 77.6817 49.8026 76.48C50.438 75.2774 50.7556 73.5774 50.7556 71.3793Z" fill="white"/>
<path d="M77.9883 71.1852C77.9883 73.6097 77.1868 75.6197 75.5833 77.214C73.9793 78.8087 71.9458 79.6063 69.4835 79.6063C68.533 79.6063 67.7155 79.5388 67.0298 79.4044C66.3436 79.2695 65.7629 79.1055 65.2877 78.9113C64.7909 78.7069 64.3944 78.505 64.0974 78.3053C63.7999 78.106 63.5649 77.9415 63.3923 77.8123L61.0755 79.9133L60.1198 79.5414C60.1736 78.755 60.2197 77.9007 60.258 76.9795C60.2959 76.0582 60.314 74.8161 60.314 73.2536V58.1247C60.314 57.7154 60.2309 57.3353 60.0634 56.9852C59.8956 56.6352 59.6713 56.3685 59.3906 56.1851C59.1853 56.0558 58.8861 55.9424 58.4922 55.8458C58.0975 55.7487 57.7329 55.6899 57.3979 55.668V54.4882L65.4172 54.0681L65.6604 54.3267V64.833H65.7577C66.5451 64.068 67.3539 63.5075 68.1847 63.1519C69.0151 62.7963 69.8459 62.6185 70.6763 62.6185C72.941 62.6185 74.7262 63.389 76.0314 64.93C77.3362 66.471 77.9883 68.5562 77.9883 71.1852ZM72.1726 71.3793C72.1726 70.5607 72.1111 69.7708 71.9867 69.0115C71.8623 68.2522 71.6556 67.5809 71.3646 66.9993C71.0736 66.4174 70.6914 65.9514 70.2179 65.6013C69.7439 65.2513 69.1563 65.076 68.4564 65.076C67.7986 65.076 67.2545 65.1838 66.824 65.3995C66.3931 65.6151 66.0053 65.9329 65.6604 66.3529V75.7601C65.7254 75.9757 65.8464 76.2588 66.0242 76.6088C66.2011 76.9589 66.3823 77.2312 66.5653 77.4253C66.824 77.7057 67.0987 77.9183 67.3892 78.0639C67.6802 78.2095 68.0896 78.2821 68.6178 78.2821C69.7168 78.2821 70.5838 77.6817 71.2191 76.48C71.8549 75.2774 72.1726 73.5774 72.1726 71.3793Z" fill="white"/>
<path d="M90.3172 79.0892H80.0784V77.9093C80.3591 77.8879 80.6346 77.8608 80.9045 77.8286C81.1744 77.7964 81.4069 77.7423 81.601 77.6671C81.9467 77.5378 82.1895 77.3519 82.3302 77.1096C82.4706 76.867 82.5407 76.5465 82.5407 76.148V66.7408C82.5407 66.3637 82.4542 66.0321 82.2816 65.7469C82.109 65.4617 81.8929 65.2324 81.6337 65.0602C81.4391 64.9309 81.1456 64.8072 80.7512 64.6882C80.3565 64.5697 79.9975 64.4941 79.6733 64.4619V63.2821L87.6117 62.862L87.8549 63.1047V75.9384C87.8549 76.3159 87.9358 76.6363 88.0981 76.9C88.26 77.1642 88.4924 77.3609 88.7946 77.4901C89.0107 77.5872 89.2483 77.6735 89.5075 77.7487C89.7666 77.8243 90.0365 77.878 90.3176 77.9102V79.0892H90.3172ZM87.9518 57.0419C87.9518 57.861 87.6362 58.5589 87.0047 59.1353C86.3728 59.7117 85.6246 59.9999 84.7602 59.9999C83.8855 59.9999 83.1326 59.7117 82.5007 59.1353C81.8688 58.5589 81.5524 57.861 81.5524 57.0419C81.5524 56.2233 81.8688 55.5224 82.5007 54.9408C83.1326 54.3589 83.8851 54.0681 84.7602 54.0681C85.6354 54.0681 86.3857 54.3589 87.012 54.9408C87.6384 55.5228 87.9518 56.2233 87.9518 57.0419Z" fill="white"/>
<path d="M103.861 78.3457C103.169 78.6476 102.43 78.9195 101.641 79.1622C100.852 79.4048 99.8917 79.5259 98.7574 79.5259C97.0725 79.5259 95.8229 79.1166 95.0075 78.2993C94.1914 77.4811 93.7837 76.3133 93.7837 74.7955V64.8819H90.8677V63.1201H93.8487V58.2222H99.0975V63.1197H103.65V64.8815H99.1297V73.7273C99.1297 74.9866 99.3058 75.8795 99.6584 76.4069C100.01 76.9339 100.642 77.1981 101.552 77.1981C101.845 77.1981 102.251 77.1766 102.772 77.1332C103.291 77.0903 103.654 77.0417 103.86 76.9876V78.3457H103.861Z" fill="white"/>
</g>
<defs>
<clipPath id="clip0">
<rect width="286.5" height="81" fill="white"/>
</clipPath>
</defs>
</svg>
