<svg width="110" height="45" viewBox="0 0 110 45" fill="none" xmlns="http://www.w3.org/2000/svg">
<g clip-path="url(#clip0)">
<path d="M37.1971 5.79755L37.1054 6.38037H35.1171L34.0464 11.3497C34.0158 11.4724 34.0158 11.5951 34.0158 11.6871C34.0158 12.0859 34.1994 12.3006 34.5664 12.3006C35.1476 12.3006 35.9124 11.9018 36.8301 11.135L37.1054 11.411C35.8206 12.5767 34.6888 13.1595 33.7099 13.1595C33.037 13.1595 32.7005 12.8528 32.7005 12.2393C32.7005 11.9939 32.7923 11.4724 32.9452 10.7362L33.8935 6.34969H32.5781L32.6393 5.98159C33.7711 5.8589 34.6582 5.15337 35.27 3.86503H35.6371L35.2394 5.76687H37.1971V5.79755ZM42.6421 0L41.235 6.77914L41.2656 6.84049C42.0915 5.98159 42.948 5.55215 43.7739 5.55215C44.3551 5.55215 44.8139 5.7362 45.181 6.13497C45.5481 6.53374 45.7316 7.02454 45.7316 7.66871C45.7316 7.88344 45.701 8.12883 45.6705 8.40491L45.0281 11.5951C44.9975 11.7791 44.9669 11.9018 44.9669 12.0245C44.9669 12.3313 45.2116 12.5153 45.7316 12.5767L45.6399 12.9448H42.5809L42.6727 12.5767C43.0703 12.546 43.3151 12.4233 43.468 12.2393C43.621 12.0552 43.7433 11.6871 43.8657 11.135L44.4775 8.31288C44.508 8.09816 44.5386 7.88344 44.5386 7.69939C44.5386 6.87117 44.1104 6.44172 43.2233 6.44172C42.5503 6.44172 41.8468 6.87117 41.082 7.69939L40.2561 11.7178C40.2255 11.8405 40.2255 11.9632 40.2255 12.0245C40.2255 12.3926 40.5008 12.5767 41.082 12.5767L40.9903 12.9448H38.0537L38.1454 12.5767C38.4207 12.5767 38.6349 12.4847 38.7572 12.2699C38.8796 12.0552 39.0019 11.6871 39.0937 11.135L40.9597 2.02454C41.0208 1.68712 41.0514 1.47239 41.0514 1.38037C41.0514 1.16564 40.9597 1.04294 40.8067 0.981595C40.6538 0.920245 40.3785 0.889571 39.9502 0.889571L40.0114 0.582822L42.2138 0H42.6421ZM48.4541 9.7546C48.4235 9.93865 48.4235 10.1227 48.4235 10.2761C48.4235 11.5644 49.0047 12.1779 50.1671 12.1779C51.0236 12.1779 51.8189 11.6564 52.5837 10.6442L52.7978 10.9509C52.2778 11.7485 51.7884 12.3313 51.2989 12.6687C50.8095 13.0368 50.2283 13.1902 49.5247 13.1902C48.7906 13.1902 48.2094 12.9755 47.7811 12.546C47.3835 12.1166 47.1693 11.5337 47.1693 10.7669C47.1693 9.44785 47.6282 8.25153 48.5765 7.17791C49.4941 6.10429 50.5342 5.55215 51.6354 5.55215C52.0637 5.55215 52.4307 5.67485 52.6755 5.88957C52.9202 6.10429 53.0425 6.41104 53.0425 6.77914C53.0425 7.42331 52.6143 8.00613 51.7884 8.55828C51.0236 9.1411 49.8918 9.53988 48.4541 9.7546ZM48.5459 9.35583C50.7177 8.95706 51.7884 8.22086 51.7884 7.17791C51.7884 6.96319 51.6966 6.77914 51.5131 6.59509C51.3295 6.41104 51.1154 6.31902 50.8707 6.31902C50.3507 6.31902 49.8306 6.62577 49.3718 7.26994C48.9435 7.91411 48.6376 8.58896 48.5459 9.35583Z" fill="white"/>
<path d="M51.2374 15.9816V16.3497C50.748 16.4111 50.3197 16.6565 49.9526 17.0859C49.5856 17.5153 49.2491 18.1902 48.9432 19.1104L45.7619 28.4969H45.3948L41.8158 18.8957L38.6039 28.4969H38.2368L34.4437 18.3129C34.1378 17.5153 33.8931 16.9939 33.6484 16.7792C33.4037 16.5338 33.0366 16.4111 32.5166 16.3804V16.0123H37.7474V16.3804C37.2274 16.4724 36.9521 16.7792 36.9521 17.2393C36.9521 17.454 37.0133 17.7301 37.105 18.0675L39.3075 23.9264L41.3876 17.7607C41.1734 17.2699 40.9593 16.9325 40.7452 16.7485C40.5311 16.5644 40.164 16.4417 39.6746 16.3804V16.0123H44.8442V16.3804C44.3242 16.5338 44.0795 16.8098 44.0795 17.2393C44.0795 17.3926 44.11 17.5767 44.2018 17.7607L46.496 23.9264L48.1785 18.9264C48.3926 18.2822 48.4843 17.8221 48.4843 17.4847C48.4843 16.9019 48.1173 16.5338 47.4137 16.3804V16.0123H51.2374V15.9816ZM63.1367 26.1043V22.4233H57.1412V26.3804C57.1412 26.9632 57.233 27.3313 57.4471 27.5767C57.6306 27.7914 58.0589 27.9755 58.6707 28.1595V28.5276H52.8281V28.1595C53.2869 28.0368 53.5928 27.9141 53.8069 27.7914C54.0211 27.6687 54.174 27.4847 54.2658 27.3006C54.3575 27.0859 54.3881 26.7178 54.3881 26.135V18.0982C54.3881 17.546 54.2964 17.1472 54.0822 16.9018C53.8681 16.6565 53.4399 16.4724 52.7975 16.319V15.9509H58.6401V16.319C58.0283 16.4724 57.6306 16.6565 57.4165 16.8712C57.2024 17.1166 57.1106 17.4847 57.1106 17.9755V21.4724H63.1062V18.0982C63.1062 17.546 63.0144 17.1472 62.8003 16.9018C62.5861 16.6871 62.1885 16.4724 61.5461 16.319V15.9509H67.4193V16.319C66.7463 16.5031 66.3181 16.6871 66.1345 16.9018C65.951 17.1166 65.8286 17.6074 65.8286 18.3436V26.3804C65.8286 26.9325 65.9204 27.3313 66.1345 27.546C66.3486 27.7607 66.7463 27.9755 67.4193 28.1288V28.4969H61.5461V28.1288C62.1579 27.9755 62.5555 27.7914 62.7697 27.546C63.045 27.3313 63.1367 26.8405 63.1367 26.1043ZM75.189 15.9816V16.3497C74.5772 16.5031 74.149 16.6871 73.9349 16.9018C73.7207 17.1472 73.629 17.6074 73.629 18.3436V26.3804C73.629 26.9325 73.7207 27.3313 73.9349 27.546C74.149 27.7607 74.5466 27.9448 75.189 28.1288V28.4969H69.2852V28.1288C69.7135 28.0061 70.05 27.8834 70.2641 27.7607C70.4782 27.638 70.6312 27.454 70.7229 27.2699C70.8147 27.0552 70.8453 26.6871 70.8453 26.1043V18.0982C70.8453 17.546 70.7535 17.1472 70.5394 16.9018C70.3253 16.6871 69.897 16.4724 69.2547 16.319V15.9509H75.189V15.9816ZM85.0389 28.1288V28.4969H79.1963V28.1288C79.808 28.0061 80.2363 27.8221 80.4504 27.5767C80.6646 27.3313 80.7563 26.9018 80.7563 26.227V16.6871H79.5327C78.768 16.6871 78.1868 16.8405 77.728 17.1779C77.2997 17.5153 76.9632 18.0368 76.7491 18.7423H76.382L76.5044 15.7362H76.902C77.1773 15.9203 77.575 15.9816 78.1256 15.9816H86.1707C86.7213 15.9816 87.1495 15.8896 87.3943 15.7362H87.7919L87.9143 18.7423H87.5472C87.3331 18.0368 86.9966 17.5153 86.5683 17.1779C86.1401 16.8405 85.5283 16.6871 84.7636 16.6871H83.5094V26.2577C83.5094 26.8712 83.6317 27.3006 83.8459 27.5767C84.06 27.8528 84.4577 28.0061 85.0389 28.1288ZM97.0605 20.3068H97.4582V24.1718H97.0605C96.9076 23.0982 96.3264 22.5767 95.3475 22.5767H93.1451V26.2577C93.1451 26.8098 93.2674 27.2086 93.5428 27.454C93.7875 27.6687 94.2463 27.7914 94.8581 27.7914H95.5923C96.8158 27.7914 97.6723 27.0245 98.223 25.4601H98.59L98.3759 28.4969H88.8931V28.1288C89.5049 28.0061 89.9332 27.8221 90.1473 27.546C90.3614 27.3006 90.4532 26.8098 90.4532 26.1043V18.0982C90.4532 17.5153 90.3309 17.1166 90.1473 16.8712C89.9332 16.6565 89.5355 16.4724 88.8931 16.3497V15.9816H98.1924V18.7423H97.8253C97.6112 17.9141 97.3664 17.3926 97.0605 17.0859C96.7547 16.8098 96.2652 16.6565 95.5923 16.6565H93.1757V21.8098H95.3781C95.8676 21.8098 96.2652 21.6871 96.5099 21.4417C96.7547 21.2577 96.9382 20.8589 97.0605 20.3068Z" fill="white"/>
<path d="M37.2578 44.0797V43.7116C38.2979 43.6196 38.8485 43.0981 38.8485 42.1165V33.6503C38.8485 33.0675 38.7261 32.6687 38.512 32.454C38.2979 32.2392 37.8696 32.0552 37.2578 31.9325V31.5951H43.1922C44.7522 31.5951 45.9452 31.8711 46.7712 32.4233C47.5971 32.9754 48.0253 33.7423 48.0253 34.7239C48.0253 35.4294 47.8112 36.0429 47.3829 36.5644C46.9547 37.0859 46.3123 37.454 45.517 37.6994V37.73C45.8229 37.7914 46.1288 38.0368 46.4653 38.4662C46.8017 38.865 47.2912 39.6932 47.9336 40.8895C48.5759 42.0552 49.0348 42.8221 49.3101 43.1288C49.5854 43.4356 49.9831 43.6503 50.5031 43.7116V44.0797H46.8935C46.4347 43.5276 45.8229 42.5153 45.0887 41.0429C44.5687 40.0306 44.2016 39.3558 43.9569 39.0184C43.7122 38.681 43.4675 38.4356 43.1922 38.3129C42.9169 38.1902 42.3969 38.0981 41.6015 38.0981V41.9325C41.6015 42.4846 41.7239 42.8834 41.9686 43.1595C42.2133 43.4356 42.611 43.5889 43.1922 43.681V44.0491H37.2578V44.0797ZM42.4274 32.3006H41.5709V37.4233C41.7851 37.4233 41.9992 37.454 42.1827 37.454C43.1616 37.454 43.8957 37.2392 44.3546 36.8098C44.8134 36.3803 45.0276 35.7055 45.0276 34.7852C45.0276 33.1288 44.171 32.3006 42.4274 32.3006ZM58.5175 44.0797V43.7116C59.0376 43.6196 59.4046 43.4969 59.5882 43.3435C59.8023 43.1902 59.8941 43.0061 59.8941 42.73C59.8941 42.5153 59.8023 42.2086 59.6494 41.7791L58.9152 39.8466H54.4797L53.8679 41.503C53.715 41.9325 53.6232 42.2699 53.6232 42.5153C53.6232 43.0675 54.0515 43.4662 54.8774 43.681V44.0491H50.8396V43.681C51.329 43.5889 51.7573 43.3435 52.0937 42.9141C52.4608 42.4846 52.7973 41.8098 53.1644 40.8282L56.7434 31.1963H58.4564L62.2495 41.1963C62.586 42.0859 62.9224 42.6994 63.2589 43.0675C63.5954 43.4049 64.0237 43.6196 64.5743 43.6503V44.0184H58.5175V44.0797ZM54.908 38.9877H58.6093L56.7128 33.9264L54.908 38.9877ZM73.0476 44.0797H65.5531V43.7116C66.1955 43.5889 66.6238 43.4049 66.8073 43.1288C66.9908 42.8834 67.1132 42.4846 67.1132 41.9325V33.6196C67.1132 33.0368 66.9909 32.638 66.7767 32.3926C66.5626 32.1472 66.1343 31.9938 65.5531 31.9018V31.5951H72.1299C73.4758 31.5951 74.5159 31.8405 75.2806 32.3619C76.0454 32.8834 76.4124 33.5889 76.4124 34.5398C76.4124 35.9816 75.4947 36.9632 73.6594 37.4846V37.5153C76.0148 37.9448 77.2078 39.0491 77.2078 40.7975C77.2078 41.7791 76.8407 42.5767 76.0759 43.1902C75.3112 43.8037 74.3018 44.0797 73.0476 44.0797ZM69.8663 32.3006V37.3313H70.8757C71.671 37.3313 72.2828 37.1165 72.7417 36.6564C73.2005 36.1963 73.4147 35.5828 73.4147 34.7852C73.4147 33.1288 72.497 32.3006 70.6616 32.3006H69.8663ZM71.3346 38.0061H69.8663V41.8405C69.8663 42.3926 70.0192 42.7914 70.2945 43.0368C70.5698 43.2822 71.0287 43.3742 71.7016 43.3742C72.497 43.3742 73.1088 43.1288 73.537 42.6687C73.9959 42.2086 74.21 41.5644 74.21 40.7362C74.21 39.9079 73.9653 39.2638 73.4452 38.773C72.9252 38.2515 72.2217 38.0061 71.3346 38.0061ZM86.1705 44.0797H78.6761V43.7116C79.3184 43.5889 79.7467 43.4049 79.9302 43.1288C80.1138 42.8834 80.2361 42.4846 80.2361 41.9325V33.6196C80.2361 33.0368 80.1138 32.638 79.8996 32.3926C79.6855 32.1472 79.2573 31.9938 78.6761 31.9018V31.5951H85.2528C86.5988 31.5951 87.6388 31.8405 88.4035 32.3619C89.1683 32.8834 89.5353 33.5889 89.5353 34.5398C89.5353 35.9816 88.6177 36.9632 86.7823 37.4846V37.5153C89.1377 37.9448 90.3307 39.0491 90.3307 40.7975C90.3307 41.7791 89.9636 42.5767 89.1989 43.1902C88.4035 43.8037 87.4247 44.0797 86.1705 44.0797ZM82.9586 32.3006V37.3313H83.968C84.7634 37.3313 85.3752 37.1165 85.834 36.6564C86.2929 36.1963 86.507 35.5828 86.507 34.7852C86.507 33.1288 85.5893 32.3006 83.7539 32.3006H82.9586ZM84.4575 38.0061H82.9892V41.8405C82.9892 42.3926 83.1421 42.7914 83.4174 43.0368C83.6927 43.2822 84.1516 43.3742 84.8246 43.3742C85.6199 43.3742 86.2317 43.1288 86.6599 42.6687C87.1188 42.2086 87.3329 41.5644 87.3329 40.7362C87.3329 39.9079 87.0882 39.2638 86.5682 38.773C86.0481 38.2515 85.3446 38.0061 84.4575 38.0061ZM97.3051 31.5951V31.9632C96.6933 32.1165 96.265 32.3006 96.0509 32.5153C95.8368 32.7607 95.745 33.2208 95.745 33.957V41.9632C95.745 42.5153 95.8368 42.9141 96.0509 43.1288C96.265 43.3435 96.6627 43.5276 97.3051 43.7116V44.0797H91.4013V43.7116C91.8296 43.5889 92.166 43.4662 92.3802 43.3435C92.5943 43.2208 92.7472 43.0368 92.839 42.8527C92.9308 42.638 92.9614 42.2699 92.9614 41.6871V33.681C92.9614 33.1288 92.8696 32.73 92.6555 32.4846C92.4413 32.2699 92.0131 32.0552 91.3707 31.9018V31.5951H97.3051ZM107.155 43.7116V44.0797H101.312V43.7116C101.924 43.5889 102.352 43.4049 102.566 43.1595C102.781 42.9141 102.872 42.4846 102.872 41.8098V32.2699H101.618C100.853 32.2699 100.272 32.4233 99.8134 32.7607C99.3852 33.0981 99.0487 33.6196 98.8346 34.3251H98.4981L98.6204 31.319H99.0181C99.2934 31.503 99.6911 31.5644 100.242 31.5644H108.287C108.837 31.5644 109.266 31.4724 109.51 31.319H109.908L110.03 34.3251H109.663C109.449 33.6196 109.113 33.0981 108.684 32.7607C108.256 32.4233 107.644 32.2699 106.88 32.2699H105.625V41.8405C105.625 42.454 105.748 42.8834 105.962 43.1595C106.176 43.4356 106.574 43.6196 107.155 43.7116Z" fill="white"/>
<path d="M16.7334 20.3983C16.764 20.2757 15.5098 15.8891 15.3568 12.699C15.2039 9.50878 15.2345 4.99958 15.8157 4.63148C16.3969 4.26338 17.4063 6.74804 18.2323 9.57013C19.0582 12.3922 19.9759 14.8155 21.0771 16.4106C22.1783 18.0057 23.0042 19.5088 23.4325 20.5517C23.8607 21.564 23.9219 22.2082 23.7996 22.1468C23.6772 22.0855 22.6677 21.6867 21.5053 21.3799C20.3429 21.0732 18.4464 20.8891 17.9264 20.7664C17.3758 20.6437 16.7334 20.3983 16.7334 20.3983ZM21.3524 32.6376C21.4442 32.6376 21.5359 32.5763 21.5359 32.4842C21.5359 32.3922 21.4748 32.3002 21.383 32.3002C21.2912 32.3002 21.1994 32.3615 21.1994 32.4536C21.1689 32.5149 21.2606 32.6069 21.3524 32.6376ZM22.5148 32.4229C22.6983 32.4536 22.8513 32.3002 22.8819 32.1468C22.9125 31.9628 22.7595 31.8094 22.6066 31.7787C22.423 31.748 22.2701 31.9014 22.2395 32.0548C22.2089 32.2695 22.3313 32.4229 22.5148 32.4229ZM29.7339 42.0855C29.6116 42.1468 29.5198 42.2082 29.428 42.2695C29.1833 42.1468 28.908 42.0548 28.6327 41.9934C28.2656 41.9321 27.9291 41.9628 27.5621 41.8707C27.2256 41.7787 26.8891 41.5947 26.5832 41.4413C26.4914 41.38 26.155 41.472 26.2467 41.6253C26.8891 42.5763 28.1127 42.3615 29.0915 42.6683C29.061 42.791 29.061 42.9444 29.0915 43.0977C29.2139 43.5579 28.6021 43.8646 27.5009 44.6928C26.3997 45.5211 24.9925 44.4781 23.9219 43.8953C22.8513 43.3125 21.9948 43.1898 19.0888 42.5763C16.9169 42.1161 15.9075 41.564 14.6839 40.7051C17.3758 40.153 20.0982 39.8769 22.8513 39.8155C22.9736 39.8155 23.2795 39.6622 23.0042 39.6622C20.1594 39.7235 17.3146 40.0303 14.5309 40.6131C14.1638 40.3677 13.7662 40.0609 13.3073 39.7542C11.2273 38.3125 11.0743 37.5456 10.2484 34.8462C9.42247 32.1468 10.8908 30.8891 10.8602 29.9076C10.8296 28.926 8.93304 27.1468 6.54705 25.153C4.09989 23.1898 2.3257 18.5579 1.25506 15.3984C0.184429 12.2695 -0.213235 1.77872 0.12325 0.337001C0.459735 -1.10472 2.44805 2.39222 3.21279 3.52719C3.97753 4.66215 5.44583 6.90142 7.31179 9.07933C9.17775 11.2266 10.4625 13.0364 11.9614 14.5701C13.4603 16.1039 14.5615 19.3247 15.0509 20.6744C15.5404 22.0241 15.9075 23.6192 16.1522 24.6928C16.3969 25.7664 16.5192 25.5824 16.611 25.429C16.7028 25.2757 16.3969 23.9566 16.2745 23.4965C16.1522 23.0364 15.571 21.0425 15.571 21.0425C15.571 21.0425 16.4275 21.0425 21.2912 21.748C26.1244 22.4536 26.522 23.8953 28.3574 26.2266C30.2234 28.5272 29.8563 30.0916 30.0092 30.5824C30.1622 31.0732 30.0704 31.9628 29.6422 32.791C29.1833 33.6192 29.581 33.4352 29.7645 34.202C29.9481 34.9689 30.5904 35.9198 30.7128 37.1468C30.8046 38.1591 30.4681 38.6806 30.3151 38.8646C29.8257 38.8953 29.5198 38.6806 29.1527 38.4965C29.0915 38.4352 29.0304 38.3738 28.9692 38.3125C28.8162 38.1898 28.6021 38.0977 28.4186 38.0671C28.2045 38.0364 27.8986 38.0057 27.6844 38.1284C27.5927 38.1898 27.5009 38.2511 27.5621 38.3738C27.5927 38.4352 27.7456 38.4658 27.8374 38.4658C28.0209 38.6499 28.6939 38.6499 28.8468 38.7419C28.8468 38.7419 28.8774 38.7419 28.908 38.7419C28.9692 38.7726 28.9998 38.8033 29.061 38.8339C29.4586 39.0487 29.8869 39.0793 30.3151 39.018C30.4069 39.2941 30.6822 40.0609 30.8046 40.6438C30.9575 41.3493 30.3457 41.7787 29.7339 42.0855ZM13.3379 23.9873C13.3379 24.1407 13.7356 24.0487 13.7356 23.8953C13.5521 20.245 11.3496 17.1775 8.81068 14.7235C7.46474 13.4352 6.02703 12.2388 4.61991 11.0118C3.88576 10.3677 3.1822 9.7235 2.50923 9.01798C1.86685 8.34314 0.857399 7.51492 0.979757 6.47197C1.01035 6.34927 0.612682 6.41062 0.612682 6.56399C0.490324 7.36154 1.01035 7.94436 1.49978 8.49651C2.14216 9.20203 2.84572 9.87688 3.57987 10.5211C5.01758 11.8401 6.54705 13.0671 7.98476 14.3861C10.7072 16.9321 13.1544 20.0916 13.3379 23.9873ZM23.4631 38.4658C21.2606 38.3738 19.0888 38.2818 16.8863 38.1898C16.7028 38.1898 16.4887 38.4352 16.7334 38.4352C18.9358 38.5272 21.1077 38.6192 23.3101 38.7112C23.4937 38.7112 23.7384 38.4658 23.4631 38.4658ZM24.5337 37.7603C20.9241 36.9934 17.2534 36.564 13.5521 36.4413C13.4297 36.4413 13.1238 36.6253 13.3991 36.6253C17.0699 36.748 20.71 37.2082 24.289 37.9444C24.4113 37.975 24.7478 37.791 24.5337 37.7603ZM21.7806 33.2511C22.5148 33.3125 23.1878 32.791 23.2489 32.0548C23.2489 31.9934 23.2489 31.9321 23.2489 31.8401C22.5148 31.5026 21.6889 31.2879 20.8018 31.1959C20.6794 31.3799 20.6182 31.564 20.5877 31.7787C20.5265 32.5149 21.0465 33.1591 21.7806 33.2511ZM24.5337 30.9812C23.4019 30.0303 21.8724 29.6008 20.4041 29.7542C20.3123 29.7542 19.9759 29.9382 20.2512 29.9382C21.4442 29.9382 22.6066 30.153 23.5548 30.8278C23.4937 30.8585 23.4631 30.8891 23.4937 30.9198C23.769 31.1959 24.1972 31.7787 24.6561 31.5947C25.0231 31.4106 24.7784 31.1959 24.5337 30.9812ZM12.3285 41.0732C12.1144 41.1345 12.1449 41.2573 12.3591 41.1959C13.0932 41.0119 13.858 40.8278 14.6227 40.6744C14.5615 40.6438 14.5309 40.6131 14.4697 40.5824C13.7662 40.7358 13.032 40.8891 12.3285 41.0732Z" fill="white"/>
</g>
<defs>
<clipPath id="clip0">
<rect width="110" height="45" fill="white"/>
</clipPath>
</defs>
</svg>
