<svg width="243" height="62" viewBox="0 0 243 62" fill="none" xmlns="http://www.w3.org/2000/svg">
<g clip-path="url(#clip0)">
<path d="M5.79934 32.1252L5.68488 32.8501H3.16675L1.86952 39.031C1.83137 39.1836 1.83137 39.3362 1.83137 39.4507C1.83137 39.9467 2.06029 40.2138 2.51813 40.2138C3.24305 40.2138 4.19689 39.7178 5.3415 38.7639L5.68488 39.1073C4.08243 40.5572 2.67075 41.2821 1.44984 41.2821C0.610457 41.2821 0.190768 40.9005 0.190768 40.1375C0.190768 39.8322 0.305228 39.1836 0.495996 38.2679L1.67876 32.812H0L0.0763071 32.4304C1.48799 32.2778 2.59444 31.4003 3.35751 29.7979H3.81536L3.31936 32.1634H5.79934V32.1252Z" fill="white"/>
<path d="M12.5526 24.9141L10.7976 33.346L10.8357 33.4223C11.8659 32.354 12.9342 31.8199 13.9643 31.8199C14.6892 31.8199 15.2615 32.0488 15.7194 32.5448C16.1772 33.0408 16.4061 33.6512 16.4061 34.4525C16.4061 34.7195 16.368 35.0248 16.3298 35.3681L15.5286 39.3361C15.4904 39.565 15.4523 39.7176 15.4523 39.8703C15.4523 40.2518 15.7575 40.4807 16.4061 40.557L16.2917 41.0149H12.4763L12.5908 40.557C13.0868 40.5189 13.392 40.3663 13.5828 40.1373C13.7735 39.9084 13.9262 39.4506 14.0788 38.7638L14.8418 35.2537C14.88 34.9866 14.9181 34.7195 14.9181 34.4906C14.9181 33.4605 14.384 32.9263 13.2775 32.9263C12.4382 32.9263 11.5606 33.4605 10.6068 34.4906L9.57665 39.4887C9.53849 39.6413 9.53849 39.7939 9.53849 39.8703C9.53849 40.3281 9.88187 40.557 10.6068 40.557L10.4923 41.0149H6.82959L6.94405 40.557C7.28743 40.557 7.55451 40.4426 7.70712 40.1755C7.85974 39.9084 8.01235 39.4506 8.12681 38.7638L10.4542 27.4703C10.5305 27.0507 10.5686 26.7836 10.5686 26.6691C10.5686 26.4021 10.4542 26.2494 10.2634 26.1731C10.0726 26.0968 9.72926 26.0587 9.19511 26.0587L9.27142 25.6771L11.9803 24.9904H12.5526V24.9141Z" fill="white"/>
<path d="M19.8398 37.0469C19.8016 37.2758 19.8016 37.5047 19.8016 37.6955C19.8016 39.2979 20.5265 40.061 21.9764 40.061C23.0447 40.061 24.0366 39.4124 24.9905 38.1533L25.2576 38.5349C24.6089 39.5268 23.9985 40.2518 23.388 40.6714C22.7776 41.1293 22.0527 41.3201 21.1751 41.3201C20.2594 41.3201 19.5345 41.053 19.0004 40.5188C18.5044 39.9847 18.2373 39.2598 18.2373 38.3059C18.2373 36.6653 18.8096 35.1773 19.9924 33.842C21.137 32.5066 22.4342 31.8198 23.8077 31.8198C24.3419 31.8198 24.7997 31.9724 25.1049 32.2395C25.4102 32.5066 25.5628 32.8881 25.5628 33.346C25.5628 34.1472 25.0286 34.8721 23.9985 35.5589C23.0065 36.3219 21.5948 36.7798 19.8398 37.0469ZM19.9542 36.589C22.6631 36.093 23.9985 35.1773 23.9985 33.8801C23.9985 33.613 23.884 33.3841 23.6551 33.1552C23.4262 32.9263 23.1591 32.8118 22.8539 32.8118C22.2053 32.8118 21.5567 33.1934 20.9844 33.9946C20.4121 34.7576 20.0687 35.6352 19.9542 36.589Z" fill="white"/>
<path d="M52.0418 25.7153V26.1732C51.4313 26.2495 50.8972 26.5547 50.4394 27.0889C49.9815 27.623 49.5618 28.4624 49.1803 29.607L45.2123 41.282H44.7545L40.2905 29.3399L36.2844 41.282H35.8647L31.1337 28.5768C30.7521 27.5849 30.4469 26.9362 30.1417 26.6692C29.8364 26.3639 29.3786 26.2113 28.73 26.1732V25.7153H35.2542V26.1732C34.6056 26.2876 34.2622 26.6692 34.2622 27.2415C34.2622 27.5085 34.3386 27.8519 34.453 28.2716L37.2001 35.5589L39.7945 27.8901C39.5274 27.2796 39.2604 26.8599 38.9933 26.631C38.7262 26.4021 38.2684 26.2495 37.6579 26.1732V25.7153H44.1059V26.1732C43.4573 26.3639 43.152 26.7073 43.152 27.2415C43.152 27.4322 43.1902 27.6612 43.3046 27.8901L46.1662 35.5589L48.2646 29.3399C48.5317 28.5387 48.6461 27.9664 48.6461 27.5467C48.6461 26.8218 48.1883 26.3639 47.3108 26.1732V25.7153H52.0418Z" fill="white"/>
<path d="M66.8832 38.2679V33.6895H59.4051V38.6113C59.4051 39.3362 59.5196 39.7941 59.7866 40.0993C60.0156 40.3664 60.5497 40.5953 61.3128 40.8242V41.282H54.0255V40.8242C54.5978 40.6716 54.9793 40.519 55.2464 40.3664C55.5134 40.2138 55.7042 39.9848 55.8187 39.7559C55.9331 39.4888 55.9713 39.031 55.9713 38.3061V28.348C55.9713 27.6612 55.8568 27.1652 55.5898 26.86C55.3227 26.5548 54.7885 26.3259 53.9873 26.1351V25.6772H61.2746V26.1351C60.5116 26.3259 60.0156 26.5548 59.7485 26.8219C59.4814 27.1271 59.367 27.5849 59.367 28.1954V32.5449H66.8451V28.348C66.8451 27.6612 66.7306 27.1652 66.4635 26.86C66.1964 26.5548 65.7005 26.3259 64.8992 26.1351V25.6772H72.2247V26.1351C71.3853 26.364 70.8512 26.5929 70.6223 26.86C70.3933 27.1271 70.2407 27.7375 70.2407 28.6532V38.6113C70.2407 39.2981 70.3552 39.7941 70.6223 40.0611C70.8893 40.3282 71.3853 40.5953 72.2247 40.7861V41.2439H64.8992V40.7861C65.6623 40.5953 66.1583 40.3664 66.4254 40.0611C66.7688 39.7941 66.8832 39.1836 66.8832 38.2679Z" fill="white"/>
<path d="M81.9159 25.7154V26.1732C81.1529 26.364 80.6187 26.5929 80.3517 26.86C80.0846 27.1652 79.9701 27.7375 79.9701 28.6532V38.6113C79.9701 39.2981 80.0846 39.7941 80.3517 40.0611C80.6187 40.3282 81.1147 40.5571 81.9159 40.7861V41.2439H74.5523V40.7861C75.0865 40.6334 75.5062 40.4808 75.7732 40.3282C76.0403 40.1756 76.2311 39.9467 76.3455 39.7178C76.46 39.4507 76.4981 38.9928 76.4981 38.2679V28.348C76.4981 27.6612 76.3837 27.1652 76.1166 26.86C75.8495 26.5929 75.3154 26.3259 74.5142 26.1351V25.6772H81.9159V25.7154Z" fill="white"/>
<path d="M94.2013 40.786V41.2439H86.914V40.786C87.6771 40.6334 88.2112 40.4045 88.4783 40.0993C88.7454 39.794 88.8598 39.2599 88.8598 38.4205V26.5929H87.2955C86.3417 26.5929 85.6168 26.7837 85.0445 27.2034C84.5103 27.6231 84.0906 28.2717 83.8236 29.1492H83.3657L83.5183 25.4102H84.0143C84.3577 25.6391 84.8537 25.7154 85.5405 25.7154H95.5749C96.2616 25.7154 96.7958 25.6009 97.101 25.4102H97.597L97.7496 29.1492H97.2918C97.0247 28.2717 96.605 27.6231 96.0709 27.2034C95.5367 26.7837 94.7736 26.5929 93.8198 26.5929H92.2555V38.4968C92.2555 39.2599 92.4081 39.794 92.6752 40.1374C92.9804 40.4427 93.4764 40.6716 94.2013 40.786Z" fill="white"/>
<path d="M109.195 31.0569H109.691V35.8642H109.195C109.005 34.5289 108.28 33.8803 107.059 33.8803H104.312V38.4587C104.312 39.1455 104.464 39.6414 104.808 39.9467C105.113 40.2138 105.685 40.3664 106.448 40.3664H107.364C108.89 40.3664 109.958 39.4125 110.645 37.4667H111.103L110.836 41.2439H99.0083V40.7861C99.7714 40.6334 100.306 40.4045 100.573 40.0611C100.84 39.7559 100.954 39.1455 100.954 38.2679V28.3098C100.954 27.5849 100.802 27.0889 100.573 26.7837C100.306 26.5166 99.8095 26.2877 99.0083 26.1351V25.6772H110.645V29.1111H110.187C109.92 28.0809 109.615 27.4323 109.233 27.0508C108.852 26.7074 108.241 26.5166 107.402 26.5166H104.388V32.9264H107.135C107.745 32.9264 108.241 32.7738 108.547 32.4686C108.814 32.2778 109.043 31.7818 109.195 31.0569Z" fill="white"/>
<path d="M152.271 41.6633V41.2055C153.568 41.091 154.255 40.4424 154.255 39.2215V28.6911C154.255 27.9662 154.102 27.4702 153.835 27.2031C153.568 26.9361 153.034 26.7071 152.271 26.5545V26.0967H159.673C161.619 26.0967 163.107 26.4401 164.137 27.1268C165.167 27.8136 165.701 28.7674 165.701 29.9883C165.701 30.8659 165.434 31.6289 164.9 32.2776C164.366 32.9262 163.564 33.384 162.572 33.6892V33.7274C162.954 33.8037 163.336 34.1089 163.755 34.6431C164.175 35.1391 164.785 36.1692 165.587 37.6572C166.388 39.107 166.96 40.0609 167.304 40.4424C167.647 40.824 168.143 41.091 168.791 41.1673V41.6252H164.289C163.717 40.9384 162.954 39.6793 162.038 37.848C161.39 36.5889 160.932 35.7495 160.627 35.3298C160.321 34.9101 160.016 34.6049 159.673 34.4523C159.329 34.2997 158.681 34.1852 157.689 34.1852V38.9544C157.689 39.6412 157.841 40.1372 158.147 40.4806C158.452 40.8239 158.948 41.0147 159.673 41.1292V41.587H152.271V41.6633ZM158.719 26.9742H157.651V33.3459C157.918 33.3459 158.185 33.384 158.414 33.384C159.635 33.384 160.55 33.1169 161.123 32.5828C161.695 32.0486 161.962 31.2093 161.962 30.0646C161.962 28.0044 160.894 26.9742 158.719 26.9742Z" fill="white"/>
<path d="M178.826 41.6636V41.2057C179.475 41.0913 179.933 40.9387 180.161 40.7479C180.429 40.5571 180.543 40.3282 180.543 39.9848C180.543 39.7178 180.428 39.3362 180.238 38.8021L179.322 36.3984H173.79L173.027 38.4587C172.836 38.9928 172.721 39.4125 172.721 39.7178C172.721 40.4045 173.256 40.9005 174.286 41.1676V41.6254H169.25V41.2057C169.86 41.0913 170.394 40.7861 170.814 40.2519C171.272 39.7178 171.691 38.8784 172.149 37.6575L176.613 25.6772H178.75L183.519 38.1535C183.939 39.2599 184.358 40.023 184.778 40.4808C185.198 40.9387 185.732 41.1676 186.419 41.2057V41.6636H178.826ZM174.324 35.2919H178.941L176.575 28.9966L174.324 35.2919Z" fill="white"/>
<path d="M196.949 41.6633H187.601V41.2055C188.402 41.0529 188.936 40.8239 189.165 40.4806C189.394 40.1753 189.547 39.6793 189.547 38.9926V28.6911C189.547 27.9662 189.394 27.4702 189.127 27.165C188.86 26.8597 188.326 26.669 187.601 26.5545V26.0967H195.804C197.483 26.0967 198.78 26.4019 199.734 27.0505C200.688 27.6991 201.146 28.5767 201.146 29.7594C201.146 31.5526 200.001 32.7736 197.712 33.4222V33.4603C200.65 33.9945 202.138 35.368 202.138 37.5427C202.138 38.7637 201.68 39.7556 200.726 40.5187C199.734 41.2818 198.513 41.6633 196.949 41.6633ZM192.943 26.9742V33.2314H194.202C195.194 33.2314 195.957 32.9643 196.529 32.392C197.101 31.8197 197.368 31.0566 197.368 30.0646C197.368 28.0044 196.224 26.9742 193.935 26.9742H192.943ZM194.812 34.1089H192.981V38.8781C192.981 39.5649 193.171 40.0609 193.515 40.3661C193.858 40.6713 194.431 40.7858 195.27 40.7858C196.262 40.7858 197.025 40.4806 197.559 39.9083C198.131 39.336 198.399 38.5347 198.399 37.5046C198.399 36.4744 198.093 35.6732 197.445 35.0628C196.796 34.4142 195.919 34.1089 194.812 34.1089Z" fill="white"/>
<path d="M213.279 41.6633H203.931V41.2055C204.732 41.0529 205.267 40.8239 205.495 40.4806C205.724 40.1753 205.877 39.6793 205.877 38.9926V28.6911C205.877 27.9662 205.724 27.4702 205.457 27.165C205.19 26.8597 204.656 26.669 203.931 26.5545V26.0967H212.134C213.813 26.0967 215.11 26.4019 216.064 27.0505C217.018 27.6991 217.476 28.5767 217.476 29.7594C217.476 31.5526 216.331 32.7736 214.042 33.4222V33.4603C216.98 33.9945 218.468 35.368 218.468 37.5427C218.468 38.7637 218.01 39.7556 217.056 40.5187C216.102 41.2818 214.843 41.6633 213.279 41.6633ZM209.311 26.9742V33.2314H210.57C211.562 33.2314 212.325 32.9643 212.897 32.392C213.47 31.8197 213.737 31.0566 213.737 30.0646C213.737 28.0044 212.592 26.9742 210.303 26.9742H209.311ZM211.142 34.1089H209.311V38.8781C209.311 39.5649 209.502 40.0609 209.845 40.3661C210.188 40.6713 210.761 40.7858 211.6 40.7858C212.592 40.7858 213.355 40.4806 213.889 39.9083C214.462 39.336 214.729 38.5347 214.729 37.5046C214.729 36.4744 214.423 35.6732 213.775 35.0628C213.126 34.4142 212.249 34.1089 211.142 34.1089Z" fill="white"/>
<path d="M227.166 26.0967V26.5546C226.403 26.7454 225.869 26.9743 225.602 27.2414C225.335 27.5466 225.221 28.1189 225.221 29.0346V38.9926C225.221 39.6794 225.335 40.1754 225.602 40.4425C225.869 40.7096 226.365 40.9385 227.166 41.1674V41.6252H219.803V41.2056C220.337 41.0529 220.757 40.9003 221.024 40.7477C221.291 40.5951 221.482 40.3662 221.596 40.1373C221.71 39.8702 221.749 39.4123 221.749 38.6874V28.7293C221.749 28.0426 221.634 27.5466 221.367 27.2414C221.1 26.9743 220.566 26.7072 219.765 26.5164V26.0586H227.166V26.0967Z" fill="white"/>
<path d="M239.452 41.2055V41.6634H232.165V41.2055C232.928 41.0529 233.462 40.824 233.729 40.5188C233.996 40.2135 234.11 39.6794 234.11 38.84V26.9743H232.546C231.592 26.9743 230.867 27.165 230.295 27.5847C229.761 28.0044 229.341 28.653 229.074 29.5306H228.616L228.769 25.7915H229.265C229.608 26.0204 230.104 26.0967 230.791 26.0967H240.825C241.512 26.0967 242.046 25.9823 242.352 25.7915H242.848L243 29.5306H242.542C242.275 28.653 241.856 28.0044 241.321 27.5847C240.787 27.165 240.024 26.9743 239.07 26.9743H237.506V38.8782C237.506 39.6412 237.659 40.1754 237.926 40.5188C238.231 40.824 238.727 41.0529 239.452 41.2055Z" fill="white"/>
<path d="M0.0761719 52.4229H0.724782V61.5416H0.0761719V52.4229Z" fill="white"/>
<path d="M11.4843 52.4229V61.5416H10.9502L4.73113 53.6438V61.5416H4.08252V52.4229H4.65482L10.8357 60.3206V52.4229H11.4843Z" fill="white"/>
<path d="M16.5586 52.9952H13.2773V52.3848H20.4884V52.9952H17.2072V61.5035H16.5586V52.9952Z" fill="white"/>
<path d="M28.6152 60.9311V61.5416H22.3198V52.4229H28.4244V53.0333H22.9684V56.6197H27.8521V57.192H22.9684V60.9311H28.6152Z" fill="white"/>
<path d="M37.6571 57.0014H38.3057V60.3971C37.9242 60.7786 37.4282 61.0838 36.8559 61.2746C36.2836 61.4654 35.6731 61.5798 35.0627 61.5798C34.147 61.5798 33.3457 61.3891 32.6208 60.9694C31.8959 60.5878 31.3236 60.0155 30.9039 59.3288C30.4842 58.642 30.2935 57.8408 30.2935 56.9633C30.2935 56.0857 30.4842 55.2845 30.9039 54.5977C31.3236 53.911 31.8959 53.3387 32.6208 52.9571C33.3457 52.5756 34.147 52.3467 35.0627 52.3467C35.7494 52.3467 36.3599 52.4611 36.894 52.6519C37.4663 52.8808 37.9242 53.1861 38.3439 53.5676L37.9242 54.0254C37.5426 53.6439 37.1229 53.3768 36.6269 53.1861C36.1691 53.0334 35.635 52.919 35.0627 52.919C34.2996 52.919 33.5747 53.1098 32.9642 53.4531C32.3537 53.7965 31.8578 54.2925 31.4762 54.903C31.1328 55.5134 30.9421 56.2002 30.9421 56.9633C30.9421 57.7263 31.1328 58.3749 31.4762 58.9854C31.8196 59.5959 32.3156 60.0918 32.9642 60.4352C33.5747 60.7786 34.2996 60.9694 35.0627 60.9694C36.0928 60.9694 36.9703 60.7023 37.6571 60.13V57.0014Z" fill="white"/>
<path d="M47.6918 61.5416L45.5171 58.4893C45.2118 58.5274 44.9066 58.5656 44.6395 58.5656H42.0451V61.5416H41.3965V52.4229H44.6777C45.8223 52.4229 46.738 52.6899 47.3866 53.2241C48.0352 53.7582 48.3786 54.5213 48.3786 55.4751C48.3786 56.2001 48.1878 56.8105 47.8063 57.3065C47.4247 57.8025 46.9288 58.1459 46.242 58.3367L48.5312 61.5416H47.6918ZM44.6395 57.9551C45.5934 57.9551 46.3564 57.7262 46.8524 57.3065C47.3484 56.8868 47.6155 56.2764 47.6155 55.4751C47.6155 54.6739 47.3484 54.0635 46.8524 53.6438C46.3564 53.2241 45.5934 52.9952 44.6395 52.9952H42.0451V57.9551H44.6395Z" fill="white"/>
<path d="M56.5434 58.9472H51.2782L50.1336 61.5035H49.4087L53.6056 52.3848H54.2542L58.4511 61.5035H57.7262L56.5434 58.9472ZM56.2763 58.413L53.8727 53.1478L51.5071 58.413H56.2763Z" fill="white"/>
<path d="M61.5415 52.9952H58.2603V52.3848H65.4713V52.9952H62.1901V61.5035H61.5415V52.9952Z" fill="white"/>
<path d="M73.56 60.9311V61.5416H67.2646V52.4229H73.3692V53.0333H67.9514V56.6197H72.7969V57.192H67.9514V60.9311H73.56Z" fill="white"/>
<path d="M76.1543 52.4229H79.7407C80.6946 52.4229 81.5339 52.6136 82.2589 52.9952C82.9838 53.3767 83.5561 53.9108 83.9758 54.5976C84.3955 55.2844 84.5862 56.0856 84.5862 56.9631C84.5862 57.8407 84.3955 58.6037 83.9758 59.3286C83.5561 60.0154 82.9838 60.5496 82.2589 60.9311C81.5339 61.3126 80.6946 61.5034 79.7407 61.5034H76.1543V52.4229ZM79.7026 60.9311C80.542 60.9311 81.2669 60.7785 81.9155 60.4351C82.5641 60.0917 83.0601 59.6339 83.4035 59.0234C83.7469 58.413 83.9376 57.7262 83.9376 56.9631C83.9376 56.2001 83.7469 55.5133 83.4035 54.9028C83.0601 54.2924 82.5641 53.8345 81.9155 53.4912C81.2669 53.1478 80.542 52.9952 79.7026 52.9952H76.8029V60.8929H79.7026V60.9311Z" fill="white"/>
<path d="M100.839 61.542V53.7586L97.0241 60.3592H96.6808L92.8654 53.7968V61.5801H92.2168V52.4614H92.7891L96.8715 59.4817L100.954 52.4614H101.488V61.5801H100.839V61.542Z" fill="white"/>
<path d="M110.455 58.9472H105.189L104.045 61.5035H103.32L107.517 52.3848H108.165L112.362 61.5035H111.637L110.455 58.9472ZM110.226 58.413L107.822 53.1478L105.456 58.413H110.226Z" fill="white"/>
<path d="M120.489 61.5416L118.314 58.4893C118.009 58.5274 117.703 58.5656 117.436 58.5656H114.842V61.5416H114.193V52.4229H117.475C118.619 52.4229 119.535 52.6899 120.183 53.2241C120.832 53.7582 121.175 54.5213 121.175 55.4751C121.175 56.2001 120.985 56.8105 120.603 57.3065C120.222 57.8025 119.726 58.1459 119.039 58.3367L121.328 61.5416H120.489ZM117.436 57.9551C118.39 57.9551 119.153 57.7262 119.649 57.3065C120.145 56.8868 120.412 56.2764 120.412 55.4751C120.412 54.6739 120.145 54.0635 119.649 53.6438C119.153 53.2241 118.39 52.9952 117.436 52.9952H114.842V57.9551H117.436Z" fill="white"/>
<path d="M126.403 57.0394L124.381 59.1379V61.5416H123.732V52.4229H124.381V58.2603L130.065 52.4229H130.867L126.861 56.5434L131.134 61.5034H130.333L126.403 57.0394Z" fill="white"/>
<path d="M139.299 60.9311V61.5416H133.003V52.4229H139.108V53.0333H133.69V56.6197H138.536V57.192H133.69V60.9311H139.299Z" fill="white"/>
<path d="M143.648 52.9952H140.367V52.3848H147.578V52.9952H144.297V61.5035H143.648V52.9952Z" fill="white"/>
<path d="M149.409 52.4229H150.058V61.5416H149.409V52.4229Z" fill="white"/>
<path d="M160.817 52.4229V61.5416H160.283L154.064 53.6438V61.5416H153.416V52.4229H153.988L160.169 60.3206V52.4229H160.817Z" fill="white"/>
<path d="M170.661 57.0014H171.31V60.3971C170.928 60.7786 170.432 61.0838 169.86 61.2746C169.287 61.4654 168.677 61.5798 168.067 61.5798C167.151 61.5798 166.35 61.3891 165.625 60.9694C164.9 60.5878 164.328 60.0155 163.908 59.3288C163.488 58.642 163.297 57.8408 163.297 56.9633C163.297 56.0857 163.488 55.2845 163.908 54.5977C164.328 53.911 164.9 53.3387 165.625 52.9571C166.35 52.5756 167.151 52.3467 168.067 52.3467C168.753 52.3467 169.364 52.4611 169.898 52.6519C170.47 52.8808 170.928 53.1861 171.348 53.5676L170.928 54.0254C170.547 53.6439 170.127 53.3768 169.631 53.1861C169.173 53.0334 168.639 52.919 168.067 52.919C167.303 52.919 166.579 53.1098 165.968 53.4531C165.358 53.7965 164.862 54.2925 164.48 54.903C164.099 55.5134 163.946 56.2002 163.946 56.9633C163.946 57.7263 164.137 58.3749 164.48 58.9854C164.824 59.5959 165.32 60.0918 165.968 60.4352C166.579 60.7786 167.303 60.9694 168.067 60.9694C169.097 60.9694 169.974 60.7023 170.661 60.13V57.0014Z" fill="white"/>
<path d="M180.008 61.2365C179.398 61.0076 178.94 60.7024 178.597 60.359L178.902 59.863C179.207 60.2064 179.665 60.4734 180.199 60.7024C180.733 60.9313 181.306 61.0076 181.916 61.0076C182.794 61.0076 183.442 60.855 183.862 60.5116C184.32 60.1682 184.51 59.7485 184.51 59.2144C184.51 58.7947 184.396 58.4895 184.167 58.2224C183.938 57.9935 183.633 57.8027 183.29 57.6501C182.946 57.5356 182.488 57.383 181.878 57.2304C181.191 57.0778 180.657 56.9252 180.275 56.7344C179.856 56.5818 179.512 56.3529 179.245 56.0095C178.978 55.6661 178.826 55.2464 178.826 54.7123C178.826 54.2544 178.94 53.8729 179.169 53.4913C179.398 53.1098 179.779 52.8427 180.237 52.6138C180.733 52.3849 181.306 52.3086 182.031 52.3086C182.527 52.3086 183.023 52.3849 183.519 52.5375C184.014 52.6901 184.434 52.8809 184.778 53.148L184.549 53.6821C184.167 53.415 183.786 53.2243 183.328 53.1098C182.908 52.9954 182.45 52.919 182.031 52.919C181.191 52.919 180.543 53.0717 180.123 53.415C179.703 53.7584 179.474 54.1781 179.474 54.7123C179.474 55.1319 179.589 55.4372 179.818 55.7043C180.047 55.9332 180.352 56.1239 180.695 56.2766C181.039 56.391 181.496 56.5436 182.107 56.6962C182.794 56.8489 183.29 57.0396 183.709 57.1922C184.091 57.3449 184.434 57.5738 184.739 57.9172C185.006 58.2224 185.159 58.6421 185.159 59.2144C185.159 59.6722 185.045 60.0537 184.816 60.4353C184.587 60.8168 184.205 61.0839 183.709 61.3128C183.213 61.5417 182.603 61.6562 181.878 61.6562C181.267 61.5799 180.619 61.4654 180.008 61.2365Z" fill="white"/>
<path d="M193.896 60.9311V61.5416H187.601V52.4229H193.706V53.0333H188.288V56.6197H193.133V57.192H188.288V60.9311H193.896Z" fill="white"/>
<path d="M202.824 61.5416L200.649 58.4893C200.344 58.5274 200.039 58.5656 199.772 58.5656H197.177V61.5416H196.491V52.4229H199.772C200.917 52.4229 201.832 52.6899 202.481 53.2241C203.129 53.7582 203.473 54.5213 203.473 55.4751C203.473 56.2001 203.282 56.8105 202.939 57.3065C202.557 57.8025 202.061 58.1459 201.374 58.3367L203.664 61.5416H202.824ZM199.772 57.9551C200.726 57.9551 201.489 57.7262 201.985 57.3065C202.481 56.8868 202.748 56.2764 202.748 55.4751C202.748 54.6739 202.481 54.0635 201.985 53.6438C201.489 53.2241 200.726 52.9952 199.772 52.9952H197.177V57.9551H199.772Z" fill="white"/>
<path d="M213.316 52.4229L209.272 61.5416H208.624L204.503 52.4229H205.228L208.891 60.664L212.553 52.4229H213.316Z" fill="white"/>
<path d="M214.957 52.4229H215.606V61.5416H214.957V52.4229Z" fill="white"/>
<path d="M220.375 61.0075C219.65 60.6259 219.077 60.0536 218.696 59.3669C218.276 58.6801 218.085 57.8789 218.085 57.0013C218.085 56.1238 218.276 55.3226 218.696 54.6358C219.116 53.9491 219.688 53.3768 220.375 52.9952C221.1 52.6137 221.901 52.3848 222.778 52.3848C223.427 52.3848 224.037 52.4992 224.61 52.69C225.182 52.9189 225.64 53.2241 226.021 53.6438L225.602 54.0635C224.877 53.3386 223.923 52.9952 222.817 52.9952C222.053 52.9952 221.367 53.186 220.718 53.5294C220.108 53.8728 219.612 54.3688 219.23 54.9792C218.849 55.5897 218.696 56.2764 218.696 57.0395C218.696 57.8026 218.887 58.4893 219.23 59.0998C219.573 59.7102 220.069 60.2062 220.718 60.5496C221.329 60.893 222.053 61.0838 222.817 61.0838C223.961 61.0838 224.877 60.7022 225.602 59.9773L226.021 60.397C225.64 60.8167 225.144 61.1219 224.61 61.3509C224.037 61.5798 223.427 61.6942 222.778 61.6942C221.901 61.5798 221.1 61.389 220.375 61.0075Z" fill="white"/>
<path d="M234.721 60.9311V61.5416H228.425V52.4229H234.53V53.0333H229.112V56.6197H233.958V57.192H229.112V60.9311H234.721Z" fill="white"/>
<path d="M237.811 61.2365C237.201 61.0076 236.743 60.7024 236.399 60.359L236.705 59.863C237.01 60.2064 237.468 60.4734 238.002 60.7024C238.536 60.9313 239.108 61.0076 239.719 61.0076C240.596 61.0076 241.245 60.855 241.665 60.5116C242.122 60.1682 242.313 59.7485 242.313 59.2144C242.313 58.7947 242.199 58.4895 241.97 58.2224C241.741 57.9935 241.436 57.8027 241.092 57.6501C240.749 57.5356 240.291 57.383 239.681 57.2304C238.994 57.0778 238.46 56.9252 238.078 56.7344C237.658 56.5818 237.315 56.3529 237.048 56.0095C236.781 55.6661 236.628 55.2464 236.628 54.7123C236.628 54.2544 236.743 53.8729 236.972 53.4913C237.201 53.1098 237.582 52.8427 238.04 52.6138C238.536 52.3849 239.108 52.3086 239.833 52.3086C240.329 52.3086 240.825 52.3849 241.321 52.5375C241.817 52.6901 242.237 52.8809 242.58 53.148L242.351 53.6821C241.97 53.415 241.588 53.2243 241.13 53.1098C240.711 52.9954 240.253 52.919 239.833 52.919C238.994 52.919 238.345 53.0717 237.926 53.415C237.506 53.7584 237.277 54.1781 237.277 54.7123C237.277 55.1319 237.391 55.4372 237.62 55.7043C237.849 55.9332 238.154 56.1239 238.498 56.2766C238.841 56.391 239.299 56.5436 239.91 56.6962C240.596 56.8489 241.13 57.0396 241.512 57.1922C241.894 57.3449 242.237 57.5738 242.542 57.9172C242.809 58.2224 242.962 58.6421 242.962 59.2144C242.962 59.6722 242.847 60.0537 242.618 60.4353C242.39 60.8168 242.008 61.0839 241.512 61.3128C241.016 61.5417 240.406 61.6562 239.681 61.6562C239.032 61.5799 238.383 61.4654 237.811 61.2365Z" fill="white"/>
<path d="M131.019 20.3739C131.057 20.2594 129.798 15.8718 129.646 12.705C129.493 9.5383 129.531 5.03618 130.103 4.65465C130.676 4.27311 131.706 6.79125 132.507 9.57646C133.346 12.3617 134.262 14.8035 135.33 16.4059C136.437 18.0084 137.276 19.4964 137.696 20.5265C138.116 21.5567 138.192 22.2053 138.078 22.129C137.963 22.0527 136.933 21.6711 135.75 21.3659C134.567 21.0607 132.698 20.8699 132.164 20.7554C131.668 20.6028 131.019 20.3739 131.019 20.3739Z" fill="white"/>
<path d="M135.674 32.545C135.789 32.545 135.865 32.4687 135.865 32.3924C135.865 32.278 135.789 32.2017 135.712 32.2017C135.598 32.2017 135.522 32.278 135.522 32.3543C135.483 32.4687 135.56 32.545 135.674 32.545Z" fill="white"/>
<path d="M136.819 32.3542C137.01 32.3542 137.162 32.2397 137.162 32.0489C137.162 31.8582 137.048 31.7056 136.857 31.7056C136.666 31.7056 136.514 31.82 136.514 32.0108C136.514 32.1634 136.628 32.3542 136.819 32.3542Z" fill="white"/>
<path d="M145.098 40.5572C144.983 39.9849 144.716 39.2219 144.602 38.9548C144.182 39.0311 143.763 38.9548 143.343 38.764C143.305 38.7259 143.228 38.6877 143.19 38.6877C143.152 38.6877 143.152 38.6877 143.152 38.6877C142.999 38.6114 142.351 38.6114 142.16 38.4206C142.084 38.4206 141.931 38.3825 141.893 38.3443C141.817 38.2299 141.893 38.1536 142.007 38.1154C142.198 38.001 142.503 38.001 142.732 38.0773C142.923 38.1154 143.114 38.1917 143.305 38.3062C143.381 38.3443 143.419 38.4206 143.495 38.497C143.839 38.6877 144.182 38.8785 144.64 38.8785C144.793 38.6877 145.136 38.1536 145.022 37.1616C144.907 35.9025 144.259 34.9487 144.068 34.2238C143.877 33.4607 143.495 33.6515 143.953 32.8121C144.411 31.9727 144.487 31.0952 144.335 30.5992C144.182 30.1032 144.526 28.5389 142.656 26.2497C140.787 23.9223 140.405 22.5106 135.56 21.7857C130.714 21.0608 129.836 21.0608 129.836 21.0608C129.836 21.0608 130.447 23.0448 130.561 23.5026C130.676 23.9604 130.981 25.2577 130.867 25.4103C130.79 25.5629 130.638 25.7537 130.409 24.6854C130.18 23.6171 129.798 22.0146 129.302 20.6792C128.806 19.3439 127.7 16.139 126.212 14.5747C124.686 13.0104 123.427 11.2553 121.557 9.08056C119.688 6.90581 118.238 4.6929 117.475 3.5483C116.712 2.40369 114.728 -1.06828 114.384 0.381554C114.041 1.83139 114.461 12.2473 115.529 15.4141C116.597 18.5426 118.352 23.1592 120.756 25.1432C123.121 27.1272 125.029 28.8823 125.067 29.8743C125.105 30.8662 123.617 32.1253 124.457 34.7961C125.296 37.4668 125.449 38.2299 127.509 39.6797C127.967 39.9849 128.349 40.2902 128.73 40.5572C131.515 39.9849 134.377 39.6797 137.2 39.6034C137.467 39.6034 137.162 39.756 137.048 39.756C134.3 39.7942 131.553 40.0994 128.883 40.6336C130.104 41.4729 131.096 42.0452 133.308 42.5031C136.208 43.1135 137.048 43.2661 138.154 43.8385C139.26 44.4108 140.634 45.4791 141.74 44.6397C142.847 43.8003 143.457 43.4951 143.343 43.0372C143.305 42.8846 143.305 42.732 143.343 42.6175C142.389 42.3123 141.168 42.5031 140.519 41.5874C140.405 41.4348 140.748 41.3585 140.863 41.3966C141.168 41.5492 141.511 41.74 141.855 41.8163C142.236 41.9308 142.58 41.8926 142.923 41.9308C143.228 41.9689 143.495 42.0834 143.724 42.1978C143.801 42.1215 143.915 42.0834 144.03 42.0071C144.64 41.6637 145.251 41.244 145.098 40.5572ZM122.244 14.3458C120.832 13.0104 119.306 11.7895 117.856 10.4922C117.131 9.84363 116.445 9.15687 115.796 8.47011C115.3 7.8978 114.804 7.3255 114.918 6.52428C114.957 6.37166 115.338 6.33351 115.3 6.48612C115.147 7.51627 116.178 8.35565 116.826 9.00426C117.513 9.69102 118.238 10.3396 118.963 10.9882C120.374 12.2092 121.824 13.3919 123.16 14.6891C125.716 17.131 127.891 20.1832 128.043 23.846C128.043 23.9986 127.662 24.0749 127.662 23.9604C127.471 20.0688 124.991 16.902 122.244 14.3458ZM137.658 38.6114C135.483 38.5351 133.27 38.4206 131.096 38.3443C130.828 38.3443 131.057 38.0773 131.248 38.0773C133.423 38.1536 135.636 38.268 137.811 38.3443C138.04 38.3825 137.811 38.6114 137.658 38.6114ZM138.612 37.8483C135.025 37.0853 131.363 36.6656 127.7 36.5511C127.433 36.5511 127.738 36.3604 127.853 36.3604C131.553 36.4748 135.216 36.9327 138.841 37.6957C139.07 37.6957 138.726 37.8865 138.612 37.8483ZM134.911 31.7056C134.949 31.4767 134.987 31.2859 135.102 31.1333C135.979 31.2096 136.819 31.4385 137.582 31.7819C137.582 31.8582 137.582 31.8964 137.582 31.9727C137.505 32.6976 136.857 33.2318 136.094 33.1555C135.331 33.0792 134.835 32.4305 134.911 31.7056ZM138.955 31.5149C138.497 31.7056 138.078 31.0952 137.811 30.8281C137.772 30.7899 137.811 30.7518 137.887 30.7136C136.933 30.065 135.788 29.8361 134.606 29.8361C134.339 29.8361 134.644 29.6835 134.758 29.6453C136.246 29.4927 137.734 29.9124 138.879 30.8662C139.108 31.0952 139.337 31.3622 138.955 31.5149Z" fill="white"/>
<path d="M126.631 40.977C126.402 41.0151 126.441 41.1677 126.669 41.0914C127.433 40.9006 128.157 40.748 128.921 40.5954C128.882 40.5573 128.806 40.5191 128.768 40.481C128.043 40.6336 127.356 40.7862 126.631 40.977Z" fill="white"/>
</g>
<defs>
<clipPath id="clip0">
<rect width="243" height="61.5798" fill="white"/>
</clipPath>
</defs>
</svg>
