<svg xmlns="http://www.w3.org/2000/svg" viewBox="0 0 77 80" id="el_eY68bCHLm">
    <style>
    @-webkit-keyframes kf_el_cFcueOUqvu_an_yHHhXVDb5 {
        0% {
            -webkit-transform: translate(38.890052165836096px, 40.47466924414039px) rotate(0deg) translate(-38.890052165836096px, -40.47466924414039px);
            transform: translate(38.890052165836096px, 40.47466924414039px) rotate(0deg) translate(-38.890052165836096px, -40.47466924414039px);
        }

        100% {
            -webkit-transform: translate(38.890052165836096px, 40.47466924414039px) rotate(180deg) translate(-38.890052165836096px, -40.47466924414039px);
            transform: translate(38.890052165836096px, 40.47466924414039px) rotate(180deg) translate(-38.890052165836096px, -40.47466924414039px);
        }
    }

    @keyframes kf_el_cFcueOUqvu_an_yHHhXVDb5 {
        0% {
            -webkit-transform: translate(38.890052165836096px, 40.47466924414039px) rotate(0deg) translate(-38.890052165836096px, -40.47466924414039px);
            transform: translate(38.890052165836096px, 40.47466924414039px) rotate(0deg) translate(-38.890052165836096px, -40.47466924414039px);
        }

        100% {
            -webkit-transform: translate(38.890052165836096px, 40.47466924414039px) rotate(180deg) translate(-38.890052165836096px, -40.47466924414039px);
            transform: translate(38.890052165836096px, 40.47466924414039px) rotate(180deg) translate(-38.890052165836096px, -40.47466924414039px);
        }
    }

    @-webkit-keyframes kf_el_kuoQLn5A6T_an_PSwzTdnTY {
        0% {
            -webkit-transform: translate(39.709999084472656px, 33.560001373291016px) translate(-39.709999084472656px, -33.560001373291016px) translate(0px, 0px);
            transform: translate(39.709999084472656px, 33.560001373291016px) translate(-39.709999084472656px, -33.560001373291016px) translate(0px, 0px);
        }

        25% {
            -webkit-transform: translate(39.709999084472656px, 33.560001373291016px) translate(-39.709999084472656px, -33.560001373291016px) translate(0px, 12px);
            transform: translate(39.709999084472656px, 33.560001373291016px) translate(-39.709999084472656px, -33.560001373291016px) translate(0px, 12px);
        }

        50% {
            -webkit-transform: translate(39.709999084472656px, 33.560001373291016px) translate(-39.709999084472656px, -33.560001373291016px) translate(0px, 0px);
            transform: translate(39.709999084472656px, 33.560001373291016px) translate(-39.709999084472656px, -33.560001373291016px) translate(0px, 0px);
        }

        75% {
            -webkit-transform: translate(39.709999084472656px, 33.560001373291016px) translate(-39.709999084472656px, -33.560001373291016px) translate(0px, 12px);
            transform: translate(39.709999084472656px, 33.560001373291016px) translate(-39.709999084472656px, -33.560001373291016px) translate(0px, 12px);
        }

        100% {
            -webkit-transform: translate(39.709999084472656px, 33.560001373291016px) translate(-39.709999084472656px, -33.560001373291016px) translate(0px, 0px);
            transform: translate(39.709999084472656px, 33.560001373291016px) translate(-39.709999084472656px, -33.560001373291016px) translate(0px, 0px);
        }
    }

    @keyframes kf_el_kuoQLn5A6T_an_PSwzTdnTY {
        0% {
            -webkit-transform: translate(39.709999084472656px, 33.560001373291016px) translate(-39.709999084472656px, -33.560001373291016px) translate(0px, 0px);
            transform: translate(39.709999084472656px, 33.560001373291016px) translate(-39.709999084472656px, -33.560001373291016px) translate(0px, 0px);
        }

        25% {
            -webkit-transform: translate(39.709999084472656px, 33.560001373291016px) translate(-39.709999084472656px, -33.560001373291016px) translate(0px, 12px);
            transform: translate(39.709999084472656px, 33.560001373291016px) translate(-39.709999084472656px, -33.560001373291016px) translate(0px, 12px);
        }

        50% {
            -webkit-transform: translate(39.709999084472656px, 33.560001373291016px) translate(-39.709999084472656px, -33.560001373291016px) translate(0px, 0px);
            transform: translate(39.709999084472656px, 33.560001373291016px) translate(-39.709999084472656px, -33.560001373291016px) translate(0px, 0px);
        }

        75% {
            -webkit-transform: translate(39.709999084472656px, 33.560001373291016px) translate(-39.709999084472656px, -33.560001373291016px) translate(0px, 12px);
            transform: translate(39.709999084472656px, 33.560001373291016px) translate(-39.709999084472656px, -33.560001373291016px) translate(0px, 12px);
        }

        100% {
            -webkit-transform: translate(39.709999084472656px, 33.560001373291016px) translate(-39.709999084472656px, -33.560001373291016px) translate(0px, 0px);
            transform: translate(39.709999084472656px, 33.560001373291016px) translate(-39.709999084472656px, -33.560001373291016px) translate(0px, 0px);
        }
    }

    #el_eY68bCHLm * {
        -webkit-animation-duration: 4s;
        animation-duration: 4s;
        -webkit-animation-iteration-count: infinite;
        animation-iteration-count: infinite;
        -webkit-animation-timing-function: cubic-bezier(0, 0, 1, 1);
        animation-timing-function: cubic-bezier(0, 0, 1, 1);
    }

    #el_cFcueOUqvu {
        fill: #b17742;
    }

    #el_3JRqF1xf1Y {
        fill: none;
        stroke: #b17742;
        stroke-width: 2px;
        stroke-miterlimit: 10;
    }

    #el_kuoQLn5A6T {
        fill: none;
        stroke: #b17742;
        stroke-width: 2px;
        stroke-linecap: round;
        stroke-linejoin: round;
    }

    #el_kuoQLn5A6T_an_PSwzTdnTY {
        -webkit-animation-fill-mode: backwards;
        animation-fill-mode: backwards;
        -webkit-transform: translate(39.709999084472656px, 33.560001373291016px) translate(-39.709999084472656px, -33.560001373291016px) translate(0px, 0px);
        transform: translate(39.709999084472656px, 33.560001373291016px) translate(-39.709999084472656px, -33.560001373291016px) translate(0px, 0px);
        -webkit-animation-name: kf_el_kuoQLn5A6T_an_PSwzTdnTY;
        animation-name: kf_el_kuoQLn5A6T_an_PSwzTdnTY;
        -webkit-animation-timing-function: cubic-bezier(0.42, 0, 0.58, 1);
        animation-timing-function: cubic-bezier(0.42, 0, 0.58, 1);
    }

    #el_cFcueOUqvu_an_yHHhXVDb5 {
        -webkit-animation-fill-mode: backwards;
        animation-fill-mode: backwards;
        -webkit-transform: translate(38.890052165836096px, 40.47466924414039px) rotate(0deg) translate(-38.890052165836096px, -40.47466924414039px);
        transform: translate(38.890052165836096px, 40.47466924414039px) rotate(0deg) translate(-38.890052165836096px, -40.47466924414039px);
        -webkit-animation-name: kf_el_cFcueOUqvu_an_yHHhXVDb5;
        animation-name: kf_el_cFcueOUqvu_an_yHHhXVDb5;
        -webkit-animation-timing-function: cubic-bezier(0, 0, 1, 1);
        animation-timing-function: cubic-bezier(0, 0, 1, 1);
    }
    </style>
    <defs />
    <title>SCROLL-OR-SWIPE</title>
    <g id="el_ptnsfh1jFx" data-name="Layer 2">
        <g id="el_uqo2cNFxjP" data-name="Layer 1">
            <g id="el_cFcueOUqvu_an_yHHhXVDb5" data-animator-group="true" data-animator-type="1">
                <path id="el_cFcueOUqvu" d="M41.79,79.83a.48.48,0,0,1,.09-.13.22.22,0,0,1,.14-.06.4.4,0,0,1,.23.07l.33.17a3.36,3.36,0,0,0,.48.16,2,2,0,0,0,.65,0,1.88,1.88,0,0,0,.62-.16,1.35,1.35,0,0,0,.42-.31,1.14,1.14,0,0,0,.24-.41,1.15,1.15,0,0,0,0-.49.89.89,0,0,0-.22-.53,1.4,1.4,0,0,0-.46-.32,2.91,2.91,0,0,0-.63-.2L43,77.48c-.24-.06-.48-.12-.72-.2a2.56,2.56,0,0,1-.64-.32,1.68,1.68,0,0,1-.48-.51,1.72,1.72,0,0,1-.25-.81,2.47,2.47,0,0,1,.07-1,2.27,2.27,0,0,1,1.2-1.45,2.78,2.78,0,0,1,1.09-.31,3.33,3.33,0,0,1,1.42.13,3.25,3.25,0,0,1,1.14.63l-.25.54a.48.48,0,0,1-.09.11.24.24,0,0,1-.14,0,.3.3,0,0,1-.17,0L45,74.2a2.32,2.32,0,0,0-.28-.16,2.43,2.43,0,0,0-.36-.16,2.6,2.6,0,0,0-.44-.1,2.52,2.52,0,0,0-.55,0,2.13,2.13,0,0,0-.66.18,1.39,1.39,0,0,0-.47.34,1.37,1.37,0,0,0-.27.49,1.44,1.44,0,0,0,0,.59,1,1,0,0,0,.22.57,1.29,1.29,0,0,0,.46.33,2.91,2.91,0,0,0,.63.2l.71.15q.38.08.72.18a2.26,2.26,0,0,1,.64.32,1.7,1.7,0,0,1,.49.54,2.35,2.35,0,0,1,.18,1.68,2,2,0,0,1-.4.74,2.23,2.23,0,0,1-.71.56,2.78,2.78,0,0,1-1,.29,3.25,3.25,0,0,1-1.22-.08,2.81,2.81,0,0,1-1-.5Zm-8-5.42a.24.24,0,0,1-.15-.09l-.38-.49a3.34,3.34,0,0,1,1.25-.76,4,4,0,0,1,1.69-.16,3.8,3.8,0,0,1,1.51.43,3.43,3.43,0,0,1,1.1.93,3.58,3.58,0,0,1,.64,1.33,4.52,4.52,0,0,1,.12,1.66,4.35,4.35,0,0,1-.43,1.6,3.86,3.86,0,0,1-.9,1.2,3.53,3.53,0,0,1-1.29.71,4.08,4.08,0,0,1-1.58.15,3.78,3.78,0,0,1-1.46-.4,3.94,3.94,0,0,1-1.06-.83l.4-.46a.24.24,0,0,1,.09-.08.29.29,0,0,1,.14,0,.46.46,0,0,1,.23.13l.35.28a3.58,3.58,0,0,0,.56.29,2.93,2.93,0,0,0,.84.18,2.81,2.81,0,0,0,1.13-.11,2.49,2.49,0,0,0,.92-.53,2.75,2.75,0,0,0,.66-.92,4.26,4.26,0,0,0,.23-2.61,3,3,0,0,0-.49-1,2.61,2.61,0,0,0-.8-.68A2.84,2.84,0,0,0,36,73.81a4.5,4.5,0,0,0-.63,0,2.18,2.18,0,0,0-.53.08,1.91,1.91,0,0,0-.47.18,4.54,4.54,0,0,0-.44.28A.3.3,0,0,1,33.76,74.41Zm-3.34.85,1-3.13,1,.32L30.06,80l-2.13-.66a4.63,4.63,0,0,1-1.18-.54,2.41,2.41,0,0,1-.73-.68,1.69,1.69,0,0,1-.29-.82,2.22,2.22,0,0,1,.1-.91,2.63,2.63,0,0,1,.36-.71,2.47,2.47,0,0,1,.56-.51,2.43,2.43,0,0,1,.74-.29,3.1,3.1,0,0,1,.87,0,1.22,1.22,0,0,1-.24-.43L26.87,70.7l.9.28a.48.48,0,0,1,.34.35l1.11,3.3a.68.68,0,0,0,.13.24.83.83,0,0,0,.3.15Zm-.23.74-1.07-.33a2.76,2.76,0,0,0-.81-.14,1.53,1.53,0,0,0-.66.13,1.28,1.28,0,0,0-.5.36,1.67,1.67,0,0,0-.3.56A1.29,1.29,0,0,0,27,77.74a2.21,2.21,0,0,0,1.22.75l1.11.35ZM18,70.08a4.39,4.39,0,0,1,1.07-1.25,3.68,3.68,0,0,1,1.33-.69,3.5,3.5,0,0,1,1.48-.08,4.44,4.44,0,0,1,2.72,1.62A3.51,3.51,0,0,1,25.22,71a3.77,3.77,0,0,1,0,1.5,4.57,4.57,0,0,1-.59,1.54,4.68,4.68,0,0,1-1.07,1.25,3.73,3.73,0,0,1-1.34.69,3.66,3.66,0,0,1-1.48.09,4.16,4.16,0,0,1-1.51-.56,3.93,3.93,0,0,1-1.21-1.07,3.51,3.51,0,0,1-.63-1.34,3.77,3.77,0,0,1,0-1.5A4.52,4.52,0,0,1,18,70.08Zm.94.56a3.8,3.8,0,0,0-.5,1.22,2.7,2.7,0,0,0,0,1.13,2.43,2.43,0,0,0,.44,1,3.13,3.13,0,0,0,2,1.18,2.4,2.4,0,0,0,1.07-.07,2.87,2.87,0,0,0,1-.55,4.49,4.49,0,0,0,1.33-2.24,2.83,2.83,0,0,0,0-1.12,2.57,2.57,0,0,0-.45-1,3.25,3.25,0,0,0-2-1.18,2.41,2.41,0,0,0-1.07.07,2.92,2.92,0,0,0-1,.55A3.73,3.73,0,0,0,18.93,70.64Zm-1.15-4.93-2.49-2.33.61-.65,3.26,3.05-5.38,5.76L13,70.81Zm-3.83-4L11.89,59l.71-.54L15.31,62,9,66.73l-.64-.84ZM9.49,60.27,8.12,57.92l.72-.41,1.37,2.35Zm-5-11A4.52,4.52,0,0,1,6.09,49a3.55,3.55,0,0,1,1.46.33,3.51,3.51,0,0,1,1.18.89,4.43,4.43,0,0,1,1,3,3.66,3.66,0,0,1-.38,1.43,3.74,3.74,0,0,1-1,1.16,4.47,4.47,0,0,1-1.44.8,4.52,4.52,0,0,1-1.63.26,3.6,3.6,0,0,1-1.47-.33,3.47,3.47,0,0,1-1.18-.89,3.92,3.92,0,0,1-.8-1.4,4.08,4.08,0,0,1-.24-1.59,3.51,3.51,0,0,1,.39-1.44A3.6,3.6,0,0,1,3,50,4.55,4.55,0,0,1,4.46,49.24Zm.36,1a4,4,0,0,0-1.17.61,2.69,2.69,0,0,0-.74.85,2.41,2.41,0,0,0-.29,1A3.18,3.18,0,0,0,3.37,55a2.43,2.43,0,0,0,.87.63,2.64,2.64,0,0,0,1.1.22,4,4,0,0,0,1.3-.24A4,4,0,0,0,7.81,55a2.9,2.9,0,0,0,.73-.85,2.45,2.45,0,0,0,.29-1,3.15,3.15,0,0,0-.17-1.15,3,3,0,0,0-.58-1,2.56,2.56,0,0,0-.87-.63A2.77,2.77,0,0,0,6.11,50,3.89,3.89,0,0,0,4.82,50.28ZM4.71,46,8,45.67l.1,1.06-7.84.76L0,45.27a4.59,4.59,0,0,1,0-1.3A2.39,2.39,0,0,1,.41,43,1.6,1.6,0,0,1,1,42.45a2.26,2.26,0,0,1,.89-.26,2.31,2.31,0,0,1,.79.05,2.12,2.12,0,0,1,.68.32,2.44,2.44,0,0,1,.55.56,3.06,3.06,0,0,1,.39.79,1.14,1.14,0,0,1,.3-.39l2.89-2.59.09.94a.46.46,0,0,1-.18.45L4.83,44.63a.57.57,0,0,0-.17.22.7.7,0,0,0,0,.34Zm-.77.08L3.83,45a2.54,2.54,0,0,0-.19-.8,1.52,1.52,0,0,0-.37-.56,1.24,1.24,0,0,0-.53-.31,1.35,1.35,0,0,0-.64-.06,1.25,1.25,0,0,0-1,.56,2.22,2.22,0,0,0-.22,1.41L1,46.35Zm0-5.91.18-2.71.83,0-.18,2.71ZM2.4,30.83a.41.41,0,0,1,.1.14.22.22,0,0,1,0,.14.39.39,0,0,1-.14.2,3.12,3.12,0,0,0-.27.26,2.77,2.77,0,0,0-.3.4,2.16,2.16,0,0,0-.23.61,2.06,2.06,0,0,0,0,.64,1.28,1.28,0,0,0,.16.5,1,1,0,0,0,.32.36,1.3,1.3,0,0,0,.45.19.91.91,0,0,0,.57,0,1.41,1.41,0,0,0,.45-.34,3.16,3.16,0,0,0,.39-.53c.12-.21.25-.42.38-.63s.27-.42.41-.62a2.46,2.46,0,0,1,.51-.51,1.56,1.56,0,0,1,.64-.29,1.72,1.72,0,0,1,.84,0,2.55,2.55,0,0,1,.91.38,2.22,2.22,0,0,1,.66.67,2.31,2.31,0,0,1,.34.92,3.18,3.18,0,0,1-.05,1.14A3.32,3.32,0,0,1,7,36.63l-.43-.41a.54.54,0,0,1-.07-.13.23.23,0,0,1,0-.14.3.3,0,0,1,.09-.15,1.72,1.72,0,0,1,.19-.17L7,35.41a1.48,1.48,0,0,0,.26-.29,2.37,2.37,0,0,0,.24-.39,2.27,2.27,0,0,0,.17-.52,2,2,0,0,0,0-.68A1.24,1.24,0,0,0,7.51,33a1.32,1.32,0,0,0-.37-.41,1.43,1.43,0,0,0-.55-.23,1,1,0,0,0-.61,0,1.23,1.23,0,0,0-.46.33,2.89,2.89,0,0,0-.39.54q-.18.3-.36.63c-.13.21-.26.42-.41.62a2,2,0,0,1-.5.5,1.75,1.75,0,0,1-.67.29,1.94,1.94,0,0,1-.89,0,2.07,2.07,0,0,1-.76-.33A2,2,0,0,1,1,34.31a2.11,2.11,0,0,1-.31-.85,2.75,2.75,0,0,1,0-1.06,3.23,3.23,0,0,1,.47-1.12A2.78,2.78,0,0,1,2,30.47Zm-.67-3.06L2.14,27a.43.43,0,0,1,.17-.18.35.35,0,0,1,.22,0l5.62,1.08.31.08.35.1-.28-.23-.24-.23-4-4.17a.35.35,0,0,1-.1-.19.41.41,0,0,1,0-.24l.14-.28a.4.4,0,0,1,.17-.17.42.42,0,0,1,.22,0l5.72.87.31.07a2.14,2.14,0,0,1,.34.09l-.27-.22-.24-.2-4.12-4a.38.38,0,0,1-.1-.2.41.41,0,0,1,0-.24L6.82,18l5.86,5.81-.44.85L6,23.62a4.18,4.18,0,0,1-.41-.08l.17.14.14.13,4.41,4.55-.44.85Zm13.7-7.44-.68.82-6.06-5,.68-.82Zm0-4.31,2,2.19-.79.71-5.27-5.86,1.73-1.56a4.44,4.44,0,0,1,1.08-.74,2.63,2.63,0,0,1,1-.25,2,2,0,0,1,.92.22,2.58,2.58,0,0,1,.8.62,2.62,2.62,0,0,1,.53.88,2.09,2.09,0,0,1,.11,1,2.7,2.7,0,0,1-.34,1,4.17,4.17,0,0,1-.81,1Zm-.56-.63.94-.85a2.49,2.49,0,0,0,.52-.63,1.61,1.61,0,0,0,.21-.64,1.48,1.48,0,0,0-.08-.63,1.8,1.8,0,0,0-.36-.58A1.49,1.49,0,0,0,15,11.5a2.06,2.06,0,0,0-1.33.63l-.94.84Zm6.7-9.83.44.75L18.75,8.25,20.1,10.5l2.63-1.58.43.72-2.63,1.58,1.38,2.3,3.25-1.94.44.74-4.16,2.5L17.39,8.05ZM36,1.13a.56.56,0,0,1-.09.14.22.22,0,0,1-.14.05.35.35,0,0,1-.23-.07l-.33-.17a2.48,2.48,0,0,0-.48-.15,1.7,1.7,0,0,0-.65,0,2.16,2.16,0,0,0-.62.16,1.53,1.53,0,0,0-.42.31,1.1,1.1,0,0,0-.24.42,1.3,1.3,0,0,0,0,.49A.88.88,0,0,0,33,2.8a1.37,1.37,0,0,0,.47.33,3.11,3.11,0,0,0,.63.2l.71.16c.24,0,.48.12.72.19a2.74,2.74,0,0,1,.64.32,1.88,1.88,0,0,1,.49.52,1.84,1.84,0,0,1,.24.8,2.53,2.53,0,0,1-.07,1,2.13,2.13,0,0,1-.43.83,2.39,2.39,0,0,1-.77.62,3.17,3.17,0,0,1-1.09.31,3.5,3.5,0,0,1-1.42-.13A3.34,3.34,0,0,1,32,7.31l.25-.54a.35.35,0,0,1,.1-.11.26.26,0,0,1,.13-.06.41.41,0,0,1,.17,0l.22.12c.08.06.18.11.28.17a1.94,1.94,0,0,0,.36.15,1.89,1.89,0,0,0,.44.1,2.52,2.52,0,0,0,.55,0A1.88,1.88,0,0,0,35.14,7a1.41,1.41,0,0,0,.47-.35,1.27,1.27,0,0,0,.27-.48,1.68,1.68,0,0,0,0-.6A1,1,0,0,0,35.7,5a1.29,1.29,0,0,0-.46-.33,3.58,3.58,0,0,0-.63-.2l-.71-.14a5.86,5.86,0,0,1-.72-.19,2,2,0,0,1-.64-.32,1.71,1.71,0,0,1-.49-.54,2,2,0,0,1-.25-.85,2.11,2.11,0,0,1,.07-.83,2.06,2.06,0,0,1,.4-.74A2.38,2.38,0,0,1,33,.31,2.83,2.83,0,0,1,34,0,3.44,3.44,0,0,1,35.21.1a2.94,2.94,0,0,1,1,.5Zm8,5.43a.19.19,0,0,1,.15.08l.38.49a3.36,3.36,0,0,1-1.25.77,4.11,4.11,0,0,1-1.69.16,4,4,0,0,1-1.51-.43A3.43,3.43,0,0,1,39,6.7a3.7,3.7,0,0,1-.64-1.34,4.48,4.48,0,0,1-.12-1.65,4.5,4.5,0,0,1,.43-1.6,3.64,3.64,0,0,1,.9-1.2A3.39,3.39,0,0,1,40.89.2,3.93,3.93,0,0,1,42.47,0a4,4,0,0,1,1.46.41A3.75,3.75,0,0,1,45,1.28l-.39.45a.28.28,0,0,1-.1.09.2.2,0,0,1-.14,0,.46.46,0,0,1-.23-.13,4.4,4.4,0,0,0-.35-.27A2.94,2.94,0,0,0,42.39,1a3,3,0,0,0-1.14.11,2.57,2.57,0,0,0-.92.53,2.9,2.9,0,0,0-.66.93,4.07,4.07,0,0,0-.32,1.28,4.08,4.08,0,0,0,.09,1.33,3,3,0,0,0,.49,1,2.31,2.31,0,0,0,.81.68,2.57,2.57,0,0,0,1,.31,4.61,4.61,0,0,0,.63,0A3.05,3.05,0,0,0,43,7.09a2.62,2.62,0,0,0,.46-.19,3.19,3.19,0,0,0,.44-.28A.24.24,0,0,1,44.05,6.56Zm3.34-.86-1,3.14-1-.32L47.75,1l2.13.67a5.3,5.3,0,0,1,1.19.53,2.51,2.51,0,0,1,.72.69,1.74,1.74,0,0,1,.3.81,2.49,2.49,0,0,1-.11.92,2.57,2.57,0,0,1-.36.7,2.08,2.08,0,0,1-.56.51,2.48,2.48,0,0,1-.73.29,3.09,3.09,0,0,1-.87,0,1.22,1.22,0,0,1,.23.42L51,10.27,50,10a.47.47,0,0,1-.34-.34l-1.11-3.3a.55.55,0,0,0-.13-.24.82.82,0,0,0-.3-.16ZM47.62,5l1.07.34a2.48,2.48,0,0,0,.81.13,1.78,1.78,0,0,0,.67-.12A1.45,1.45,0,0,0,50.66,5a1.72,1.72,0,0,0,.3-.57,1.27,1.27,0,0,0-.12-1.15,2.28,2.28,0,0,0-1.21-.76l-1.12-.35Zm12.21,5.93a4.71,4.71,0,0,1-1.08,1.25,3.61,3.61,0,0,1-1.33.69,3.5,3.5,0,0,1-1.48.08,4.4,4.4,0,0,1-2.72-1.63A3.47,3.47,0,0,1,52.59,10a3.77,3.77,0,0,1,0-1.5,4.5,4.5,0,0,1,.59-1.54,4.58,4.58,0,0,1,1.07-1.26A4.07,4.07,0,0,1,55.56,5,3.5,3.5,0,0,1,57,4.88a4.13,4.13,0,0,1,1.51.55A4.21,4.21,0,0,1,59.76,6.5a3.55,3.55,0,0,1,.63,1.35,3.77,3.77,0,0,1,0,1.5A4.57,4.57,0,0,1,59.83,10.89Zm-.94-.56a4.21,4.21,0,0,0,.49-1.22A2.7,2.7,0,0,0,59.4,8,2.47,2.47,0,0,0,59,7a2.88,2.88,0,0,0-.88-.77A3,3,0,0,0,57,5.82a2.4,2.4,0,0,0-1.07.08,2.57,2.57,0,0,0-1,.55,3.84,3.84,0,0,0-.83,1,4,4,0,0,0-.5,1.22,2.69,2.69,0,0,0,0,1.13,2.37,2.37,0,0,0,.44,1A3.13,3.13,0,0,0,56,12a2.27,2.27,0,0,0,1.07-.07,2.76,2.76,0,0,0,1-.55A4.07,4.07,0,0,0,58.89,10.33ZM60,15.25l2.48,2.33-.61.66-3.26-3.06L64,9.43l.77.72Zm3.82,4.05L65.92,22l-.71.54L62.5,19l6.28-4.77.64.84Zm4.46,1.39L69.69,23l-.72.42L67.6,21.11Zm5,11a4.76,4.76,0,0,1-1.63.27,3.77,3.77,0,0,1-1.46-.34,3.38,3.38,0,0,1-1.18-.89,4.17,4.17,0,0,1-.8-1.4A4.11,4.11,0,0,1,68,27.77a3.42,3.42,0,0,1,.39-1.43,3.6,3.6,0,0,1,.94-1.17,4.56,4.56,0,0,1,1.44-.79,4.36,4.36,0,0,1,1.63-.27,4,4,0,0,1,1.47.33,3.65,3.65,0,0,1,1.19.89,4.44,4.44,0,0,1,1,3,3.5,3.5,0,0,1-.39,1.43,3.74,3.74,0,0,1-.94,1.17A4.7,4.7,0,0,1,73.35,31.72Zm-.36-1a4,4,0,0,0,1.17-.62,2.77,2.77,0,0,0,.74-.84,2.45,2.45,0,0,0,.29-1A3.13,3.13,0,0,0,74.44,26a2.58,2.58,0,0,0-.87-.64,2.8,2.8,0,0,0-1.1-.21,4,4,0,0,0-1.3.24A3.64,3.64,0,0,0,70,26a2.69,2.69,0,0,0-.74.85,2.45,2.45,0,0,0-.29,1,3,3,0,0,0,.18,1.16,3,3,0,0,0,.57,1,2.43,2.43,0,0,0,.87.63,2.77,2.77,0,0,0,1.1.21A3.83,3.83,0,0,0,73,30.69ZM73.1,35l-3.28.32-.1-1.06,7.85-.76.21,2.22a4.58,4.58,0,0,1,0,1.3,2.49,2.49,0,0,1-.34.94,1.81,1.81,0,0,1-.64.59,2.44,2.44,0,0,1-.88.26,2.54,2.54,0,0,1-.79-.06,2,2,0,0,1-.69-.32,2.26,2.26,0,0,1-.55-.56,2.58,2.58,0,0,1-.38-.78,1.4,1.4,0,0,1-.3.38L70.28,40l-.09-.94a.47.47,0,0,1,.18-.45L73,36.33a.63.63,0,0,0,.17-.21.84.84,0,0,0,0-.34Zm.77-.07L74,36a2.68,2.68,0,0,0,.19.8,1.76,1.76,0,0,0,.37.56,1.42,1.42,0,0,0,.53.31,1.68,1.68,0,0,0,.64.06,1.26,1.26,0,0,0,1-.56,2.24,2.24,0,0,0,.22-1.42l-.11-1.16Zm0,5.91-.18,2.71-.83-.06L73,40.75Zm1.58,9.32a.38.38,0,0,1-.1-.13.25.25,0,0,1,0-.15.44.44,0,0,1,.14-.19,3.42,3.42,0,0,0,.27-.27A2.31,2.31,0,0,0,76,49a1.81,1.81,0,0,0,.23-.61,2,2,0,0,0,0-.64,1.34,1.34,0,0,0-.16-.5,1,1,0,0,0-.31-.35,1.51,1.51,0,0,0-.45-.2.89.89,0,0,0-.57.05,1.31,1.31,0,0,0-.46.33,3.26,3.26,0,0,0-.39.54l-.38.62a6.65,6.65,0,0,1-.41.62,2.46,2.46,0,0,1-.51.51,1.72,1.72,0,0,1-.64.3,1.85,1.85,0,0,1-.84,0,2.55,2.55,0,0,1-.91-.38,2.34,2.34,0,0,1-.66-.67,2.52,2.52,0,0,1-.34-.93,3.13,3.13,0,0,1,0-1.13,3.32,3.32,0,0,1,.58-1.31,3.21,3.21,0,0,1,1-.88l.43.41a.29.29,0,0,1,.07.12.26.26,0,0,1,0,.15.28.28,0,0,1-.09.14,1.49,1.49,0,0,1-.18.17l-.25.22a1.84,1.84,0,0,0-.26.29,2.36,2.36,0,0,0-.23.39,1.87,1.87,0,0,0-.18.52,2,2,0,0,0,0,.68,1.31,1.31,0,0,0,.55,1,1.61,1.61,0,0,0,.55.24,1,1,0,0,0,.61,0,1.52,1.52,0,0,0,.47-.34,3.81,3.81,0,0,0,.38-.53L73,47.1a6.65,6.65,0,0,1,.41-.62A2.2,2.2,0,0,1,74,46a1.75,1.75,0,0,1,.67-.29,2.14,2.14,0,0,1,.9,0,2.1,2.1,0,0,1,.75.33,2.25,2.25,0,0,1,.58.61,2.32,2.32,0,0,1,.3.85,2.75,2.75,0,0,1,0,1.06,3.29,3.29,0,0,1-.47,1.13,2.74,2.74,0,0,1-.79.8Zm.67,3.07-.41.79a.35.35,0,0,1-.17.17.29.29,0,0,1-.22,0l-5.61-1.07L69.35,53,69,52.93l.28.24a2.66,2.66,0,0,1,.24.23l4,4.16a.39.39,0,0,1,.1.19.36.36,0,0,1,0,.25l-.14.27a.37.37,0,0,1-.17.18.41.41,0,0,1-.22,0l-5.72-.88L67,57.54l-.34-.09.27.21.24.21,4.12,4a.39.39,0,0,1,.1.19.41.41,0,0,1,0,.24L71,63,65.13,57.2l.44-.85,6.25,1,.41.09-.17-.15a.86.86,0,0,1-.14-.13l-4.41-4.54.44-.85Zm-13.7,7.44.68-.82,6.06,5-.68.82Zm0,4.31-2-2.19.78-.71,5.27,5.86-1.72,1.55a4.38,4.38,0,0,1-1.09.74,2.46,2.46,0,0,1-1,.25,2.1,2.1,0,0,1-.92-.21,2.59,2.59,0,0,1-.8-.63,2.44,2.44,0,0,1-.53-.88,2.09,2.09,0,0,1-.11-1,2.6,2.6,0,0,1,.34-1,3.85,3.85,0,0,1,.82-1Zm.56.63-.94.84a2.89,2.89,0,0,0-.52.63,1.83,1.83,0,0,0-.21.65,1.46,1.46,0,0,0,.08.62,1.87,1.87,0,0,0,.36.58,1.54,1.54,0,0,0,1.13.57,2.06,2.06,0,0,0,1.33-.63l.94-.85Zm-6.7,9.82-.44-.74,3.25-2-1.34-2.24L55.08,72l-.43-.72,2.64-1.57-1.38-2.31-3.26,2-.44-.75,4.16-2.49,4.05,6.76Z" />
            </g>
            <rect id="el_3JRqF1xf1Y" x="28.71" y="24.5" width="22" height="33.35" rx="11" />
            <g id="el_kuoQLn5A6T_an_PSwzTdnTY" data-animator-group="true" data-animator-type="0">
                <line id="el_kuoQLn5A6T" x1="39.71" y1="33.56" x2="39.71" y2="38.07" />
            </g>
        </g>
    </g>
</svg>